<svg xmlns="http://www.w3.org/2000/svg" xml:space="preserve" overflow="hidden" viewBox="0 0 1450 595">
  <script type="text/ecmascript" href="../../../scripts/color.js"/>
  <path d="M1113.63 302.5h320.74c6.08 0 9.13-4.14 9.13-12.42V22.917c0-8.278-3.05-12.417-9.13-12.417h-320.74c-6.08 0-9.13 4.139-9.13 12.417V290.08c0 8.28 3.05 12.42 9.13 12.42Z" stroke="var(--secondary-color)" stroke-width="5" stroke-miterlimit="8" stroke-opacity=".8" fill="none" fill-rule="evenodd" fill-opacity=".8"/>
  <path d="m74 507 746-4.14L605.87 285 74 507Z" fill="var(--secondary-color)" fill-rule="evenodd" fill-opacity=".251"/>
  <path d="M604 284.61 822.55 503 835 22 604 284.61Z" fill="var(--secondary-color)" fill-rule="evenodd" fill-opacity=".251"/>
  <path d="m74 507.84 530.91-222.52L833 22 521.03 573 74 507.84Z" fill="#00B0F0" fill-rule="evenodd" fill-opacity=".251"/>
  <path d="m605.5 285.5-85 289" stroke="#4E95D9" stroke-width="7" stroke-linecap="square" stroke-linejoin="round" stroke-miterlimit="10" fill="none"/>
  <path fill="none" stroke="#47D45A" stroke-linecap="square" stroke-linejoin="round" stroke-miterlimit="10" stroke-width="7" d="m73.5 508.5-64-378M832.5 23.5l-823 107"/>
  <path d="M73 506.37 521.44 574 820 504l-747 2.37Z" fill="var(--secondary-color)" fill-rule="evenodd" fill-opacity=".251"/>
  <path d="m73.5 508.5 447 66M832.5 23.5l-312 551M605.5 285.5l227-262M605.5 285.5l-532 223" stroke="#4E95D9" stroke-width="7" stroke-linecap="square" stroke-linejoin="round" stroke-miterlimit="10" fill="none"/>
  <path d="M819.62 518.08c4.37 0 8.57-1.74 11.66-4.83 3.1-3.09 4.84-7.29 4.84-11.67a16.51 16.51 0 0 0-16.5-16.5c-4.38 0-8.58 1.74-11.67 4.83a16.5 16.5 0 0 0-4.83 11.67c0 4.38 1.73 8.58 4.83 11.67 3.09 3.09 7.29 4.83 11.67 4.83Z" fill="var(--secondary-color)" fill-rule="evenodd"/>
  <path d="M1122.5 47.5h91" stroke="#47D45A" stroke-width="7" stroke-linecap="square" stroke-linejoin="round" stroke-miterlimit="10" fill="none"/>
  <path d="M1122.5 114.5h91" stroke="#4E95D9" stroke-width="7" stroke-linecap="square" stroke-linejoin="round" stroke-miterlimit="10" fill="none"/>
  <path d="M1168.11 269.03c4.24 0 8.31-1.69 11.31-4.69 3-3 4.69-7.07 4.69-11.31s-1.69-8.31-4.69-11.31c-3-3-7.07-4.69-11.31-4.69s-8.31 1.69-11.32 4.69c-3 3-4.68 7.07-4.68 11.31s1.68 8.31 4.68 11.31c3.01 3 7.08 4.69 11.32 4.69Z" fill="var(--secondary-color)" fill-rule="evenodd"/>
  <path d="m835.86 24.5-12.365 478.675M605.5 285.5l217.64 217.14M74.5 507.27l748.839-4.768M519.5 576.2l303.549-73.7" stroke="var(--secondary-color)" stroke-width="7" stroke-miterlimit="8" fill="none"/>
  <path d="M521.09 590.59c4.38 0 8.58-1.74 11.67-4.83 3.09-3.1 4.83-7.3 4.83-11.67 0-4.38-1.74-8.57-4.83-11.67a16.502 16.502 0 0 0-23.33 0c-3.1 3.1-4.84 7.29-4.84 11.67a16.51 16.51 0 0 0 16.5 16.5ZM74.056 524.58a16.494 16.494 0 0 0 11.668-28.16 16.484 16.484 0 0 0-23.335 0 16.494 16.494 0 0 0 11.667 28.16ZM832.61 39.543c4.25 0 8.32-1.686 11.32-4.687 3-3 4.68-7.07 4.68-11.313 0-4.244-1.68-8.314-4.68-11.314a16.001 16.001 0 0 0-22.63 0c-3 3-4.69 7.07-4.69 11.314a16.004 16.004 0 0 0 16 16ZM605.6 302.57c4.24 0 8.31-1.74 11.31-4.84 3-3.09 4.69-7.29 4.69-11.67 0-4.37-1.69-8.57-4.69-11.66-3-3.1-7.07-4.84-11.31-4.84-4.25 0-8.32 1.74-11.32 4.84-3 3.09-4.68 7.29-4.68 11.66 0 4.38 1.68 8.58 4.68 11.67 3 3.1 7.07 4.84 11.32 4.84Z" stroke="#4E95D9" stroke-width="5" stroke-linejoin="round" stroke-miterlimit="10" fill="#4E95D9" fill-rule="evenodd"/>
  <text font-family="Arial" font-weight="400" font-size="46" transform="translate(1247.85 65)" fill="var(--secondary-color)">Hull</text>
  <text font-family="Arial" font-weight="400" font-size="46" transform="translate(1247.85 131)" fill="var(--secondary-color)">Horizon</text>
  <text font-family="Arial" font-weight="400" font-size="46" transform="translate(1249.08 270)" fill="var(--secondary-color)">Eye</text>
  <path d="M1122.5 182.5h92" stroke="var(--secondary-color)" stroke-width="7" stroke-linecap="square" stroke-linejoin="round" stroke-miterlimit="10" fill="none"/>
  <text font-family="Arial" font-weight="400" font-size="46" transform="translate(1248.48 199)" fill="var(--secondary-color)">Cone</text>
</svg>
