<svg xmlns="http://www.w3.org/2000/svg" xml:space="preserve" overflow="hidden" viewBox="0 0 4000 1420">
  <script type="text/ecmascript" href="../../../scripts/color.js"/>
  <path d="M537.5 144c0-8.008 6.716-14.5 15-14.5 8.284 0 15 6.492 15 14.5s-6.716 14.5-15 14.5c-8.284 0-15-6.492-15-14.5ZM125.5 1098c0-8.01 6.492-14.5 14.5-14.5s14.5 6.49 14.5 14.5-6.492 14.5-14.5 14.5-14.5-6.49-14.5-14.5ZM604.5 668c0-8.01 6.492-14.5 14.5-14.5s14.5 6.49 14.5 14.5-6.492 14.5-14.5 14.5-14.5-6.49-14.5-14.5ZM508.5 1127c0-8.01 6.492-14.5 14.5-14.5s14.5 6.49 14.5 14.5-6.492 14.5-14.5 14.5-14.5-6.49-14.5-14.5ZM537.5 1300c0-8.01 6.492-14.5 14.5-14.5s14.5 6.49 14.5 14.5-6.492 14.5-14.5 14.5-14.5-6.49-14.5-14.5ZM860.5 1120c0-8.01 6.49-14.5 14.5-14.5s14.5 6.49 14.5 14.5-6.49 14.5-14.5 14.5-14.5-6.49-14.5-14.5ZM1160.5 1173c0-8.01 6.49-14.5 14.5-14.5s14.5 6.49 14.5 14.5-6.49 14.5-14.5 14.5-14.5-6.49-14.5-14.5ZM1635.5 1345c0-8.01 6.49-14.5 14.5-14.5s14.5 6.49 14.5 14.5-6.49 14.5-14.5 14.5-14.5-6.49-14.5-14.5ZM1564.5 1017c0-8.01 6.49-14.5 14.5-14.5s14.5 6.49 14.5 14.5-6.49 14.5-14.5 14.5-14.5-6.49-14.5-14.5ZM1160.5 818c0-8.01 6.49-14.5 14.5-14.5s14.5 6.49 14.5 14.5-6.49 14.5-14.5 14.5-14.5-6.49-14.5-14.5ZM1789.5 601c0-8.01 6.49-14.5 14.5-14.5s14.5 6.49 14.5 14.5-6.49 14.5-14.5 14.5-14.5-6.49-14.5-14.5ZM1361.5 466c0-8.01 6.49-14.5 14.5-14.5s14.5 6.49 14.5 14.5-6.49 14.5-14.5 14.5-14.5-6.49-14.5-14.5ZM906.5 519c0-8.01 6.49-14.5 14.5-14.5s14.5 6.49 14.5 14.5-6.49 14.5-14.5 14.5-14.5-6.49-14.5-14.5Z" stroke="var(--secondary-color)" stroke-width="6.875" stroke-miterlimit="8" fill="var(--secondary-color)" fill-rule="evenodd"/>
  <text font-family="Arial" font-weight="300" font-size="83" transform="translate(523.778 106)" fill="var(--secondary-color)">p</text>
  <text font-family="Arial" font-weight="300" font-size="55" transform="translate(568.465 126)" fill="var(--secondary-color)">1</text>
  <text font-family="Arial" font-weight="300" font-size="83" transform="translate(494.967 1086)" fill="var(--secondary-color)">p</text>
  <text font-family="Arial" font-weight="300" font-size="55" transform="translate(539.654 1106)" fill="var(--secondary-color)">2</text>
  <text font-family="Arial" font-weight="300" font-size="83" transform="translate(1146.8 780)" fill="var(--secondary-color)">p</text>
  <text font-family="Arial" font-weight="300" font-size="55" transform="translate(1191.49 800)" fill="var(--secondary-color)">n</text>
  <path d="m2310.5 1097.17 410.06-953.67L3976.5 601.77l-3.2-.41-153.67 744.14-1098.97-43.32-410.16-205.01Z" stroke="var(--secondary-color)" stroke-width="6.875" stroke-miterlimit="8" fill="none"/>
  <path d="M2707.5 144c0-8.008 6.49-14.5 14.5-14.5s14.5 6.492 14.5 14.5-6.49 14.5-14.5 14.5-14.5-6.492-14.5-14.5ZM2294.5 1098c0-8.01 6.49-14.5 14.5-14.5s14.5 6.49 14.5 14.5-6.49 14.5-14.5 14.5-14.5-6.49-14.5-14.5ZM2774.5 668c0-8.01 6.49-14.5 14.5-14.5s14.5 6.49 14.5 14.5-6.49 14.5-14.5 14.5-14.5-6.49-14.5-14.5ZM2678.5 1127c0-8.01 6.49-14.5 14.5-14.5s14.5 6.49 14.5 14.5-6.49 14.5-14.5 14.5-14.5-6.49-14.5-14.5ZM2707.5 1300c0-8.01 6.49-14.5 14.5-14.5s14.5 6.49 14.5 14.5-6.49 14.5-14.5 14.5-14.5-6.49-14.5-14.5ZM3029.5 1120c0-8.01 6.49-14.5 14.5-14.5s14.5 6.49 14.5 14.5-6.49 14.5-14.5 14.5-14.5-6.49-14.5-14.5ZM3330.5 1173c0-8.01 6.49-14.5 14.5-14.5s14.5 6.49 14.5 14.5-6.49 14.5-14.5 14.5-14.5-6.49-14.5-14.5ZM3805.5 1345c0-8.01 6.49-14.5 14.5-14.5s14.5 6.49 14.5 14.5-6.49 14.5-14.5 14.5-14.5-6.49-14.5-14.5ZM3734.5 1017c0-8.01 6.49-14.5 14.5-14.5s14.5 6.49 14.5 14.5-6.49 14.5-14.5 14.5-14.5-6.49-14.5-14.5ZM3330.5 818c0-8.01 6.49-14.5 14.5-14.5s14.5 6.49 14.5 14.5-6.49 14.5-14.5 14.5-14.5-6.49-14.5-14.5ZM3958.5 601c0-8.01 6.72-14.5 15-14.5 8.28 0 15 6.49 15 14.5s-6.72 14.5-15 14.5c-8.28 0-15-6.49-15-14.5ZM3530.5 466c0-8.01 6.49-14.5 14.5-14.5s14.5 6.49 14.5 14.5-6.49 14.5-14.5 14.5-14.5-6.49-14.5-14.5ZM3075.5 519c0-8.01 6.72-14.5 15-14.5 8.28 0 15 6.49 15 14.5s-6.72 14.5-15 14.5c-8.28 0-15-6.49-15-14.5Z" stroke="var(--secondary-color)" stroke-width="6.875" stroke-miterlimit="8" fill="var(--secondary-color)" fill-rule="evenodd"/>
  <path d="M1868.4 28.5c19.91 0 36.05 18.286 36.05 40.844V681.16c0 22.55 16.14 40.84 36.05 40.84-19.91 0-36.05 18.29-36.05 40.84v611.82c0 22.55-16.14 40.84-36.05 40.84M78.6 1415.5c-19.91 0-36.051-18.29-36.051-40.84l.002-611.82C42.551 740.29 26.41 722 6.5 722c19.91 0 36.051-18.29 36.051-40.84V69.344c0-22.558 16.14-40.844 36.051-40.844M2024.5 705.5h185.16M2024.5 738.5h185.16M2226.65 724.29l-38.06-38.06M2189.32 756.7l37.335-37.336" stroke="var(--secondary-color)" stroke-width="6.875" stroke-miterlimit="8" fill="none"/>
</svg>
