<svg xmlns="http://www.w3.org/2000/svg" viewBox="0 0 1925 1934">
  <script type="text/ecmascript" href="../../../scripts/color.js"/>
  <path d="m228.41 1585.13-30.53-39.9-29.91-40.36-26.2-42.87-25.54-43.27-21.57-45.38-20.87-45.7-16.72-47.38-15.98-47.64-11.68-48.87-10.92-49.05-6.5-49.82-5.74-49.92-1.26-50.23-.49-50.25 3.99-50.09 4.76-50.02 9.21-49.4 9.96-49.25 14.31-48.163 15.06-47.941 19.26-46.403 19.98-46.101 24.01-44.135 24.69-43.756 28.49-41.384 29.12-40.937 32.65-38.177 33.24-37.667 36.47-34.553 36.99-33.982 39.88-30.55 40.34-29.929 42.85-26.212L513 120.292l45.36-21.585 45.68-20.884 47.36-16.724 47.61-15.993 48.84-11.68L796.88 22.5l49.79-6.507 49.9-5.74 50.2-1.264 50.22-.489 50.07 3.994 49.99 4.765 49.37 9.208 49.23 9.968 48.14 14.32 47.91 15.061 46.38 19.277 46.08 19.99 44.11 24.021 43.73 24.699 41.37 28.505 40.91 29.138 38.16 32.672 37.65 33.256 34.53 36.485 33.97 37.014 30.53 39.896 29.91 40.363 26.2 42.869 25.54 43.268 21.57 45.376 20.87 45.705 16.72 47.384 15.98 47.634 11.68 48.872 10.92 49.05 6.5 49.82 5.74 49.92 1.26 50.23.49 50.25-3.99 50.09-4.77 50.02-9.2 49.4-9.96 49.25-14.31 48.16-15.06 47.94-19.26 46.41-19.98 46.1-24.01 44.13-24.69 43.76-28.49 41.38-29.12 40.94-32.66 38.18-33.23 37.66-36.47 34.56-37 33.98-39.87 30.55-40.34 29.93-42.85 26.21-43.24 25.55-45.36 21.58-45.68 20.89-47.36 16.72-47.61 16-48.84 11.67-49.02 10.93-49.8 6.51-49.9 5.74-50.2 1.26-50.22.49-50.07-3.99-49.99-4.77-49.37-9.21-49.23-9.96-48.14-14.32-47.91-15.07-46.38-19.27-46.08-19.99-44.11-24.02-43.73-24.7-41.37-28.51-40.91-29.14-38.16-32.67-37.65-33.25-34.53-36.49-33.97-37.01Z" stroke="var(--secondary-color)" stroke-width="4.583" stroke-miterlimit="8" fill="none"/>
  <path d="m1492.95 729.537 21.99 56.653 15.94 58.63 9.73 59.99 3.39 60.66-2.97 60.69-9.3 60.05-15.54 58.75-21.6 56.8-27.42 54.24-32.94 51.07-38.1 47.35-42.86 43.12-47.12 38.4-50.89 33.27-54.09 27.78-56.7 21.97-58.69 15.93-60.03 9.72-60.72 3.39-60.74-2.97-60.1-9.29-58.8-15.53-56.85-21.57-54.28-27.4-51.12-32.92-47.4-38.07-43.15-42.81-38.44-47.09-33.29-50.85-27.81-54.04-21.99-56.65-15.94-58.63-9.73-59.99-3.39-60.66 2.97-60.69 9.3-60.05 15.54-58.75 21.6-56.8 27.42-54.236 32.94-51.073 38.1-47.354 42.86-43.115 47.13-38.404 50.88-33.271 54.09-27.777 56.7-21.972 58.69-15.93 60.03-9.717L960.97 387l60.74 2.969 60.1 9.294 58.8 15.524 56.85 21.578 54.28 27.395 51.12 32.913 47.4 38.074 43.15 42.816 38.44 47.087 33.3 50.846Z" stroke="var(--secondary-color)" stroke-width="10.313" stroke-miterlimit="8" fill-rule="evenodd" fill-opacity=".251"/>
  <path d="m921.78 1926.28-63.48-40.03-62.57-41.27-61.67-42.51-60.76-43.7-59.85-44.88-58.91-46.04-57.98-47.18-57.02-48.31-56.06-49.43-55.09-50.52-54.09-51.62-53.08-52.7-52.04-53.78-50.98-54.86-49.91-55.93-48.8-57M979.84 1927l60.83-88.47 58.94-89.61 57.08-90.69 55.26-91.72 53.46-92.7 51.68-93.67 49.91-94.58 48.14-95.48 46.37-96.36 44.57-97.21 42.76-98.06 40.92-98.88 39.04-99.703 37.11-100.52 35.12-101.327 33.07-102.141M777.25 1781.61l-55.66-55.11-54.58-56.09-53.51-57.05-52.43-58-51.37-58.91-50.27-59.82-49.19-60.71-48.09-61.59-46.98-62.46-45.85-63.31-44.71-64.17-43.55-65.01-42.36-65.84-41.15-66.69-39.92-67.52-38.65-68.35m791.99 964.53-52.78-73.13-51.43-74.02-50.07-74.86-48.74-75.7-47.41-76.51-46.08-77.29-44.75-78.06-43.41-78.82-42.05-79.55-40.69-80.29-39.3-81.01-37.9-81.73-36.46-82.44-34.99-83.146-33.47-83.85-31.93-84.559M848.84 1735.03l-43.46-88.18-42.11-88.77-40.77-89.36-39.47-89.9-38.16-90.44-36.88-90.96-35.59-91.46-34.29-91.95-33-92.43-31.69-92.91-30.36-93.38-29-93.837-27.63-94.299-26.22-94.751-24.76-95.21-23.25-95.659M889.79 1720.68l-29.43-99.11-28.39-99.39-27.4-99.64-26.4-99.9-25.42-100.14-24.47-100.37-23.5-100.6-22.53-100.81-21.58-101.03-20.6-101.244L620.44 617l-18.61-101.654-17.6-101.853-16.55-102.055-15.47-102.259-14.34-102.457M932.71 1712.79l-24.46-210.53-22.66-210.71-20.9-210.88-19.2-211.05L828 658.428l-15.75-211.342-13.93-211.484-12-211.626m190.1 1687.564 11.18-212.45 10.34-212.49 9.53-212.52 8.76-212.55 7.96-212.592 7.16-212.617 6.33-212.645L1043.12 11m-23.34 1705.95 23.3-102 22.48-102.17 21.65-102.34 20.84-102.49 20.06-102.64 19.27-102.79 18.49-102.93 17.71-103.06 16.93-103.2 16.15-103.327 15.35-103.458 14.54-103.585 13.71-103.712 12.87-103.836 11.98-103.959 11.08-104.086M1061.6 1728.91l38.65-92.81 37.38-93.29 36.14-93.74 34.92-94.17 33.71-94.59 32.51-94.99 31.31-95.39 30.11-95.78 28.92-96.15 27.7-96.52 26.47-96.894 25.22-97.244 23.94-97.604 22.64-97.959 21.28-98.313 19.9-98.667M1136.16 1771.19l55.44-62.12 54.22-63.11 53.03-64.05 51.83-64.97 50.62-65.88 49.42-66.77 48.21-67.64 46.99-68.49 45.75-69.34 44.51-70.17 43.25-71 41.95-71.82 40.65-72.63 39.3-73.44 37.93-74.25 36.52-75.053M1166.77 1800.5l53.47-43.08 52.67-43.99 51.86-44.88 51.06-45.77 50.24-46.63 49.41-47.48 48.59-48.33 47.75-49.16 46.9-49.99 46.03-50.81 45.16-51.62 44.27-52.43 43.36-53.24 42.44-54.04 41.49-54.84 40.53-55.65m-730.34 825.77 85.05-48.97 83.62-51.27 82.15-53.55 80.65-55.78 79.11-57.99 77.51-60.19 75.87-62.37 37.3-32 36.87-32.55m-619.78 492.15 87.15-33.17 86.18-35.59 85.17-38 84.12-40.39m-842.19 161.95-79.66-24.9-79.01-26.93m174.38 13.24-72.13-35.77-71.25-37.44-70.36-39.07-69.42-40.7-68.48-42.32-67.5-43.92-66.49-45.51-65.45-47.1m573.61 296.53 6.6-8.21 6.98-7.93 7.32-7.63 7.67-7.34 7.98-7.02 8.29-6.7 8.59-6.36 8.86-6.02 9.11-5.68 9.37-5.3 9.59-4.94 9.8-4.56 9.99-4.17 10.17-3.79 10.32-3.4 10.47-2.99 10.59-2.59 10.7-2.18 10.78-1.76 10.85-1.36 10.9-.94 10.93-.52 10.94-.11 10.94.32 10.92.73 10.88 1.14 10.82 1.56 10.74 1.98 10.64 2.39 10.53 2.78 10.4 3.2 10.25 3.59 10.08 3.98 9.9 4.37 9.7 4.75 9.48 5.12 9.24 5.49 8.99 5.84 8.73 6.2 8.44 6.53 8.14 6.86 7.82 7.18 7.5 7.49 7.15 7.78 6.8 8.07 6.42 8.34 6.03 8.59 5.64 8.83 5.23 9.07 4.81 9.28 4.38 9.47 3.93 9.66 3.49 9.82 3.02 9.97.34 1.33m-508.18.01 1.76-6.33 3.25-9.9 3.71-9.74 4.16-9.57 4.59-9.38 5.02-9.17 5.44-8.95 5.84-8.72 6.23-8.46m-203.55-152.41 13.46-15.52 14.12-14.96 14.74-14.38 15.34-13.77 15.9-13.15 16.45-12.51 16.95-11.87 17.43-11.2 17.88-10.52 18.3-9.83 18.69-9.13 19.05-8.42 19.38-7.71 19.68-6.97 19.94-6.24 20.19-5.5 20.38-4.75 20.57-3.99 20.71-3.25 20.83-2.48 20.91-1.72 20.97-.96 20.99-.19 20.98.57 20.94 1.34 20.88 2.1 20.77 2.86 20.64 3.62 20.48 4.38 20.29 5.12 20.07 5.87 19.82 6.61 19.53 7.33 19.22 8.07 18.87 8.77 18.5 9.49 18.1 10.17 17.66 10.86 17.2 11.53 16.7 12.2 16.17 12.83 15.63 13.46 15.04 14.08 14.44 14.67 13.8 15.24 13.12 15.8 12.44 16.34 11.71 16.85 10.97 17.34 10.19 17.81 9.39 18.25 8.58 18.65 6.8 16.77m-988.28.03 2.77-7.29 8.15-18.86 8.99-18.46 9.79-18.03 10.58-17.58 11.35-17.1 12.07-16.59 12.79-16.08m-192.68-165.59 20.47-21.95 21.34-21.1 22.16-20.22 22.94-19.32 23.68-18.41 24.39-17.49 25.05-16.54 25.66-15.58 26.25-14.61 26.78-13.64 27.28-12.64 27.74-11.64 28.16-10.63 28.53-9.62 28.88-8.59 29.17-7.57 29.43-6.53 29.66-5.49 29.84-4.45 29.99-3.4 30.09-2.37 30.16-1.31 30.18-.26 30.18.79 30.13 1.83 30.04 2.88 29.92 3.93 29.75 4.97 29.55 6.01 29.31 7.05 29.03 8.08 28.71 9.1 28.35 10.12 27.96 11.14 27.51 12.14 27.04 13.14 26.52 14.12 25.96 15.1 25.36 16.06 24.72 17.01 24.05 17.95 23.31 18.87 22.56 19.77 21.76 20.67 20.9 21.52 20.03 22.38 19.08 23.19 18.13 24 17.1 24.77 16.06 25.51 10.97 19.22m-1403.04-.01 3.34-6.14 15.51-25.88 16.58-25.15 17.63-24.39 18.6-23.6 19.56-22.79m-181.24-178.28 27.52-27.46 28.54-26.33 29.49-25.17 30.4-24 31.25-22.82 32.06-21.63 32.8-20.42 33.52-19.2 34.16-17.98 34.78-16.75 35.33-15.51 35.85-14.26 36.32-13 36.74-11.76 37.11-10.49 37.45-9.23 37.74-7.96 37.99-6.69 38.19-5.42 38.34-4.15 38.47-2.87 38.54-1.59 38.57-.32 38.56.95 38.51 2.24 38.41 3.5 38.28 4.78 38.09 6.06 37.87 7.32 37.6 8.59 37.29 9.86 36.93 11.13 36.54 12.38 36.08 13.63 35.6 14.88 35.06 16.13 34.48 17.36 33.85 18.59 33.17 19.81 32.43 21.03 31.66 22.22 30.84 23.41 29.95 24.59 29.02 25.75 28.04 26.89 27 28.03 25.91 29.13 24.76 30.22 3.96 5.22m-1718.98.06 16.13-20.49 25.34-29.68 26.46-28.58M14 1114.7l22.72-21 35.63-30.62 36.66-29.22 37.62-27.79 38.53-26.38 39.37-24.95 40.18-23.52 40.91-22.08 41.6-20.64 42.23-19.2 42.82-17.75 43.35-16.31 43.83-14.86 44.27-13.42L608.39 795l45-10.51 45.3-9.07 45.56-7.61 45.76-6.16 45.93-4.72 46.04-3.26 46.13-1.82 46.15-.36 46.15 1.08 46.09 2.54 45.99 3.99 45.85 5.44 45.66 6.89 45.44 8.33 45.16 9.79 44.84 11.24 44.47 12.68 44.06 14.14 43.6 15.58 43.09 17.03 42.53 18.48 41.93 19.91 41.26 21.36 40.55 22.8 39.78 24.23 38.96 25.66 38.09 27.09 37.14 28.51 36.15 29.91 35.1 31.32 5.37 5.14M19.25 789.56l44.66-28.57 46.27-27.45 47.07-25.834 47.8-24.22 48.48-22.608 49.1-21.003 49.68-19.401 50.2-17.8 50.68-16.201 51.1-14.614 51.48-13.022 51.81-11.438 52.11-9.854 52.35-8.273 52.55-6.695 52.71-5.118 52.82-3.543 52.9-1.969 52.93-.395 52.92 1.178 52.87 2.757 52.77 4.327 52.64 5.905 52.45 7.482 52.24 9.059 51.96 10.645 51.66 12.228 51.29 13.813 50.9 15.407 50.44 16.999 49.95 18.598 49.39 20.198 48.8 21.8 48.15 23.413 47.44 25.024 46.68 26.635 45.87 28.26 21.92 14.47M167.22 430.035l3.27-1.399 55.32-22.157 55.85-20.443L338 367.294l56.79-17.047 57.17-15.359 57.53-13.683 57.84-12.005 58.11-10.338 58.33-8.678 58.52-7.018 58.66-5.365 58.77-3.712 58.84-2.062 58.87-.413 58.86 1.234 58.81 2.887 58.72 4.534 58.6 6.189 58.43 7.847 58.23 9.503 57.98 11.17 57.69 12.84 57.36 14.518 56.98 16.198 56.57 17.892 56.1 19.591 55.59 21.298 31.02 12.844M690.95 46.891l32.36-3.474 63.74-5.454 63.83-3.774 63.89-2.096 63.92-.42 63.91 1.256 63.87 2.932 63.78 4.611 63.68 6.293.32.037" stroke="#777" stroke-width="1.719" stroke-miterlimit="8" stroke-opacity=".502" fill="none"/>
  <path d="m1261.5 469.057-.02.072-.04.062-.06.044-.06.024h-.07l-.06-.02-.06-.045-.04-.059-.02-.072v-.075l.02-.072.04-.062.05-.045.07-.024h.07l.06.021.06.045.04.058.02.072Zm-335.55-84.32-.01.072-.03.069-.05.055-.06.034-.07.014-.07-.01-.06-.035-.06-.051-.03-.065-.01-.076.01-.072.03-.069.05-.055.06-.034.07-.014.07.01.06.035.05.051.04.066Zm13.77 1158.523v.14l-.02.06-.01.03-.02.01-.03-.01-.02-.03-.02-.06-.01-.06-.01-.07v-.08l.01-.06.01-.06.02-.03.02-.02.02.01.02.04.02.05.02.06Zm19.32-578.3-.01.07-.02.07-.04.05-.04.04-.05.01-.05-.01-.04-.04-.04-.05-.02-.07-.01-.07.01-.08.02-.06.04-.06.04-.03.05-.01.05.01.04.03.04.06.02.06Z" stroke="var(--secondary-color)" stroke-width="20.625" stroke-miterlimit="8" fill-rule="evenodd"/>
  <path d="m980.5 1561.64 1.12 2.42.39 1.6.2 1.64-5.03 3.81-.24.41-.29 2.08.11.46.18.34-.01.79-.41.24-8.22 1.4-3.81-1.49-.53-.95-.11-1.51.46-.29.85-.2-.22-.67-.53-1.21-.04-1 1.19-2.53.57-.66-2.21-2.39-.27-.54-.3-.17-1.09.29-1.07-.12.38-.96.29-1.54.95-1.38.7-.21.7.17 3.3.07 3.25.75 3.25.57 5.35.62Zm-40.57-11.08 1.92.58.69 1.01.88.71.85.39.84 1.09.54 1.98.42.61 1.29 1.29.46 1.15-.05.59-2.31.54-.78-.14-.7.41-.2.71.06.75.42.52.87.47.84-.11 1.54-.64.7.1.82.6.79.06 2.04-1.97.52-.34.52.07 2.91 2.2.61 1.12-.41.62-.33.92.16.63 1.36.9.58 1.16.35.45-.06 1-.18 1.21.04 1.37-.67.76-.31.01-1.47-.73-4.55-.32-1.47-.59-2.34-2.63-.89-.14-.94-.63-1.48-1.86-2.52-1.43-1.66-1.8-.04-1.58-.28-1.12-.33-.44-.31-.23-.93-.33-.87.13-.42.49-.65 1.2-.78.25-.64-.21-.15-.24-.23-3.07-.71-.38-.66-1.21-.22-1.65.14-1.56.76-1.93 1.01-.26 1.04.23 1.03-.44 1.64-.37Zm235.36 263.41-.31-.26-.02-.24.3-.47 1.6-1.34.04-2.59.61-.73 1.56-1.29.42-.74 1.18-4.3.46-.63.78-.77.69.14.06 1.33 1.07 1.7-.01.55-.25.68 1.27 1.84.43 1.07-1.98 2.14.07 1.47-1.29 1.09-2.39 1.81-2.83-.08-.49-.12Zm373.69-180.17-.07.54.33.19.48.09.89-.18 1.68.38.74.92-1.24.37-.37 3.6-1.58.77-.91 1.23-.97-.71-1.71.05-.07.99-.8 1.06-.76-.62-.49-2.1-.68-.81 1.03-.55.19-.53-.85-.92-2.4.98-.39-.2.09-.59 1.56-.64-.06-.59-.33-.42-1.85-.64-.28-.36.67-1.58 3.17 1.44.1-1.57.82-.87 1.43-.74-.79-.8-1.09-.53-.35-.36.22-.65 1.04-.53 2.06-.35 2.04-.56 1.56.59 1.06.25.88.69.84-.02.57.82-1.06 1.4-.83.51-1.14.22Zm-40.75-39.07-2.7.86.95 1.14 1.36.25.98.6-.48 1.55-1.98-.89-2.53-.37-1.19-.01-.81-.39-.53-.89-.78-.7-1.92.35-1.21-.25.33-.65.08-.54-.8-2 .09-1.3-.05-1.05-.37-.89 1.54-.63 1.41-.43 3.42 1.29.26-.59.45-.65 2.28 1.38.77-.53.74-.78 1.03.17 1.3-.07.57.21.87 1.33-.48 1.76-1.42.56Zm-181.34 32.19-.67 2.42-2.07.45-5.26-.44-2.61-.69-2.42-.92-10.06-4.94-.58-.5-.29-.76.13-.76 1.14-2.28.91-.88 1.53-.23 1.28.08 1.77.61 5.97 3.19.85.06 1.22-.48 1.06-.87.89-.6.65-.05.35.31-.06 1.3-1.65 3.98.78-.06 1.09-.47 2.5-2.44.52.12.37 1.64-.07 1.31 1.4-1.38.87-.03.31.59.16.75Zm8.17-23.44.68 1.42-.3 3.43-.44 1.49-.42.74-.53.29-1.17-.19-2.88 1.91-1.9-.13-2.04-2.82-1.9-3.49-.05-.38.56-1.08.87-1.03 1.46-.97 1.09-.2 2.84 1.11.57-.31 1.48-.95.78.22.15.32Zm-185.6-51.46-1.6 2.14-.95 2.35 1.78.52 2.68-4.12 1.98-.17-.37 2.95-1.69 1.82-.15 1.35.07 1.03.78.36 1.3-.98.74-.79.72-.89 1.49-2.04 2.48-1.45 3.56 1.11 1.18 2.07-2.74 2.79-3.76.72-2.75 1.24.38.79.49.53.61.16 2.09-.37 4.87-.23 2.18-.76.44.47-1.13 2.37-.26 1.83-1.99 3.42-2-.08-1.88-.44-.3 1.76-.4.61-.38.44-4.03-2.49-.86-.08-.97.15-.72-.39-.98-1.82-.8-.28-1.81-.09-1.7-.41-2.27-.94-1.6-.84-1.04-1.89-1.51-.99-1.86-.74-1.36-2.22-1.42-1.19-1.78-2.39-.4-.82-.51-.53-1.19-.29-7.95-5.34-1.32-.39-.96.03-.81-.39-1.31-1.71.07-1.34.58-1.09.57-.39.97-.27 13.46 1.47 1.59-.29.93.42-.19 2.57.12 2.82.37.09.47-.15 2-1.55 1.95 1.43 1.6-.44 1.57-1.44 3.34-1.08 1.4.99 1.1 1.42Zm130.1 115.31-3.06 1.62-.41.16-1.28-.13-.37.85-.1.5-.61.86-.61 1.4-.14 1.13-2.24 1.42-1.42.22-1.87-11.12.26-1.29.31-.83.69-1.12.88-.96.89-.61.67-.22 1.14.02.67.54.45 2.27.34.01 1.11-.63.78.65.9-.59-.79-1.19-.11-1.5.18-1.25.42-.73 2.88.66 3.46 5.66.28 1.09-.27.88-.54 1.04Zm139.81-59.8-1.87.36-.87-.25-.14-.8-.3-.66-.79.04-2.26 1.3-1.38.39-.93-.05-.07-.46-.26-.29-.85-.08-.7-.44-.31-.72.71-1.62.72-2.07.33-.55 1.06-1.19 1.19-1.03 1.26-.52 4.85-1.11 1.98-.7 2.11-.95 1.96-.72 3.66-1.28 1.45-.3 5.31.35 1.31.21.59.99-1.27 1.48-1.09.23-3.06.29-2.85 2.02-.93.87-.16.36.12.79-.05.67-.39 1.15.01.93-2.36.06-1.37-.14-1.32.24-1.72-.26-.91.04.38.82.15 1.54-.37.77Zm377.83-166.1-.3-.12-4.52-2.98-.78 1.42-.55.53-1.61 1.05-2.48-7.23-.76-.63-1.92 4.13-1.38-.65-.49-1.4-1.02-.83-2.7 1.23.21-2.83.93-3.04 1.09-1 3.15-.42.56-1.18 5.21.73 1.27-.15 1.23.58.92.86.7.11.65-.62.87-1.44 1.98-1.6 4.52.31 1.41-1.76.63.76.27 2.84.23.21Zm-29.46-338.77-1.36-.4-1.03-.64-.77-1.1-1.79-1.33-1.15-2.11-.82-2.39.03-1.03.79-.82 2.74-1.25 4.01-3.29 4.91-5.36.95-2.73.7-.9 1.08-.87.92-1.1.75-1.19.9-.96 2.82-1.35.93-.88.77-1.11 2.16-1.87.36-.87-.01-1.01.76-.29 3.22 5.09 2.6 2.64-1.07 1.87-.39 1.81-1.35 2.71v.89l-1.44 1.59-1.85-.29-1.03 1.69-.33 2.13-1.49-.34-1.4-.6-.58.16-1.12-.32-1.59.03-.22.99.11 2.74.63 2.33-.43 2.39-.23 2.65-1.34.78-2.12.88-2.34-.12-1.84-.39-1.77 2.83Zm19.31 308.5 1.01 2.08 2.58.42 1.28.69.39 1.17-.31 1.35.83.79 2.87 1.92-.04.61 1.68.07.19 1.2-.39 1.33-1.25.57-1.21-.19-1.21.32-1.14.04-1.34-.35-1.57.21-3.79.4-5.06.29-.89-.57-1.53-1.53-.32-.93-.53-.53-2.11.98-1.88.35-.56-.15-.77-.68-.43-.19-.7.11-1.55-2.19-.36-2.17.37-3.25 3.97.42 1.51 2.12 2.74.38 1.77.75 1.17-.09 1.03.09.75-.64-.03-.76-.51-.57-.8-.3-1.54-1.1.07-1.71.84.34.53.76 2.55 1.51.67.13.57-1.65-.34-1.94.27-2.11.3-.55.7-.55.9-1.81.57.58-.22 1.58Zm-114.48-197.99-2.13 3.03-2.4 2.82-3.21 3.23-.47.81.4.59-.17.59-1.62 1.77-1.41 1.22-1.48.76-1.38 1.18-.55.08-1.49-.81-.63-.73.66-2.08.58-1.16 1.04-1.28.62-2.34.45-.7 1.15-.97 1.04-.08 1.44-1.74.66-.32 1.21-.2.32-.25.17-.31-.2-.21-4.36.1-.69.46-.76.73-2.22 2.9-1.72 1.37-.67-.04-1.29-.9-1.5-1.45-.72-2.98-1.5-.51 1.12-2.1 1.76-1.06 2.16 1.9 2.34-2.43-.25-1.18.02-1.75.28-1.33.94-.42 2.14-.05.74.41.24 1.12 1.94.81 1.17-1.79-.86-1.89 1.27-1.06 2.74.21 2-.41 1.16-1.37.58-1.75.55-.46 1.78-.49 1.72.47.53.53.54 1.77 1 .96.05.42-.46 1.09Zm84.75-72.68-4.47-1.03-1.2-1.82.25-1.7.4-1.29.9-1.97 1.25-.45 2.12-.38 1.1-.45.92-.84.6-1.03.84-.72.91.23 1.71 2.95 1.41 3.55.12 1.74-.46.92-2.41.96-1.82.89Zm-945.65 608.82-4.04 3.71-2.33.57-5.48.46-8.33-.1-2.42-.15-1.8-.33-2-.6-1.4-1.26-1.6-2.15-1.24-1.81-.58-1.24.09-2.16-.56-1.83v-2.35l-.55-1.36.47-.44 1.09-.57 1.21-.39 1.21-.28 1.4.03 3.66.7 3 1.13 3.87 1.12 4.06 1.49 1.87.32 2.19.88 2.55 1.47.71.61 1.1.68.9.74.8.61.53.23.8.71.6.93Zm360.38 44.95-.7-.65-1.09-1.53-.6-1.95v-.64l.6-1.41.42-.64.57-.73 1.09-.95 4.18-2.85 2.94-1.21 1.94-.42 5.04-.4.63-.02 3.26.82 1.49.15 2.74-.06 12.47 2.11 2.31.96-.11 1.28-.34.92-.96.35-2.67.4-1.51.37-3.24.54-5.88.41-4.3.48-5.77.9-1.81.59-4.14 1.6-1.29 1.32-2.29 1.25-2.07-.49Zm37.31 100.54-14.07-14.46-.84-.61-1.45-.4-1.07.08-.86.01-8.54-14.7.06-.19.34-.32 1.88-1.28 3.21-1.5 1.31-.47 1.6.24h.84l5.44-.73 2.59-.27 2.06-.47-.05.23-.83 1.11-.12.61.87.73 1.77.34.92.09-.08.5-1.14.54-.3.32 4.61.75 4.95.45 5.5.27 3.19.01.91-.03 1.25-.27 1.12-.59.98-.59.35-.34.1-.24.31-1.41 1.35-.12 1.61-.23 1.72-.42 2.01-.68.99-.43.77-.24.84.28 1.15-.03 1.28-.2.17-.53.86-.54 2.2-.43 2.32-.5 1.31-.11 2.66.02 6.84.48 3.5-.17 1.21-.12 7.44 4.75.89.91 1.38 1.87.49.91.37 2.92-.12 1.45-.7 2.66-1.57 3.77h-.01l-16.5 5.35-.75-1.16-.84-.48-1.41.02-1.38.13-.31.72.08.6.58 1.43Zm-24.95-55.38-4.93 2.52-2.18 1.21-1.87.77-1.1.16-1.92.18-1.18.03-2.11-.2-1.63-5.39-.19-2.78.93-1.8.59-.56 2.12-1.68.55-.69-1.77-1.56-1.5-.67-.52.04-1.63.61-.41.03.86-4.93 1.11-5.49.78-2.54.44-1.01.41-.48.95-.22.66-.01.56.14.34.3-.05.44-.31.61-1.73 1.45-.17.36-.17.79 8.39 11.23.72.92 1.89 1.69 1.51.62 1.38-.24-.37-1.15.59-.89 1.35-1.27 1.4-.94 1.15-.52 1.4 1.03.52-.02.38-.72 1.43-.82 1.05.5 1.4-.37 2.52.75.77 3.04-1.81 1.83-1.54.63-1.48.66-2.23 1.21.26 1.22-.59.75-.84.86-.26-.35-.44-.23-1.23.29-1.52.5Zm190.2-216.39-2.43 1.89 1.78.28.19.53v1.65l-3.26 6.23-1.2 1.8-3.94 4.8-2.63 3.89-4.1 7.44-2.39 3.92-1.44 2.21-2.55 2.29-.15 1.29-.95 1.06-3.4 3.24-4.08 3.69-7.87 6.84-1.96 1.49-3.74 1.62-2.44 1.41-1.82.73-1.49.31-6.66.78-2.37 1.44-5.92-3.02-3.1-1.89-.14-1.68-.75-1.17-1.44-1-3.68-3.34-3.21-2.11-.12-.55.49-.93.25-.74-.8-.6-.29-.84.04-1.12.52-1.69.4-.89.57-.84 3.1-.65 1.04.22.74.49.85 1.64.61 1.85 2.21 3.23 3.6 3.97 1.21.89 1.84.73 2.92-.4.15-1.2-.14-.97-.45-.67-.67-.46-2.65-.62-1.84-.65-1.59-.88-.63-1.89.61-2.88.54-.58 5.49 2.93.6.18 1.61-.02 1.03-.46.86-.56-1.49-4.05-.61-.57-.8-.37-.72-1.8.27-2.64.68-2.84-.27-.58-.95.11-7.5 1.82-.26-.19-.7-1.35-.39-2.19-.9-1.46-1.03-.51-.67.09-.29 1.77-.29 1.53-.55.92-4.29.44-.83-.18-.62-1-.04-.57.63-1.8-.28-.86-1.52-.93-.58-.71-.13-1.17.16-1.39-.18-.98.16-1.56.08-1.1.72-1.05.9-.83.7-.3.5-.44.65-.99.67-.51.79-.34 2.13-.08 1.53.98-.03 2.51.45 1.19.35.38.2.07.47-.28.66-.7 1.04-1.53.86-.92 1.02-.48.66.07.6.2.35.15.37 1.24.09 1.04-.23 2.53-.02 1.91.28.46.63-.08.81-.3.26-2.53.81-1.04.86-.74 1.19.23.51.36 1.24 2.82.83 1.36.99 1.16 3.23 1.28-.1-2.25-1.68-3.48.15-1.13.7-1.39 2.93.95 1.96 1.99 2.21 4.74 1.8.58 2.95-.63 1.11.2 2.3 2.69 2.84 1.27.22.41.03.55-1.31 4.82.42.12.81-.35 1.18-.92 1.13-.97 1.09-1.08.49-.89-.41-.25-.65-.06-.25-.84.04-1.11-.31-.83-1.6-2.38-.82-1.99-.29-1.18.22-1.53.9-1.02 3-1.38 5.23.63 2.12.63 1.52 1.21.47.83.46 2.55.31.19h.48l.28-3.1.04-2.58.34-1.62-.14-.91-1.83-2.66-2.16-.29-.72-.42-.45-.65-.95-5.57.06-.43.41-1.33.41-.89.96-1.2 1.17-1 .83-.59 3.38-2.24 2.56-1.9 1.71-1.94.47-1.51-.09-1.44.38-1.78.56-.92.74-.98 1.11-1.12 1.2-.79 1.38-.73.92-.13 1.29.23 4.17 1.74 7.47 4.56-.16 1.42-.74 2.51-.38.94-3.05 3.42Zm308.05-283.08-.14 1.4-1.11 6.2-.81 2.18-1.31 2.16.09-2.08-1.6-.35-1.5.62-1.52.72-.78.84-.36 1.06.42 1.6 2.14 2.57-.03.41-2.91 5.86-.28 1.72.03 1.6-.35 4.15-.61 4.24-.21 4.46.43 4.07.67 3.44.27 3.61-.27 4.41.48 4 1.13 3.62 1.34 3.54 3.96 3.5.94 1.31-.06 1.46-2.71 1.21-2.49.6-1.84-.66-1.46-1.08-1.11-1.28-.8-1.52-1.23-.96-1.64-.41-1.4-.8-1.14-1.1-1.62-.57-1.49-.76-.75-1.5-1.28-4.63-1.52-2.36-5.79-7.27-1.69-2.48-1.52-2.67-1.09-1.09-1.92-1.24-1.2-1.27h-.69l-1.45-1.44-.82-.01-2.91-1.7-3.12-4.83-.23-1.81.36-3.19-.92.03-2.04-.43-1.86-.63-1.14-.96-.31-1.75.14-.59-.13-.31-3.18-.95-1.41-3.35-1.33-2.5-2.74-3.24-.95-3.41-4.16-3.53-.31-1.1.94-1.62.8-.46 1.17.4.91-.59.73 1.01.23 2.03.36.27 1.58-.28 1.87.16.49.27 1.09 2.89.93.62 1.59.64.53-.23.83-.55.71-.12 1.21.77.65 1.32-1 1.35-1.34 1.2 1 1.59 1.61 1.45.66 1.52.88-.67.14-3.78.43-2-.26-1.68-.95-1.6 1.14-3.42 1.95-2.14 1.74-2.2 3.37.96 1.07-2.29 1.98-.62 1.4.35-3.55 5.86-.9 2.39-1.18-.44-1.75-1.63-1.18 3.39.86 2.31-.28 3.11-1.16 1.37.2 1.28 1.8 1.77 1.48.92 1.38-.31.93.4.23 2.23 1.32 2.8.04 1.08-.5 1.35-.93 1-.39.65.88.31 2.08-.55.88-.06.71.27.59-.04.4-.35-.59-2.48-3.85-12.29.62-2.8 1.41-2.95 2.18-2.35 1.27-.18 2.3.42 3.89 1.22 4.83 1.11h.7l1.06-1.23.37-1.17-.7-1.77-1.19-1.38-1.3-1.12-1.44-.95-3.4-.85-1.22-1.27-.6-1.82.32-2.23 1.16-2.33 1.04-1.18 1.15-.91 1.56-.59 1.16.19.63.7.88.34.73-.03.77-.24.27-.53.12-.61-.34-1.76.28-1.11.22-2.07.75.1 1.75 1.27.32 1.86.12 1.91.61.58.92.15 2.4-.09 2.5-.59 2.6-.92 1.8-.35.96.74-.46 5.95.78 1 4.72 1.09.22.46.22 1.94ZM284.5 298.833l-.38.298-.61-.243-.33-.605-.11-1.127 1.27.343.62.289Zm43.58 8.843-.6.848-1.03-.168-.55-.447-.32-.567-.02-.835 2.2-.55.75.124ZM1636.4 1409.82l-.36-.32-.51-1.22-1.09-1.38-.02-.33.25-.25.41-.15.9.49 1.84 2.28.15.41-.15.29-.93.24Zm156.67 32.69-1.69 1.46-.15-1.41.57-1.03.97.04.32.51ZM591.13 1821.94l-.32.77-.89.17-1.73-.53-.53-.25-1.37-2.35.01-1.44 2.72 1.92.4.43Zm-169.29-84.61.31 1.04-.41.35-1.58-.23-1.91-1.54-2.87-1.21-.64-.43 2.12-.4.95.21 1.51.17.73.25 1.06 1.13ZM678 1837.24l1.51 1.34.48.97-1.57 1.67.85 2.03-.14 1.75-1.1.39-1.59-.29-2.02-.66-.7-.3-.1-.56 2.28-1.48 1.59-.34.17-.48-1-1.91-1.49-1.9-.82-.69-.17-.48.91-.13 2.22.76Zm-282.17-95.51.46-.29 1.51.38.84.1.54.22 1.36.84-.52.28-1.41.08-.82-.18v-.01Zm261.62 89.35 2.56-1.02 2.11-4.74 3.52-3.09 1.78.44.3 1.49 1.29 2.71.15 1.4-.45.91-1.8 1.44-1.05 2.49 1.03 1.09.72 1.75 1.59 2.34-1.97-.42-1.98-.21-4.25-.19-.62-.14-.36-1.07-1.03-.9-1.23-1.51-1.03-.35-1.37.2-1.03-.14-1.27-1.1-.19-1.3 1.21-1.03 2.24.29.81.49ZM579 1773.79l.03 1.07-2.06.31-.61.01-2.17-2.56-.96-.4-.66-.55-.33-.71.22-.22 3.38 1.01 1.49.25.89 1.26Zm27.51 61 2.73 2.21-.35.67-.74.17-1.45-1.38-.5-.98-.04-.5Zm218.84-178.42.2.29-.89.12-1.78-.8-.41-.33.35-.64.86.11.97.52Zm4.34-25.86-.59.35-1.32-.17-3.62-.76-.99-.67.07-1.06.8-1.01.87-.08 2.66.98 1.07 1.01.71.78Zm3.85 30.86-1.55 1.71-.62-.08-.43-1.46-.72-.85-.27-.44-.12-.73 1.16-.44 3.71-.16 1.05 1.32Zm67.77-79.37-.83 1.47-2.17-.58.01-.97 1.72-1.09 1.34.36Zm-77.67 84.42-2.02 1.16-1.46-.08-1.09-1.56.17-.49 3.12-.37 1.19.01.61.35.02.53Zm-6.82-4.81 2.28-.58 1.29-.81 1.7-.06.62.49-.04.6-1.49.79-.36 1.16-.83.48-1.61-.06-1.84-.83Zm93.64-77.38-.66.58-2.9-.86-1.64-.04-.83-.6-.56-.52-.23-.6-.9-.8 1.2-2.02 1.09-.73 1.14-.02.37.88 2.29.81 1.67-.16.3.97.11 1.42Zm76.51-13.78-1.42.17-.44-.06-.41-.56-.1-.39.8-1.21.74-.5.24-.41-.75-4.25.93-.08 1.12-.77 2.05.2 1.74.85.28.64.15 1.06-.91 2.07-.52.72-2.76 1.72Zm18.86 2.69-3.36.36-.83-.82-.15-.94.23-.94 7.33-4.55 1.12.82.31.37-2.33 2.36-1 .83-.18.31.45.39.11.3-.46.67Zm-71 9.83-.97.48-2.08-1.45-.7-.7-.67-1.24-.47-.22-.2-.28-.54-3.3.57-.42 1.32.37 2.57 1.57 1.74.4.66 1.29-.41 2.36Zm-110.96 92.05 1.98.5-2.71.73-1.85-1.05.43-.92.78-.19 1.01.53Zm28.43 145.53-.4.97-2.5.43-1.05-.34-.88-.53-1.05-.29-.43-.27-.65-.75-.5-.43-.54-.3-.44-.37-.38-.15 2.83-1.4 1.5-.07.56.33 3.37.77-.23.64Zm-39.52-155.63-2.04 1.27-1.2-.2-.51-.47-.06-.58 3.18-2.01.67.44.3.34Zm13.59-19.41-.99.73-2-.86-1.56-.72-.78-.83-.19-.29-.17-.38.22-.36 2.65-.06Zm3.1 8.88.12 2.02-2.06-.29-1.22-.89-.24-1.67.57-.76 1.24.16.45.05Zm3.54 133.51-.19.38-9.79 3.36-2.1.43-.72-.16-.46-.24-.25-.24-.56-.77-.26-.67 1.3-2.3 2.77-1 4.03-.31 2.89-.01 1.87.51 1.07.62Zm-14.64-109.63-.35.25-5.13.28-1.09-.1.93-1.7.89-.59 3.87 1.33.85-.01Zm15.58 64.68-.66.44-1.02.24-.99-.14-2.01.1-1.24-1.16-2.54-.12-1.09.11-.55-1.5 3.07.7 3.51.48 2.6.08Zm-12.38-72.65-.14.47-2.3.75-.61-.1-.36-.26-3.31.85-2.16-.94-.52-.37.17-1 .82-.92.12-.8 2.42-1.71.58.13.64.73 2.01 1.12.82.94.44.59.8.03Zm26.3 123.19-.16.3-.99-.94-2.71-1.5-1.73-1.03-1.27-.87-.78-.67.23-.15 3.45 1.38.92.79 2.44.91Zm782.39-162.58-.44-.32.44-1.21.44-.42 1.4.11 1.75-.1.3.16-2.77 1.48Zm-444.9 170.17-1.48.13-1.58-2.84-.38-1.08.12-.88 2.48-1.15.98-.2.54.1 1.75-.17 1.15.93.52.98.22 2.11-1.18.28-.52-.01-1.54.76Zm440.21-182.21-1.4-.94.56-1 1.23-1.16.46-1.24 1.05.01 3.28 7.81-.72-.08-2.69-3.05Zm-44.57 23.62-.23.93 1.43 2.33.16.64-.68 1.06-1.45 1.32-1.1-.37-2.01-4.29-.04-2-.48-.71-1.89-1.05-1.33-.12-2.85-1.94-.02-1.05 1.06-1.19.5-.38.5.05.42-.09.39-.3 1.54.02 3.58 2.1 3.15 3.84-.27.96Zm-9.76 1.81-1.46-.16.26-2.96.62-1.13.85-.23 2.61 2.84.17 1.08-1.27 1.36Zm-29.84 2.12-.55-.7.04-1.37 1.04-.86.59-.39.95.41.35.39 3.36 1.42 1.13.87-1.37.18-.94.69-1.11.15Zm38.67-47.19-2.35-1.39.25-1.76.2-.49 1.81.58.24.82-.15.5.45.82Zm13.58 2.26.2 1.6 1.1.77-.06.89-.95 1.24-.46.27-.86-1.72-2.35-.49-.85-1.93-1.29.55-.38.81-.82-.12.11-2.24-1.19-.9-2.11.94-.72-.27-.25-.22.15-.8-.51-1.08.21-.24.32-1.12-1.96-1.14 1.24-.24 4.05.49.95-.27 3.25 1.63.51 1.48Zm-69.74-2.74-.66-.73 1.25-.63 1.26.13 1.36.78-1.78.21-.72.22Zm-116.6 85-.57-.48 1.5-1.94 2.74-2.43 2.91-4.97 1.87-2.09.79-.05.57.39.39 1.83-.22 1.44-1.09 2.2-.78 2.27-1.18 1.17-1.65.9-.91-.44-1.1.82-2.48 1.12Zm92.2-83.93-1.9-.56-.52-.66 2.83-.98.66.7 2.18.2.08.46-1.54.18Zm15.01 1.21-1.26.02-.5-.36.01-.72-1.67.36-.52-1.48-.05-.72.4.16.68-.2 1.59-.19 3.63-1.02 1.04-.47.72-2.04.34-.51 1-.44.85-.13 1.26.26.78 1.03-.17.94-1.02.79.37 2.48-2.2 1.21-1.73.28-1.55 1.05-1.41-.47Zm25.42-23.71-.36-.32.95-.5 2.9-.74 2.4 1.01-1.03.47-1.54.26Zm33.69 18.97-1.01-1.14.59-1.72.55-1 1.25 1.63.2.99-.67 1.08Zm6.46 39.91-3.15-.53-.45-.92.43-2.8.47-1.02.28-.32 2.09.23 1.46 3.6.3.83-.09.11-.75.58Zm-16.76-49.38.08.64 3.27 3.57-.56 2.3 1.06 1.34-5.05-1.36.14-1.49.36-.71 1.13-1.18-1.88-1.92-.26-.9-1.49-.23-1.64-1.49-.44-.61.35-1.47.9-.73 1.12 1.6 2.06.33 1.47-.55.12.85Zm-6.4 47.65-.29.37 1.33 1.69-.22.83-1.37-.51-.02-.36-.77-.72-1-2.81.48-1.15 1.83 1.86Zm-150.96 58.64-.74-.99.26-.87.25-.42.92-.45 1.05-.14.24 1.59-1.3 1.32Zm27.96-13.94-.78.12-.26-1.15.05-.79.42-1.58.96.06.52 1.05-.2 1.28Zm-41.64 27.23-.37-.54.12-.77 1.02-1.27.55-.54 1.54-.73.59.16 1.68 2.07-.29 1.16-1.25.86-1.08.37Zm-6.47 6.08-.58-.56-.23-1.13.22-1.26.67-.82.96-.09.92.4.6 1.2-.55 1.1-.74.66-.98.44Zm169.92-118.32-.53-.28-.24-.71-.36.27-.12.82-.54-.38.03-.95.63-1.17 1.12-.34.66.44Zm-19.44 12.41-1.5-.55-.25-.81.12-1.65 1.26 1.2 2.59-1.73 1.45-.03.39 1.76-1.87.14-1.2.46-.66.92Zm-368.18-19.81-1.1-.52-.32-1.13.04-.64.85-.59.3.05.64 1.99-.01.7Zm13.74 13.99-1.44-.08-.91-.76 3.16-4.69 1.29-.91.34-.97.3-3.01.8-3.18.72-.43 2.59.03 2.2 1.39.23 1.66-.58 1.62-.74 1.01-1.87 1.57.38 1.06-.61 1.41-1.11 1.54-1.84 1.53-1.34.79Zm-87.96-35.41-1.14.81-1.45-.67-.66-2.05.24-2.46.19-.82.51-.51.95-.35Zm68.94 12.13-1.33-.45-.12-.66.91-.89 3.96-.41 1.78-.49.12.24v.42l-.54 2.36-.22.55Zm182.33 54.23-.25.8 1.74.77-.11.94-.3.45-1.9.69-1.54.18-.82-.7 1.7-2.69.5-.61Zm8.66-11.56-2.04-.53-.26-1.43-1.47-3.61.96-3.08 1.19-.97 1.16-.17 1.13.43.91 2.22.09 1.49Zm-76.5 54.03-.83-.13-.12-.47.34-1.42.79-.64.72-.21.71-.35 3.03-.86 1.03.56.25 1.02-2.56 1.12-1.46 1.07Zm186.84-78.25-2.11-.99-.44-1.06.72-.71 1.23-.67 1.21.33 1.43-1.45 1.05-.05 1.39-.75 1.76.29.84 1.82-1.71 1.05-.56.43-1.14-.53-.42-.02-1.18.66-1.43 1.25Zm-11.67.32-3.59.24-.07-.35.12-.33.38-.3 1.26-.16 2.43-1.9 1.81.33.07.68-1.32.49-.67.99Zm-34.83 20.51-1.56-1.03-.49-1.35 1.49-1.25-.08-.41.25-.39 2.23.33 1.12.74.85 1.31-.06.92-.32.57-1.99.14-.6.26Zm16.65-14.53-.42-.21-.63-.85-.02-.88 1.94-.52.87-.89.88.27.26.95-.76 1.47-.43.51Zm224.28-193.38-1.55.01-.48-.63.08-.5.34-.41.48-.26.58-.09.98.14.23.12.37 1.3Zm69.31-287.95-.57.06-.37-.44.11-.91.52-1.29.8-.06.34.26.02.95-.45 1.08Zm-62.5 74.43-1.48-1.09 2.31-3.87 5.41-3.96 1.58-1.91.55-1.94.66-1.42.49-.38 2.93.6-.18 1.62-1.29 3.57-1.54 5.36-2.97 3.97-1.53.35-3.37-1.01Zm-25.95 40.66-1.68 1.61-.86-.95.03-.69.71-1.33.11-.79 1.28-.88 1.26-1.06.67-1.08 1.42 1.23 1.6 1.64.26.65-1.19.5-.91.11-1.32-.53Zm-23.59 53.2.07.33.43.3.41.84 2.03 2.3 1.35 2.65.37 1.79 1.18 1.44.27 2.06.3.71.54.57-.11 3.34-.12.3.44 3.07-.12.3-1.06-.73-1.4-2.46-.96-.87-.56-.87-.05-.27.58-1.05.16-.61-.22-3.77-.46-1.18-1.07-1.57-1.82-1.06-.9-1.2-.44-.19-.26-3.04-.49-2.76.66-2.27v-2.13l.25-.41.73.08.51 1.65.1 2.17.23.97Zm16.97 82.32 6.22 9.58 3.46 1.26 1.9 1.97-.9 2.09-3.41-.38-.66.34-.11.69 1.74 2.25v1l-.16 1.09-1.33.6-.46.41-.22.65.05 2.93-.12 1.39-.39 1.04-1.13 1.36-1.02.98-.43-.19-.41-1.05-.13-1.26.78-2.09-.1-.73-.97-1.54-.54-1.92-1.01-.94-.56-1.18-1.08-.51.18-.76.59-1.33.42-.45 1.87-1.12.39-.41-.21-.28-1.22-.58-.17-.6.03-2.13-.18-.6-.93-1.1-2.46 1.4-.52.48-.57 1.83-.67 3.09-.63-.55-1.08-2.23-.13-.79.44-1.48-.45-1.54-.03-.7.28-.52 1.16-1.32-.03-.4-1.75-1.01.01-.6.4-.65.06-.5-.46-1.4.19-.37.75-.01 1.09-.66 3.44-3.02Zm36.55-170.78-1.32 1.51-4.1 1.66-2.91.6-2.49.33-.94-.73-.25-1.29 1.7-.5 1.89-.3.72-1.75-.01-.67-.32-.52-.21-1.37 1.07-.99.84-.18.94.07.36.66 3.03 1.08 1.23-.03 1.55.98Zm120.58 211.42-1.28-1.63.37-.9 1.61-1.34 1.08 1.09.31 1.84-.74.5Zm-105.91-231.72-1.1-.47.34-.78-.04-1.73 1.27-.17 1.97.36 1.06.94.58 1.39-.35.77-2.39-.48-.77.18Zm67.4-82.04-2.21-1.15-.04-.95.38-.54.65-.16 1.18.52.43.82-.02.81-.2.5Zm-3.46 35.96-.61-.1-.36-.34.12-1.02.52-1.03.13-2.08.21-.83.56-.78 1.31-.74 1.01.3.43.45-.31 1.82-.88 1.53-.88 1.64Zm-68.2 66.76-.63.27-1.3-1.52-3.06-1.57.21-2.72 1.64-3.3.1-.92.57-2.15.42-1.38.55-2.22 1.02-2.01.25-.64 1.39-.63 3.59 1.2 2.24-.91.72.9-2.74 3.27-.35 1.55.28 1.77-.15.5-.72 1.37-.9 2.29-.05 1.34-.21.67-.36.49-.7.45Zm6.04 218.4.61 1.56 2.33 2 1.06 1.21.29.68-.03.44 1.74 1.26.55.72-.97.56-2.03-.72-.19-.91-2.76-3.04-1.99-.6-.5-.56-2.35-.26-.12-1.67.45-.9 1.53-.21.62.65.79.08Zm91.77 11.77-.96-.44.01-.36.58-.85.92-.85.34-.44.26.63-.1 1.49Zm-3.64-23.23.4 1.08.78.76-2.34 1.27-1.23.45-.74-1.06.52-2.12.39-.93 1.38.65Zm-150.8-94.38-.97 1.82-.09.43.97.44 1.43 1.01 1.73 2.5.07.4-.51 2.52.11 1.38-.25 2.52-1.98.12-1.92.93-.69.74-.81.09-1.01-.14-1.76.04-1.27-.94-1.58-.56-.91-.1-.33-.23-.19-.57-.06-.8.27-.64 1.23.26 2.48-.74 1.65-1.58-.91-1.3-.89-.37-.54-.47-.14-1.03-1.01.5-.82.68-.85 1.34-.43.27-.57-.09-.62-1.34-.34-1.67.31-.53 1.56-1.42.66-.88.83-1.42-.04-.2-.39-.33-1.4-.79.06-2.58.72-2.19-1.86-2.36 3.62-.89 2.92 1.89-.1 1.92 2.23 3.29.87-1.38.4-.41.84-.2.29.13.02.71.41.64-.04.6Zm31.04 87.76-.96.4-1.48.3-1.53-.14-.97-.63-.18-.95.32-.94.51-.81.17-.52-.25-.38-.38-.39-.73-.25-1.89-.12-.7-.21-.37-.25-2.22-3.66-.04-.54.27-.98 1.42-2.26.36-2.88 2.78.99 2.27 2.31 3.65 5.15 1.54 1.92-.21 2.96-.73 1.16Zm-33.45-43.13-.6 1.65-.06.36.86 1.64.81.22 1.46 1.12 1.25.33 1.37.86-1.28 4.22-.97.78-1.97-.05-.89-.48-.42-.94.51-.42.24-.56.03-.99-.46-.38-1.07-.22-.3-.4-.29-1.1-.97-1.51.12-.66.56-.62v-.53l-.44-2.2-.09-1.62-.62-.81-.34-.13-.63.19-.97-.18-.13-.23.07-.53.29-.56 1.1-.72.49.27 1.63 1.85.72 1.43Zm20.32 52.27-.46-.22.08-.56-.16-.67-1.06-2.12.28-.35.6-.26.68-.06 1.01.23 1.46-.51.15.34-.2.62-.99 1.76-.53 1.49-.41.28Zm-1.82-155.6-1.32 1.62-.74.25-.47-.1-.44-1.2-.44-.4-1.42.25-1.02-.09-.89-.88-.86-1.63-3.03 1.59-1.21.43-2 .25.89-1.46 2.29-1.52 1.39-1.12 2.25-1.54.74 1.81 2.44.72 2.83-.03 1.43 1.16-.07 1.17Zm8.95-24.33-3.54-.24-.21-1.21-1.7-1.33 1.73-1.41 1.14-1.16.62-.28.92-1.05 2.03-1.62.91 1.76.89 1.04.95 1.8 1.23 1.69-.87 2.09-2.08-.37Zm-17.41 28.88-2.5 4.23-.06.86.96 1.22-.23 3-.39.59-4.09 2.06-2.17 2.11-1.64-1.6 1.02-2.98.63-3.18 1.62-2.99 1.11-2.79 2.14-.41.87 1.14 1.37-1.69Zm129.42-147.38-.44 1.26-.74-.36-.82-.92-1.07.43-.35-.05-1.73-2.46-.12-.59.78-1 2.46 1.76 2.02.53.12.26Zm-129.68 226.56 1 3.64 1.5 1.37-.81.92-1.23 1.79-.8.45-1.21.14-1.14.61-.4-.07-.67-2.69-.38-3.18-1.16-.52-.82-1.45-1.02-.75-1.38.36-1.75-.75 1.27-2.03.2-2.81-.09-2.47 2.47-1.5 1.12.42 1.36-.02 2.46 3.48 1.04 2.06Zm3.49-66.8-.54-.1-.86-1.5-.34-.96-.19-1.84.7-1.17.55-1.68.3.24.64 1.36.12.72-.1 1.27.74 2.52-.06.51-.39.42Zm118.91-147.34-1.33.35-1.18-.71-2.35-.24-.83.73-.81 1.02.18 2.2-.56 1.95-.96 2.8-1.07 2.54-.54.64-.7 1.17-.46 2.42-.52.82-.61.73-1.39 1.18-.37-.01-.92-.51-.69.85-.39.13-2.29-1.65-.8-1.3 1.98-2.54-.64-2.17.28-2.49 1.04-3.9-.25-1.68.62-3.21-.16-3.32 2.77.16 1.32-2.51 1.64.06 2.2.44.78 1.6 1.23.63.9-.18 1.5-2.43 1.66-1.58 1.89.04 1.36.9-.24 1.42-.08 1.5.99 2.05-.79.99Zm-26.86 20.31-1.38.36-1.6-.59-.79-1.71-1.77-.88.95-1.64 1.49-.83 2.24-.63 2.34-1.38 1.96-2.95 1.14-.11 1.12-.73 1.95.54-1.21 2.43-3.11 3.49-.66 3.02-.4.85-.83.73ZM287.16 303.627l-.92.302-.93-.096-.45-2.488.13-.578 1.46.413 1.63 1.787Zm53.18 3.973 3.6.103 1.01 1.639-.38 1.399-1.82.237-.99-.405-1.68-1.791-3.13 1.485-2.36.233-1.92-2.378-.3-1.278.31-.939 2.23-1.563 3.15-.299 1.46 1.24Zm-226.88 844.79-.07.94-.81.71.16 3.26-1.1-1.6-.9-.21-1.12 1.23.09.51 1.13-.3.36.04-.12 1.57 2.3 1.19.65-.71 1.84.9.36.45-1.12 1.93-.16 1.5-.79.64-.44.16-1.54-1.03-.47-.59.07-1.83-.33-1.53-1.19-.58-1.56.27-2.02 2.34-.68.26.09-2.32 1.33-.96.56-2.15Zm9.13 11.55-.43.67-.83-1.14-.79-.59.8-1.12 1.14.52Zm1141.84-696.584-3.46.199.35-1.299 1.01-.979 2.32 1.058 1.15.316Zm630.92 726.604-2.23 1.06 1.08 3.62-2.09 8.26-1.53-.71-2.44-.55-3.61.1-6.45 1.75-1.58.15-1.41.72-2.95 2.74-3.6 5.81-2.75 1.18-1.54 2.85-1.66 1.27-2.86 1.31-6.65-.08-2.92 1.95-.11 2.72-1.27 1.23-1.49.82-1.4-1.5-4.54-6.08-3.08-.64-3.23-.17-1.16.28-1.03-.14-4.41-2.74-1.2-.13-9.24 2.38-4.97 2.17-5.21 1.82-1.88 1.06-2.04 2.08-1.41 2.26-1.01 1.71-.93 2.54-.44 3.51-.38 15.74.8 2.23 6.74 8.59.59 2.88-.79 2.87-1.16 2.03-4.27 3.73-1.69.86-1.9.32-3.18-.29-2.83-1.34.03 1.18.92.81 2.36 1.42.29 1.32-.89 2.25-1.78-.5-1.09.4-1.95.39-8.72.42-3.62-.86-3.88-.22-4.67-.88h-2.11l-3.67.88-4.62.32-7.51 3.11-1.05 1-.29 1.08-10.19 8.37-1.52.67-2.05.26-4.43-.52-1.44-.98-.61-2.74.19-2.14.96-2.93.79-3.26-.71.72-.81 1.66-1.46 1.15-3.39-2.09-1.31-.03 2.81 2.14 1.35 2.09.29 1.2-.3 1.67-.51 1.83-1.1.22-1.93-.77-2.7-.65-3.82-.13-3.14 1.13-1.92 1.09-3.41 2.69-2.03 1.95-2.33.81-2.67.13-.24.44 1.62.15.92.45-1.1 2.54-2.61 4.73-2.02 3.06-.81.74-1.2.85-2.02-1.38-1.47-1.52-1.57-.59.15 1.05 1.23.81.39 2.56 2.03 1.04.06 1.46-.14 1.2-2.66 7.96-1.06 5.48-.85 3.05-1.36.45-4.36-7.57-.45-2.27-1.06-1.2-3.25-.92-3.81 1.71-1.34.23-2.21-.7-1.68-1.28-7.63-2.03-2.05-1.49-1.94-.41-2.16-.08-2.47 1.89-1.02 1.56-5.75 3.76-2.79 2.49-1.24 1.42-1.64 2.66-3.95 3.51-1.72.02-3.18-.94-.86-2.21-1.99-3.09-.6-3.23-1.48-3.25-.27-1.35.46-5.01.64-1.24.94-1.45 2.73-.85.74.41 1.73 1.65 1.77 1.04.12 1.86-1.61 2.37-1.35.79-1.01.39-.34.64 1.73.19 4.66-4.34 5.68.86 2.4-.31 3.04-1.14.71-.42.79-.76-.2-1.37-.95-2.44-9.42-.38-3.51-1.01-2.77-.1-3.91.64-.94.4-1.72 1.17-1.65 1.57-1.23-2.46-.92-5.06.16-1.42 1.67-.81 1.77-.26 3.05-3.55 1.29-1.08 1.47-.46 2.06-.13.75.25.09.88-.62.91 1.95 1.59 6.31.05 1.58 1.22 1.39 2.52 2.6 1.56.72.05 1.05-.35-.91-2.34-1.25-1.87-4.27-4.35-1.27-.53-2.77.54-.08-.82.42-1.08-1.05-1.95-.87-.52-1.38.19-.91 1.35-1.54 1.04-2.54.12-2.73 1.28-1.32 1.69-.76.84-.74.17-1.19-.1-2.08-2.4.08-2.9.44-1.63-.45-2.61 4.61 1.21 1.9.07 2.76-1.15 1.88-.64.18-1.39-.69-.58-1.14 1.49-1.71.61-1.06-1.87-3.71-.16-1.03-1.66-2.69-1.34-.38-1.9.73-1.43 1.41-.93 1.33-2.52-.25-1.05-.76-.4.74-1.54 1.08-2.83.16-.89.5-1.33.56.06.54.95.18 1.22.99.99 1.17 3.39 1.25.48.8.1 1.18-1.06.92-1.16.41.34.14 2.56.96.58 1.14 1.64.91.49 1.82.62 3.5.24 2.45-.73.76.25.46.79.1.9-.94 1.15-.41 1.5-.03 1.47-.69 1.25-.98.94-2.46.42-.66.29v.93l.7.14 1.31-.09 1.23-.66.53-.47.65-.71.71-.95 1.1-3.43.37-.72.97-1.18 2.02-.1 1.02-.57 1.41-1.55.3-1.65-.36-4.75-2.08-6.11-.71-.15-.71.2.14.69.4.62 1.97 5.29-.04 2.1.34.86.11 1.48-1.2 1.04-4.67-1.99-4.99.06-3.5-.33-1.05-1.85.55-2.22.85-2.69-.21-2.16-.77-.41-.34-.68.03-1-1.27-.2-.9-3.11-.06-1.06 3.01-.8 1.03 2.09 4.81-5.36.5-1.68-1.05-3.17-1.14-.65-1.3-1.34-.46-1.45-.89-1.16-.64-1.13-.57-1.86-1.07-1.64.73-5.21.58-2.59 1.1-2.46 3.15 2.39 2.04 1.13 1.11-.56.59-2.15.14-2.01 1.6-.73 1.61-.21.64 1.17.8 4.06-.73 1.76-1.66 5.68.11.76-.13.51 1.57 5.3.5.34 1.37-2.2 3.15-1.98 1.67-.09.47.38.39-.41-.05-1.91 1.67-1.16-.27-.28-1.55.3-5.46 3.42-1.71.06.31-3.35.43-2.18.03-.93 2.05-2.32 2.41 2.75-.32-1.56-2.19-4.14-.29-1.35-.42-.73.22-2.57-.31-2.53 4.33-.66 2.55-.86 3.1 4.03 1.16.04.36-1.84-1.06-.18-.53-1.78.03-4.01 1.03-1.18 2.07-2.09 1.12.12 1.94.79 1.21 2.21.29 1.2.91.29.61-2.27-.68-1.62-.35-2.24 1.16-1.25 1.27-.82 1.28-.93 1.54-1.56.87-1.43.83-.34.78.19.44-.48-1.23-.83-1.69 1.38-1.32 1.46-1.76.54-1.39 1.17-1.48 1.49-1.89 1.56-.46-1.55-.02-1.19.18-.69.87-.87 4.31-6.31 3.81-5.17 3.46-3.58 2.62-.42.97.05.42.68.93.68 1.04-.05-1.28-2.6-1.68-.45-1.48.05-1.22-1.93 1.19-2.28.37-2.54 1.5-2.42 2.5-3.19 2.12 2.12 1.44 2.15 5.04 3.94 1.68 6.43 2.12 1.05.39-.7-.77-1.87.49-2.47-.13-.89.55-1.3.87-1.26 2.35-5.34-.49-.23-1.56 1.2-2.76 1.93-2.12.3-2.21-.93-2.03-1.18-1.18-1.72.44-1.38.95-1.19-.25-1.14-1.37-1.97-.3-.68.23-1.6 2.13-1.03 1.44-.48.67.87.5 1.11.07 2.17.83 1.05 1.92-.14.78-.55-.4-1.04-.51-.69-.65-1.4-.52-3.64 2.54-1.28 4.16-.48 1.15.03.83-2.52 2.37-1.62.57-2.39.09-3.04-1.51-1.86-.79.27-.68.74-.16.82-.45.31-.42-.33-2.03-2.26-.61-2.52-1.68-3.17.33-1.18.71-1.6 2.59-1.68-.45-.4-2.97.57-3.2-.97-2.12-1.13-1.34.13-.76.35.27.75.97.91-.81 2.88-.81.75-.79.28-.99-.55-.67-2.96.33-2.54 1-1.42 2.02-1.42 4.76-.43 1.59-.48 2.57.1 4.26-1.01 3.04-.02-.04-2.01.33-2.66 1.98-2.59 4.8 2.05 1.44 1.83 2.33 1.65 1.7.34.94.57 2.45.76 1.56-.39.75-.62.51-.71.4-.96 1.25-2.46.87-.48 1.43-.2 1.27.55.42.45.74 1.81-1.11.9-1.49.99-4.98 4.57-1.42.82-1.58.41-1.02 2.64-1.99.88-4.81-1.19-.52-.3-.15.83 2.18 1.5 1.87.92 2.61-.1 2.07-1.7 3.67-3.6 1.3.09 1.12.73-.17 1.36-1.8 2.03-1.55 2.11-5.88 5.13-3.48 1.18-.67.52-.48.85 1.34.91 1.97-.55 1.97-1.16 2.47-1.82 1.18-1.8 1.01-.86 2.88-3.29 1.82-1.34 1.79-2.53-.23-1.64-.83-1.55.78-1.78 2.88-2.5 2.31 2.01 3.8-.2 2.04.42.73.87 1.49 4.36.55.5.45-.81-.06-.84-.69-1.63-.59-3.85-2.66-2.71 2.54-2.32 2.44-2.07 1.68.84 2.98 1.06 7.3-.08 2.93-2.18 2.57-3.04-1.58-2.58-.78-4.01-1.1-2.63-.68-2.78 1.86-1.81 2.74-3.24 2.65.95 4.38-3.87 1.19-4.76 2.29-2.42 3.53-.75 1.46-1.35 1.8-1.3 1.78 1.15.74-.92 1.11-1.85.39-2.95 2-2.88 3.46-2.48 1.5 1.55.41.1.3-2.96.65-3.01.8-.76 1.44-.02 1.37.43.34 2.08-.98 5 .92-.72 2.05-4.25 2.77-5.07-2.21-.83-1.34-1.59-.11-1.2.15-1.56 1.46-.79 1.25-.51 2.01-.24 2.81 1.59 2.86-.05 2.79-2.64-.8-.14-2.91 1.92-2.3-.39-.71-.8-.62-1.28-.24-3.95-.7-1.39-.98-.89-1.31-.09-5.21 2.39-1.49-.06-4.23-2.83-1.1-1.63-1.17-1.86.87-.92 1.3-.71 1.28.11.47-.57-1.12-1.14-.65-2.28.34-2 1.55-2.82 1.56-5.19 1.79-3.19 2.35-1.44 7.73-6.83 3.57-3.81 3.63-2.94 1.67-2.46 4.33-.13 2.01-.54 7.62-5.76 3.14-3.87 4.62-15.52 1.01-2.86 1.83-3.11 4.24-4.23 1.37-1.81.99-3.37.72-6.14 1.44-2.31 2.49-1.62 1.03-3.6 1.62-1.46 1.45-1.04 3.03 3.45 1.86.87 1.4-.2 2.25-1.85 2.82-3.51 1.29-1.44 1.83-2.12 2.37.39 2.1-1.76 3.5-1.94 7.23-7.57 2.94-.94 3.18-1.31 1.79-4.14 2.14-.9 1.68-.58 2.28-1.62 2.49-1.28 4.65-.99 3.07-3.21 6.28-4.89 3.11-3.79.98-.91-.62 50.22-1.39 50.22-5.87 49.88-6.63 49.79ZM540.44 261.65l.24.422-.94.145-.28-.117-.05-.845.43-1.155.37-.973.81-1.017 1.66-1.141.89-.519.29.158-.33.151-2.72 2.289-.66 1.375-.29.914.13.23Zm108.99-2.055-.37.56-.15-.485-.62-.161-1-.358-1.34-.392-.7-.023-.38-.282.49-.241.8.134 1.08.389 1.34.35Zm-16.61-2.43.06.457-2.5-1.939.87.031Zm-27.75 66.072-.59.574.15-.666-.69-1.238-.52-.079.44-.502.9.904Zm-59.68-49.658.39.822-.57-.313-1.99-.461-.29-.67Zm-4.2-3.867.28.629-.92-.244-1.04-1.075-1.68-1.2-.44-.556 1.19.361.91.714Zm-48.11-41.677-.38.381.28-2.038.56-.378Zm-19.97 17.459 1.49.866-1.85-.396-2.2.162.73-.385 1.29-.296Zm-3.01 1.079-.92.343-2.57-.876.95-.217 1.44.574Zm-38.66-10.197.03 1.12-.63-.931-1.77-1.296-.75-.595.71-.048Zm-8.17 13.895.16.395-.52.086-1.09-.983-.54-.949-.75-1.072-.94-.674-.24-.762-.25-1.245 1.23 1.688 1.07 1.337.94 1.11Zm59.55 1548.169 5.4.83 2.74-.6.62-2.22 3.94-.68-.17-.8-1.25-.62-8.96-1.63-4.51-1.73-1.96-2.53.68-3.74 5.79-.58 3.85-1.13 1.16-1.37 1.23-3.22-1.68-4.34 2.08-1.77 2.01-3.44 3.91-3.81.63-2.15 2.48-3.15 4.56-3.02 2.14-1.93 1.25.01 2.2-.25 2.27.48 2.14.36 2.81-.34 1.11-1.24 3.24-1.89 8.52-2.9 2.73-1.21 1.81-.57-1.03-1.37-2.7-1.75.02-1.38 4.79 1.26 3.8.65 3.05 1.07 1.56 2.47-1.45 1.45-.69 1.21 3.09 3.35 6.17 4.09.51-1.19-.12-1.14 2.48 1.15 1.71 1.6.23 1.43-2.49.88-2.22 1.54-1.66 2.12-3.15 1.24-.6.84-.37 1.02 2.66-.17 2.49-.3 3.11-2 4.36-2.2 1.54.72 1.4 1.83 3.37 3.15 1.71 4.95-3.43.54-1.74 1.88.91 1.85-1.28 2.11-1.6 4.63-4.02.16-3.04 1.87 1.5.61 6.36.22 2.4-1.85 2.6-1.7 1.61.08.71 1.7-.92 1.36 1.56 3.03-2.07 3.29-.66 1.72.57 1.45-.04 1.04 1.22-.28 2.83.3 1.54 2.15.51 1.56-.99.89.27 1.6-2.56-.44-5.03-2.2-4.79-1.29-.5.69v1.46l3.66 2.08 6.99 2.07 2.31.34 1.65 1.27.24 1.04 6.29.88 4.44.39 1.59-.26 1.92.78.54.99-1.5 1.42-.01 1.03-.66.86-1.52 1.27-.84 1.3.5 1.86-.57 1.15-3.98-.39-1.22.61.78 1.22 3.98 2.31.82 1.73 1.45 1.99 1.76 1.7 8.16 3.64 1.46 1.37-.47 1.02.37 1.06-1.05.76-.86 1.18 1.28 5.46 1.73-.17.18-1.19 1.8-3.7 2.12-1.06 3.85 1.16 1.85-.04 2.2-.6 1.2-.63 1.44.14 2.38 1.37 2.16 1.42 2.14 2.12 1.43.16.88-1.07 5.97 1.68 2.28 1.76 2.29.44 2.18.71 1.69 1.54.79.98 2.04.99 1.66-.72.74-.69.67-1.12 2.58.05 3.85.29 3.19.37 4.73 1.76 3.09.38 2.33-.62 1.92.79.91-.7.52-.83 1.85.37 1.97 1.11 1.97 2.47 1.61 1.32.87-1.34 2.54-.74-1.39-2.77-1.91-1.96-1.8-1.51.75-.28 2.18.85 3.86.91 4.54-.95 1.7-.85 1.15-1.02.43-1.15 2.19.59 1.74 1.17-.52.81-.29 1.54-2.03.35-1.69.16-1.95 6.82.03 1.71 1.41 2.56.35 2.11 1.12 3.43.86 1.56-6.02 1.19-4.01-.29-.35.32.61 1.01 2.6.91 6.15.56 1.71-.1 1.49.51.64.65-.19.54-1.39.45-1.42 1.25 1.3 1.95 3.21 2.86 2.61.44h1.56l1.65.64 2.62 2.81-.01.65.49.56 1.3-.1.35-.97 1.46.34 1.01.68.81 2 1.77.41 1.08-.61.04-1.21 1.47-.31 1.98.62.91 1.04.57 1.06 3.51 7.01 1.18 1.19 1.89.46 1-1.76 1.25-5.77.71-.19 1.43.59 1.76.87 1.44.1 1.21-.52 1.38.39.44.57.4 1-.1.94 1.53.4 1.71-.8.3-.36 5.11 1.51 2.16.69.89.94.62.43 1.77.55 1.68-1.15 6.21-.59.16-.49 1.33-.55 3.27-.51 1.84.06 1.08-.52 1.41.35 1.33-.09 4.43-.6 1.71.31 1.76 4.86 1.07 4.55 2.19.27 1.13-4.12 1.66-.67-.21-.6-1.27-.74-.82-2.74-.22-2.59 1.04-.42 7.12-.69 2.77-.46 1.19-.49.47-.52 1.07-.09 2.06.33 1.71.8.87.14.45-.14 1.4-.06-.14-.77-1.01-1.25.52-.37 2.27-.09 1.29.94.61.49 1.22.78.36.4-.03.81-.17.38-.43.29.94.43 1.3-.03 1.38-.23 2.94-3.97 2.48-.37-.4-1.66.6-.38.85-.16 1.94.72.92-.31 1.94-.21 1.41-.89.51-1.01 2.63-.2.43-.56 1.32.21 2.27-2.3 1.1.09 1.59.47 1-.26.53-.59 4.59-2.21 2.07-.57.13-.34.43-.16 1.62-.3 1.19-.58 1.65.43 2.33.42 2.06-3.27.77-.4h1.41l1.2-1.32 1.47-.99 1.44.54 1.06.11.17-1.32.34-.92.43-.62 6.36-3.78 7.7-2.47 1.87-.15 2.83 1.04.71-1.13 7.37-3.31.97-.67 5.12-1.07 9.6-.38.67-.21.56-.48-1.83-1.99-2.01-1.59-1.86-.87.28-.77 1.25-.79-.96-.87-1.1-.14-3.02.9-13.95 2.12-.47-.13-.49-.28-.63-.22-.81-.14-1.76.94-.79-.09-.67-.35-.1-.31.2.01 2.01-2.23-.22-.75-.3-.37-.36-.17h-.7l-2.35-.79-.93-.43-.79-1.19-.2-.61.45-.95-.4-.89-1.3-1.18-4.12-1.17-2.07.06-.21 1.28-1.48 1.28-1.53 1.88-.83.09-1.5-.54-2.36-1.21-.75-.15-2.08-.93-2.24-.67-7.73.66-1.71-.16-11.05.41-1.23-.6-1.23-.74 4.84-.6.46-.47-.05-1.08.59-.28-.02-1.11.36-.91 3.53-.05 6.27-.65 1.9.09 1.18.22.63-.15.89.14.22-.72.54-.02.58-.78 3.06-3.16 1.62-.82 2.83.07 2.66 1.81 1.37.68.15-1.47-.12-1.54.73-1.89.75-.01 1.8.65 2.57 1.44 3.24-3.15 1.66-.96 1.85.22 1.86-5.87.18-1.11-.58-2.89-1.32-.2-.76.11-1.04-1.02.09-.71.86-1.41 1.89-2.48.91-1.83-.77-2.99 1.24-5.93.15-2.38-.57-3.48-5.99-4.42-5.56-3.59-.11-1.97.09-1.64-.18-1.16-.48-1.52-1.86-1.18-1.56-.77-2.07-.42-6.89.09-2.53-.16-.51-2.23.04-1.94 1.62-1.76 11.99-9.14 12.6-9.04-.31-1.56-2.71-.9-1.83.27-.85-.24-.74-.96-.72-1.44-.3-.15-.7.11-3.48-.5-.88-.4-1.68-1.14-.86-1.1-1.05-3.34.17-1.7 1.1-1.36.93-.73 3.23-1.29 1.05-.94.33-.64-.8-1.45-.68-.54-.44-.92.3-.76.7-.24-.32-1.19-1.22-1.65-1.44-.55-3.38-.56-7.14.16-3.27-.83-2.07-.82-1.99-1.13-1.54-.25-1.25-.49-.4-1.12-1.26-1.47-.6-.08-1.54 1.64-3.63 1.34-5.05.65-3.91-.17-6.65-2.52-2.94-1.42.11-2.22.6-1.7 3.8-5.16.29-1.27-.17-2.69-2.32.06-1.48.89-1.69.14-5.53 2.87-2.85 2.04-4.25-1.07-3.61-1.37-1.4-.95-1.96-2.02-1.6-3.72-1.05-2.72-2.05-2.9-2.54-4.11.08-1.94.6-.7 3.82 2.06 1.69-.64 1.83-1.88.4-2.43.37-1.04 1.31-.92 3.16-.75 1.06-.96 1.48-.59 5.63-.15 1.53.51.96.51.79 1.04 1.18.87 2.17-.36 4.86-3.16 1.51-.38 5.39 1.52 4.85 2.01 1.5.4 2.07-.16.36-.8-.08-1.53.93-2.33 2.94-3.58.02-2.38-1.01-.87-2.05-.53-1.1-.01-1.11-1.09-.8-1.82-.49-1.86.85-.85 2.98 1.57 3.36 1.26.97.02.59-.37.86-1.23 1.18-1.13 4.73 3.72 1.74-.23 2-.73.09-.88-.74-1.16-.89-1.26-.5-.04-.56-1.23.42-1.49.41-.73-.59-.77-1.51-.94-.68-.03-.74-.35-.2-.96.5-.63.39-1.66-.89-1.42-.77-2.02-.8-.91-3.08-1.27-4.69-2.17-3.7-.35-6.25 3.88-2.74.22-1.97-.23-2.24-.43 1.41-2.07 1.71-1.72.27-1.02.1-1.87.44-1.5.63-.62 2.8-.43 7.52 1.99 1.4.02 4.7.52 1.12-.31 1.17-.91-1.84-1.49-1.74-.9-4.43-2.7-.42-1.91.71-3.66 4.92-2.01 1.79-1.81 2.03-3.25 2.38-5.02 3.1-1.5 3.69-2.43 1.68.46 4.69 2.71 2.59.66.78-.08.74-.34-3.49-4.03 1.16-.98 1.56-.99 1.08-1.55.77-1.25 2.38-5.42 2.97-2.08 9-4.16 3.7 1.08 2.8-.37.48-.65.02-2.53.42-4.99.89-1.92 3.9-2.57 3.37-.52 2.78 1.51 2.48.89 2.16.24 2.06-.37 2.91-1.58 4.06-.96 1.84-.84 2.39.78 5.53-.3 4.43 1.06 2.62-.23 3.4-1.83 1.91-.38 6.78-3 5.46-.86 4.23.86 6.69-.94 6.84.32 2.76.84 15.32-.45 12.3-1.83 1.72-.7 2.79-2.34 1.62-2.2 1.03-.64 2.11-.11 3.52.77 4.73 2.12 4.26-.23 7.89 1.83.86-.7 1.35-4.2 2.26-6.66 1.44-1.88 1.81.78 5.07 4.66-.15 1.67-.77 1.11-.98.32-.79 3.27.59 1.05 1.28-.11.55 1.55-2.12 2.22-1.45 1.24-.87.5-1.26 4.67-.96 1.48-.35 1.71 1.14.16 1.26-.54 1.04-.06 3.42-.76 6.13-.51 2.07-.38 1.15-.05.9-.82-.54-2.51.04-1.99.91-1.5.37-2.77-.04-2.89 1.56-1.85 1.02.64 1.95.01.86 1.22 1.46 1.2 1.47.75 1.09 2.12-.37 4.1-1.33 4-2.14 2.7-3.33 2.18-3.97 3.74.24 2.17 1.74-.41 6.88 1.53 4.52.58 2.67 1.09 3.23 1.87 2.35 2.22 3.19 1.11 2.21-.11 1.68 1.28 8.42-1.42 3.63-1.09 1.43 1.46 3.07.01 1.32 1.18 3.31-.32 1.88.45 1.95 1.13 6.34 2.33-.34 2.33.69 3.92 1.07 1.79 2.17.14 1.81-.48 2.1 1.16 3.79-.18 3.05 1.64 1.44.29.99-.66 1.39-1.77-.53-1.47-2.26-2.49-1.45-3.87-.93-1.06-2.05-.35-.69-.83-.59-1.28 1.7-.69 3-3.09.68-3.52-.46-.96-1.85-.53-2.65.41-.56-1.13-1.27-.92.6-3.27.6-6.28-.22-1.93-1.96-2.33-1.9-1.46-1.77-1.61.16-2.51 1.5-3.01 2.81.14 2.36 1.11 1.16 1.05 1.49.76 1.59 1.25.83 1.3.74.83 1.74.65 6.41 1.31 1.06-.29 1.17-.83 1.4.2 1.12.61 2.01-.01-1.62-1.65-1.43-2.51-2.41-3.26-2.29-2.11-4.71-2.52-2.68-.59-1.45-.98-5.87-1.62-1.29-1.33-.33-2.66.24-5.94.53-3.05 1.46-.74 1.14-.97 1.81.47 2.43 1.25.65.83.02 1.9-1.24 1.55-1.14.65.2.99 2.51 1.07 1.09.94 1.03.56h2.67l3.6.88 1.43 1.38 1.84 1.32 3.41.15 10.53 4.56 1.2.74.61 2.06.69 1.37 1.34.08 2.63 3.18 1.17 2.14 1.53 1.47 1.47.85 1.91.41 2.83-.15 2.11.38 1.14 1.02 2.74 1.52 1.47 2.36 1.97.22 2.57-.71 6.18 1.61 3.56 2.14 5.18 6.19 1.39 1.07 3.99.01 2.55-2.11 1.63-3.05 1.29-.21.55.73 2.59-1.31 1.75 1.21.93 1.01 1.5-.92 2.36-2.44 2.34 1.03 1.32 1.35.94 2.96-.94 1.48-1.83 1.06-3.87 3.09-.56 2.74 1.43.53 1.34 1.43 2.61.21 1.29.72-.02 4.64 1.34 1.07 1.25.52 5.72-.67 1.29.36.36 2.17-.32 4.33.36 2.85 1.56 2.68 1.81 1.68 1.3 3.06.39 2.1 2.95 2.04.85 1.39 1.59 4.95 4.12 1.09 2.52.1 2.45-1.46 2.08-3.34 2.36-3.19 1.52-.91 1.04.39.99 6.33 1.47-2.24.98-1.81 1.27-3.48 1.82-1.92h1.36l.74 2.31 1.49 2.03.57 2.42-.56 6.64-2.22 4.43 1.21 2.55 1.53.99 2.11.73 2.57 1.26 1.48 1.54 2.1.61-1.36 2.32-3.99 1.61-2.22 1.35v.86l1.21.3 1.22.02 2.09 2.35 3.1.42 2.05 1.02 2.8.07 1.13 1.27.74 1.09.27 2.22 1.79.6.51.9.94 1 9.81.7 1.09 1.25 1.74 1.25 3 .85 1.93 1.03 1.15 1.24 3.81.63 3.09 3.71 2.59.99 4.3 2.63 3.39 1.36 7.13 1.6 3.5.17 6.1-1.6 5.5-2.3 7.08-3.27 3.24-3.75 1.04-2.12 1.31-2.13 2.51-4.6 4.37-4.3 4.58-3.52 3.7-4 2.6-3.12 4.1-5.47 2.06-4.25 2.94-5.49 4.04-3.47 2.78-3.15 1.33-2.99 1.38-2.01 1.1.49 1.24.26 2.5 1.42 3.04 5.92 2.21-1.09 2.43.13 2.45-.53 2.35-2.47.1-1.98 1.04-3.16 2.29-.87.92 1.07 2.37-1.09 1.54-2 2.8-1.48 3.89-1.56 1.69-.25.76-2.77 1.34-3.16 2.07-1.25 2.43-1.03 3.31-1.56 2.77-.63 1.2.11.52-.74-.64-2.1-1.08-1.51-3.4-1.48-.12-.6.52-.67 1.17-1.27 3.38-2.49 3.35-2.19.74-.03 1.26.7 3.15-1.02.91.77-.28 1.22-2.9 2.79-.44.9-1.56 1.15-.11.89 1.42-.24 1.36.64-.69 1.28-.18.81 1.03-.56 2.39-2.23.85-1.03 1.51-1.49.98-.42 1.46-.8 2.25-2.66 1.11-.67 2.41-.37.7.21.78.91.35 2.53.59.84.96.18 1.33-.47 3.57-2.47.59-1.7 1.05-.88 1.04-.14 2.93-1.17 1.08 1.02.71 1.27 1.34.71.64-1.16 1.2-1.53 1.69.66.89.59.78 2.85.15 1.24 1.82-.21.98-1.19-.02-1.35.92-.97 1.46-.86.42 1.85.52.08 1.46-.59.41-.69.62-.77 1.58 1.61h.51l1.22-.39.74.29 1.21 1.59.75-.04 1.17-.66-.45-1.07.14-1.89 2.62-2.38 2.17-1.32 2.52-.4 2.13.27.72 3.05 1.58 1.53-.5 1.51.45 1.17 1.36-.7.72-1.25 1.49-1.62 4.17 1.21.38 1.14 1.33.74 1.27-1.63 2.47-.93.89.58-1.34 1.91.23 1.04 1.06.53 3.62.54 1.09.81.88.96 2 .17 1.62-.79 1.43-.15 2.72.86 1.51.05 4.61-.84.64-.94 1.06-.04 6.67 2.77 2.04 2.28 4.77 2.82 3.96.98 2.01.98 3.45-.3 1.58 1.48 4.45 2.92 4.87 1.18 4.77 3.03 1.11 2.17-.08 1.21-2.02 2.09-2.33 2.74-.61 2.24-1.58.35-.62-1.34-1.14-1.14 1.24-1.23 1.35-.2.62-1.11-.98-1.05-1.5-1.28-1.4-.6-2.41-.37-1.56-.52-4.61-2.1-4.79-.14-4.52.68-2.98.6-1.17-1.35-1.08.24-.26 1.05.02.67.48 1.28-1.12.49-.79-.54-.71.62-.65 1.59-1.59 1.32-.85-.72.88-2.61-.86-1.67.02-1.79.68-1.62-.76-.56-2.09.65-1.66 1.67-1.57.16v-1.1l2.06-1.87-.08-.99-.65-1.01-4.06-.61-.67-.8-1.53.46-2.32-.37-1.74-.06-5.18.54-2.4-.06-2.48-1.61-.54-.97-.03-.79-.33-.99-.57-.84-1.16.45-2.18 3.63-1.59.09-1.06-1.6.33-1.42-1.31.03-1.18.12-1.57.41-1.99 2.67-.3 2.06.46 1-.73 1.03-1.77-1.57-3.17.42-1.99.6-1.83.36-1.5 1.26-1.62 2.71-.72 2.55.81 1.4 1.78 1.3.75.05 1.46 1.49 2.19-.46.5.47.06.69.48.83 1.39-.36.8.29.28 1.01 1.13 1.53-.67 1.13-1.43.29-2.19.14.21-1.48-.69-.67-1.1.14-1.11 2.04-1.74.78-2 .41.39-1.52 1.54-1.29.16-1.83-.36-1.42-2.22.49-1.3-.81-2.06 1.25-2.14.83.05-1.06 2.03-1.88.4-3.2-.48-1.17-1.92-1.6-.46-.7-.98-.48-1.9.57-.49 1.63-1.28 1.39-1.12.81-.55.15-1.02.56-.65 1.86-1.76 1.36-.51-.69.1-.97 2.95-5.72.97-2.97 1.32-1.98-.71-1.78-.77-1.08-1.72-.68-.45 1.14-1.07 1.23-1.12-.36-2.69.58-2.16.69-.65-.1-1.35.28-.55 3.67-.6.95-1.36 1.22-1.26-.04-1.49-1.25-.59-3.81-.88-1.16.72-1.23-.61-.47-2.03 1.07-1.9.81-1.54.2-1.44 1.46.02.8-.97.13-1.17-.39-1.06-.05.38 1.67-.33.64-.72.66-2.06-1.42-1.13-1.1.03-1.22-.86-.42-1.36.37-1.44.96-1.54 1.46-.97 1.18-.3.54-.83 1.01-3.44.96-.65.32-1.23.87-.62 1.39-1.26 1.68-1.26.06-2.13.68.23.9.83 1.14 1.18 1.04 2.88.67.64.31-.37.67-.74.83-1.2.21-4.97-1.37-1.49.21.11 1.25 1.24 1.74-.24 1.25-1.15.26-1.28.04-2.42.79-.24 1.11.31 2.65 1.09 4.35 1.38 2.77 1.27-1.83 2.08-1.72 3.04.38 1.24.45 4.15 3.32.8 1.14.19 1.21-1.14.33-.38-1.18-1.85-1.19-3.79-1.1-1.16.16-1.35 1.3.42 3.02-.45 1.39-3.57 1.22-1.73 1.53-1.23 2.56-1.27 3.11-1.02 1.81-.12 1.71-.93 3.29-1.52 2.51-4.84 3.9-3.21 4.34-.77 2.96-1.54 1.36-2.04.64.01-2.04-1.53-.07-1.98.97-.55 1.81-.46 2.58 2.45 3.15-1.62 1.25-1.52-.08-1.65.27-1.21-.24-1.3-.91-1.74.76-1.72 1.95 2.12 1.01.98 1.15.52 1.53-2.56 2.31-2.48 3.85-1.42 1.48-1.77.78-1.11-.59-1.64.27-1.67-.07-1.19-.56-4.1.26-.81-.54-.8.09.72 1.65.62 1.06 3.86.59.05 1.18-1.18 1.57-1.64 1.47-1.92.49-3.5-3.14-2.11-1.23-3.77-.27.41 2.97 1.53 1.35.12 1.1-.08 1.69 1.28.93 1.54.39.46.75.01.97-1.47 1.09-2.62 1.83-1.92 1.46-1.6.47-2.25-1.27-.9-1.4-2.85 1.81-.73 3.44 1.98.56.19 1.5-3.4 2.18-3.22 3.28.27.9 2.15-.45.52.81-1.83 1.59-3.67 1.79-2.28.57-.27-2.13v-1.3l-1.75.09-1.89-.5-.85-.96 1.05-2.02.54-1.9-.55-2.13-.81-1.8-1.07 1.49-.36 1.29-2.36 1.97-2.27 2.33 1.6.86-.29 2.82-.85 2.18-1.81 1.84-3.86 1.58-1.92-.23-1.02-.26.55-1.95-.52-.77-1.15-.43-1.75.75-1.11-.05 1.82 2.91.18 1.15-.99 1.56-2.55.18-.95-2.05-1.25-.34-1.81.2 1.05 3.27 1.22.87 2.63.91-1.15 1.33-1.9.18-2.91.52-2-1.47-1.01-1.42-.46-2.4.14-.81-.28-.96-1.33.97-.62 1.12-2.64 3.53-1.19 1.08-2.13.82-2.12-.19-1.39-.83.52-1.81 2.86-2.96.33-1.6-.38-1.15-.55-.45-1.65 1.2-1.64 1.44-1.54.5.08-1.25-1.34-.65-1.69-.29-1.73-.11.74 2.15.78 1.23-1.08 1.98-1.07.26-1.51-1.33-1.85-1.04-3.35-.82.36 2.05 1.08 1.42.56 1.13.27 1.06-.83.9-1.47.23-5.15-1.52-5.89-1.15-2-.52-1.57-.89-5.11-.97-2.76-.92-6.14-3.7-11.48-4.03-5.66.18-3.25 1.38-.8-.17-2.16-.68-1.69-1.05-3.71-3.43-2.38-4.77-2.71-3.19-2-1.24-3.58-7.37-.82-.58-1.27-.45-.72-.66-.26-.77-1.05-1.19-4.79-2.72-1.64.93-1.79 2.82-1.35 4.13-2.64 7.13.17 2.16-.39 1.82.06 2.61 3.01 3.01 3.09 5.02 1.31 3.23-2.03 1.67-5.11 1.99-2.27.45-4.57.39-4.03-1.47-1.76-2.37-1.83-5.52-3.14-6.24-5.97-8.13-.94-2.25-1.29-2.45-1.93-.02-1.58.14-2.05-1.39-.04 1.16 3.31 11.11 2.95 8.85-.15 1.53.26 1.38-2.26 2.18-2.06 1.48-2.68.55-3.16-2.51-5.05-1.92-1.97-1.53-.84-2.8-1.09-6.97-.36-4.77.7-4.6.71-3.52.47-3.61-1.14 1.67-.98 1.77-.81 2.48-.63 2.89-.63.92-.59-.26.04-1.56-1.4.49-1.11.95-.9 1.68-.73 1.7-1.21 4.1.44 1.65-.1 2.97.54 6.1-.42 1.63-1.18 3.34-1.47 2.08-.67 2.65.4.81.65.4 1.64-1.46 1.71-2 .69-.28 1.38.27 1.85 2.67 9.79 9.13-.14 1.92-1.04 1.71-2.66 3.05-4.5 2.48-2.17.84-2-.11-1.72-.19-1.8-1.07-2.96-3-3.17-2.63.87 3.75 1.02 3.37 3.44 2.55 1.63.76 1.73.35-.69 1.54-1.6 3.14-.3 1.21-.49 1.09-2.23 2.98-1.41 1.67-1.41 2.14-1.25 1.75-.61 1.41.27 1.17 1.73-.03 2 1.19.05 2.83.5 1.39 2.5.27 2.75-.4 3.72.97 1.07-.13 1.12.19.74 1.08-.07.71-1.32 1.88-2.01 2.37-.64 1.6-.26 1.37.24.48.36 1.9 2.18 1.17-.1 1.32-1.32 1.18-.8 1.24.03.8-1.13 11.48.45 3.24 1.93 4.14 1.88 2.95-.15.66-.97 1.35-1.64-.57-.9-1.1-.86-1.97-.62-.51-.56-1.57-.75-.53-.04-.89-1.6-.33-1.94-1.23-.72 1.04.23.77.56 1.51 1.43 1.63-1.51 1.17-1.54-1.33-2.74-3.15-.52-.17-1 .29-.03.76-.22.6-1.02.91-3.17 1.6-1.63 1.87-.06.59.58.19-.32 1.21-.65 1.37.91 1.43 2.66.71.52.84 2.44 1.65 1.17 2.12 3.68 1.84.25.5.04.57-2.21.15-6.45-1.07-1.59-.74-.86-.17-1.88 1.49-1.87 1.69-1.74 2.2-3.09 2.51-.41.92 2.21.11-1.05.91-2.35 1.36-2.06.8-1.3.29-1.19.36-1.49.63-.96 1.06-.09 1.46.57 1.54.72 1.31.11.99 9.43-.88 4.43-.55 1.95-.15 1.45-.02 6.28.55h1.8l2.54-.21 1.03 1.29 4.49.47 3.57.66.87.5.45.46.87.41.5 1.71.96.99 2.63 1.41 1.78 1.19 1.65 1.37.91 1.91 3.76 4.67-.31 1.79-1.45 2.28.39 1.08 1.04 1.26 1.08.78-2.17 1.09-2.94 1.07-2.93.3-1.97-.29-2.93.6-1.13 1.43.77 1.05 1.89 1.77-49.62 7.85-49.73 7.08-50.16 2.61-50.2 1.85-50.16-2.64-50.11-3.41-49.62-7.87-49.48-8.63-48.52-13.01-48.31-13.75-46.9-18.01-46.6-18.73Zm1334.69-957.51-3.37-1.51-.07-.19.4-.27 1.06-.26 1.31-.25.21.09.27.27.29.39.65 1.12.04.54-.23.27ZM846.36 380.46l-.22.388-.5-.302-.52-.639-.2-.739.46-.444.58.214.36.731Z" fill="#666" fill-rule="evenodd"/>
  <path d="m926.5 384.5 32.9 580.28M959.5 964.92l301.878-496.42M959.71 965.5l-19.205 578.676" stroke="var(--secondary-color)" stroke-width="6.875" stroke-miterlimit="8" fill="none"/>
  <path d="M945.5 964c0-9.11 7.39-16.5 16.5-16.5s16.5 7.39 16.5 16.5-7.39 16.5-16.5 16.5-16.5-7.39-16.5-16.5Z" fill="var(--secondary-color)" stroke="var(--secondary-color)" stroke-width="6.875" stroke-miterlimit="8" fill-rule="evenodd"/>
</svg>
