<svg xmlns="http://www.w3.org/2000/svg" viewBox="0 0 3075 1636">
  <script type="text/ecmascript" href="../../../scripts/color.js"/>
  <path fill="none" stroke="#1E90FF" stroke-linejoin="round" stroke-miterlimit="10" stroke-width="3.594" d="m1015.67 983.978 160.8 6.514m253.82-171.285-102.7 131.561m-492.022 42.148-.333.027-.36.036-.413.036-.45.036-.485.045-.54.045-.593.054-.647.054-.72.063-.782.072-.863.072-.953.082-1.043.09-1.142.09-1.259.108-1.385.117-1.51.117-1.672.135-1.825.145-2.005.152-2.203.162-2.41.172-2.652.18-2.904.198-3.183.208-3.489.216-3.821.225-4.181.225-4.585.234-4.999.244-5.485.234-5.997.234-6.546.217-7.157.198-7.804.18-8.524.126-9.297.081-10.133.018-11.041-.072-12.021-.18-13.082-.306-14.233-.469-11.536-.477m1557.125 323.937 185.99 12.73M530.426 437.21l63.19-190.04M1762.77 1314.646l168.98 159.391M659.314 996.358l-5.952 44.31m362.308-56.69-.34-.018-.38-.018-.42-.018-.46-.018-.504-.018-.558-.018-.602-.018-.674-.027-.729-.027-.809-.027-.89-.027-.971-.027-1.061-.036-1.169-.036-1.286-.036-1.402-.036-1.547-.036-1.69-.036-1.852-.036-2.023-.036-2.221-.037-2.428-.026-2.652-.027-2.913-.018-3.174-.009h-3.462l-3.785.018-4.136.036-4.496.063-4.909.099-5.34.135-5.808.18-6.321.243-6.87.316-7.462.396-8.092.496-8.785.612-9.513.757-7.804.685M641.719 174.92l-3.795 3.06-1.663 1.44-1.349 1.2-1.214 1.1-1.132 1.06-1.088 1.04-1.061 1.05-1.043 1.05-1.043 1.07-1.043 1.1-1.052 1.14-1.061 1.17-1.079 1.22-1.088 1.27-1.115 1.34-1.142 1.39-1.16 1.46-1.178 1.54-1.213 1.63-1.241 1.71-1.259 1.81-1.294 1.92-1.322 2.02-1.349 2.15-1.384 2.28-1.412 2.42-1.439 2.58-1.447 2.74-1.484 2.92-1.501 3.11-1.529 3.32-1.528 3.54-1.547 3.79-1.546 4.05-1.547 4.34-.755 2.22M1669.47 869.131l-239.18-49.915M2495.43 549.34l7.06-5.66m-1174.9 407.088-.2.262-.22.27-.24.315-.27.343-.29.369-.32.405-.36.451-.38.496-.43.54-.47.595-.51.649-.57.711-.63.784-.68.856-.75.937-.83 1.027-.9 1.117-1 1.225-1.09 1.352-1.21 1.459-1.32 1.604-1.45 1.748-1.59 1.901-1.74 2.081-1.92 2.262-2.1 2.46-2.3 2.676-2.52 2.901-2.79 3.153-1.17 1.325m215.05 251.606-.36-.225-.41-.252-.44-.271-.48-.297-.53-.333-.57-.361-.63-.396-.69-.442-.75-.477-.81-.532-.9-.576-.96-.631-1.05-.703-1.14-.775-1.24-.837-1.34-.929-1.45-1.018-1.58-1.117-1.69-1.216-1.84-1.352-1.98-1.468-2.13-1.622-2.29-1.775-2.45-1.946-2.65-2.135-2.83-2.343-3.03-2.568-3.24-2.82-3.45-3.09-3.69-3.388-3.93-3.721-4.17-4.072-4.44-4.469-4.7-4.901-4.99-5.37-5.29-5.892-5.59-6.469-5.91-7.082-6.24-7.776-6.57-8.523-3.66-4.883m130.8 116.622-38.41 91.513m1037.86-679.526 47.29 152.805m-185.41 511.998 58.98-172.861m0 .009.16-.486.18-.523.2-.577.22-.63.24-.685.26-.748.29-.82.31-.901.35-.973.38-1.063.42-1.171.45-1.262.51-1.378.56-1.496.6-1.621.68-1.767.73-1.909.81-2.073.88-2.252.96-2.415 1.06-2.613 1.17-2.829 1.27-3.045 1.39-3.27 1.53-3.514 1.68-3.784 1.84-4.046 2.01-4.333 2.21-4.641 2.42-4.955 2.64-5.288 2.9-5.641 3.18-6.009 3.48-6.397 3.8-6.784 4.18-7.208 4.57-7.64 5.01-8.11 5.48-8.577 6.02-9.073 6.58-9.586 7.21-10.127 7.91-10.685 8.66-11.262.6-.757M929.543 404.69l-95.036-113.74m8.155 270.83 211.778 28.06m1420.48-46.61-292.82-83.67M1982 818.613l-51.66-320.933m-337.28 189.949-85.24-177.489m468.92 941.634 26.08 47.734m104.73-5.397-24.29 98.342M653.362 1040.668l-295.737 508.007m140.766-909.582.099.361.117.387.116.432.144.478.144.523.162.576.18.631.207.694.215.766.243.838.27.918.296 1 .324 1.109.36 1.216.395 1.324.441 1.46.477 1.604.539 1.748.585 1.928.647 2.099.719 2.298.791 2.522.881 2.757.971 3.009 1.079 3.289 1.187 3.595 1.322 3.919 1.466 4.28 1.618 4.667 1.798 5.081 1.996 5.533 2.212 6.018 2.464 6.541 2.733 7.109 3.039 7.712 3.38 8.361 3.75 9.073 4.181 9.821 4.657 10.613 5.17 11.479 5.763 12.406 6.42 13.38 7.148 14.442 7.957 15.551 8.865 16.758 9.873 18.02 10.987 19.38 12.246 20.83 4.783 7.965m2438.162 324.379-450.81-320.649m-1043.9 350.327 3.11 1.279 1.4.559 1.16.45 1.05.406 1 .369.97.361.96.342.96.342.96.343.98.333.99.342 1.02.343 1.06.342 1.08.351 1.12.352 1.17.36 1.19.361 1.26.36 1.3.369 1.36.379 1.42.387 1.47.388 1.55.387 1.62.406 1.69.396 1.77.406 1.85.405.26.054M13.974 1068.229l619.76-102.766M961.965 307.83l-.773 5.42-.386 2.44-.333 2.01-.324 1.8-.305 1.71-.315 1.66-.315 1.63-.332 1.62-.342 1.64-.36 1.65-.369 1.68-.395 1.71-.414 1.76-.449 1.81-.459 1.86-.503 1.92-.531 1.98-.566 2.06-.611 2.13-.648 2.21-.701 2.3-.747 2.38-.808 2.49-.864 2.59-.935 2.7-1.007 2.8-1.088 2.93-1.169 3.06-1.267 3.18-1.376 3.34-1.484 3.47-1.6 3.62-1.744 3.78-1.889 3.95-2.041 4.12-2.22 4.32-2.41 4.5-.342.64m654.727 287.037-6.79 3.361-3.04 1.55-2.48 1.297-2.25 1.19-2.11 1.135-2.04 1.117-2.01 1.117-2 1.118-2.01 1.143-2.01 1.172-2.06 1.189-2.08 1.243-2.14 1.289-2.2 1.333-2.25 1.397-2.32 1.459-2.39 1.523-2.47 1.604-2.55 1.685-2.65 1.765-2.73 1.865-2.83 1.974-2.95 2.072-3.05 2.207-3.16 2.325-3.29 2.469-3.42 2.612-3.54 2.775-3.69 2.947-3.82 3.135-3.98 3.333-4.13 3.551-4.28 3.783-4.45 4.028-4.62 4.297-4.8 4.596-4.97 4.91-5.15 5.244-5.34 5.613-5.54 6.009-5.73 6.442-5.93 6.901-6.12 7.407-6.34 7.946-.27.342M633.744 965.463l.251.315.27.352.306.378.332.406.36.45.386.487.432.54.468.577.503.631.549.675.602.739.648.802.701.865.755.937.827 1.009.891 1.09.962 1.172 1.033 1.261 1.124 1.36 1.205 1.46 1.295 1.559 1.385 1.676 1.501 1.784 1.6 1.909 1.709 2.037 1.843 2.171 1.978 2.307 1.645 1.937M854.602 541.29l-.153.29-.171.32-.188.34-.207.38-.234.4-.252.45-.269.51-.306.54-.333.59-.369.66-.404.71-.441.78-.485.85-.539.93-.585 1.02-.638 1.11-.71 1.21-.774 1.32-.854 1.44-.935 1.55-1.025 1.7-1.124 1.84-.953 1.55m1502.327 877.543 87.78 183.772m-429.93-123.587 104.72-5.397m253.38-76.727 2.92-4.433 1.29-2.009 1.05-1.658.95-1.504.88-1.433.85-1.387.84-1.379.83-1.37.82-1.387.82-1.415.84-1.441.85-1.469.87-1.513.87-1.568.9-1.622.92-1.676.95-1.739.96-1.82.99-1.891 1.02-1.965 1.06-2.063 1.07-2.153 1.12-2.252 1.14-2.352 1.17-2.469 1.21-2.595 1.24-2.72 1.28-2.857 1.31-3 1.34-3.153 1.37-3.325 1.4-3.487 1.44-3.685 1.47-3.874 1.48-4.081 1.52-4.307.45-1.325m-112.02 122.668-182.85 38.436m182.85-38.436.38-.09.41-.09.45-.09.5-.108.54-.117.61-.135.64-.144.71-.154.78-.18.84-.189.92-.216 1-.235 1.08-.252 1.19-.288 1.3-.315 1.39-.361 1.52-.378 1.64-.424 1.78-.477 1.93-.523 2.07-.576 2.24-.64 2.43-.712 2.6-.784 2.81-.865 3.01-.964 3.23-1.063 3.47-1.171 3.71-1.306 3.97-1.442 4.25-1.603 1.18-.46M2502.5 543.68l529.23-239.87m-491.18 364.394-.1-.324-.11-.361-.12-.396-.14-.433-.15-.477-.16-.523-.18-.567-.2-.631-.21-.694-.25-.766-.27-.838-.28-.909-.32-1.009-.36-1.109-.39-1.207-.43-1.325-.46-1.459-.53-1.595-.57-1.748-.63-1.919-.7-2.099-.78-2.289-.84-2.513-.94-2.748-1.03-2.992-1.14-3.279-1.26-3.577-1.39-3.901-1.54-4.256-1.71-4.63-1.87-5.04-2.09-5.5-2.29-5.95-2.54-6.49-2.82-7.03-3.12-7.62-3.44-8.25-3.82-8.94-4.23-9.66-1.71-3.81M964.114 279.95l140.556-70.86M530.426 437.21l192.932-53.01m453.112 606.292 15.82.64m1367.11-5.901-318.65-21.813M530.426 437.21l-.117.36-.135.39-.134.43-.162.47-.171.52-.18.57-.207.63-.225.69-.242.75-.27.83-.288.91-.315 1-.341 1.1-.378 1.21-.404 1.31-.441 1.45-.477 1.59-.521 1.74-.557 1.91-.603 2.08-.647 2.29-.702 2.49-.755 2.74-.8 2.99-.854 3.28-.917 3.57-.971 3.9-1.025 4.26-1.079 4.66-1.133 5.08-1.187 5.54-1.232 6.03-1.276 6.58-1.304 7.15-1.34 7.8-1.348 8.48-1.358 9.23-1.349 10.03-1.303 10.9-1.25 11.87-1.169 12.88-1.07 13.98-.917 15.19-.719 16.5-.162 4.523m911.909 500.502 194.51 40.598m1349.63-438.614-366.59 79.43m-983.04 359.184-1.82 100.63m1001.53-396.222-.95-4.37-.45-1.964-.36-1.622-.33-1.46-.32-1.378-.31-1.334-.31-1.324-.31-1.315-.32-1.316-.31-1.342-.33-1.352-.35-1.396-.35-1.424-.36-1.469-.37-1.504-.4-1.568-.4-1.613-.44-1.666-.44-1.739-.48-1.802-.5-1.865-.52-1.946-.55-2.028-.58-2.117-.6-2.198-.65-2.298-.68-2.396-.72-2.505-.77-2.613-.81-2.73-.84-2.856-.91-2.973-.65-2.109m67.5 469.472-193.94-130.335m97.99-174.915 50.27-64.006M2474.92 543.23l.31.09.33.09.37.12.41.11.45.13.48.14.54.16.59.16.64.19.71.21.78.22.84.25.94.27 1.01.31 1.12.32 1.22.36 1.34.41 1.46.44 1.6.48 1.73.53 1.91.58 1.73.54M961.965 307.83l.36-2.89.162-1.31.117-1.08.108-.96.099-.92.089-.89.091-.88.089-.88.072-.88.09-.9.072-.9.072-.93.072-.96.072-.99.072-1.01.072-1.04.063-1.08.063-1.13.063-1.17.063-1.22.054-1.26.053-1.32.046-1.37.035-1.45.009-.46M2240.76 963.418l234.16-420.188m-890.65 148.507 1.56-.747.69-.325.57-.27.52-.252.5-.235.48-.216.47-.225.47-.216.48-.217.47-.225.49-.225.5-.225.51-.234.54-.244.53-.252m1016.62 233.596.18-.234.22-.271.23-.288.25-.315.27-.361.3-.378.04-.045M1541.1 1256.217l-28.71-17.569m-320.1-247.516-29.01 326.289m429.78-629.792 43.99-19.885M842.662 561.78 623.817 915.594m391.853 68.384 173.99-320.414m1100.74 792.111-73.97-135.398M760.672 141.15l-9.864-129.06m132.907 190.12-1.528-.85-.692-.37-.567-.3-.512-.27-.486-.27-.476-.25-.468-.24-.467-.24-.468-.25-.476-.24-.486-.25-.495-.25-.512-.26-.522-.27-.539-.27-.135-.05m1055.454 300.1.32-.19.36-.21.4-.23.43-.26.48-.28.52-.3.57-.34.63-.37.69-.4.77-.43.83-.49.91-.52 1-.58 1.11-.63 1.2-.68 1.32-.75 1.44-.81 1.59-.89 1.73-.97 1.9-1.04 2.07-1.14 2.27-1.23 2.48-1.35 2.7-1.44 2.97-1.57 3.21-1.68 3.53-1.81 3.83-1.96 4.18-2.1 4.54-2.24 4.95-2.4 5.39-2.56 5.85-2.73 6.35-2.9 6.9-3.07 7.48-3.25 8.12-3.42 8.79-3.61 9.53-3.78 10.32-3.94 10.8-3.96m-427.75 232.574 32.41 201.387m871.09-200.927 413.89 73.375M2064.8 435.16 1881.65 33.9m183.15 401.26.57.07.63.09.67.09.73.09.81.11.86.12.95.12 1.02.15 1.11.15 1.2.18 1.3.18 1.4.2 1.51.22 1.64.25 1.75.27 1.89.28 2.02.31 2.18.35 2.34.37 2.49.42 2.67.45 2.85.48 3.04.54 3.24.58 3.45.63 3.67.69 3.9.76 4.14.83 4.41.9 4.65.97 4.93 1.09 5.21 1.16 5.53 1.27 5.84 1.39 6.16 1.52 6.51 1.66 6.86 1.8 7.23 1.98 5.93 1.67m-222.43 1032.912 3.3 1.316 1.5.54 1.25.442 1.13.369 1.08.343 1.05.315 1.03.297 1.04.289 1.05.279 1.08.27 1.08.253 1.14.252 1.16.252 1.19.234 1.24.225 1.3.226 1.34.207 1.4.198 1.46.18 1.53.18 1.6.145 1.68.126 1.76.117 1.84.081 1.94.054 2.04.018 2.15-.018 2.26-.063 1.55-.072m-43.17-7.055-2.87-1.261-1.28-.613-1.04-.513-.93-.478-.89-.451-.85-.468-.83-.45-.84-.478-.83-.477-.83-.496-.86-.513-.85-.541-.88-.558-.9-.595-.93-.613-.95-.658-.97-.693-1.01-.721-1.03-.784-1.07-.811-1.11-.883-1.14-.928-1.17-.991-1.22-1.063-1.26-1.126-1.31-1.208-.06-.054m-364.49-204.386-2.74-1.171-1.24-.55-1-.451-.9-.423-.86-.397-.83-.387-.82-.387-.81-.397-.82-.396-.82-.405-.84-.415-.86-.432-.87-.451-.9-.46-.91-.486-.96-.505-.99-.531-1-.55-1.05-.585-1.08-.613-1.14-.64-1.16-.684-1.23-.721-1.26-.748-1.07-.649m61.89 24.606 159.77 33.823"/>
  <path fill="none" stroke="#1E90FF" stroke-linejoin="round" stroke-miterlimit="10" stroke-width="3.594" d="m884.07 201.88 4.892 2.81 2.168 1.31 1.78 1.1 1.6 1.01 1.503.97 1.456.96 1.421.94 1.412.97 1.412.98 1.43 1 1.438 1.03 1.466 1.09 1.502 1.1 1.528 1.18 1.565 1.2 1.619 1.27 1.654 1.35 1.709 1.39 1.753 1.49 1.817 1.56 1.879 1.65 1.934 1.74 1.996 1.84 2.069 1.96 2.14 2.07 2.212 2.21 2.284 2.34 2.356 2.5 2.446 2.66 2.518 2.83 2.608 3.01 2.689 3.23 2.769 3.44 2.86 3.69 2.949 3.93 3.031 4.22 3.12 4.52 3.202 4.84.233.36m-89.241-82.38-114.241-56.43M2605.14 884.332l.68 3.217.31 1.441.25 1.189.22 1.082.21 1.018.2.991.2.973.2.964.18.983.2.991.2 1.009.21 1.027.2 1.054.21 1.091.22 1.126.21 1.153.23 1.199.23 1.252.23 1.289.25 1.351.25 1.388.27 1.46.26 1.513.27 1.586.29 1.649.29 1.73.17 1M1930.85 497.38l-250.73 147.911M1508.26 509.83l171.86 135.461M679.742 223.26l-85.815 23.58m118.827-99.92-33.012 76.35m957.778 444.187.33-.153.37-.163.39-.18.45-.207.48-.216.52-.244.58-.27.63-.288.68-.316.75-.351.82-.379.89-.423.97-.46 1.06-.504 1.15-.559 1.25-.603 1.35-.668 1.47-.729 1.6-.802 1.73-.865 1.87-.955 2.02-1.045 2.19-1.145 2.35-1.252 2.53-1.361 2.73-1.496 2.92-1.621 3.15-1.784 3.35-1.947 2.02-1.18m-490.062 17.985 137.952 287.229m604.25 523.315 45-22.256m633.03-530.604 45.68 369.288m-294.46 126.913-1.61 2.388-.72 1.063-.62.874-.54.794-.53.747-.5.721-.5.721-.5.703-.51.712-.51.72-.52.722-.54.747-.56.766-.58.784-.59.811-.61.82-.64.865-.67.883-.69.919-.73.955-.75.991-.79 1.019-.84 1.072-.86 1.108-.04.045M624.124 915.328l.054.306.062.343.072.378.072.415.09.459.09.505.09.54.117.613.117.667.135.73.144.811.162.883.179.964.198 1.063.216 1.171.243 1.28.261 1.406.287 1.55.324 1.693.36 1.857.395 2.036.441 2.235.477 2.441.539 2.677.594 2.937.656 3.208.72 3.514.809 3.838.899 4.19.998 4.587.135.576M2647.57 69.09l-144.48 474.29m-320.44-84.13-200.13 359.089m-818.845 498.85L896.498 987.088m514.242 152.26-112.97-152.566m-461.855 5.874 60.574-5.568M1054.82 589.54 835.915 992.656m-17.913 605.437-164.32-557.681M204.973 436.43l293.714 202.373m143.35-464.213 3.696-2.77 1.69-1.2 1.421-.96 1.286-.86 1.232-.8 1.205-.75 1.196-.74 1.205-.72 1.214-.72 1.25-.71 1.277-.7 1.313-.72 1.357-.7 1.413-.73 1.474-.72 1.529-.74 1.592-.73 1.672-.74 1.754-.76 1.843-.76 1.934-.76 2.023-.77 2.14-.77 2.257-.77 2.383-.77 2.518-.77 2.653-.76 2.806-.75 2.976-.72 3.148-.72 3.345-.68 3.552-.65 3.759-.61 4.001-.56.603-.09M1845.59 1184.329l-82.33 130.085m-570.567-323.542.792.037.854.035.899.036.981.036 1.043.037 1.106.036 1.187.036 1.259.036 1.349.036 1.439.036 1.508.036 1.62.036 1.71.027 1.82.027 1.93.027 2.03.018 2.16.009h7.23l2.68-.027 2.83-.036 2.99-.054 3.14-.072 3.32-.09 3.49-.118 3.69-.135 3.87-.162 4.08-.207 4.29-.234 4.51-.271 4.75-.333 4.99-.379 5.25-.441 5.52-.505 5.81-.576 6.1-.667 2.85-.324m205.36 360.728 9.71-109.1M761.008 140.82l-48.254 6.1m122.109 143.71 40.377-93.38m-20.288 343.74 74.953-136.61m-206.216-20.49 131.272 157.1"/>
  <path fill="none" stroke="var(--secondary-color)" stroke-linejoin="round" stroke-miterlimit="10" stroke-width="7.188" d="M205.222 437.23 14.474 1068.728l343.651 480.447 460.032 49.634 345.623-280.888 339.41 30.308 580.56 244.724 349.51 30.642 222.59-332.614 406.62-50.508-107.53-498.394 77.29-437.769-384.79-234.38-765.29-35.53-373.83 476.23-318.16 153.434-135.22-73.724 50.23-380.76L751.308 12.59 205.222 437.22"/>
  <path fill="none" stroke="var(--secondary-color)" stroke-linejoin="round" stroke-miterlimit="10" stroke-width="7.188" d="m1977.52 1452.593 239.63-131.585 24.32-357.096-258.7-144.901-312.469 50.552-64.633 311.268 240.222 4.382 131.63 267.38M680.474 223.59l155.063 67.4-111.133 93.32-43.93-160.71"/>
  <path fill-rule="evenodd" d="M215.554 436.9c0-5.98-4.829-10.82-10.791-10.82-5.963 0-10.792 4.84-10.792 10.82 0 5.97 4.83 10.81 10.792 10.81s10.79-4.84 10.79-10.81M1987.91 1452.268c0-5.975-4.83-10.815-10.8-10.815-5.96 0-10.79 4.84-10.79 10.815 0 5.976 4.83 10.815 10.79 10.815 5.97 0 10.8-4.84 10.8-10.815m239.73-131.54c0-5.975-4.83-10.815-10.79-10.815-5.97 0-10.8 4.84-10.8 10.815 0 5.976 4.83 10.815 10.8 10.815 5.96 0 10.79-4.839 10.79-10.815m24.33-356.974c0-5.976-4.83-10.816-10.79-10.816-5.96 0-10.79 4.84-10.79 10.816 0 5.975 4.83 10.814 10.79 10.814 5.96 0 10.79-4.839 10.79-10.814m-258.8-144.853c0-5.975-4.83-10.815-10.79-10.815-5.97 0-10.8 4.84-10.8 10.815 0 5.976 4.83 10.815 10.8 10.815 5.96 0 10.79-4.839 10.79-10.815m-312.59 50.534c0-5.975-4.83-10.815-10.8-10.815-5.96 0-10.79 4.84-10.79 10.815 0 5.976 4.83 10.816 10.79 10.816 5.97 0 10.8-4.84 10.8-10.816m-64.67 311.164c0-5.976-4.83-10.816-10.79-10.816-5.96 0-10.79 4.84-10.79 10.816 0 5.975 4.83 10.815 10.79 10.815 5.96 0 10.79-4.84 10.79-10.815m240.31 4.38c0-5.975-4.82-10.815-10.79-10.815-5.96 0-10.79 4.84-10.79 10.815s4.83 10.815 10.79 10.815c5.97 0 10.79-4.84 10.79-10.815" fill="var(--secondary-color)"/>
  <path fill-rule="evenodd" d="M1987.97 1452.271c0-5.979-4.83-10.822-10.79-10.822-5.96 0-10.79 4.843-10.79 10.822 0 5.98 4.83 10.822 10.79 10.822 5.96 0 10.79-4.842 10.79-10.822M690.553 222.91c0-5.97-4.829-10.82-10.79-10.82-5.962 0-10.79 4.85-10.79 10.82 0 5.98 4.828 10.83 10.79 10.83 5.961 0 10.79-4.85 10.79-10.83m155.108 67.43c0-5.98-4.828-10.83-10.79-10.83-5.961 0-10.79 4.85-10.79 10.83s4.829 10.82 10.79 10.82c5.962 0 10.79-4.84 10.79-10.82m-111.165 93.34c0-5.98-4.83-10.83-10.79-10.83-5.962 0-10.79 4.85-10.79 10.83s4.828 10.82 10.79 10.82c5.96 0 10.79-4.84 10.79-10.82" fill="var(--secondary-color)"/>
  <path fill-opacity=".251" fill-rule="evenodd" stroke="var(--secondary-color)" stroke-linejoin="round" stroke-miterlimit="10" stroke-width="6.875" d="M1226.47 997.088c0-313.425-253.643-567.508-566.509-567.508S93.466 683.663 93.466 997.079c0 313.425 253.629 567.5 566.495 567.5 312.875 0 566.509-254.084 566.509-567.5"/>
  <path fill="#EE6363" fill-rule="evenodd" d="M669.967 996.08c0-6.078-4.7-11-10.5-11-5.802 0-10.5 4.922-10.5 11s4.698 11 10.5 11c5.8 0 10.5-4.922 10.5-11"/>
  <path fill-rule="evenodd" d="M669.967 996.08c0-6.078-4.7-11-10.5-11-5.802 0-10.5 4.922-10.5 11s4.698 11 10.5 11c5.8 0 10.5-4.922 10.5-11M215.329 436.65c0-5.98-4.828-10.82-10.79-10.82-5.962 0-10.791 4.84-10.791 10.82 0 5.97 4.829 10.81 10.791 10.81 5.962 0 10.79-4.84 10.79-10.81M24.556 1068.286c0-5.974-4.829-10.814-10.79-10.814-5.963 0-10.792 4.84-10.792 10.814 0 5.975 4.83 10.815 10.791 10.815 5.962 0 10.791-4.84 10.791-10.815m343.698 480.557c0-5.975-4.829-10.815-10.791-10.815-5.962 0-10.791 4.84-10.791 10.815s4.829 10.814 10.791 10.814c5.962 0 10.791-4.84 10.791-10.814m460.095 49.637c0-5.975-4.828-10.814-10.79-10.814-5.962 0-10.791 4.84-10.791 10.814 0 5.975 4.829 10.814 10.791 10.814 5.962 0 10.79-4.84 10.79-10.814m345.671-280.944c0-5.975-4.83-10.814-10.79-10.814-5.97 0-10.79 4.839-10.79 10.814s4.82 10.814 10.79 10.814c5.96 0 10.79-4.839 10.79-10.814m339.45 30.325c0-5.975-4.83-10.814-10.79-10.814-5.96 0-10.79 4.839-10.79 10.814s4.83 10.814 10.79 10.814c5.96 0 10.79-4.839 10.79-10.814m580.66 244.77c0-5.975-4.83-10.814-10.79-10.814-5.97 0-10.8 4.84-10.8 10.814 0 5.975 4.83 10.815 10.8 10.815 5.96 0 10.79-4.84 10.79-10.815m349.54 30.65c0-5.975-4.83-10.815-10.79-10.815-5.96 0-10.79 4.84-10.79 10.814 0 5.975 4.83 10.815 10.79 10.815 5.96 0 10.79-4.84 10.79-10.815m222.62-332.69c0-5.974-4.82-10.814-10.79-10.814-5.96 0-10.79 4.84-10.79 10.814 0 5.975 4.83 10.815 10.79 10.815 5.97 0 10.79-4.84 10.79-10.815m406.68-50.52c0-5.975-4.82-10.814-10.79-10.814-5.96 0-10.79 4.839-10.79 10.814s4.83 10.814 10.79 10.814c5.97 0 10.79-4.839 10.79-10.814m-107.54-498.508c0-5.975-4.83-10.814-10.8-10.814-5.96 0-10.79 4.839-10.79 10.814s4.83 10.814 10.79 10.814c5.97 0 10.8-4.839 10.8-10.814m77.29-437.872c0-5.97-4.82-10.81-10.79-10.81-5.96 0-10.79 4.84-10.79 10.81 0 5.98 4.83 10.82 10.79 10.82 5.97 0 10.79-4.84 10.79-10.82M2657.89 69.26c0-5.97-4.83-10.81-10.79-10.81-5.97 0-10.8 4.84-10.8 10.81 0 5.98 4.83 10.81 10.8 10.81 5.96 0 10.79-4.83 10.79-10.81m-765.4-35.54c0-5.98-4.83-10.82-10.79-10.82-5.96 0-10.79 4.84-10.79 10.82 0 5.97 4.83 10.81 10.79 10.81 5.96 0 10.79-4.84 10.79-10.81M1518.6 510.06c0-5.98-4.83-10.82-10.79-10.82-5.97 0-10.8 4.84-10.8 10.82 0 5.97 4.83 10.81 10.8 10.81 5.96 0 10.79-4.84 10.79-10.81m-318.2 153.468c0-5.974-4.83-10.814-10.79-10.814-5.96 0-10.79 4.84-10.79 10.814 0 5.975 4.83 10.815 10.79 10.815 5.96 0 10.79-4.84 10.79-10.815m-135.24-73.748c0-5.97-4.83-10.81-10.79-10.81-5.96 0-10.79 4.84-10.79 10.81 0 5.98 4.83 10.82 10.79 10.82 5.96 0 10.79-4.84 10.79-10.82m50.24-380.84c0-5.97-4.82-10.81-10.79-10.81-5.96 0-10.79 4.84-10.79 10.81 0 5.98 4.83 10.82 10.79 10.82 5.97 0 10.79-4.84 10.79-10.82M761.491 11.91c0-5.98-4.829-10.82-10.791-10.82-5.962 0-10.791 4.84-10.791 10.82 0 5.97 4.829 10.81 10.791 10.81 5.962 0 10.791-4.84 10.791-10.81" fill="var(--secondary-color)"/>
</svg>
