<svg xmlns="http://www.w3.org/2000/svg" xmlns:xlink="http://www.w3.org/1999/xlink" version="1.1" width="770" height="435" viewBox="0 0 770 435">
  <script type="text/ecmascript" href="../../scripts/color.js"/>
  <path transform="matrix(.00007874016,0,0,.00007874016,1.109052,.7817993)" stroke-width="19050" stroke-linecap="butt" stroke-miterlimit="8" stroke-linejoin="miter" fill="none" stroke="var(--secondary-color)" d="M0 0H9753600V5503026H0Z"/>
  <path transform="matrix(.00007874016,0,0,.00007874016,41.69094,37.4364)" stroke-width="19050" stroke-linecap="butt" stroke-dasharray="57150,19050" stroke-miterlimit="8" stroke-linejoin="miter" fill="none" stroke="var(--secondary-color)" d="M0 385156.5C0 172440.4 171819.9 0 383770.5 0 595721.1 0 767541 172440.4 767541 385156.5 767541 597872.5 595721.1 770313 383770.5 770313 171819.9 770313 0 597872.5 0 385156.5Z"/>
  <path transform="matrix(1,0,0,-1,0,435)" d="M68.74543 367.3454C68.74543 369.0927 70.16185 370.5091 71.90909 370.5091 73.65633 370.5091 75.07275 369.0927 75.07275 367.3454 75.07275 365.5982 73.65633 364.1818 71.90909 364.1818 70.16185 364.1818 68.74543 365.5982 68.74543 367.3454Z" fill="var(--secondary-color)" fill-rule="evenodd"/>
  <path transform="matrix(.00007874016,0,0,.00007874016,68.74543,64.490909)" stroke-width="19050" stroke-linecap="butt" stroke-miterlimit="8" stroke-linejoin="miter" fill="none" stroke="var(--secondary-color)" d="M0 40178C0 17988.3 17988.53 0 40178.5 0 62368.47 0 80357 17988.3 80357 40178 80357 62367.7 62368.47 80356 40178.5 80356 17988.53 80356 0 62367.7 0 40178Z"/>
  <path transform="matrix(1,0,0,-1,0,435)" d="M184.6 202.0727C184.6 288.9521 255.0297 359.3818 341.9091 359.3818 428.7885 359.3818 499.2182 288.9521 499.2182 202.0727 499.2182 115.1933 428.7885 44.76362 341.9091 44.76362 255.0297 44.76362 184.6 115.1933 184.6 202.0727Z" fill-opacity=".251" fill-rule="evenodd"/>
  <path transform="matrix(.00007874016,0,0,.00007874016,184.6,75.618198)" stroke-width="19050" stroke-linecap="butt" stroke-miterlimit="8" stroke-linejoin="miter" fill="none" stroke="var(--secondary-color)" d="M0 1997826C0 894456.9 894456.9 0 1997826 0 3101194 0 3995651 894456.9 3995651 1997826 3995651 3101194 3101194 3995651 1997826 3995651 894456.9 3995651 0 3101194 0 1997826Z"/>
  <path transform="matrix(.00007874016,0,0,.00007874016,131.3636,34.381807)" stroke-width="19050" stroke-linecap="butt" stroke-miterlimit="8" stroke-linejoin="miter" fill="none" stroke="var(--secondary-color)" d="M0 3686798 1586370 0 6445135 1771624 6432762 1770061 5838278 4646815 1586758 4479350 0 3686798Z"/>
  <path transform="matrix(.00007874016,0,0,.00007874016,395.8,75.618198)" stroke-width="19050" stroke-linecap="butt" stroke-dasharray="57150,19050" stroke-miterlimit="8" stroke-linejoin="miter" fill="none" stroke="var(--secondary-color)" d="M0 193963.5C0 86840.42 86840.42 0 193963.5 0 301086.6 0 387927 86840.42 387927 193963.5 387927 301086.6 301086.6 387927 193963.5 387927 86840.42 387927 0 301086.6 0 193963.5Z"/>
  <path transform="matrix(.00007874016,0,0,.00007874016,240.0182,254.0909)" stroke-width="19050" stroke-linecap="butt" stroke-dasharray="57150,19050" stroke-miterlimit="8" stroke-linejoin="miter" fill="none" stroke="var(--secondary-color)" d="M0 274320C0 122817.2 122817.2 0 274320 0 425822.8 0 548640 122817.2 548640 274320 548640 425822.8 425822.8 548640 274320 548640 122817.2 548640 0 425822.8 0 274320Z"/>
  <path transform="matrix(1,0,0,-1,0,435)" d="M257.2546 159.3091C257.2546 161.7191 259.2082 163.6727 261.6182 163.6727 264.0281 163.6727 265.9818 161.7191 265.9818 159.3091 265.9818 156.8991 264.0281 154.9454 261.6182 154.9454 259.2082 154.9454 257.2546 156.8991 257.2546 159.3091Z" fill-rule="evenodd"/>
  <path transform="matrix(.00007874016,0,0,.00007874016,257.2546,271.3273)" stroke-width="19050" stroke-linecap="butt" stroke-miterlimit="8" stroke-linejoin="miter" fill="var(--secondary-color)" stroke="var(--secondary-color)" d="M0 55418.5C0 24811.71 24811.48 0 55418 0 86024.51 0 110836 24811.71 110836 55418.5 110836 86025.29 86024.51 110837 55418 110837 24811.48 110837 0 86025.29 0 55418.5Z"/>
  <path transform="matrix(1,0,0,-1,0,435)" d="M406.4909 344.2182C406.4909 346.6884 408.4934 348.6909 410.9637 348.6909 413.4339 348.6909 415.4364 346.6884 415.4364 344.2182 415.4364 341.748 413.4339 339.7454 410.9637 339.7454 408.4934 339.7454 406.4909 341.748 406.4909 344.2182Z" fill-rule="evenodd"/>
  <path transform="matrix(.00007874016,0,0,.00007874016,406.4909,86.30911)" stroke-width="19050" stroke-linecap="butt" stroke-miterlimit="8" stroke-linejoin="miter" fill="var(--secondary-color)" stroke="var(--secondary-color)" d="M0 56804C0 25432.02 25431.79 0 56803.5 0 88175.2 0 113607 25432.02 113607 56804 113607 88175.98 88175.2 113608 56803.5 113608 25431.79 113608 0 88175.98 0 56804Z"/>
  <path transform="matrix(1,0,0,-1,0,435)" d="M337.5454 202.1818C337.5454 204.652 339.4991 206.6546 341.9091 206.6546 344.3191 206.6546 346.2728 204.652 346.2728 202.1818 346.2728 199.7116 344.3191 197.7091 341.9091 197.7091 339.4991 197.7091 337.5454 199.7116 337.5454 202.1818Z" fill-rule="evenodd"/>
  <path transform="matrix(.00007874016,0,0,.00007874016,337.5454,228.3454)" stroke-width="19050" stroke-linecap="butt" stroke-miterlimit="8" stroke-linejoin="miter" fill="var(--secondary-color)" stroke="var(--secondary-color)" d="M0 56804C0 25432.02 24811.71 0 55418.5 0 86025.29 0 110837 25432.02 110837 56804 110837 88175.98 86025.29 113608 55418.5 113608 24811.71 113608 0 88175.98 0 56804Z"/>
  <text xml:space="preserve" transform="matrix(.2181818 0 -0 .2181818 120.2101 509.01817)" font-size="82.99999" font-family="Arial" fill="var(--secondary-color)"><tspan y="-1993" x="0 55.0041 96.2302 119.113307 164.9874 192.5185 210.83658 256.7107">Exterior</tspan></text>
  <text xml:space="preserve" transform="matrix(.2181818 0 -0 .2181818 307.3484 716.94546)" font-size="82.99999" font-family="Arial" fill="var(--secondary-color)"><tspan y="-1993" x="0 22.916302 68.7406 91.656909 137.4812 164.9625 183.31378 229.13808">Interior</tspan></text>
  <text xml:space="preserve" transform="matrix(.2181818 0 -0 .2181818 444.3188 532.14547)" font-size="82.99999" font-family="Arial" fill="var(--secondary-color)"><tspan y="-1993" x="0 55.0041 100.8782 146.75229 192.62639 238.50048 284.37458 311.90568">Boundary</tspan></text>
  <text xml:space="preserve" transform="matrix(.2181818 0 -0 .2181818 366.7498 674.18179)" font-size="82.99999" font-family="Arial" fill="var(--secondary-color)"><tspan y="-1993" x="0 55.0041 100.8782 119.1963">Pole</tspan></text>
</svg>
