<svg xmlns="http://www.w3.org/2000/svg" viewBox="0 0 667 355">
  <path transform="matrix(1,0,0,-1,0,355)" d="M176.398 7.425483 251.806 68.70825 325.8604 62.0954 348.1415 98.64882 362.2461 166.517 430.435 177.539 486.8928 145.9452 481.5845 68.08512 429.2894 39.39468 400.5641 97.69353 348.1415 98.64882 325.8604 62.0954 452.5277 8.70127 528.7831 2.015689 577.3491 74.58589 666.0672 85.60596 642.6052 194.3463 659.468 289.859 575.5148 340.9965 408.5423 348.7495 326.9786 244.845 257.5616 211.3679 228.0595 227.4538 239.0196 310.5271 180.0762 292.6661 155.8236 272.3204 146.2368 307.3602 180.0762 292.6661 239.0196 310.5251 161.8127 353.5066 42.66653 260.86 1.048972 123.0774 76.02734 18.25286 176.398 7.423516Z" fill="#fafafa" fill-rule="evenodd"/>
  <path transform="matrix(.00007874016,0,0,-.00007874016,1.054562,352.96363)" stroke-width="9958" stroke-linecap="butt" stroke-linejoin="round" fill="none" stroke="#1e90ff" d="M2775536 1770671 3221091 1752622M3924404 2227236 3639841 1862692M2276490 1745906 2275568 1745830 2274571 1745730 2273425 1745632 2272179 1745532 2270834 1745406 2269340 1745282 2267695 1745132 2265901 1744982 2263908 1744808 2261741 1744608 2259349 1744408 2256708 1744183 2253819 1743933 2250654 1743683 2247167 1743384 2243329 1743060 2239144 1742735 2234510 1742361 2229453 1741961 2223897 1741537 2217794 1741088 2211117 1740614 2203767 1740115 2195720 1739565 2186900 1738990 2177233 1738391 2166646 1737767 2155060 1737143 2142355 1736494 2128503 1735819 2113305 1735171 2096688 1734522 2078551 1733922 2058719 1733373 2037094 1732874 2013477 1732525 1987715 1732300 1959638 1732250 1929044 1732450 1895735 1732948 1859485 1733797 1820047 1735096 1788082 1736419M6102730 838818.9 6618094 803543.1M1430970 3285711 1606063 3812304M4845686 854421.6 5313914 412762.1M1788107 1736369 1771614 1613590M2775536 1770671 2774589 1770721 2773542 1770771 2772371 1770821 2771100 1770871 2769705 1770920 2768161 1770971 2766492 1771020 2764623 1771096 2762605 1771170 2760363 1771245 2757896 1771321 2755206 1771395 2752266 1771495 2749027 1771595 2745465 1771695 2741578 1771795 2737293 1771895 2732609 1771994 2727477 1772094 2721871 1772194 2715718 1772295 2708991 1772369 2701642 1772444 2693570 1772494 2684775 1772519H2675184L2664695 1772469 2653234 1772369 2640777 1772194 2627174 1771920 2612376 1771545 2596282 1771045 2578767 1770372 2559733 1769498 2539055 1768399 2516633 1767026 2492291 1765328 2465933 1763232 2444308 1761334M1739351 4012500 1728837 4004012 1724229 4000017 1720491 3996697 1717128 3993652 1713989 3990705 1710975 3987834 1708035 3984938 1705145 3982018 1702255 3979047 1699364 3976001 1696450 3972855 1693510 3969610 1690521 3966215 1687506 3962694 1684416 3959000 1681253 3955130 1678038 3951085 1674775 3946817 1671412 3942323 1667974 3937579 1664486 3932562 1660899 3927244 1657236 3921627 1653499 3915684 1649662 3909369 1645751 3902652 1641764 3895514 1637754 3887924 1633642 3879835 1629482 3871221 1625246 3862010 1621011 3852198 1616726 3841713 1612441 3830478 1608156 3818445 1606063 3812304M4587158 2088904 3924404 2227211M6875826 2975020 6895383 2990698M3639841 1862692 3639292 1861969 3638669 1861220 3637997 1860346 3637249 1859398 3636451 1858374 3635580 1857251 3634584 1856003 3633512 1854629 3632341 1853131 3631021 1851484 3629600 1849686 3628032 1847714 3626288 1845542 3624418 1843170 3622326 1840574 3620034 1837728 3617542 1834632 3614752 1831237 3611738 1827492 3608399 1823448 3604737 1819004 3600726 1814161 3596316 1808893 3591482 1803126 3586176 1796860 3580347 1790045 3573969 1782630 3566993 1774591 3559270 1765852 3556030 1762183M4151915 1065004 4150894 1065629 4149774 1066328 4148552 1067076 4147207 1067900 4145762 1068824 4144167 1069822 4142423 1070921 4140505 1072144 4138438 1073468 4136194 1074940 4133704 1076537 4131038 1078286 4128123 1080233 4124959 1082380 4121546 1084701 4117809 1087273 4113797 1090094 4109438 1093190 4104728 1096560 4099647 1100305 4094166 1104374 4088261 1108868 4081909 1113786 4075107 1119178 4067783 1125095 4059935 1131586 4051539 1138701 4042569 1146515 4033002 1155078 4022788 1164465 4011901 1174776 4000341 1186060 3988033 1198442 3975003 1212024 3961176 1226904 3946527 1243230 3931031 1261155 3914662 1280778 3897373 1302324 3879160 1325940 3869021 1339472M4231464 1016322 4125034 762749.4M7000843 2645653 7131889 2222243M6618119 803543.1 6781553 1282526M6781553 1282501 6782000 1283849 6782500 1285298 6783047 1286895 6783645 1288642 6784318 1290539 6785040 1292612 6785838 1294884 6786709 1297381 6787681 1300076 6788728 1303022 6789898 1306268 6791144 1309764 6792564 1313582 6794109 1317727 6795779 1322221 6797647 1327115 6799665 1332406 6801907 1338148 6804348 1344390 6807014 1351081 6809954 1358321 6813193 1366160 6816706 1374598 6820567 1383660 6824803 1393397 6829462 1403882 6834544 1415091 6840125 1427100 6846254 1439957 6852956 1453688 6860280 1468342 6868302 1483971 6877121 1500622 6886763 1518348 6897302 1537146 6908886 1557118 6921542 1578289 6935420 1600759 6950617 1624525 6967284 1649665 6985521 1676227 7005501 1704288 7027425 1733897 7051417 1765104 7053062 1767201M2536887 3375836 2273550 3690998M2296147 2940542 2882963 2862802M6818998 2991946 6007610 3223798M5453157 2228883 5310002 3118146M4375441 2591828 4139235 3083643M5438582 474450.3 5510832 342184.5M5801050 357139.5 5733733 84643.98M1771614 1613590 952154.2 205949.2M1342202 2726316 1342477 2725317 1342801 2724243 1343124 2723046 1343523 2721722 1343922 2720274 1344370 2718676 1344868 2716929 1345442 2715007 1346039 2712885 1346711 2710563 1347459 2708017 1348281 2705246 1349178 2702174 1350175 2698804 1351271 2695135 1352492 2691089 1353812 2686646 1355307 2681803 1356927 2676460 1358720 2670643 1360713 2664277 1362905 2657287 1365347 2649647 1368037 2641310 1371027 2632197 1374317 2622236 1377978 2611375 1382040 2599517 1386524 2586586 1391506 2572505 1397038 2557176 1403167 2540500 1409993 2522374 1417566 2502677 1425988 2481307 1435354 2458139 1445744 2432999 1457328 2405787 1470234 2376378 1484560 2344572 1500528 2310196 1518317 2273122 1538123 2233102 1560172 2190013 1584737 2143577 1612092 2093647 1642537 2039946 1676469 1982227 1689724 1960157M8445660 1061334 7196489 1949822M4303938 979098.5 4312559 975553.9 4316445 974005.6 4319659 972758.1 4322574 971633.5 4325339 970609.9 4328030 969611.3 4330671 968663.7 4333337 967714.1 4336003 966765.5 4338718 965841.8 4341459 964893.2 4344299 963944.6 4347213 962996 4350204 962022.4 4353317 961047.8 4356556 960050.2 4359871 959051.6 4363358 958053 4366946 957029.4 4370707 955979.8 4374644 954907.2 4378729 953833.7 4383014 952760.1 4387499 951636.6 4392183 950538 4397091 949414.4 4402223 948290.9 4402945 948140.9M-70.99033 1537221 1717228 1821975M2626726 3644212 2624583 3629184 2623512 3622443 2622590 3616876 2621694 3611882 2620847 3607139 2619974 3602546 2619103 3598027 2618181 3593534 2617234 3588990 2616238 3584421 2615216 3579777 2614120 3575034 2612974 3570141 2611728 3565148 2610457 3559980 2609062 3554662 2607593 3549170 2606023 3543478 2604329 3537561 2602535 3531445 2600592 3525078 2598524 3518463 2596282 3511573 2593890 3504408 2591299 3496919 2588508 3489154 2585494 3481040 2582255 3472552 2578742 3463739 2574930 3454502 2570820 3444890 2566385 3434854 2561552 3424369 2556320 3413434 2550664 3402000 2544511 3390041 2537834 3377560 2536887 3375811M4351075 2580444 4332265 2571132 4323844 2566838 4316968 2563243 4310740 2559947 4304886 2556802 4299230 2553707 4293650 2550611 4288118 2547514 4282562 2544344 4276982 2541099 4271278 2537803 4265496 2534358 4259568 2530788 4253488 2527093 4247260 2523224 4240832 2519179 4234206 2514960 4227355 2510516 4220279 2505848 4212955 2500955 4205380 2495787 4197532 2490319 4189360 2484578 4180915 2478461 4172146 2472020 4163028 2465179 4153560 2457939 4143744 2450250 4133529 2442086 4122941 2433399 4111928 2424162 4100469 2414325 4088611 2403840 4076277 2392680 4063472 2380772 4050193 2368039 4036416 2354434 4022141 2339903 4007341 2324350 3991995 2307698 3976125 2289849 3959681 2270725 3942716 2250204 3925152 2228184 3924404 2227236M1717253 1821975 1717951 1821101 1718698 1820128 1719545 1819079 1720466 1817955 1721463 1816708 1722534 1815358 1723730 1813861 1725026 1812264 1726421 1810515 1727940 1808644 1729610 1806597 1731404 1804374 1733347 1801978 1735439 1799382 1737732 1796585 1740199 1793564 1742864 1790318 1745729 1786824 1748844 1783054 1752181 1779010 1755770 1774691 1759606 1770047 1763767 1765104 1768201 1759812 1772934 1754169 1778043 1748152 1783523 1741761 1788082 1736394M2329232 2997313 2328809 2996515 2328335 2995641 2327812 2994692 2327239 2993644 2326591 2992520 2325893 2991272 2325146 2989874 2324299 2988376 2323377 2986729 2322355 2984906 2321235 2982933 2320014 2980786 2318669 2978415 2317174 2975843 2315554 2973022 2313786 2969952 2311818 2966581 2309675 2962936 2307308 2958942 2304717 2954648 2301877 2949929 2298763 2944836 2296122 2940542M6458921 508953.5 6702152-262.8943M5510856 342184.5 5801050 357139.5M6503142 569744 6511214 582026.1 6514802 587593.9 6517717 592187 6520333 596356.3 6522774 600325.7 6525140 604170.2 6527458 607989.7 6529750 611785.1 6532018 615629.6 6534309 619549 6536626 623543.4 6538993 627612.8 6541385 631807.1 6543801 636151.3 6546293 640644.6 6548858 645288.7 6551475 650106.7 6554141 655149.7 6556881 660391.6 6559721 665834.4 6562636 671552.1 6565626 677517.7 6568715 683759.2 6571879 690275.6 6575118 697115.8 6578482 704305.9 6581919 711844.9 6585457 719759.7 6589070 728072.4 6592806 736810.9 6596594 746023.2 6600480 755684.3 6604466 765895.2 6608527 776629.9 6612638 787939.3 6616848 799872.6 6618094 803543.1M6307694 463641.7 5801050 357139.5M6307694 463641.7 6308741 463890.6 6309887 464140.5 6311133 464390.4 6312527 464689.2 6314022 465014.1 6315692 465388 6317486 465787.8 6319455 466212.6 6321596 466711.4 6323939 467236.2 6326480 467835 6329244 468484.7 6332259 469183.4 6335548 469982.1 6339136 470855.8 6342997 471854.4 6347208 472902.9 6351767 474076.5 6356700 475398.9 6362032 476847.4 6367762 478445.7 6373990 480218 6380716 482190.2 6387916 484362.3 6395690 486759.4 6404036 489430.3 6413005 492376.1 6422596 495621.8 6432885 499241.4 6443898 503235.8 6455657 507679 6458946 508953.5M6895408 2990698 8361850 3655347M7000843 2645653 7000569 2646552 7000245 2647551 6999921 2648649 6999547 2649847 6999123 2651170 6998675 2652619 6998177 2654191 6997628 2655938 6997032 2657861 6996358 2659983 6995610 2662305 6994813 2664826 6993942 2667622 6992945 2670694 6991874 2674039 6990678 2677709 6989382 2681753 6987937 2686172 6986343 2691016 6984599 2696332 6982656 2702149 6980513 2708492 6978171 2715456 6975580 2723071 6972714 2731359 6969551 2740447 6966062 2750357 6962201 2761167 6957942 2772950 6953207 2785782 6948026 2799764 6942246 2814993 6935893 2831494 6928842 2849469 6921044 2868942 6912399 2890062 6902858 2912931 6892268 2937697 6880559 2964460 6875826 2975020M2632680 3721480 3022156 3917806M1430970 3285711 1965567 3432608M3221091 1752622 3264939 1750849M7053062 1767201 6170121 1827641M1430970 3285711 1430646 3284714 1430272 3283640 1429899 3282442 1429450 3281143 1428977 3279695 1428478 3278122 1427905 3276375 1427282 3274478 1426610 3272380 1425863 3270084 1425066 3267562 1424193 3264791 1423247 3261745 1422200 3258399 1421079 3254755 1419858 3250760 1418538 3246341 1417093 3241523 1415548 3236230 1413879 3230464 1412085 3224123 1410142 3217207 1408049 3209618 1405832 3201330 1403465 3192267 1400924 3182356 1398233 3171545 1395393 3159737 1392403 3146830 1389265 3132775 1385976 3117421 1382563 3100695 1379025 3082470 1375412 3062647 1371700 3041053 1367964 3017560 1364201 2991970 1360465 2964185 1356852 2933977 1353388 2901098 1350150 2865396 1347185 2826651 1344644 2784560 1342651 2738848 1342202 2726316M3869021 1339472 4408003 1226978M8147693 2442336 7131914 2222243M4408003 1226978 4402945 948140.9M7178104 2046038 7175462 2058146 7174217 2063589 7173220 2068083 7172298 2072126 7171426 2075947 7170555 2079641 7169708 2083311 7168836 2086955 7167963 2090601 7167091 2094320 7166170 2098066 7165223 2101935 7164251 2105880 7163255 2109949 7162209 2114118 7161112 2118462 7159991 2122931 7158795 2127549 7157549 2132367 7156228 2137361 7154859 2142529 7153414 2147921 7151894 2153538 7150274 2159405 7148606 2165497 7146812 2171862 7144918 2178504 7142925 2185444 7140808 2192684 7138565 2200249 7136223 2208162 7133707 2216400 7131914 2222243M7318940 921378.7 6781553 1282526M7053062 1767201 7192379 1944554M6818998 2991946 6819845 2991697 6820766 2991447 6821788 2991122 6822909 2990798 6824155 2990448 6825500 2990073 6826994 2989624 6828614 2989175 6830408 2988651 6832377 2988076 6834518 2987452 6836860 2986754 6839452 2986005 6842267 2985155 6845356 2984257 6848744 2983258 6852457 2982134 6856493 2980911 6860927 2979587 6865736 2978115 6871017 2976518 6875826 2975020M2626726 3644212 2627723 3652226 2628171 3655847 2628495 3658842 2628794 3661514 2629068 3664060 2629317 3666532 2629567 3668954 2629815 3671400 2630014 3673846 2630264 3676318 2630463 3678814 2630662 3681410 2630862 3684057 2631062 3686803 2631260 3689599 2631460 3692495 2631634 3695491 2631808 3698612 2631983 3701857 2632157 3705228 2632307 3708722 2632456 3712393 2632581 3716187 2632680 3720182 2632705 3721480M6170146 1827641 6818998 2991946M4351075 2580444 4355385 2582516 4357303 2583415 4358899 2584164 4360344 2584862 4361713 2585512 4363034 2586112 4364354 2586736 4365650 2587334 4366970 2587934 4368290 2588558 4369636 2589182 4371031 2589805 4372451 2590455 4373922 2591129 4375416 2591828M7192379 1944554 7192876 1945203 7193475 1945953 7194098 1946751 7194795 1947625 7195542 1948624 7196390 1949672 7196489 1949797M4231464 1016322 4151915 1065004M3264939 1750849 3184543 846732.7M4375441 2591828 4497319 2646926M2296147 2940542 1689748 1960157M2775536 1770671 3257640 2658510M6307694 463641.7 6102730 838818.9M2068959 4106070 2041629 4463672M2409902 3936880 2405667 3939227 2403748 3940250 2402180 3941099 2400759 3941849 2399414 3942597 2398093 3943271 2396798 3943946 2395502 3944620 2394207 3945293 2392887 3945968 2391541 3946667 2390170 3947365 2388750 3948064 2387306 3948814 2385811 3949563 2385438 3949713M5310002 3118146 5310899 3118695 5311896 3119268 5312992 3119918 5314188 3120617 5315507 3121390 5316953 3122240 5318547 3123163 5320292 3124186 5322209 3125310 5324327 3126508 5326620 3127857 5329160 3129304 5331926 3130903 5334991 3132650 5338329 3134547 5341967 3136620 5345977 3138866 5350363 3141337 5355171 3144009 5360427 3146905 5366157 3150051 5372461 3153471 5379337 3157191 5386811 3161185 5395033 3165529 5403951 3170198 5413718 3175216 5424331 3180634 5435916 3186450 5448497 3192667 5462199 3199307 5477147 3206422 5493341 3213987 5510956 3222025 5530064 3230514 5550792 3239526 5573289 3249012 5597655 3258999 5624063 3269484 5652664 3280395 5682585 3291379M4497319 2646926 4587132 2088904M7000843 2645653 8147693 2442336M5682585 3291404 5175094 4403256M5682585 3291404 5684156 3291204 5685899 3290954 5687768 3290705 5689786 3290456 5692028 3290156 5694420 3289831 5697036 3289481 5699876 3289082 5702941 3288658 5706279 3288158 5709867 3287659 5713753 3287110 5717938 3286486 5722473 3285812 5727331 3285063 5732563 3284289 5738169 3283416 5744197 3282442 5750675 3281417 5757576 3280270 5764975 3279021 5772873 3277673 5781294 3276175 5790288 3274578 5799854 3272830 5810020 3270908 5820831 3268811 5832292 3266514 5844499 3264017 5857404 3261321 5871058 3258325 5885508 3255105 5900830 3251585 5916998 3247740 5934064 3243521 5952102 3238927 5971111 3233934 5991141 3228441 6007585 3223823M5391245 361707.6 5400389 358063.1 5404549 356565.7 5408013 355342.2 5411151 354318.6 5414141 353369 5417032 352496.3 5419896 351671.7 5422786 350873 5425701 350099.3 5428691 349350.6 5431681 348650.9 5434819 347952.2 5438034 347252.4 5441347 346603.7 5444786 345980 5448372 345356.2 5452110 344781.4 5455971 344231.7 5460033 343732.8 5464267 343234.1 5468702 342834.2 5473336 342485.3 5478219 342160.5 5483326 341935.6 5488708 341785.6 5494363 341735.7 5500318 341785.6 5506570 341960.6 5510856 342160.5M5391245 361707.6 5383298 365202.2 5379761 366900.6 5376870 368323 5374279 369646.4 5371813 370895.9 5369471 372193.4 5367154 373441.9 5364837 374765.4 5362545 376087.8 5360228 377461.3 5357862 378883.7 5355494 380382.1 5353053 381929.5 5350562 383577.8 5347996 385275.2 5345355 387097.4 5342665 389019.7 5339874 391017.8 5337008 393189 5334044 395436.1 5330979 397883.1 5327816 400454.1 5324576 403200 5321189 406145.8 5317700 409266.5 5314064 412612.2 5313914 412762.1M4303938 979098.5 4296340 982343.2 4292927 983866.6 4290136 985115.1 4287645 986288.6 4285253 987387.2 4282961 988460.7 4280694 989534.3 4278452 990631.9 4276185 991730.4 4273892 992854 4271576 994002.5 4269209 995201.1 4266792 996448.6 4264301 997723 4261760 999070.5 4259119 1000469 4256379 1001941 4253588 1003465 4250672 1005087 4247684 1006784 4244544 1008558 4241306 1010455 4237917 1012452 4234430 1014523 4231464 1016322M4402945 948140.9 4845661 854421.6"/>
  <path transform="matrix(.00007874016,0,0,-.00007874016,42.72724,347.50907)" stroke-width="9958" stroke-linecap="butt" stroke-linejoin="round" fill="none" stroke="#1e90ff" d="M1881642 3868517 1895197 3860727 1901203 3857106 1906136 3854061 1910571 3851264 1914733 3848568 1918769 3845921 1922706 3843300 1926618 3840628 1930530 3837908 1934492 3835136 1938479 3832264 1942540 3829268 1946701 3826197 1950937 3822952 1955274 3819606 1959758 3816086 1964343 3812366 1969078 3808496 1973936 3804375 1978970 3800056 1984177 3795488 1989535 3790670 1995066 3785550 2000797 3780132 2006727 3774389 2012857 3768273 2019186 3761782 2025715 3754865 2032493 3747500 2039469 3739660 2046695 3731296 2054146 3722358 2061820 3712820 2069743 3702609 2077916 3691698 2086314 3680013 2094961 3667504 2103831 3654072 2104479 3653073M1857198 3881350 1540647 4037722M6650568 1977510 6652461 1968596 6653308 1964602 6654006 1961306 6654629 1958310 6655202 1955488 6655750 1952742 6656298 1950046 6656846 1947375 6657370 1944653 6657918 1941906 6658466 1939109 6659039 1936264 6659612 1933342 6660185 1930321 6660784 1927200 6661381 1924005 6662004 1920684 6662652 1917214 6663300 1913644 6663973 1909899 6664670 1906054 6665418 1902008 6666141 1897814 6666888 1893420 6667685 1888850 6668508 1884057 6668956 1881286M4782182 3049711 4087434 2639871M3611211 3015230 4087434 2639871M1315468 3809270 1077681 3743930M1406940 4020818 1315468 3809244M3969376 2578451 3970297 2578875 3971318 2579325 3972415 2579824 3973661 2580398 3974981 2580997 3976427 2581672 3978021 2582421 3979766 2583220 3981659 2584093 3983727 2585067 3985995 2586116 3988487 2587289 3991153 2588563 3994093 2589962 3997282 2591509 4000746 2593182 4004484 2595030 4008570 2597051 4013006 2599274 4017790 2601671 4022973 2604317 4028579 2607213 4034634 2610384 4041137 2613855 4048164 2617625 4055714 2621770 4063812 2626263 4072533 2631206 4081828 2636600 4087434 2639871M2729507 2590036 3111766 1794149M4786070 344092.7 4910780 405761.2M6664845 1876017 6791425 852753.5M5975503 501087.2 5971019 494470.3 5969025 491525.2 5967331 489103 5965836 486904.7 5964366 484833.3 5962970 482836 5961575 480838.6 5960204 478891.2 5958784 476918.8 5957364 474921.5 5955918 472923.1 5954423 470851.8 5952879 468729.4 5951284 466557.1 5949640 464309.8 5947946 462038.5 5946176 459641.3 5944332 457195 5942414 454647.8 5940394 452001.7 5938302 449254.5 5936110 446433.4 5933792 443462.4 5931400 440391.3 5931300 440266.4M1161353 1891622 1161503 1890774 1161677 1889824 1161876 1888775 1162076 1887628 1162325 1886354 1162574 1884956 1162823 1883458 1163147 1881759 1163471 1879913 1163845 1877890 1164244 1875642 1164692 1873196 1165190 1870525 1165739 1867578 1166337 1864333 1167009 1860787 1167732 1856892 1168529 1852598 1169426 1847904 1170423 1842761 1171519 1837118 1172740 1830926 1174061 1824161 1175556 1816745 1177201 1808606 1179020 1799717 1181013 1789979 1183256 1779344 1185747 1767734 1188514 1755025 1188888 1753428M6768128 4236462 6367804 2922252M5479896 3155372 4925333 2160371M2656400 778101 1916078 1692781M3340982 1270883 3027969 1693630M1748209 1677352 1916053 1692781M2354775 2794344 1748209 1677352M1698574-258.9185 1243257 1545024M-74.00115 3218615 813779.7 2657847M1210989 3944143 1221230 3951808 1225915 3955129 1229851 3957801 1233414 3960197 1236828 3962394 1240167 3964492 1243481 3966539 1246820 3968536 1250184 3970509 1253648 3972481 1257186 3974428 1260824 3976426 1264586 3978373 1268499 3980371 1272585 3982368 1276821 3984415 1281231 3986463 1285866 3988510 1290725 3990608 1295833 3992705 1301190 3994827 1306796 3996949 1312726 3999097 1318981 4001219 1325585 4003365 1332561 4005488 1339912 4007585 1347686 4009658 1355933 4011655 1364655 4013653 1373924 4015551 1383767 4017348 1394182 4019046 1405270 4020593 1406940 4020843M4545916 1146245 4317796 785790.6M2736809 1682295 2739002 1682195 2741369 1682096 2743861 1681996 2746577 1681896 2749467 1681796 2752532 1681696 2755821 1681596 2759309 1681496 2763047 1681397 2767034 1681297 2771220 1681197 2775705 1681097 2780439 1681023 2785497 1680947 2790829 1680872 2796462 1680822 2802441 1680798H2822475L2829900 1680872 2837749 1680972 2846022 1681122 2854742 1681322 2863938 1681571 2873606 1681896 2883822 1682270 2894536 1682720 2905849 1683294 2917734 1683943 2930243 1684692 2943399 1685616 2957228 1686665 2971780 1687888 2987080 1689286 3003177 1690885 3020070 1692732 3027969 1693630M3597009 694084.4 3623919 996390.2M1540647 4037722 1406940 4020818M1745293 3622612 1857173 3881350M1800959 2928869 2008646 3307424M1437239 3364200 1800984 2928869"/>
  <path transform="matrix(.00007874016,0,0,-.00007874016,1.163617,353.07276)" stroke-width="19916" stroke-linecap="butt" stroke-linejoin="round" fill="none" stroke="#000000" d="M528472 3287036-70.99033 1537221 952154.2 205949.3 2226862 68416.52 3184543 846732.9 4125034 762749.6 5733708 84644 6702152-262.8944 7318940 921378.9 8445660 1061334 8147693 2442337 8361850 3655348 7295645 4304794 5175094 4403258 4139235 3083669 3257640 2658511 2882963 2862802 3022156 3917832 2041629 4463673 528472 3287061"/>
  <path transform="matrix(.00007874016,0,0,-.00007874016,146.4727,315.7636)" stroke-width="19916" stroke-linecap="butt" stroke-linejoin="round" fill="none" stroke="#000000" d="M3593911-258.0677 4257916 364351.5 4325317 1353832 3608458 1755339 2742647 1615267 2563557 752769.4 3229180 740628.2 3593911-258.0677M-72.97415 3405190 429593.8 3218426 121652.9 2959863-72.97415 3405165"/>
  <path transform="matrix(1,0,0,-1,0,355)" d="M45.02992 260.8221C45.02992 262.1259 43.97632 263.1819 42.67547 263.1819 41.37461 263.1819 40.32094 262.1259 40.32094 260.8221 40.32094 259.5185 41.37461 258.4625 42.67547 258.4625 43.97632 258.4625 45.02992 259.5185 45.02992 260.8221M431.725 39.2869C431.725 40.59058 430.6714 41.64656 429.3704 41.64656 428.0696 41.64656 427.016 40.59058 427.016 39.2869 427.016 37.98314 428.0696 36.92724 429.3704 36.92724 430.6714 36.92724 431.725 37.98314 431.725 39.2869M484.0298 67.98658C484.0298 69.29026 482.9762 70.34624 481.6753 70.34624 480.3746 70.34624 479.3209 69.29026 479.3209 67.98658 479.3209 66.68283 480.3746 65.62692 481.6753 65.62692 482.9762 65.62692 484.0298 66.68283 484.0298 67.98658M489.3393 145.8719C489.3393 147.1757 488.2856 148.2317 486.9848 148.2317 485.6839 148.2317 484.6302 147.1757 484.6302 145.8719 484.6302 144.5683 485.6839 143.5123 486.9848 143.5123 488.2856 143.5123 489.3393 144.5683 489.3393 145.8719M432.8727 177.476C432.8727 178.7798 431.8191 179.8357 430.5183 179.8357 429.2174 179.8357 428.1638 178.7798 428.1638 177.476 428.1638 176.1723 429.2174 175.1164 430.5183 175.1164 431.8191 175.1164 432.8727 176.1723 432.8727 177.476M364.6712 166.4504C364.6712 167.7541 363.6175 168.8101 362.3166 168.8101 361.0158 168.8101 359.9621 167.7541 359.9621 166.4504 359.9621 165.1467 361.0158 164.0908 362.3166 164.0908 363.6175 164.0908 364.6712 165.1467 364.6712 166.4504M350.5619 98.56022C350.5619 99.86398 349.5082 100.92 348.2074 100.92 346.9065 100.92 345.8529 99.86398 345.8529 98.56022 345.8529 97.25653 346.9065 96.20056 348.2074 96.20056 349.5082 96.20056 350.5619 97.25653 350.5619 98.56022M402.9943 97.60462C402.9943 98.9083 401.9407 99.9642 400.6398 99.9642 399.339 99.9642 398.2853 98.9083 398.2853 97.60462 398.2853 96.30086 399.339 95.24488 400.6398 95.24488 401.9407 95.24488 402.9943 96.30086 402.9943 97.60462" fill-rule="evenodd"/>
  <path transform="matrix(1,0,0,-1,0,355)" d="M431.7394 39.28625C431.7394 40.59075 430.6859 41.64747 429.3852 41.64747 428.0845 41.64747 427.031 40.59075 427.031 39.28625 427.031 37.98167 428.0845 36.9251 429.3852 36.9251 430.6859 36.9251 431.7394 37.98167 431.7394 39.28625M148.666 307.5095C148.666 308.814 147.6125 309.8707 146.3118 309.8707 145.0111 309.8707 143.9576 308.814 143.9576 307.5095 143.9576 306.205 145.0111 305.1483 146.3118 305.1483 147.6125 305.1483 148.666 306.205 148.666 307.5095M182.5079 292.7994C182.5079 294.104 181.4544 295.1606 180.1537 295.1606 178.853 295.1606 177.7995 294.104 177.7995 292.7994 177.7995 291.4949 178.853 290.4383 180.1537 290.4383 181.4544 290.4383 182.5079 291.4949 182.5079 292.7994M158.2536 272.4343C158.2536 273.7389 157.2 274.7955 155.8993 274.7955 154.5986 274.7955 153.5451 273.7389 153.5451 272.4343 153.5451 271.1298 154.5986 270.0731 155.8993 270.0731 157.2 270.0731 158.2536 271.1298 158.2536 272.4343" fill-rule="evenodd"/>
  <path transform="matrix(1,0,0,-1,0,355)" d="M148.5382 307.458C148.5382 308.7841 147.5131 309.858 146.2473 309.858 144.9816 309.858 143.9563 308.7841 143.9563 307.458 143.9563 306.1321 144.9816 305.058 146.2473 305.058 147.5131 305.058 148.5382 306.1321 148.5382 307.458" fill-rule="evenodd"/>
  <path transform="matrix(.00007874016,0,0,-.00007874016,18.29094,340.09095)" stroke-width="9958" stroke-linecap="butt" stroke-linejoin="round" fill="none" stroke="#ee6363" d="M3139346 1572248C3139346 2440719 2436536 3144764 1569613 3144764 702689.6 3144764-95.0201 2440719-95.0201 1572273-95.0201 703801 702689.6-217.9201 1569613-217.9201 2436560-217.9201 3139346 703825.9 3139346 1572273"/>
  <path transform="matrix(1,0,0,-1,0,355)" d="M144.1745 138.8189C144.1745 140.145 143.1493 141.2189 141.8836 141.2189 140.6179 141.2189 139.5927 140.145 139.5927 138.8189 139.5927 137.4929 140.6179 136.4189 141.8836 136.4189 143.1493 136.4189 144.1745 137.4929 144.1745 138.8189" fill="#ee6363" fill-rule="evenodd"/>
  <path transform="matrix(1,0,0,-1,0,355)" d="M265.4835 138.7081C265.4835 207.0917 210.1442 262.5283 141.8825 262.5283 73.62083 262.5283 18.28346 207.0917 18.28346 138.7101 18.28346 70.32646 73.62083 14.8919 141.8825 14.8919 210.1461 14.8919 265.4835 70.32843 265.4835 138.7101" fill-opacity=".251" fill-rule="evenodd"/>
  <path transform="matrix(.00007874016,0,0,-.00007874016,18.29094,340.09095)" stroke-width="9958" stroke-linecap="butt" stroke-linejoin="round" fill="none" stroke="#000000" d="M3139346 1572248C3139346 2440719 2436536 3144764 1569613 3144764 702689.6 3144764-95.0201 2440719-95.0201 1572273-95.0201 703801 702689.6-217.9201 1569613-217.9201 2436560-217.9201 3139346 703825.9 3139346 1572273"/>
  <path transform="matrix(1,0,0,-1,0,355)" d="M144.1745 138.8189C144.1745 140.145 143.1493 141.2189 141.8836 141.2189 140.6179 141.2189 139.5927 140.145 139.5927 138.8189 139.5927 137.4929 140.6179 136.4189 141.8836 136.4189 143.1493 136.4189 144.1745 137.4929 144.1745 138.8189" fill-rule="evenodd"/>
</svg>
