<?xml version="1.0" encoding="utf-8" standalone="no"?>
<!DOCTYPE svg PUBLIC "-//W3C//DTD SVG 1.1//EN"
  "http://www.w3.org/Graphics/SVG/1.1/DTD/svg11.dtd">
<svg xmlns:xlink="http://www.w3.org/1999/xlink" width="720pt" height="432pt" viewBox="0 0 720 432" xmlns="http://www.w3.org/2000/svg" version="1.1">
 <script type="text/ecmascript" href="../../scripts/color.js"/>
 <metadata>
  <rdf:RDF xmlns:dc="http://purl.org/dc/elements/1.1/" xmlns:cc="http://creativecommons.org/ns#" xmlns:rdf="http://www.w3.org/1999/02/22-rdf-syntax-ns#">
   <cc:Work>
    <dc:type rdf:resource="http://purl.org/dc/dcmitype/StillImage"/>
    <dc:date>2024-12-09T22:07:45.127777</dc:date>
    <dc:format>image/svg+xml</dc:format>
    <dc:creator>
     <cc:Agent>
      <dc:title>Matplotlib v3.6.3, https://matplotlib.org/</dc:title>
     </cc:Agent>
    </dc:creator>
   </cc:Work>
  </rdf:RDF>
 </metadata>
 <defs>
  <style type="text/css">*{stroke-linejoin: round; stroke-linecap: butt}</style>
 </defs>
 <g id="figure_1">
  <g id="patch_1">
   <path d="M 0 432 
L 720 432 
L 720 0 
L 0 0 
L 0 432 
z
" style="fill: none; opacity: 0"/>
  </g>
  <g id="axes_1">
   <g id="patch_2">
    <path d="M 90 384.48 
L 648 384.48 
L 648 51.84 
L 90 51.84 
L 90 384.48 
z
" style="fill: none; opacity: 0"/>
   </g>
   <g id="PathCollection_1">
    <defs>
     <path id="m868b3cd089" d="M -1.581139 1.581139 
L 1.581139 -1.581139 
M -1.581139 -1.581139 
L 1.581139 1.581139 
" style="stroke: var(--secondary-color); stroke-width: 1.5"/>
    </defs>
    <g clip-path="url(#p80f5da3b25)">
     <use xlink:href="#m868b3cd089" x="115.363636" y="181.291557" style="stroke: var(--secondary-color); stroke-width: 1.5"/>
     <use xlink:href="#m868b3cd089" x="120.487603" y="185.466747" style="stroke: var(--secondary-color); stroke-width: 1.5"/>
     <use xlink:href="#m868b3cd089" x="125.61157" y="158.841987" style="stroke: var(--secondary-color); stroke-width: 1.5"/>
     <use xlink:href="#m868b3cd089" x="130.735537" y="130.866201" style="stroke: var(--secondary-color); stroke-width: 1.5"/>
     <use xlink:href="#m868b3cd089" x="135.859504" y="161.752458" style="stroke: var(--secondary-color); stroke-width: 1.5"/>
     <use xlink:href="#m868b3cd089" x="140.983471" y="154.357573" style="stroke: var(--secondary-color); stroke-width: 1.5"/>
     <use xlink:href="#m868b3cd089" x="146.107438" y="107.425925" style="stroke: var(--secondary-color); stroke-width: 1.5"/>
     <use xlink:href="#m868b3cd089" x="151.231405" y="119.151936" style="stroke: var(--secondary-color); stroke-width: 1.5"/>
     <use xlink:href="#m868b3cd089" x="156.355372" y="140.843612" style="stroke: var(--secondary-color); stroke-width: 1.5"/>
     <use xlink:href="#m868b3cd089" x="161.479339" y="113.319238" style="stroke: var(--secondary-color); stroke-width: 1.5"/>
     <use xlink:href="#m868b3cd089" x="166.603306" y="130.978403" style="stroke: var(--secondary-color); stroke-width: 1.5"/>
     <use xlink:href="#m868b3cd089" x="171.727273" y="126.948118" style="stroke: var(--secondary-color); stroke-width: 1.5"/>
     <use xlink:href="#m868b3cd089" x="176.85124" y="107.712538" style="stroke: var(--secondary-color); stroke-width: 1.5"/>
     <use xlink:href="#m868b3cd089" x="181.975207" y="152.315024" style="stroke: var(--secondary-color); stroke-width: 1.5"/>
     <use xlink:href="#m868b3cd089" x="187.099174" y="145.539058" style="stroke: var(--secondary-color); stroke-width: 1.5"/>
     <use xlink:href="#m868b3cd089" x="192.22314" y="117.66982" style="stroke: var(--secondary-color); stroke-width: 1.5"/>
     <use xlink:href="#m868b3cd089" x="197.347107" y="125.944989" style="stroke: var(--secondary-color); stroke-width: 1.5"/>
     <use xlink:href="#m868b3cd089" x="202.471074" y="95.324254" style="stroke: var(--secondary-color); stroke-width: 1.5"/>
     <use xlink:href="#m868b3cd089" x="207.595041" y="121.535159" style="stroke: var(--secondary-color); stroke-width: 1.5"/>
     <use xlink:href="#m868b3cd089" x="212.719008" y="132.269011" style="stroke: var(--secondary-color); stroke-width: 1.5"/>
     <use xlink:href="#m868b3cd089" x="217.842975" y="68.561695" style="stroke: var(--secondary-color); stroke-width: 1.5"/>
     <use xlink:href="#m868b3cd089" x="222.966942" y="106.341613" style="stroke: var(--secondary-color); stroke-width: 1.5"/>
     <use xlink:href="#m868b3cd089" x="228.090909" y="100.575176" style="stroke: var(--secondary-color); stroke-width: 1.5"/>
     <use xlink:href="#m868b3cd089" x="233.214876" y="134.672909" style="stroke: var(--secondary-color); stroke-width: 1.5"/>
     <use xlink:href="#m868b3cd089" x="238.338843" y="116.613964" style="stroke: var(--secondary-color); stroke-width: 1.5"/>
     <use xlink:href="#m868b3cd089" x="243.46281" y="103.863044" style="stroke: var(--secondary-color); stroke-width: 1.5"/>
     <use xlink:href="#m868b3cd089" x="248.586777" y="133.848331" style="stroke: var(--secondary-color); stroke-width: 1.5"/>
     <use xlink:href="#m868b3cd089" x="253.710744" y="102.432313" style="stroke: var(--secondary-color); stroke-width: 1.5"/>
     <use xlink:href="#m868b3cd089" x="258.834711" y="126.687258" style="stroke: var(--secondary-color); stroke-width: 1.5"/>
     <use xlink:href="#m868b3cd089" x="263.958678" y="122.777226" style="stroke: var(--secondary-color); stroke-width: 1.5"/>
     <use xlink:href="#m868b3cd089" x="269.082645" y="132.822962" style="stroke: var(--secondary-color); stroke-width: 1.5"/>
     <use xlink:href="#m868b3cd089" x="274.206612" y="81.957635" style="stroke: var(--secondary-color); stroke-width: 1.5"/>
     <use xlink:href="#m868b3cd089" x="279.330579" y="126.907053" style="stroke: var(--secondary-color); stroke-width: 1.5"/>
     <use xlink:href="#m868b3cd089" x="284.454545" y="153.897738" style="stroke: var(--secondary-color); stroke-width: 1.5"/>
     <use xlink:href="#m868b3cd089" x="289.578512" y="116.385944" style="stroke: var(--secondary-color); stroke-width: 1.5"/>
     <use xlink:href="#m868b3cd089" x="294.702479" y="165.883483" style="stroke: var(--secondary-color); stroke-width: 1.5"/>
     <use xlink:href="#m868b3cd089" x="299.826446" y="138.712169" style="stroke: var(--secondary-color); stroke-width: 1.5"/>
     <use xlink:href="#m868b3cd089" x="304.950413" y="191.322973" style="stroke: var(--secondary-color); stroke-width: 1.5"/>
     <use xlink:href="#m868b3cd089" x="310.07438" y="182.130695" style="stroke: var(--secondary-color); stroke-width: 1.5"/>
     <use xlink:href="#m868b3cd089" x="315.198347" y="153.305095" style="stroke: var(--secondary-color); stroke-width: 1.5"/>
     <use xlink:href="#m868b3cd089" x="320.322314" y="146.364315" style="stroke: var(--secondary-color); stroke-width: 1.5"/>
     <use xlink:href="#m868b3cd089" x="325.446281" y="164.066395" style="stroke: var(--secondary-color); stroke-width: 1.5"/>
     <use xlink:href="#m868b3cd089" x="330.570248" y="175.668681" style="stroke: var(--secondary-color); stroke-width: 1.5"/>
     <use xlink:href="#m868b3cd089" x="335.694215" y="185.107652" style="stroke: var(--secondary-color); stroke-width: 1.5"/>
     <use xlink:href="#m868b3cd089" x="340.818182" y="216.565687" style="stroke: var(--secondary-color); stroke-width: 1.5"/>
     <use xlink:href="#m868b3cd089" x="345.942149" y="205.241263" style="stroke: var(--secondary-color); stroke-width: 1.5"/>
     <use xlink:href="#m868b3cd089" x="351.066116" y="205.011622" style="stroke: var(--secondary-color); stroke-width: 1.5"/>
     <use xlink:href="#m868b3cd089" x="356.190083" y="176.964033" style="stroke: var(--secondary-color); stroke-width: 1.5"/>
     <use xlink:href="#m868b3cd089" x="361.31405" y="198.302738" style="stroke: var(--secondary-color); stroke-width: 1.5"/>
     <use xlink:href="#m868b3cd089" x="366.438017" y="250.469639" style="stroke: var(--secondary-color); stroke-width: 1.5"/>
     <use xlink:href="#m868b3cd089" x="371.561983" y="209.831318" style="stroke: var(--secondary-color); stroke-width: 1.5"/>
     <use xlink:href="#m868b3cd089" x="376.68595" y="231.040653" style="stroke: var(--secondary-color); stroke-width: 1.5"/>
     <use xlink:href="#m868b3cd089" x="381.809917" y="242.977698" style="stroke: var(--secondary-color); stroke-width: 1.5"/>
     <use xlink:href="#m868b3cd089" x="386.933884" y="219.893194" style="stroke: var(--secondary-color); stroke-width: 1.5"/>
     <use xlink:href="#m868b3cd089" x="392.057851" y="215.977354" style="stroke: var(--secondary-color); stroke-width: 1.5"/>
     <use xlink:href="#m868b3cd089" x="397.181818" y="223.467156" style="stroke: var(--secondary-color); stroke-width: 1.5"/>
     <use xlink:href="#m868b3cd089" x="402.305785" y="267.833005" style="stroke: var(--secondary-color); stroke-width: 1.5"/>
     <use xlink:href="#m868b3cd089" x="407.429752" y="261.190433" style="stroke: var(--secondary-color); stroke-width: 1.5"/>
     <use xlink:href="#m868b3cd089" x="412.553719" y="251.983802" style="stroke: var(--secondary-color); stroke-width: 1.5"/>
     <use xlink:href="#m868b3cd089" x="417.677686" y="242.559666" style="stroke: var(--secondary-color); stroke-width: 1.5"/>
     <use xlink:href="#m868b3cd089" x="422.801653" y="279.43239" style="stroke: var(--secondary-color); stroke-width: 1.5"/>
     <use xlink:href="#m868b3cd089" x="427.92562" y="277.462208" style="stroke: var(--secondary-color); stroke-width: 1.5"/>
     <use xlink:href="#m868b3cd089" x="433.049587" y="302.183918" style="stroke: var(--secondary-color); stroke-width: 1.5"/>
     <use xlink:href="#m868b3cd089" x="438.173554" y="308.335175" style="stroke: var(--secondary-color); stroke-width: 1.5"/>
     <use xlink:href="#m868b3cd089" x="443.297521" y="267.850325" style="stroke: var(--secondary-color); stroke-width: 1.5"/>
     <use xlink:href="#m868b3cd089" x="448.421488" y="259.56659" style="stroke: var(--secondary-color); stroke-width: 1.5"/>
     <use xlink:href="#m868b3cd089" x="453.545455" y="294.687385" style="stroke: var(--secondary-color); stroke-width: 1.5"/>
     <use xlink:href="#m868b3cd089" x="458.669421" y="274.1659" style="stroke: var(--secondary-color); stroke-width: 1.5"/>
     <use xlink:href="#m868b3cd089" x="463.793388" y="291.39004" style="stroke: var(--secondary-color); stroke-width: 1.5"/>
     <use xlink:href="#m868b3cd089" x="468.917355" y="316.41823" style="stroke: var(--secondary-color); stroke-width: 1.5"/>
     <use xlink:href="#m868b3cd089" x="474.041322" y="296.616996" style="stroke: var(--secondary-color); stroke-width: 1.5"/>
     <use xlink:href="#m868b3cd089" x="479.165289" y="272.755285" style="stroke: var(--secondary-color); stroke-width: 1.5"/>
     <use xlink:href="#m868b3cd089" x="484.289256" y="309.443077" style="stroke: var(--secondary-color); stroke-width: 1.5"/>
     <use xlink:href="#m868b3cd089" x="489.413223" y="275.570403" style="stroke: var(--secondary-color); stroke-width: 1.5"/>
     <use xlink:href="#m868b3cd089" x="494.53719" y="369.36" style="stroke: var(--secondary-color); stroke-width: 1.5"/>
     <use xlink:href="#m868b3cd089" x="499.661157" y="294.06097" style="stroke: var(--secondary-color); stroke-width: 1.5"/>
     <use xlink:href="#m868b3cd089" x="504.785124" y="310.809648" style="stroke: var(--secondary-color); stroke-width: 1.5"/>
     <use xlink:href="#m868b3cd089" x="509.909091" y="319.462929" style="stroke: var(--secondary-color); stroke-width: 1.5"/>
     <use xlink:href="#m868b3cd089" x="515.033058" y="310.536583" style="stroke: var(--secondary-color); stroke-width: 1.5"/>
     <use xlink:href="#m868b3cd089" x="520.157025" y="355.860301" style="stroke: var(--secondary-color); stroke-width: 1.5"/>
     <use xlink:href="#m868b3cd089" x="525.280992" y="315.639682" style="stroke: var(--secondary-color); stroke-width: 1.5"/>
     <use xlink:href="#m868b3cd089" x="530.404959" y="301.342402" style="stroke: var(--secondary-color); stroke-width: 1.5"/>
     <use xlink:href="#m868b3cd089" x="535.528926" y="274.562834" style="stroke: var(--secondary-color); stroke-width: 1.5"/>
     <use xlink:href="#m868b3cd089" x="540.652893" y="316.291572" style="stroke: var(--secondary-color); stroke-width: 1.5"/>
     <use xlink:href="#m868b3cd089" x="545.77686" y="319.801024" style="stroke: var(--secondary-color); stroke-width: 1.5"/>
     <use xlink:href="#m868b3cd089" x="550.900826" y="309.615579" style="stroke: var(--secondary-color); stroke-width: 1.5"/>
     <use xlink:href="#m868b3cd089" x="556.024793" y="274.360487" style="stroke: var(--secondary-color); stroke-width: 1.5"/>
     <use xlink:href="#m868b3cd089" x="561.14876" y="282.929515" style="stroke: var(--secondary-color); stroke-width: 1.5"/>
     <use xlink:href="#m868b3cd089" x="566.272727" y="296.986951" style="stroke: var(--secondary-color); stroke-width: 1.5"/>
     <use xlink:href="#m868b3cd089" x="571.396694" y="268.429314" style="stroke: var(--secondary-color); stroke-width: 1.5"/>
     <use xlink:href="#m868b3cd089" x="576.520661" y="271.605101" style="stroke: var(--secondary-color); stroke-width: 1.5"/>
     <use xlink:href="#m868b3cd089" x="581.644628" y="245.719559" style="stroke: var(--secondary-color); stroke-width: 1.5"/>
     <use xlink:href="#m868b3cd089" x="586.768595" y="275.504448" style="stroke: var(--secondary-color); stroke-width: 1.5"/>
     <use xlink:href="#m868b3cd089" x="591.892562" y="259.443696" style="stroke: var(--secondary-color); stroke-width: 1.5"/>
     <use xlink:href="#m868b3cd089" x="597.016529" y="252.484533" style="stroke: var(--secondary-color); stroke-width: 1.5"/>
     <use xlink:href="#m868b3cd089" x="602.140496" y="267.184026" style="stroke: var(--secondary-color); stroke-width: 1.5"/>
     <use xlink:href="#m868b3cd089" x="607.264463" y="218.606701" style="stroke: var(--secondary-color); stroke-width: 1.5"/>
     <use xlink:href="#m868b3cd089" x="612.38843" y="209.090869" style="stroke: var(--secondary-color); stroke-width: 1.5"/>
     <use xlink:href="#m868b3cd089" x="617.512397" y="203.799617" style="stroke: var(--secondary-color); stroke-width: 1.5"/>
     <use xlink:href="#m868b3cd089" x="622.636364" y="197.472758" style="stroke: var(--secondary-color); stroke-width: 1.5"/>
    </g>
   </g>
   <g id="PolyCollection_1">
    <path d="M 115.363636 158.250646 
L 115.363636 226.313644 
L 120.487603 216.438929 
L 125.61157 207.204623 
L 130.735537 198.597152 
L 135.859504 190.602942 
L 140.983471 183.208421 
L 146.107438 176.400013 
L 151.231405 170.164146 
L 156.355372 164.487246 
L 161.479339 159.355738 
L 166.603306 154.75605 
L 171.727273 150.674607 
L 176.85124 147.097836 
L 181.975207 144.012163 
L 187.099174 141.404014 
L 192.22314 139.259815 
L 197.347107 137.565993 
L 202.471074 136.308974 
L 207.595041 135.475185 
L 212.719008 135.05105 
L 217.842975 135.022998 
L 222.966942 135.377454 
L 228.090909 136.100844 
L 233.214876 137.179594 
L 238.338843 138.600131 
L 243.46281 140.348881 
L 248.586777 142.412271 
L 253.710744 144.776726 
L 258.834711 147.428673 
L 263.958678 150.354538 
L 269.082645 153.540748 
L 274.206612 156.973728 
L 279.330579 160.639905 
L 284.454545 164.525705 
L 289.578512 168.617554 
L 294.702479 172.901879 
L 299.826446 177.365106 
L 304.950413 181.993661 
L 310.07438 186.773971 
L 315.198347 191.692461 
L 320.322314 196.735558 
L 325.446281 201.889689 
L 330.570248 207.141278 
L 335.694215 212.476754 
L 340.818182 217.882542 
L 345.942149 223.345067 
L 351.066116 228.850758 
L 356.190083 234.386039 
L 361.31405 239.937337 
L 366.438017 245.491078 
L 371.561983 251.033689 
L 376.68595 256.551595 
L 381.809917 262.031224 
L 386.933884 267.459001 
L 392.057851 272.821353 
L 397.181818 278.104705 
L 402.305785 283.295485 
L 407.429752 288.380117 
L 412.553719 293.34503 
L 417.677686 298.176648 
L 422.801653 302.861399 
L 427.92562 307.385707 
L 433.049587 311.736001 
L 438.173554 315.898705 
L 443.297521 319.860247 
L 448.421488 323.607052 
L 453.545455 327.125546 
L 458.669421 330.402157 
L 463.793388 333.423309 
L 468.917355 336.175431 
L 474.041322 338.644947 
L 479.165289 340.818283 
L 484.289256 342.681868 
L 489.413223 344.222125 
L 494.53719 345.425483 
L 499.661157 346.278366 
L 504.785124 346.767202 
L 509.909091 346.878416 
L 515.033058 346.598435 
L 520.157025 345.913685 
L 525.280992 344.810592 
L 530.404959 343.275583 
L 535.528926 341.295084 
L 540.652893 338.855521 
L 545.77686 335.94332 
L 550.900826 332.544907 
L 556.024793 328.64671 
L 561.14876 324.235154 
L 566.272727 319.296665 
L 571.396694 313.81767 
L 576.520661 307.784594 
L 581.644628 301.183865 
L 586.768595 294.001908 
L 591.892562 286.22515 
L 597.016529 277.840017 
L 602.140496 268.832935 
L 607.264463 259.190331 
L 612.38843 248.89863 
L 617.512397 237.944259 
L 622.636364 226.313644 
L 622.636364 158.250646 
L 622.636364 158.250646 
L 617.512397 169.881261 
L 612.38843 180.835632 
L 607.264463 191.127333 
L 602.140496 200.769937 
L 597.016529 209.777019 
L 591.892562 218.162152 
L 586.768595 225.93891 
L 581.644628 233.120867 
L 576.520661 239.721596 
L 571.396694 245.754672 
L 566.272727 251.233667 
L 561.14876 256.172156 
L 556.024793 260.583712 
L 550.900826 264.481909 
L 545.77686 267.880322 
L 540.652893 270.792522 
L 535.528926 273.232086 
L 530.404959 275.212585 
L 525.280992 276.747594 
L 520.157025 277.850687 
L 515.033058 278.535437 
L 509.909091 278.815418 
L 504.785124 278.704204 
L 499.661157 278.215368 
L 494.53719 277.362485 
L 489.413223 276.159127 
L 484.289256 274.61887 
L 479.165289 272.755285 
L 474.041322 270.581949 
L 468.917355 268.112433 
L 463.793388 265.360311 
L 458.669421 262.339159 
L 453.545455 259.062548 
L 448.421488 255.544054 
L 443.297521 251.797249 
L 438.173554 247.835707 
L 433.049587 243.673003 
L 427.92562 239.322709 
L 422.801653 234.7984 
L 417.677686 230.11365 
L 412.553719 225.282032 
L 407.429752 220.317119 
L 402.305785 215.232487 
L 397.181818 210.041707 
L 392.057851 204.758355 
L 386.933884 199.396003 
L 381.809917 193.968226 
L 376.68595 188.488597 
L 371.561983 182.970691 
L 366.438017 177.42808 
L 361.31405 171.874339 
L 356.190083 166.323041 
L 351.066116 160.78776 
L 345.942149 155.282069 
L 340.818182 149.819544 
L 335.694215 144.413756 
L 330.570248 139.07828 
L 325.446281 133.826691 
L 320.322314 128.67256 
L 315.198347 123.629463 
L 310.07438 118.710973 
L 304.950413 113.930663 
L 299.826446 109.302108 
L 294.702479 104.838881 
L 289.578512 100.554556 
L 284.454545 96.462707 
L 279.330579 92.576907 
L 274.206612 88.91073 
L 269.082645 85.47775 
L 263.958678 82.29154 
L 258.834711 79.365675 
L 253.710744 76.713728 
L 248.586777 74.349273 
L 243.46281 72.285883 
L 238.338843 70.537133 
L 233.214876 69.116596 
L 228.090909 68.037846 
L 222.966942 67.314456 
L 217.842975 66.96 
L 212.719008 66.988052 
L 207.595041 67.412187 
L 202.471074 68.245976 
L 197.347107 69.502995 
L 192.22314 71.196817 
L 187.099174 73.341016 
L 181.975207 75.949165 
L 176.85124 79.034838 
L 171.727273 82.611609 
L 166.603306 86.693052 
L 161.479339 91.29274 
L 156.355372 96.424248 
L 151.231405 102.101148 
L 146.107438 108.337015 
L 140.983471 115.145423 
L 135.859504 122.539944 
L 130.735537 130.534154 
L 125.61157 139.141625 
L 120.487603 148.375931 
L 115.363636 158.250646 
z
" clip-path="url(#p80f5da3b25)" style="fill: #ffaf00; fill-opacity: 0.3"/>
   </g>
   <g id="PolyCollection_2">
    <path d="M 115.363636 165.269043 
L 115.363636 219.295248 
L 120.487603 209.420533 
L 125.61157 200.186226 
L 130.735537 191.578755 
L 135.859504 183.584546 
L 140.983471 176.190024 
L 146.107438 169.381617 
L 151.231405 163.14575 
L 156.355372 157.468849 
L 161.479339 152.337342 
L 166.603306 147.737654 
L 171.727273 143.656211 
L 176.85124 140.079439 
L 181.975207 136.993766 
L 187.099174 134.385617 
L 192.22314 132.241419 
L 197.347107 130.547597 
L 202.471074 129.290578 
L 207.595041 128.456788 
L 212.719008 128.032654 
L 217.842975 128.004602 
L 222.966942 128.359057 
L 228.090909 129.082447 
L 233.214876 130.161197 
L 238.338843 131.581735 
L 243.46281 133.330485 
L 248.586777 135.393875 
L 253.710744 137.75833 
L 258.834711 140.410277 
L 263.958678 143.336142 
L 269.082645 146.522351 
L 274.206612 149.955331 
L 279.330579 153.621508 
L 284.454545 157.507308 
L 289.578512 161.599158 
L 294.702479 165.883483 
L 299.826446 170.34671 
L 304.950413 174.975265 
L 310.07438 179.755574 
L 315.198347 184.674065 
L 320.322314 189.717162 
L 325.446281 194.871292 
L 330.570248 200.122882 
L 335.694215 205.458358 
L 340.818182 210.864145 
L 345.942149 216.326671 
L 351.066116 221.832361 
L 356.190083 227.367642 
L 361.31405 232.91894 
L 366.438017 238.472681 
L 371.561983 244.015292 
L 376.68595 249.533199 
L 381.809917 255.012828 
L 386.933884 260.440605 
L 392.057851 265.802956 
L 397.181818 271.086309 
L 402.305785 276.277088 
L 407.429752 281.361721 
L 412.553719 286.326633 
L 417.677686 291.158252 
L 422.801653 295.843002 
L 427.92562 300.367311 
L 433.049587 304.717604 
L 438.173554 308.880309 
L 443.297521 312.84185 
L 448.421488 316.588655 
L 453.545455 320.10715 
L 458.669421 323.38376 
L 463.793388 326.404913 
L 468.917355 329.157034 
L 474.041322 331.62655 
L 479.165289 333.799887 
L 484.289256 335.663471 
L 489.413223 337.203729 
L 494.53719 338.407086 
L 499.661157 339.259969 
L 504.785124 339.748805 
L 509.909091 339.860019 
L 515.033058 339.580038 
L 520.157025 338.895288 
L 525.280992 337.792196 
L 530.404959 336.257187 
L 535.528926 334.276687 
L 540.652893 331.837124 
L 545.77686 328.924923 
L 550.900826 325.526511 
L 556.024793 321.628314 
L 561.14876 317.216757 
L 566.272727 312.278268 
L 571.396694 306.799273 
L 576.520661 300.766198 
L 581.644628 294.165469 
L 586.768595 286.983512 
L 591.892562 279.206754 
L 597.016529 270.821621 
L 602.140496 261.814539 
L 607.264463 252.171934 
L 612.38843 241.880233 
L 617.512397 230.925863 
L 622.636364 219.295248 
L 622.636364 165.269043 
L 622.636364 165.269043 
L 617.512397 176.899658 
L 612.38843 187.854028 
L 607.264463 198.145729 
L 602.140496 207.788334 
L 597.016529 216.795416 
L 591.892562 225.180549 
L 586.768595 232.957307 
L 581.644628 240.139264 
L 576.520661 246.739993 
L 571.396694 252.773068 
L 566.272727 258.252063 
L 561.14876 263.190552 
L 556.024793 267.602108 
L 550.900826 271.500306 
L 545.77686 274.898718 
L 540.652893 277.810919 
L 535.528926 280.250482 
L 530.404959 282.230981 
L 525.280992 283.765991 
L 520.157025 284.869083 
L 515.033058 285.553833 
L 509.909091 285.833814 
L 504.785124 285.7226 
L 499.661157 285.233764 
L 494.53719 284.380881 
L 489.413223 283.177524 
L 484.289256 281.637266 
L 479.165289 279.773682 
L 474.041322 277.600345 
L 468.917355 275.130829 
L 463.793388 272.378708 
L 458.669421 269.357555 
L 453.545455 266.080945 
L 448.421488 262.56245 
L 443.297521 258.815645 
L 438.173554 254.854104 
L 433.049587 250.691399 
L 427.92562 246.341106 
L 422.801653 241.816797 
L 417.677686 237.132047 
L 412.553719 232.300428 
L 407.429752 227.335516 
L 402.305785 222.250883 
L 397.181818 217.060104 
L 392.057851 211.776751 
L 386.933884 206.4144 
L 381.809917 200.986623 
L 376.68595 195.506994 
L 371.561983 189.989087 
L 366.438017 184.446476 
L 361.31405 178.892735 
L 356.190083 173.341437 
L 351.066116 167.806156 
L 345.942149 162.300466 
L 340.818182 156.83794 
L 335.694215 151.432152 
L 330.570248 146.096677 
L 325.446281 140.845087 
L 320.322314 135.690957 
L 315.198347 130.64786 
L 310.07438 125.729369 
L 304.950413 120.94906 
L 299.826446 116.320505 
L 294.702479 111.857278 
L 289.578512 107.572953 
L 284.454545 103.481103 
L 279.330579 99.595303 
L 274.206612 95.929126 
L 269.082645 92.496146 
L 263.958678 89.309937 
L 258.834711 86.384072 
L 253.710744 83.732125 
L 248.586777 81.36767 
L 243.46281 79.30428 
L 238.338843 77.55553 
L 233.214876 76.134992 
L 228.090909 75.056242 
L 222.966942 74.332852 
L 217.842975 73.978396 
L 212.719008 74.006449 
L 207.595041 74.430583 
L 202.471074 75.264373 
L 197.347107 76.521392 
L 192.22314 78.215213 
L 187.099174 80.359412 
L 181.975207 82.967561 
L 176.85124 86.053234 
L 171.727273 89.630006 
L 166.603306 93.711448 
L 161.479339 98.311137 
L 156.355372 103.442644 
L 151.231405 109.119545 
L 146.107438 115.355412 
L 140.983471 122.163819 
L 135.859504 129.558341 
L 130.735537 137.55255 
L 125.61157 146.160021 
L 120.487603 155.394327 
L 115.363636 165.269043 
z
" clip-path="url(#p80f5da3b25)" style="fill: #f46920; fill-opacity: 0.3"/>
   </g>
   <g id="PolyCollection_3">
    <path d="M 115.363636 170.849338 
L 115.363636 213.714953 
L 120.487603 203.840237 
L 125.61157 194.605931 
L 130.735537 185.99846 
L 135.859504 178.00425 
L 140.983471 170.609729 
L 146.107438 163.801321 
L 151.231405 157.565454 
L 156.355372 151.888554 
L 161.479339 146.757046 
L 166.603306 142.157358 
L 171.727273 138.075915 
L 176.85124 134.499144 
L 181.975207 131.413471 
L 187.099174 128.805322 
L 192.22314 126.661123 
L 197.347107 124.967301 
L 202.471074 123.710282 
L 207.595041 122.876493 
L 212.719008 122.452359 
L 217.842975 122.424306 
L 222.966942 122.778762 
L 228.090909 123.502152 
L 233.214876 124.580902 
L 238.338843 126.001439 
L 243.46281 127.75019 
L 248.586777 129.813579 
L 253.710744 132.178034 
L 258.834711 134.829981 
L 263.958678 137.755846 
L 269.082645 140.942056 
L 274.206612 144.375036 
L 279.330579 148.041213 
L 284.454545 151.927013 
L 289.578512 156.018862 
L 294.702479 160.303187 
L 299.826446 164.766414 
L 304.950413 169.394969 
L 310.07438 174.175279 
L 315.198347 179.093769 
L 320.322314 184.136866 
L 325.446281 189.290997 
L 330.570248 194.542587 
L 335.694215 199.878062 
L 340.818182 205.28385 
L 345.942149 210.746375 
L 351.066116 216.252066 
L 356.190083 221.787347 
L 361.31405 227.338645 
L 366.438017 232.892386 
L 371.561983 238.434997 
L 376.68595 243.952904 
L 381.809917 249.432532 
L 386.933884 254.860309 
L 392.057851 260.222661 
L 397.181818 265.506013 
L 402.305785 270.696793 
L 407.429752 275.781425 
L 412.553719 280.746338 
L 417.677686 285.577956 
L 422.801653 290.262707 
L 427.92562 294.787015 
L 433.049587 299.137309 
L 438.173554 303.300013 
L 443.297521 307.261555 
L 448.421488 311.00836 
L 453.545455 314.526854 
L 458.669421 317.803465 
L 463.793388 320.824618 
L 468.917355 323.576739 
L 474.041322 326.046255 
L 479.165289 328.219592 
L 484.289256 330.083176 
L 489.413223 331.623433 
L 494.53719 332.826791 
L 499.661157 333.679674 
L 504.785124 334.16851 
L 509.909091 334.279724 
L 515.033058 333.999743 
L 520.157025 333.314993 
L 525.280992 332.2119 
L 530.404959 330.676891 
L 535.528926 328.696392 
L 540.652893 326.256829 
L 545.77686 323.344628 
L 550.900826 319.946216 
L 556.024793 316.048018 
L 561.14876 311.636462 
L 566.272727 306.697973 
L 571.396694 301.218978 
L 576.520661 295.185902 
L 581.644628 288.585173 
L 586.768595 281.403216 
L 591.892562 273.626458 
L 597.016529 265.241325 
L 602.140496 256.234243 
L 607.264463 246.591639 
L 612.38843 236.299938 
L 617.512397 225.345567 
L 622.636364 213.714953 
L 622.636364 170.849338 
L 622.636364 170.849338 
L 617.512397 182.479953 
L 612.38843 193.434324 
L 607.264463 203.726025 
L 602.140496 213.368629 
L 597.016529 222.375711 
L 591.892562 230.760844 
L 586.768595 238.537602 
L 581.644628 245.719559 
L 576.520661 252.320288 
L 571.396694 258.353364 
L 566.272727 263.832359 
L 561.14876 268.770848 
L 556.024793 273.182404 
L 550.900826 277.080601 
L 545.77686 280.479014 
L 540.652893 283.391214 
L 535.528926 285.830778 
L 530.404959 287.811277 
L 525.280992 289.346286 
L 520.157025 290.449379 
L 515.033058 291.134129 
L 509.909091 291.41411 
L 504.785124 291.302895 
L 499.661157 290.81406 
L 494.53719 289.961176 
L 489.413223 288.757819 
L 484.289256 287.217561 
L 479.165289 285.353977 
L 474.041322 283.18064 
L 468.917355 280.711125 
L 463.793388 277.959003 
L 458.669421 274.937851 
L 453.545455 271.66124 
L 448.421488 268.142745 
L 443.297521 264.395941 
L 438.173554 260.434399 
L 433.049587 256.271695 
L 427.92562 251.921401 
L 422.801653 247.397092 
L 417.677686 242.712342 
L 412.553719 237.880724 
L 407.429752 232.915811 
L 402.305785 227.831178 
L 397.181818 222.640399 
L 392.057851 217.357047 
L 386.933884 211.994695 
L 381.809917 206.566918 
L 376.68595 201.087289 
L 371.561983 195.569383 
L 366.438017 190.026772 
L 361.31405 184.473031 
L 356.190083 178.921733 
L 351.066116 173.386451 
L 345.942149 167.880761 
L 340.818182 162.418235 
L 335.694215 157.012448 
L 330.570248 151.676972 
L 325.446281 146.425383 
L 320.322314 141.271252 
L 315.198347 136.228155 
L 310.07438 131.309665 
L 304.950413 126.529355 
L 299.826446 121.9008 
L 294.702479 117.437573 
L 289.578512 113.153248 
L 284.454545 109.061399 
L 279.330579 105.175599 
L 274.206612 101.509422 
L 269.082645 98.076442 
L 263.958678 94.890232 
L 258.834711 91.964367 
L 253.710744 89.31242 
L 248.586777 86.947965 
L 243.46281 84.884575 
L 238.338843 83.135825 
L 233.214876 81.715288 
L 228.090909 80.636537 
L 222.966942 79.913148 
L 217.842975 79.558692 
L 212.719008 79.586744 
L 207.595041 80.010878 
L 202.471074 80.844668 
L 197.347107 82.101687 
L 192.22314 83.795509 
L 187.099174 85.939707 
L 181.975207 88.547857 
L 176.85124 91.63353 
L 171.727273 95.210301 
L 166.603306 99.291744 
L 161.479339 103.891432 
L 156.355372 109.02294 
L 151.231405 114.69984 
L 146.107438 120.935707 
L 140.983471 127.744114 
L 135.859504 135.138636 
L 130.735537 143.132845 
L 125.61157 151.740316 
L 120.487603 160.974623 
L 115.363636 170.849338 
z
" clip-path="url(#p80f5da3b25)" style="fill: #f53255; fill-opacity: 0.3"/>
   </g>
   <g id="PolyCollection_4">
    <path d="M 115.363636 175.942401 
L 115.363636 208.62189 
L 120.487603 198.747175 
L 125.61157 189.512868 
L 130.735537 180.905397 
L 135.859504 172.911188 
L 140.983471 165.516666 
L 146.107438 158.708259 
L 151.231405 152.472392 
L 156.355372 146.795491 
L 161.479339 141.663984 
L 166.603306 137.064296 
L 171.727273 132.982853 
L 176.85124 129.406081 
L 181.975207 126.320408 
L 187.099174 123.712259 
L 192.22314 121.568061 
L 197.347107 119.874239 
L 202.471074 118.61722 
L 207.595041 117.78343 
L 212.719008 117.359296 
L 217.842975 117.331244 
L 222.966942 117.685699 
L 228.090909 118.409089 
L 233.214876 119.48784 
L 238.338843 120.908377 
L 243.46281 122.657127 
L 248.586777 124.720517 
L 253.710744 127.084972 
L 258.834711 129.736919 
L 263.958678 132.662784 
L 269.082645 135.848993 
L 274.206612 139.281973 
L 279.330579 142.94815 
L 284.454545 146.83395 
L 289.578512 150.9258 
L 294.702479 155.210125 
L 299.826446 159.673352 
L 304.950413 164.301907 
L 310.07438 169.082216 
L 315.198347 174.000707 
L 320.322314 179.043804 
L 325.446281 184.197934 
L 330.570248 189.449524 
L 335.694215 194.785 
L 340.818182 200.190787 
L 345.942149 205.653313 
L 351.066116 211.159003 
L 356.190083 216.694284 
L 361.31405 222.245582 
L 366.438017 227.799324 
L 371.561983 233.341934 
L 376.68595 238.859841 
L 381.809917 244.33947 
L 386.933884 249.767247 
L 392.057851 255.129598 
L 397.181818 260.412951 
L 402.305785 265.60373 
L 407.429752 270.688363 
L 412.553719 275.653275 
L 417.677686 280.484894 
L 422.801653 285.169644 
L 427.92562 289.693953 
L 433.049587 294.044246 
L 438.173554 298.206951 
L 443.297521 302.168492 
L 448.421488 305.915297 
L 453.545455 309.433792 
L 458.669421 312.710402 
L 463.793388 315.731555 
L 468.917355 318.483676 
L 474.041322 320.953192 
L 479.165289 323.126529 
L 484.289256 324.990113 
L 489.413223 326.530371 
L 494.53719 327.733728 
L 499.661157 328.586612 
L 504.785124 329.075447 
L 509.909091 329.186661 
L 515.033058 328.90668 
L 520.157025 328.22193 
L 525.280992 327.118838 
L 530.404959 325.583829 
L 535.528926 323.603329 
L 540.652893 321.163766 
L 545.77686 318.251565 
L 550.900826 314.853153 
L 556.024793 310.954956 
L 561.14876 306.543399 
L 566.272727 301.60491 
L 571.396694 296.125915 
L 576.520661 290.09284 
L 581.644628 283.492111 
L 586.768595 276.310154 
L 591.892562 268.533396 
L 597.016529 260.148263 
L 602.140496 251.141181 
L 607.264463 241.498576 
L 612.38843 231.206875 
L 617.512397 220.252505 
L 622.636364 208.62189 
L 622.636364 175.942401 
L 622.636364 175.942401 
L 617.512397 187.573015 
L 612.38843 198.527386 
L 607.264463 208.819087 
L 602.140496 218.461692 
L 597.016529 227.468774 
L 591.892562 235.853907 
L 586.768595 243.630665 
L 581.644628 250.812622 
L 576.520661 257.413351 
L 571.396694 263.446426 
L 566.272727 268.925421 
L 561.14876 273.86391 
L 556.024793 278.275466 
L 550.900826 282.173664 
L 545.77686 285.572076 
L 540.652893 288.484277 
L 535.528926 290.92384 
L 530.404959 292.904339 
L 525.280992 294.439348 
L 520.157025 295.542441 
L 515.033058 296.227191 
L 509.909091 296.507172 
L 504.785124 296.395958 
L 499.661157 295.907122 
L 494.53719 295.054239 
L 489.413223 293.850882 
L 484.289256 292.310624 
L 479.165289 290.44704 
L 474.041322 288.273703 
L 468.917355 285.804187 
L 463.793388 283.052066 
L 458.669421 280.030913 
L 453.545455 276.754303 
L 448.421488 273.235808 
L 443.297521 269.489003 
L 438.173554 265.527461 
L 433.049587 261.364757 
L 427.92562 257.014464 
L 422.801653 252.490155 
L 417.677686 247.805404 
L 412.553719 242.973786 
L 407.429752 238.008874 
L 402.305785 232.924241 
L 397.181818 227.733461 
L 392.057851 222.450109 
L 386.933884 217.087757 
L 381.809917 211.659981 
L 376.68595 206.180352 
L 371.561983 200.662445 
L 366.438017 195.119834 
L 361.31405 189.566093 
L 356.190083 184.014795 
L 351.066116 178.479514 
L 345.942149 172.973824 
L 340.818182 167.511298 
L 335.694215 162.10551 
L 330.570248 156.770035 
L 325.446281 151.518445 
L 320.322314 146.364315 
L 315.198347 141.321217 
L 310.07438 136.402727 
L 304.950413 131.622418 
L 299.826446 126.993863 
L 294.702479 122.530636 
L 289.578512 118.246311 
L 284.454545 114.154461 
L 279.330579 110.268661 
L 274.206612 106.602484 
L 269.082645 103.169504 
L 263.958678 99.983295 
L 258.834711 97.05743 
L 253.710744 94.405483 
L 248.586777 92.041027 
L 243.46281 89.977638 
L 238.338843 88.228888 
L 233.214876 86.80835 
L 228.090909 85.7296 
L 222.966942 85.00621 
L 217.842975 84.651754 
L 212.719008 84.679807 
L 207.595041 85.103941 
L 202.471074 85.937731 
L 197.347107 87.19475 
L 192.22314 88.888571 
L 187.099174 91.03277 
L 181.975207 93.640919 
L 176.85124 96.726592 
L 171.727273 100.303363 
L 166.603306 104.384806 
L 161.479339 108.984495 
L 156.355372 114.116002 
L 151.231405 119.792903 
L 146.107438 126.02877 
L 140.983471 132.837177 
L 135.859504 140.231699 
L 130.735537 148.225908 
L 125.61157 156.833379 
L 120.487603 166.067685 
L 115.363636 175.942401 
z
" clip-path="url(#p80f5da3b25)" style="fill: #f857c1; fill-opacity: 0.3"/>
   </g>
   <g id="PolyCollection_5">
    <path d="M 115.363636 180.236814 
L 115.363636 204.327477 
L 120.487603 194.452761 
L 125.61157 185.218455 
L 130.735537 176.610984 
L 135.859504 168.616775 
L 140.983471 161.222253 
L 146.107438 154.413846 
L 151.231405 148.177979 
L 156.355372 142.501078 
L 161.479339 137.369571 
L 166.603306 132.769882 
L 171.727273 128.688439 
L 176.85124 125.111668 
L 181.975207 122.025995 
L 187.099174 119.417846 
L 192.22314 117.273647 
L 197.347107 115.579826 
L 202.471074 114.322807 
L 207.595041 113.489017 
L 212.719008 113.064883 
L 217.842975 113.03683 
L 222.966942 113.391286 
L 228.090909 114.114676 
L 233.214876 115.193426 
L 238.338843 116.613964 
L 243.46281 118.362714 
L 248.586777 120.426103 
L 253.710744 122.790559 
L 258.834711 125.442506 
L 263.958678 128.368371 
L 269.082645 131.55458 
L 274.206612 134.98756 
L 279.330579 138.653737 
L 284.454545 142.539537 
L 289.578512 146.631387 
L 294.702479 150.915712 
L 299.826446 155.378939 
L 304.950413 160.007494 
L 310.07438 164.787803 
L 315.198347 169.706293 
L 320.322314 174.749391 
L 325.446281 179.903521 
L 330.570248 185.155111 
L 335.694215 190.490586 
L 340.818182 195.896374 
L 345.942149 201.3589 
L 351.066116 206.86459 
L 356.190083 212.399871 
L 361.31405 217.951169 
L 366.438017 223.50491 
L 371.561983 229.047521 
L 376.68595 234.565428 
L 381.809917 240.045057 
L 386.933884 245.472834 
L 392.057851 250.835185 
L 397.181818 256.118537 
L 402.305785 261.309317 
L 407.429752 266.39395 
L 412.553719 271.358862 
L 417.677686 276.19048 
L 422.801653 280.875231 
L 427.92562 285.39954 
L 433.049587 289.749833 
L 438.173554 293.912537 
L 443.297521 297.874079 
L 448.421488 301.620884 
L 453.545455 305.139379 
L 458.669421 308.415989 
L 463.793388 311.437142 
L 468.917355 314.189263 
L 474.041322 316.658779 
L 479.165289 318.832116 
L 484.289256 320.6957 
L 489.413223 322.235958 
L 494.53719 323.439315 
L 499.661157 324.292198 
L 504.785124 324.781034 
L 509.909091 324.892248 
L 515.033058 324.612267 
L 520.157025 323.927517 
L 525.280992 322.824424 
L 530.404959 321.289415 
L 535.528926 319.308916 
L 540.652893 316.869353 
L 545.77686 313.957152 
L 550.900826 310.55874 
L 556.024793 306.660542 
L 561.14876 302.248986 
L 566.272727 297.310497 
L 571.396694 291.831502 
L 576.520661 285.798427 
L 581.644628 279.197698 
L 586.768595 272.015741 
L 591.892562 264.238983 
L 597.016529 255.85385 
L 602.140496 246.846768 
L 607.264463 237.204163 
L 612.38843 226.912462 
L 617.512397 215.958091 
L 622.636364 204.327477 
L 622.636364 180.236814 
L 622.636364 180.236814 
L 617.512397 191.867429 
L 612.38843 202.821799 
L 607.264463 213.1135 
L 602.140496 222.756105 
L 597.016529 231.763187 
L 591.892562 240.14832 
L 586.768595 247.925078 
L 581.644628 255.107035 
L 576.520661 261.707764 
L 571.396694 267.740839 
L 566.272727 273.219834 
L 561.14876 278.158323 
L 556.024793 282.56988 
L 550.900826 286.468077 
L 545.77686 289.866489 
L 540.652893 292.77869 
L 535.528926 295.218253 
L 530.404959 297.198753 
L 525.280992 298.733762 
L 520.157025 299.836854 
L 515.033058 300.521604 
L 509.909091 300.801585 
L 504.785124 300.690371 
L 499.661157 300.201536 
L 494.53719 299.348652 
L 489.413223 298.145295 
L 484.289256 296.605037 
L 479.165289 294.741453 
L 474.041322 292.568116 
L 468.917355 290.0986 
L 463.793388 287.346479 
L 458.669421 284.325326 
L 453.545455 281.048716 
L 448.421488 277.530221 
L 443.297521 273.783416 
L 438.173554 269.821875 
L 433.049587 265.65917 
L 427.92562 261.308877 
L 422.801653 256.784568 
L 417.677686 252.099818 
L 412.553719 247.268199 
L 407.429752 242.303287 
L 402.305785 237.218654 
L 397.181818 232.027875 
L 392.057851 226.744522 
L 386.933884 221.382171 
L 381.809917 215.954394 
L 376.68595 210.474765 
L 371.561983 204.956858 
L 366.438017 199.414248 
L 361.31405 193.860506 
L 356.190083 188.309208 
L 351.066116 182.773927 
L 345.942149 177.268237 
L 340.818182 171.805711 
L 335.694215 166.399924 
L 330.570248 161.064448 
L 325.446281 155.812858 
L 320.322314 150.658728 
L 315.198347 145.615631 
L 310.07438 140.69714 
L 304.950413 135.916831 
L 299.826446 131.288276 
L 294.702479 126.825049 
L 289.578512 122.540724 
L 284.454545 118.448874 
L 279.330579 114.563074 
L 274.206612 110.896897 
L 269.082645 107.463917 
L 263.958678 104.277708 
L 258.834711 101.351843 
L 253.710744 98.699896 
L 248.586777 96.335441 
L 243.46281 94.272051 
L 238.338843 92.523301 
L 233.214876 91.102764 
L 228.090909 90.024013 
L 222.966942 89.300623 
L 217.842975 88.946168 
L 212.719008 88.97422 
L 207.595041 89.398354 
L 202.471074 90.232144 
L 197.347107 91.489163 
L 192.22314 93.182985 
L 187.099174 95.327183 
L 181.975207 97.935332 
L 176.85124 101.021005 
L 171.727273 104.597777 
L 166.603306 108.67922 
L 161.479339 113.278908 
L 156.355372 118.410415 
L 151.231405 124.087316 
L 146.107438 130.323183 
L 140.983471 137.13159 
L 135.859504 144.526112 
L 130.735537 152.520321 
L 125.61157 161.127792 
L 120.487603 170.362099 
L 115.363636 180.236814 
z
" clip-path="url(#p80f5da3b25)" style="fill: #29bdfd; fill-opacity: 0.3"/>
   </g>
   <g id="matplotlib.axis_1">
    <g id="xtick_1">
     <g id="line2d_1">
      <path d="M 115.363636 384.48 
L 115.363636 51.84 
" clip-path="url(#p80f5da3b25)" style="fill: none; stroke-dasharray: 2.22,0.96; stroke-dashoffset: 0; stroke: #b0b0b0; stroke-opacity: 0.7; stroke-width: 0.6"/>
     </g>
     <g id="line2d_2">
      <defs>
       <path id="m95178eec01" d="M 0 0 
L 0 -3.5 
" style="stroke: var(--secondary-color); stroke-width: 0.8"/>
      </defs>
      <g>
       <use xlink:href="#m95178eec01" x="115.363636" y="384.48" style="fill: var(--secondary-color); stroke: var(--secondary-color); stroke-width: 0.8"/>
      </g>
     </g>
     <g id="text_1">
      <!-- 0 -->
      <g style="fill: var(--secondary-color)" transform="translate(111.546136 397.098125) scale(0.12 -0.12)">
       <defs>
        <path id="DejaVuSans-30" d="M 2034 4250 
Q 1547 4250 1301 3770 
Q 1056 3291 1056 2328 
Q 1056 1369 1301 889 
Q 1547 409 2034 409 
Q 2525 409 2770 889 
Q 3016 1369 3016 2328 
Q 3016 3291 2770 3770 
Q 2525 4250 2034 4250 
z
M 2034 4750 
Q 2819 4750 3233 4129 
Q 3647 3509 3647 2328 
Q 3647 1150 3233 529 
Q 2819 -91 2034 -91 
Q 1250 -91 836 529 
Q 422 1150 422 2328 
Q 422 3509 836 4129 
Q 1250 4750 2034 4750 
z
" transform="scale(0.015625)"/>
       </defs>
       <use xlink:href="#DejaVuSans-30"/>
      </g>
     </g>
    </g>
    <g id="xtick_2">
     <g id="line2d_3">
      <path d="M 216.818182 384.48 
L 216.818182 51.84 
" clip-path="url(#p80f5da3b25)" style="fill: none; stroke-dasharray: 2.22,0.96; stroke-dashoffset: 0; stroke: #b0b0b0; stroke-opacity: 0.7; stroke-width: 0.6"/>
     </g>
     <g id="line2d_4">
      <g>
       <use xlink:href="#m95178eec01" x="216.818182" y="384.48" style="fill: var(--secondary-color); stroke: var(--secondary-color); stroke-width: 0.8"/>
      </g>
     </g>
     <g id="text_2">
      <!-- 2 -->
      <g style="fill: var(--secondary-color)" transform="translate(213.000682 397.098125) scale(0.12 -0.12)">
       <defs>
        <path id="DejaVuSans-32" d="M 1228 531 
L 3431 531 
L 3431 0 
L 469 0 
L 469 531 
Q 828 903 1448 1529 
Q 2069 2156 2228 2338 
Q 2531 2678 2651 2914 
Q 2772 3150 2772 3378 
Q 2772 3750 2511 3984 
Q 2250 4219 1831 4219 
Q 1534 4219 1204 4116 
Q 875 4013 500 3803 
L 500 4441 
Q 881 4594 1212 4672 
Q 1544 4750 1819 4750 
Q 2544 4750 2975 4387 
Q 3406 4025 3406 3419 
Q 3406 3131 3298 2873 
Q 3191 2616 2906 2266 
Q 2828 2175 2409 1742 
Q 1991 1309 1228 531 
z
" transform="scale(0.015625)"/>
       </defs>
       <use xlink:href="#DejaVuSans-32"/>
      </g>
     </g>
    </g>
    <g id="xtick_3">
     <g id="line2d_5">
      <path d="M 318.272727 384.48 
L 318.272727 51.84 
" clip-path="url(#p80f5da3b25)" style="fill: none; stroke-dasharray: 2.22,0.96; stroke-dashoffset: 0; stroke: #b0b0b0; stroke-opacity: 0.7; stroke-width: 0.6"/>
     </g>
     <g id="line2d_6">
      <g>
       <use xlink:href="#m95178eec01" x="318.272727" y="384.48" style="fill: var(--secondary-color); stroke: var(--secondary-color); stroke-width: 0.8"/>
      </g>
     </g>
     <g id="text_3">
      <!-- 4 -->
      <g style="fill: var(--secondary-color)" transform="translate(314.455227 397.098125) scale(0.12 -0.12)">
       <defs>
        <path id="DejaVuSans-34" d="M 2419 4116 
L 825 1625 
L 2419 1625 
L 2419 4116 
z
M 2253 4666 
L 3047 4666 
L 3047 1625 
L 3713 1625 
L 3713 1100 
L 3047 1100 
L 3047 0 
L 2419 0 
L 2419 1100 
L 313 1100 
L 313 1709 
L 2253 4666 
z
" transform="scale(0.015625)"/>
       </defs>
       <use xlink:href="#DejaVuSans-34"/>
      </g>
     </g>
    </g>
    <g id="xtick_4">
     <g id="line2d_7">
      <path d="M 419.727273 384.48 
L 419.727273 51.84 
" clip-path="url(#p80f5da3b25)" style="fill: none; stroke-dasharray: 2.22,0.96; stroke-dashoffset: 0; stroke: #b0b0b0; stroke-opacity: 0.7; stroke-width: 0.6"/>
     </g>
     <g id="line2d_8">
      <g>
       <use xlink:href="#m95178eec01" x="419.727273" y="384.48" style="fill: var(--secondary-color); stroke: var(--secondary-color); stroke-width: 0.8"/>
      </g>
     </g>
     <g id="text_4">
      <!-- 6 -->
      <g style="fill: var(--secondary-color)" transform="translate(415.909773 397.098125) scale(0.12 -0.12)">
       <defs>
        <path id="DejaVuSans-36" d="M 2113 2584 
Q 1688 2584 1439 2293 
Q 1191 2003 1191 1497 
Q 1191 994 1439 701 
Q 1688 409 2113 409 
Q 2538 409 2786 701 
Q 3034 994 3034 1497 
Q 3034 2003 2786 2293 
Q 2538 2584 2113 2584 
z
M 3366 4563 
L 3366 3988 
Q 3128 4100 2886 4159 
Q 2644 4219 2406 4219 
Q 1781 4219 1451 3797 
Q 1122 3375 1075 2522 
Q 1259 2794 1537 2939 
Q 1816 3084 2150 3084 
Q 2853 3084 3261 2657 
Q 3669 2231 3669 1497 
Q 3669 778 3244 343 
Q 2819 -91 2113 -91 
Q 1303 -91 875 529 
Q 447 1150 447 2328 
Q 447 3434 972 4092 
Q 1497 4750 2381 4750 
Q 2619 4750 2861 4703 
Q 3103 4656 3366 4563 
z
" transform="scale(0.015625)"/>
       </defs>
       <use xlink:href="#DejaVuSans-36"/>
      </g>
     </g>
    </g>
    <g id="xtick_5">
     <g id="line2d_9">
      <path d="M 521.181818 384.48 
L 521.181818 51.84 
" clip-path="url(#p80f5da3b25)" style="fill: none; stroke-dasharray: 2.22,0.96; stroke-dashoffset: 0; stroke: #b0b0b0; stroke-opacity: 0.7; stroke-width: 0.6"/>
     </g>
     <g id="line2d_10">
      <g>
       <use xlink:href="#m95178eec01" x="521.181818" y="384.48" style="fill: var(--secondary-color); stroke: var(--secondary-color); stroke-width: 0.8"/>
      </g>
     </g>
     <g id="text_5">
      <!-- 8 -->
      <g style="fill: var(--secondary-color)" transform="translate(517.364318 397.098125) scale(0.12 -0.12)">
       <defs>
        <path id="DejaVuSans-38" d="M 2034 2216 
Q 1584 2216 1326 1975 
Q 1069 1734 1069 1313 
Q 1069 891 1326 650 
Q 1584 409 2034 409 
Q 2484 409 2743 651 
Q 3003 894 3003 1313 
Q 3003 1734 2745 1975 
Q 2488 2216 2034 2216 
z
M 1403 2484 
Q 997 2584 770 2862 
Q 544 3141 544 3541 
Q 544 4100 942 4425 
Q 1341 4750 2034 4750 
Q 2731 4750 3128 4425 
Q 3525 4100 3525 3541 
Q 3525 3141 3298 2862 
Q 3072 2584 2669 2484 
Q 3125 2378 3379 2068 
Q 3634 1759 3634 1313 
Q 3634 634 3220 271 
Q 2806 -91 2034 -91 
Q 1263 -91 848 271 
Q 434 634 434 1313 
Q 434 1759 690 2068 
Q 947 2378 1403 2484 
z
M 1172 3481 
Q 1172 3119 1398 2916 
Q 1625 2713 2034 2713 
Q 2441 2713 2670 2916 
Q 2900 3119 2900 3481 
Q 2900 3844 2670 4047 
Q 2441 4250 2034 4250 
Q 1625 4250 1398 4047 
Q 1172 3844 1172 3481 
z
" transform="scale(0.015625)"/>
       </defs>
       <use xlink:href="#DejaVuSans-38"/>
      </g>
     </g>
    </g>
    <g id="xtick_6">
     <g id="line2d_11">
      <path d="M 622.636364 384.48 
L 622.636364 51.84 
" clip-path="url(#p80f5da3b25)" style="fill: none; stroke-dasharray: 2.22,0.96; stroke-dashoffset: 0; stroke: #b0b0b0; stroke-opacity: 0.7; stroke-width: 0.6"/>
     </g>
     <g id="line2d_12">
      <g>
       <use xlink:href="#m95178eec01" x="622.636364" y="384.48" style="fill: var(--secondary-color); stroke: var(--secondary-color); stroke-width: 0.8"/>
      </g>
     </g>
     <g id="text_6">
      <!-- 10 -->
      <g style="fill: var(--secondary-color)" transform="translate(615.001364 397.098125) scale(0.12 -0.12)">
       <defs>
        <path id="DejaVuSans-31" d="M 794 531 
L 1825 531 
L 1825 4091 
L 703 3866 
L 703 4441 
L 1819 4666 
L 2450 4666 
L 2450 531 
L 3481 531 
L 3481 0 
L 794 0 
L 794 531 
z
" transform="scale(0.015625)"/>
       </defs>
       <use xlink:href="#DejaVuSans-31"/>
       <use xlink:href="#DejaVuSans-30" x="63.623047"/>
      </g>
     </g>
    </g>
    <g id="text_7">
     <!-- X -->
     <g style="fill: var(--secondary-color)" transform="translate(364.89 412.711875) scale(0.12 -0.12)">
      <defs>
       <path id="DejaVuSans-58" d="M 403 4666 
L 1081 4666 
L 2241 2931 
L 3406 4666 
L 4084 4666 
L 2584 2425 
L 4184 0 
L 3506 0 
L 2194 1984 
L 872 0 
L 191 0 
L 1856 2491 
L 403 4666 
z
" transform="scale(0.015625)"/>
      </defs>
      <use xlink:href="#DejaVuSans-58"/>
     </g>
    </g>
   </g>
   <g id="matplotlib.axis_2">
    <g id="ytick_1">
     <g id="line2d_13">
      <path d="M 90 339.792722 
L 648 339.792722 
" clip-path="url(#p80f5da3b25)" style="fill: none; stroke-dasharray: 2.22,0.96; stroke-dashoffset: 0; stroke: #b0b0b0; stroke-opacity: 0.7; stroke-width: 0.6"/>
     </g>
     <g id="line2d_14">
      <defs>
       <path id="m700318b54c" d="M 0 0 
L 3.5 0 
" style="stroke: var(--secondary-color); stroke-width: 0.8"/>
      </defs>
      <g>
       <use xlink:href="#m700318b54c" x="90" y="339.792722" style="fill: var(--secondary-color); stroke: var(--secondary-color); stroke-width: 0.8"/>
      </g>
     </g>
     <g id="text_8">
      <!-- −2 -->
      <g style="fill: var(--secondary-color)" transform="translate(68.809375 344.351784) scale(0.12 -0.12)">
       <defs>
        <path id="DejaVuSans-2212" d="M 678 2272 
L 4684 2272 
L 4684 1741 
L 678 1741 
L 678 2272 
z
" transform="scale(0.015625)"/>
       </defs>
       <use xlink:href="#DejaVuSans-2212"/>
       <use xlink:href="#DejaVuSans-32" x="83.789062"/>
      </g>
     </g>
    </g>
    <g id="ytick_2">
     <g id="line2d_15">
      <path d="M 90 266.037434 
L 648 266.037434 
" clip-path="url(#p80f5da3b25)" style="fill: none; stroke-dasharray: 2.22,0.96; stroke-dashoffset: 0; stroke: #b0b0b0; stroke-opacity: 0.7; stroke-width: 0.6"/>
     </g>
     <g id="line2d_16">
      <g>
       <use xlink:href="#m700318b54c" x="90" y="266.037434" style="fill: var(--secondary-color); stroke: var(--secondary-color); stroke-width: 0.8"/>
      </g>
     </g>
     <g id="text_9">
      <!-- −1 -->
      <g style="fill: var(--secondary-color)" transform="translate(68.809375 270.596496) scale(0.12 -0.12)">
       <use xlink:href="#DejaVuSans-2212"/>
       <use xlink:href="#DejaVuSans-31" x="83.789062"/>
      </g>
     </g>
    </g>
    <g id="ytick_3">
     <g id="line2d_17">
      <path d="M 90 192.282145 
L 648 192.282145 
" clip-path="url(#p80f5da3b25)" style="fill: none; stroke-dasharray: 2.22,0.96; stroke-dashoffset: 0; stroke: #b0b0b0; stroke-opacity: 0.7; stroke-width: 0.6"/>
     </g>
     <g id="line2d_18">
      <g>
       <use xlink:href="#m700318b54c" x="90" y="192.282145" style="fill: var(--secondary-color); stroke: var(--secondary-color); stroke-width: 0.8"/>
      </g>
     </g>
     <g id="text_10">
      <!-- 0 -->
      <g style="fill: var(--secondary-color)" transform="translate(78.865 196.841208) scale(0.12 -0.12)">
       <use xlink:href="#DejaVuSans-30"/>
      </g>
     </g>
    </g>
    <g id="ytick_4">
     <g id="line2d_19">
      <path d="M 90 118.526857 
L 648 118.526857 
" clip-path="url(#p80f5da3b25)" style="fill: none; stroke-dasharray: 2.22,0.96; stroke-dashoffset: 0; stroke: #b0b0b0; stroke-opacity: 0.7; stroke-width: 0.6"/>
     </g>
     <g id="line2d_20">
      <g>
       <use xlink:href="#m700318b54c" x="90" y="118.526857" style="fill: var(--secondary-color); stroke: var(--secondary-color); stroke-width: 0.8"/>
      </g>
     </g>
     <g id="text_11">
      <!-- 1 -->
      <g style="fill: var(--secondary-color)" transform="translate(78.865 123.08592) scale(0.12 -0.12)">
       <use xlink:href="#DejaVuSans-31"/>
      </g>
     </g>
    </g>
    <g id="text_12">
     <!-- Y -->
     <g style="fill: var(--secondary-color)" transform="translate(62.31375 221.824687) rotate(-90) scale(0.12 -0.12)">
      <defs>
       <path id="DejaVuSans-59" d="M -13 4666 
L 666 4666 
L 1959 2747 
L 3244 4666 
L 3922 4666 
L 2272 2222 
L 2272 0 
L 1638 0 
L 1638 2222 
L -13 4666 
z
" transform="scale(0.015625)"/>
      </defs>
      <use xlink:href="#DejaVuSans-59"/>
     </g>
    </g>
   </g>
   <g id="line2d_21">
    <path d="M 115.363636 192.282145 
L 120.487603 182.40743 
L 125.61157 173.173124 
L 130.735537 164.565653 
L 135.859504 156.571443 
L 140.983471 149.176922 
L 146.107438 142.368514 
L 151.231405 136.132647 
L 156.355372 130.455747 
L 161.479339 125.324239 
L 166.603306 120.724551 
L 171.727273 116.643108 
L 176.85124 113.066337 
L 181.975207 109.980664 
L 187.099174 107.372515 
L 192.22314 105.228316 
L 197.347107 103.534494 
L 202.471074 102.277475 
L 207.595041 101.443686 
L 212.719008 101.019551 
L 217.842975 100.991499 
L 222.966942 101.345955 
L 228.090909 102.069345 
L 233.214876 103.148095 
L 238.338843 104.568632 
L 243.46281 106.317382 
L 248.586777 108.380772 
L 253.710744 110.745227 
L 258.834711 113.397174 
L 263.958678 116.323039 
L 269.082645 119.509249 
L 274.206612 122.942229 
L 279.330579 126.608406 
L 284.454545 130.494206 
L 289.578512 134.586055 
L 294.702479 138.87038 
L 299.826446 143.333607 
L 304.950413 147.962162 
L 310.07438 152.742472 
L 315.198347 157.660962 
L 320.322314 162.704059 
L 325.446281 167.85819 
L 330.570248 173.109779 
L 335.694215 178.445255 
L 340.818182 183.851043 
L 345.942149 189.313568 
L 351.066116 194.819259 
L 356.190083 200.35454 
L 361.31405 205.905838 
L 366.438017 211.459579 
L 371.561983 217.00219 
L 376.68595 222.520096 
L 381.809917 227.999725 
L 386.933884 233.427502 
L 392.057851 238.789854 
L 397.181818 244.073206 
L 402.305785 249.263986 
L 407.429752 254.348618 
L 412.553719 259.313531 
L 417.677686 264.145149 
L 422.801653 268.829899 
L 427.92562 273.354208 
L 433.049587 277.704502 
L 438.173554 281.867206 
L 443.297521 285.828748 
L 448.421488 289.575553 
L 453.545455 293.094047 
L 458.669421 296.370658 
L 463.793388 299.39181 
L 468.917355 302.143932 
L 474.041322 304.613448 
L 479.165289 306.786784 
L 484.289256 308.650369 
L 489.413223 310.190626 
L 494.53719 311.393984 
L 499.661157 312.246867 
L 504.785124 312.735703 
L 509.909091 312.846917 
L 515.033058 312.566936 
L 520.157025 311.882186 
L 525.280992 310.779093 
L 530.404959 309.244084 
L 535.528926 307.263585 
L 540.652893 304.824022 
L 545.77686 301.911821 
L 550.900826 298.513408 
L 556.024793 294.615211 
L 561.14876 290.203655 
L 566.272727 285.265166 
L 571.396694 279.786171 
L 576.520661 273.753095 
L 581.644628 267.152366 
L 586.768595 259.970409 
L 591.892562 252.193651 
L 597.016529 243.808518 
L 602.140496 234.801436 
L 607.264463 225.158832 
L 612.38843 214.867131 
L 617.512397 203.91276 
L 622.636364 192.282145 
" clip-path="url(#p80f5da3b25)" style="fill: none; stroke: var(--secondary-color); stroke-width: 2; stroke-linecap: square"/>
   </g>
   <g id="patch_3">
    <path d="M 90 384.48 
L 90 51.84 
" style="fill: none; stroke: var(--secondary-color); stroke-linejoin: miter; stroke-linecap: square"/>
   </g>
   <g id="patch_4">
    <path d="M 90 384.48 
L 648 384.48 
" style="fill: none; stroke: var(--secondary-color); stroke-linejoin: miter; stroke-linecap: square"/>
   </g>
   <g id="legend_1">
    <g id="patch_5">
     <path d="M 480.560938 163.9775 
L 641 163.9775 
Q 643 163.9775 643 161.9775 
L 643 58.84 
Q 643 56.84 641 56.84 
L 480.560938 56.84 
Q 478.560938 56.84 478.560938 58.84 
L 478.560938 161.9775 
Q 478.560938 163.9775 480.560938 163.9775 
z
" style="fill: var(--primary-color); opacity: 0.8; stroke: #cccccc; stroke-linejoin: miter"/>
    </g>
    <g id="line2d_22">
     <path d="M 482.560938 64.938437 
L 492.560938 64.938437 
L 502.560938 64.938437 
" style="fill: none; stroke: var(--secondary-color); stroke-width: 2; stroke-linecap: square"/>
    </g>
    <g id="text_13">
     <!-- True Function -->
     <g style="fill: var(--secondary-color)" transform="translate(510.560938 68.438437) scale(0.1 -0.1)">
      <defs>
       <path id="DejaVuSans-54" d="M -19 4666 
L 3928 4666 
L 3928 4134 
L 2272 4134 
L 2272 0 
L 1638 0 
L 1638 4134 
L -19 4134 
L -19 4666 
z
" transform="scale(0.015625)"/>
       <path id="DejaVuSans-72" d="M 2631 2963 
Q 2534 3019 2420 3045 
Q 2306 3072 2169 3072 
Q 1681 3072 1420 2755 
Q 1159 2438 1159 1844 
L 1159 0 
L 581 0 
L 581 3500 
L 1159 3500 
L 1159 2956 
Q 1341 3275 1631 3429 
Q 1922 3584 2338 3584 
Q 2397 3584 2469 3576 
Q 2541 3569 2628 3553 
L 2631 2963 
z
" transform="scale(0.015625)"/>
       <path id="DejaVuSans-75" d="M 544 1381 
L 544 3500 
L 1119 3500 
L 1119 1403 
Q 1119 906 1312 657 
Q 1506 409 1894 409 
Q 2359 409 2629 706 
Q 2900 1003 2900 1516 
L 2900 3500 
L 3475 3500 
L 3475 0 
L 2900 0 
L 2900 538 
Q 2691 219 2414 64 
Q 2138 -91 1772 -91 
Q 1169 -91 856 284 
Q 544 659 544 1381 
z
M 1991 3584 
L 1991 3584 
z
" transform="scale(0.015625)"/>
       <path id="DejaVuSans-65" d="M 3597 1894 
L 3597 1613 
L 953 1613 
Q 991 1019 1311 708 
Q 1631 397 2203 397 
Q 2534 397 2845 478 
Q 3156 559 3463 722 
L 3463 178 
Q 3153 47 2828 -22 
Q 2503 -91 2169 -91 
Q 1331 -91 842 396 
Q 353 884 353 1716 
Q 353 2575 817 3079 
Q 1281 3584 2069 3584 
Q 2775 3584 3186 3129 
Q 3597 2675 3597 1894 
z
M 3022 2063 
Q 3016 2534 2758 2815 
Q 2500 3097 2075 3097 
Q 1594 3097 1305 2825 
Q 1016 2553 972 2059 
L 3022 2063 
z
" transform="scale(0.015625)"/>
       <path id="DejaVuSans-20" transform="scale(0.015625)"/>
       <path id="DejaVuSans-46" d="M 628 4666 
L 3309 4666 
L 3309 4134 
L 1259 4134 
L 1259 2759 
L 3109 2759 
L 3109 2228 
L 1259 2228 
L 1259 0 
L 628 0 
L 628 4666 
z
" transform="scale(0.015625)"/>
       <path id="DejaVuSans-6e" d="M 3513 2113 
L 3513 0 
L 2938 0 
L 2938 2094 
Q 2938 2591 2744 2837 
Q 2550 3084 2163 3084 
Q 1697 3084 1428 2787 
Q 1159 2491 1159 1978 
L 1159 0 
L 581 0 
L 581 3500 
L 1159 3500 
L 1159 2956 
Q 1366 3272 1645 3428 
Q 1925 3584 2291 3584 
Q 2894 3584 3203 3211 
Q 3513 2838 3513 2113 
z
" transform="scale(0.015625)"/>
       <path id="DejaVuSans-63" d="M 3122 3366 
L 3122 2828 
Q 2878 2963 2633 3030 
Q 2388 3097 2138 3097 
Q 1578 3097 1268 2742 
Q 959 2388 959 1747 
Q 959 1106 1268 751 
Q 1578 397 2138 397 
Q 2388 397 2633 464 
Q 2878 531 3122 666 
L 3122 134 
Q 2881 22 2623 -34 
Q 2366 -91 2075 -91 
Q 1284 -91 818 406 
Q 353 903 353 1747 
Q 353 2603 823 3093 
Q 1294 3584 2113 3584 
Q 2378 3584 2631 3529 
Q 2884 3475 3122 3366 
z
" transform="scale(0.015625)"/>
       <path id="DejaVuSans-74" d="M 1172 4494 
L 1172 3500 
L 2356 3500 
L 2356 3053 
L 1172 3053 
L 1172 1153 
Q 1172 725 1289 603 
Q 1406 481 1766 481 
L 2356 481 
L 2356 0 
L 1766 0 
Q 1100 0 847 248 
Q 594 497 594 1153 
L 594 3053 
L 172 3053 
L 172 3500 
L 594 3500 
L 594 4494 
L 1172 4494 
z
" transform="scale(0.015625)"/>
       <path id="DejaVuSans-69" d="M 603 3500 
L 1178 3500 
L 1178 0 
L 603 0 
L 603 3500 
z
M 603 4863 
L 1178 4863 
L 1178 4134 
L 603 4134 
L 603 4863 
z
" transform="scale(0.015625)"/>
       <path id="DejaVuSans-6f" d="M 1959 3097 
Q 1497 3097 1228 2736 
Q 959 2375 959 1747 
Q 959 1119 1226 758 
Q 1494 397 1959 397 
Q 2419 397 2687 759 
Q 2956 1122 2956 1747 
Q 2956 2369 2687 2733 
Q 2419 3097 1959 3097 
z
M 1959 3584 
Q 2709 3584 3137 3096 
Q 3566 2609 3566 1747 
Q 3566 888 3137 398 
Q 2709 -91 1959 -91 
Q 1206 -91 779 398 
Q 353 888 353 1747 
Q 353 2609 779 3096 
Q 1206 3584 1959 3584 
z
" transform="scale(0.015625)"/>
      </defs>
      <use xlink:href="#DejaVuSans-54"/>
      <use xlink:href="#DejaVuSans-72" x="46.333984"/>
      <use xlink:href="#DejaVuSans-75" x="87.447266"/>
      <use xlink:href="#DejaVuSans-65" x="150.826172"/>
      <use xlink:href="#DejaVuSans-20" x="212.349609"/>
      <use xlink:href="#DejaVuSans-46" x="244.136719"/>
      <use xlink:href="#DejaVuSans-75" x="296.15625"/>
      <use xlink:href="#DejaVuSans-6e" x="359.535156"/>
      <use xlink:href="#DejaVuSans-63" x="422.914062"/>
      <use xlink:href="#DejaVuSans-74" x="477.894531"/>
      <use xlink:href="#DejaVuSans-69" x="517.103516"/>
      <use xlink:href="#DejaVuSans-6f" x="544.886719"/>
      <use xlink:href="#DejaVuSans-6e" x="606.068359"/>
     </g>
    </g>
    <g id="PathCollection_2">
     <g>
      <use xlink:href="#m868b3cd089" x="492.560938" y="80.491562" style="stroke: var(--secondary-color); stroke-width: 1.5"/>
     </g>
    </g>
    <g id="text_14">
     <!-- Noisy Observations -->
     <g style="fill: var(--secondary-color)" transform="translate(510.560938 83.116562) scale(0.1 -0.1)">
      <defs>
       <path id="DejaVuSans-4e" d="M 628 4666 
L 1478 4666 
L 3547 763 
L 3547 4666 
L 4159 4666 
L 4159 0 
L 3309 0 
L 1241 3903 
L 1241 0 
L 628 0 
L 628 4666 
z
" transform="scale(0.015625)"/>
       <path id="DejaVuSans-73" d="M 2834 3397 
L 2834 2853 
Q 2591 2978 2328 3040 
Q 2066 3103 1784 3103 
Q 1356 3103 1142 2972 
Q 928 2841 928 2578 
Q 928 2378 1081 2264 
Q 1234 2150 1697 2047 
L 1894 2003 
Q 2506 1872 2764 1633 
Q 3022 1394 3022 966 
Q 3022 478 2636 193 
Q 2250 -91 1575 -91 
Q 1294 -91 989 -36 
Q 684 19 347 128 
L 347 722 
Q 666 556 975 473 
Q 1284 391 1588 391 
Q 1994 391 2212 530 
Q 2431 669 2431 922 
Q 2431 1156 2273 1281 
Q 2116 1406 1581 1522 
L 1381 1569 
Q 847 1681 609 1914 
Q 372 2147 372 2553 
Q 372 3047 722 3315 
Q 1072 3584 1716 3584 
Q 2034 3584 2315 3537 
Q 2597 3491 2834 3397 
z
" transform="scale(0.015625)"/>
       <path id="DejaVuSans-79" d="M 2059 -325 
Q 1816 -950 1584 -1140 
Q 1353 -1331 966 -1331 
L 506 -1331 
L 506 -850 
L 844 -850 
Q 1081 -850 1212 -737 
Q 1344 -625 1503 -206 
L 1606 56 
L 191 3500 
L 800 3500 
L 1894 763 
L 2988 3500 
L 3597 3500 
L 2059 -325 
z
" transform="scale(0.015625)"/>
       <path id="DejaVuSans-4f" d="M 2522 4238 
Q 1834 4238 1429 3725 
Q 1025 3213 1025 2328 
Q 1025 1447 1429 934 
Q 1834 422 2522 422 
Q 3209 422 3611 934 
Q 4013 1447 4013 2328 
Q 4013 3213 3611 3725 
Q 3209 4238 2522 4238 
z
M 2522 4750 
Q 3503 4750 4090 4092 
Q 4678 3434 4678 2328 
Q 4678 1225 4090 567 
Q 3503 -91 2522 -91 
Q 1538 -91 948 565 
Q 359 1222 359 2328 
Q 359 3434 948 4092 
Q 1538 4750 2522 4750 
z
" transform="scale(0.015625)"/>
       <path id="DejaVuSans-62" d="M 3116 1747 
Q 3116 2381 2855 2742 
Q 2594 3103 2138 3103 
Q 1681 3103 1420 2742 
Q 1159 2381 1159 1747 
Q 1159 1113 1420 752 
Q 1681 391 2138 391 
Q 2594 391 2855 752 
Q 3116 1113 3116 1747 
z
M 1159 2969 
Q 1341 3281 1617 3432 
Q 1894 3584 2278 3584 
Q 2916 3584 3314 3078 
Q 3713 2572 3713 1747 
Q 3713 922 3314 415 
Q 2916 -91 2278 -91 
Q 1894 -91 1617 61 
Q 1341 213 1159 525 
L 1159 0 
L 581 0 
L 581 4863 
L 1159 4863 
L 1159 2969 
z
" transform="scale(0.015625)"/>
       <path id="DejaVuSans-76" d="M 191 3500 
L 800 3500 
L 1894 563 
L 2988 3500 
L 3597 3500 
L 2284 0 
L 1503 0 
L 191 3500 
z
" transform="scale(0.015625)"/>
       <path id="DejaVuSans-61" d="M 2194 1759 
Q 1497 1759 1228 1600 
Q 959 1441 959 1056 
Q 959 750 1161 570 
Q 1363 391 1709 391 
Q 2188 391 2477 730 
Q 2766 1069 2766 1631 
L 2766 1759 
L 2194 1759 
z
M 3341 1997 
L 3341 0 
L 2766 0 
L 2766 531 
Q 2569 213 2275 61 
Q 1981 -91 1556 -91 
Q 1019 -91 701 211 
Q 384 513 384 1019 
Q 384 1609 779 1909 
Q 1175 2209 1959 2209 
L 2766 2209 
L 2766 2266 
Q 2766 2663 2505 2880 
Q 2244 3097 1772 3097 
Q 1472 3097 1187 3025 
Q 903 2953 641 2809 
L 641 3341 
Q 956 3463 1253 3523 
Q 1550 3584 1831 3584 
Q 2591 3584 2966 3190 
Q 3341 2797 3341 1997 
z
" transform="scale(0.015625)"/>
      </defs>
      <use xlink:href="#DejaVuSans-4e"/>
      <use xlink:href="#DejaVuSans-6f" x="74.804688"/>
      <use xlink:href="#DejaVuSans-69" x="135.986328"/>
      <use xlink:href="#DejaVuSans-73" x="163.769531"/>
      <use xlink:href="#DejaVuSans-79" x="215.869141"/>
      <use xlink:href="#DejaVuSans-20" x="275.048828"/>
      <use xlink:href="#DejaVuSans-4f" x="306.835938"/>
      <use xlink:href="#DejaVuSans-62" x="385.546875"/>
      <use xlink:href="#DejaVuSans-73" x="449.023438"/>
      <use xlink:href="#DejaVuSans-65" x="501.123047"/>
      <use xlink:href="#DejaVuSans-72" x="562.646484"/>
      <use xlink:href="#DejaVuSans-76" x="603.759766"/>
      <use xlink:href="#DejaVuSans-61" x="662.939453"/>
      <use xlink:href="#DejaVuSans-74" x="724.21875"/>
      <use xlink:href="#DejaVuSans-69" x="763.427734"/>
      <use xlink:href="#DejaVuSans-6f" x="791.210938"/>
      <use xlink:href="#DejaVuSans-6e" x="852.392578"/>
      <use xlink:href="#DejaVuSans-73" x="915.771484"/>
     </g>
    </g>
    <g id="patch_6">
     <path d="M 482.560938 97.794687 
L 502.560938 97.794687 
L 502.560938 90.794687 
L 482.560938 90.794687 
z
" style="fill: #ffaf00; fill-opacity: 0.3"/>
    </g>
    <g id="text_15">
     <!-- Alpha=0.1 (q_hat=0.461) -->
     <g style="fill: var(--secondary-color)" transform="translate(510.560938 97.794687) scale(0.1 -0.1)">
      <defs>
       <path id="DejaVuSans-41" d="M 2188 4044 
L 1331 1722 
L 3047 1722 
L 2188 4044 
z
M 1831 4666 
L 2547 4666 
L 4325 0 
L 3669 0 
L 3244 1197 
L 1141 1197 
L 716 0 
L 50 0 
L 1831 4666 
z
" transform="scale(0.015625)"/>
       <path id="DejaVuSans-6c" d="M 603 4863 
L 1178 4863 
L 1178 0 
L 603 0 
L 603 4863 
z
" transform="scale(0.015625)"/>
       <path id="DejaVuSans-70" d="M 1159 525 
L 1159 -1331 
L 581 -1331 
L 581 3500 
L 1159 3500 
L 1159 2969 
Q 1341 3281 1617 3432 
Q 1894 3584 2278 3584 
Q 2916 3584 3314 3078 
Q 3713 2572 3713 1747 
Q 3713 922 3314 415 
Q 2916 -91 2278 -91 
Q 1894 -91 1617 61 
Q 1341 213 1159 525 
z
M 3116 1747 
Q 3116 2381 2855 2742 
Q 2594 3103 2138 3103 
Q 1681 3103 1420 2742 
Q 1159 2381 1159 1747 
Q 1159 1113 1420 752 
Q 1681 391 2138 391 
Q 2594 391 2855 752 
Q 3116 1113 3116 1747 
z
" transform="scale(0.015625)"/>
       <path id="DejaVuSans-68" d="M 3513 2113 
L 3513 0 
L 2938 0 
L 2938 2094 
Q 2938 2591 2744 2837 
Q 2550 3084 2163 3084 
Q 1697 3084 1428 2787 
Q 1159 2491 1159 1978 
L 1159 0 
L 581 0 
L 581 4863 
L 1159 4863 
L 1159 2956 
Q 1366 3272 1645 3428 
Q 1925 3584 2291 3584 
Q 2894 3584 3203 3211 
Q 3513 2838 3513 2113 
z
" transform="scale(0.015625)"/>
       <path id="DejaVuSans-3d" d="M 678 2906 
L 4684 2906 
L 4684 2381 
L 678 2381 
L 678 2906 
z
M 678 1631 
L 4684 1631 
L 4684 1100 
L 678 1100 
L 678 1631 
z
" transform="scale(0.015625)"/>
       <path id="DejaVuSans-2e" d="M 684 794 
L 1344 794 
L 1344 0 
L 684 0 
L 684 794 
z
" transform="scale(0.015625)"/>
       <path id="DejaVuSans-28" d="M 1984 4856 
Q 1566 4138 1362 3434 
Q 1159 2731 1159 2009 
Q 1159 1288 1364 580 
Q 1569 -128 1984 -844 
L 1484 -844 
Q 1016 -109 783 600 
Q 550 1309 550 2009 
Q 550 2706 781 3412 
Q 1013 4119 1484 4856 
L 1984 4856 
z
" transform="scale(0.015625)"/>
       <path id="DejaVuSans-71" d="M 947 1747 
Q 947 1113 1208 752 
Q 1469 391 1925 391 
Q 2381 391 2643 752 
Q 2906 1113 2906 1747 
Q 2906 2381 2643 2742 
Q 2381 3103 1925 3103 
Q 1469 3103 1208 2742 
Q 947 2381 947 1747 
z
M 2906 525 
Q 2725 213 2448 61 
Q 2172 -91 1784 -91 
Q 1150 -91 751 415 
Q 353 922 353 1747 
Q 353 2572 751 3078 
Q 1150 3584 1784 3584 
Q 2172 3584 2448 3432 
Q 2725 3281 2906 2969 
L 2906 3500 
L 3481 3500 
L 3481 -1331 
L 2906 -1331 
L 2906 525 
z
" transform="scale(0.015625)"/>
       <path id="DejaVuSans-5f" d="M 3263 -1063 
L 3263 -1509 
L -63 -1509 
L -63 -1063 
L 3263 -1063 
z
" transform="scale(0.015625)"/>
       <path id="DejaVuSans-29" d="M 513 4856 
L 1013 4856 
Q 1481 4119 1714 3412 
Q 1947 2706 1947 2009 
Q 1947 1309 1714 600 
Q 1481 -109 1013 -844 
L 513 -844 
Q 928 -128 1133 580 
Q 1338 1288 1338 2009 
Q 1338 2731 1133 3434 
Q 928 4138 513 4856 
z
" transform="scale(0.015625)"/>
      </defs>
      <use xlink:href="#DejaVuSans-41"/>
      <use xlink:href="#DejaVuSans-6c" x="68.408203"/>
      <use xlink:href="#DejaVuSans-70" x="96.191406"/>
      <use xlink:href="#DejaVuSans-68" x="159.667969"/>
      <use xlink:href="#DejaVuSans-61" x="223.046875"/>
      <use xlink:href="#DejaVuSans-3d" x="284.326172"/>
      <use xlink:href="#DejaVuSans-30" x="368.115234"/>
      <use xlink:href="#DejaVuSans-2e" x="431.738281"/>
      <use xlink:href="#DejaVuSans-31" x="463.525391"/>
      <use xlink:href="#DejaVuSans-20" x="527.148438"/>
      <!-- <use xlink:href="#DejaVuSans-28" x="558.935547"/>
      <use xlink:href="#DejaVuSans-71" x="597.949219"/>
      <use xlink:href="#DejaVuSans-5f" x="661.425781"/>
      <use xlink:href="#DejaVuSans-68" x="711.425781"/>
      <use xlink:href="#DejaVuSans-61" x="774.804688"/>
      <use xlink:href="#DejaVuSans-74" x="836.083984"/>
      <use xlink:href="#DejaVuSans-3d" x="875.292969"/>
      <use xlink:href="#DejaVuSans-30" x="959.082031"/>
      <use xlink:href="#DejaVuSans-2e" x="1022.705078"/>
      <use xlink:href="#DejaVuSans-34" x="1054.492188"/>
      <use xlink:href="#DejaVuSans-36" x="1118.115234"/>
      <use xlink:href="#DejaVuSans-31" x="1181.738281"/>
      <use xlink:href="#DejaVuSans-29" x="1245.361328"/> -->
     </g>
    </g>
    <g id="patch_7">
     <path d="M 482.560938 112.750937 
L 502.560938 112.750937 
L 502.560938 105.750937 
L 482.560938 105.750937 
z
" style="fill: #f46920; fill-opacity: 0.3"/>
    </g>
    <g id="text_16">
     <!-- Alpha=0.2 (q_hat=0.366) -->
     <g style="fill: var(--secondary-color)" transform="translate(510.560938 112.750937) scale(0.1 -0.1)">
      <defs>
       <path id="DejaVuSans-33" d="M 2597 2516 
Q 3050 2419 3304 2112 
Q 3559 1806 3559 1356 
Q 3559 666 3084 287 
Q 2609 -91 1734 -91 
Q 1441 -91 1130 -33 
Q 819 25 488 141 
L 488 750 
Q 750 597 1062 519 
Q 1375 441 1716 441 
Q 2309 441 2620 675 
Q 2931 909 2931 1356 
Q 2931 1769 2642 2001 
Q 2353 2234 1838 2234 
L 1294 2234 
L 1294 2753 
L 1863 2753 
Q 2328 2753 2575 2939 
Q 2822 3125 2822 3475 
Q 2822 3834 2567 4026 
Q 2313 4219 1838 4219 
Q 1578 4219 1281 4162 
Q 984 4106 628 3988 
L 628 4550 
Q 988 4650 1302 4700 
Q 1616 4750 1894 4750 
Q 2613 4750 3031 4423 
Q 3450 4097 3450 3541 
Q 3450 3153 3228 2886 
Q 3006 2619 2597 2516 
z
" transform="scale(0.015625)"/>
      </defs>
      <use xlink:href="#DejaVuSans-41"/>
      <use xlink:href="#DejaVuSans-6c" x="68.408203"/>
      <use xlink:href="#DejaVuSans-70" x="96.191406"/>
      <use xlink:href="#DejaVuSans-68" x="159.667969"/>
      <use xlink:href="#DejaVuSans-61" x="223.046875"/>
      <use xlink:href="#DejaVuSans-3d" x="284.326172"/>
      <use xlink:href="#DejaVuSans-30" x="368.115234"/>
      <use xlink:href="#DejaVuSans-2e" x="431.738281"/>
      <use xlink:href="#DejaVuSans-32" x="463.525391"/>
      <use xlink:href="#DejaVuSans-20" x="527.148438"/>
      <!-- <use xlink:href="#DejaVuSans-28" x="558.935547"/>
      <use xlink:href="#DejaVuSans-71" x="597.949219"/>
      <use xlink:href="#DejaVuSans-5f" x="661.425781"/>
      <use xlink:href="#DejaVuSans-68" x="711.425781"/>
      <use xlink:href="#DejaVuSans-61" x="774.804688"/>
      <use xlink:href="#DejaVuSans-74" x="836.083984"/>
      <use xlink:href="#DejaVuSans-3d" x="875.292969"/>
      <use xlink:href="#DejaVuSans-30" x="959.082031"/>
      <use xlink:href="#DejaVuSans-2e" x="1022.705078"/>
      <use xlink:href="#DejaVuSans-33" x="1054.492188"/>
      <use xlink:href="#DejaVuSans-36" x="1118.115234"/>
      <use xlink:href="#DejaVuSans-36" x="1181.738281"/>
      <use xlink:href="#DejaVuSans-29" x="1245.361328"/> -->
     </g>
    </g>
    <g id="patch_8">
     <path d="M 482.560938 127.707187 
L 502.560938 127.707187 
L 502.560938 120.707187 
L 482.560938 120.707187 
z
" style="fill: #f53255; fill-opacity: 0.3"/>
    </g>
    <g id="text_17">
     <!-- Alpha=0.3 (q_hat=0.291) -->
     <g style="fill: var(--secondary-color)" transform="translate(510.560938 127.707187) scale(0.1 -0.1)">
      <defs>
       <path id="DejaVuSans-39" d="M 703 97 
L 703 672 
Q 941 559 1184 500 
Q 1428 441 1663 441 
Q 2288 441 2617 861 
Q 2947 1281 2994 2138 
Q 2813 1869 2534 1725 
Q 2256 1581 1919 1581 
Q 1219 1581 811 2004 
Q 403 2428 403 3163 
Q 403 3881 828 4315 
Q 1253 4750 1959 4750 
Q 2769 4750 3195 4129 
Q 3622 3509 3622 2328 
Q 3622 1225 3098 567 
Q 2575 -91 1691 -91 
Q 1453 -91 1209 -44 
Q 966 3 703 97 
z
M 1959 2075 
Q 2384 2075 2632 2365 
Q 2881 2656 2881 3163 
Q 2881 3666 2632 3958 
Q 2384 4250 1959 4250 
Q 1534 4250 1286 3958 
Q 1038 3666 1038 3163 
Q 1038 2656 1286 2365 
Q 1534 2075 1959 2075 
z
" transform="scale(0.015625)"/>
      </defs>
      <use xlink:href="#DejaVuSans-41"/>
      <use xlink:href="#DejaVuSans-6c" x="68.408203"/>
      <use xlink:href="#DejaVuSans-70" x="96.191406"/>
      <use xlink:href="#DejaVuSans-68" x="159.667969"/>
      <use xlink:href="#DejaVuSans-61" x="223.046875"/>
      <use xlink:href="#DejaVuSans-3d" x="284.326172"/>
      <use xlink:href="#DejaVuSans-30" x="368.115234"/>
      <use xlink:href="#DejaVuSans-2e" x="431.738281"/>
      <use xlink:href="#DejaVuSans-33" x="463.525391"/>
      <use xlink:href="#DejaVuSans-20" x="527.148438"/>
      <!-- <use xlink:href="#DejaVuSans-28" x="558.935547"/>
      <use xlink:href="#DejaVuSans-71" x="597.949219"/>
      <use xlink:href="#DejaVuSans-5f" x="661.425781"/>
      <use xlink:href="#DejaVuSans-68" x="711.425781"/>
      <use xlink:href="#DejaVuSans-61" x="774.804688"/>
      <use xlink:href="#DejaVuSans-74" x="836.083984"/>
      <use xlink:href="#DejaVuSans-3d" x="875.292969"/>
      <use xlink:href="#DejaVuSans-30" x="959.082031"/>
      <use xlink:href="#DejaVuSans-2e" x="1022.705078"/>
      <use xlink:href="#DejaVuSans-32" x="1054.492188"/>
      <use xlink:href="#DejaVuSans-39" x="1118.115234"/>
      <use xlink:href="#DejaVuSans-31" x="1181.738281"/>
      <use xlink:href="#DejaVuSans-29" x="1245.361328"/> -->
     </g>
    </g>
    <g id="patch_9">
     <path d="M 482.560938 142.663437 
L 502.560938 142.663437 
L 502.560938 135.663437 
L 482.560938 135.663437 
z
" style="fill: #f857c1; fill-opacity: 0.3"/>
    </g>
    <g id="text_18">
     <!-- Alpha=0.4 (q_hat=0.222) -->
     <g style="fill: var(--secondary-color)" transform="translate(510.560938 142.663437) scale(0.1 -0.1)">
      <use xlink:href="#DejaVuSans-41"/>
      <use xlink:href="#DejaVuSans-6c" x="68.408203"/>
      <use xlink:href="#DejaVuSans-70" x="96.191406"/>
      <use xlink:href="#DejaVuSans-68" x="159.667969"/>
      <use xlink:href="#DejaVuSans-61" x="223.046875"/>
      <use xlink:href="#DejaVuSans-3d" x="284.326172"/>
      <use xlink:href="#DejaVuSans-30" x="368.115234"/>
      <use xlink:href="#DejaVuSans-2e" x="431.738281"/>
      <use xlink:href="#DejaVuSans-34" x="463.525391"/>
      <use xlink:href="#DejaVuSans-20" x="527.148438"/>
      <!-- <use xlink:href="#DejaVuSans-28" x="558.935547"/>
      <use xlink:href="#DejaVuSans-71" x="597.949219"/>
      <use xlink:href="#DejaVuSans-5f" x="661.425781"/>
      <use xlink:href="#DejaVuSans-68" x="711.425781"/>
      <use xlink:href="#DejaVuSans-61" x="774.804688"/>
      <use xlink:href="#DejaVuSans-74" x="836.083984"/>
      <use xlink:href="#DejaVuSans-3d" x="875.292969"/>
      <use xlink:href="#DejaVuSans-30" x="959.082031"/>
      <use xlink:href="#DejaVuSans-2e" x="1022.705078"/>
      <use xlink:href="#DejaVuSans-32" x="1054.492188"/>
      <use xlink:href="#DejaVuSans-32" x="1118.115234"/>
      <use xlink:href="#DejaVuSans-32" x="1181.738281"/>
      <use xlink:href="#DejaVuSans-29" x="1245.361328"/> -->
     </g>
    </g>
    <g id="patch_10">
     <path d="M 482.560938 157.619687 
L 502.560938 157.619687 
L 502.560938 150.619687 
L 482.560938 150.619687 
z
" style="fill: #29bdfd; fill-opacity: 0.3"/>
    </g>
    <g id="text_19">
     <!-- Alpha=0.5 (q_hat=0.163) -->
     <g style="fill: var(--secondary-color)" transform="translate(510.560938 157.619687) scale(0.1 -0.1)">
      <defs>
       <path id="DejaVuSans-35" d="M 691 4666 
L 3169 4666 
L 3169 4134 
L 1269 4134 
L 1269 2991 
Q 1406 3038 1543 3061 
Q 1681 3084 1819 3084 
Q 2600 3084 3056 2656 
Q 3513 2228 3513 1497 
Q 3513 744 3044 326 
Q 2575 -91 1722 -91 
Q 1428 -91 1123 -41 
Q 819 9 494 109 
L 494 744 
Q 775 591 1075 516 
Q 1375 441 1709 441 
Q 2250 441 2565 725 
Q 2881 1009 2881 1497 
Q 2881 1984 2565 2268 
Q 2250 2553 1709 2553 
Q 1456 2553 1204 2497 
Q 953 2441 691 2322 
L 691 4666 
z
" transform="scale(0.015625)"/>
      </defs>
      <use xlink:href="#DejaVuSans-41"/>
      <use xlink:href="#DejaVuSans-6c" x="68.408203"/>
      <use xlink:href="#DejaVuSans-70" x="96.191406"/>
      <use xlink:href="#DejaVuSans-68" x="159.667969"/>
      <use xlink:href="#DejaVuSans-61" x="223.046875"/>
      <use xlink:href="#DejaVuSans-3d" x="284.326172"/>
      <use xlink:href="#DejaVuSans-30" x="368.115234"/>
      <use xlink:href="#DejaVuSans-2e" x="431.738281"/>
      <use xlink:href="#DejaVuSans-35" x="463.525391"/>
      <use xlink:href="#DejaVuSans-20" x="527.148438"/>
      <!-- <use xlink:href="#DejaVuSans-28" x="558.935547"/>
      <use xlink:href="#DejaVuSans-71" x="597.949219"/>
      <use xlink:href="#DejaVuSans-5f" x="661.425781"/>
      <use xlink:href="#DejaVuSans-68" x="711.425781"/>
      <use xlink:href="#DejaVuSans-61" x="774.804688"/>
      <use xlink:href="#DejaVuSans-74" x="836.083984"/>
      <use xlink:href="#DejaVuSans-3d" x="875.292969"/>
      <use xlink:href="#DejaVuSans-30" x="959.082031"/>
      <use xlink:href="#DejaVuSans-2e" x="1022.705078"/>
      <use xlink:href="#DejaVuSans-31" x="1054.492188"/>
      <use xlink:href="#DejaVuSans-36" x="1118.115234"/>
      <use xlink:href="#DejaVuSans-33" x="1181.738281"/>
      <use xlink:href="#DejaVuSans-29" x="1245.361328"/> -->
     </g>
    </g>
   </g>
  </g>
 </g>
 <defs>
  <clipPath id="p80f5da3b25">
   <rect x="90" y="51.84" width="558" height="332.64"/>
  </clipPath>
 </defs>
</svg>
