<svg xmlns="http://www.w3.org/2000/svg" xmlns:xlink="http://www.w3.org/1999/xlink" version="1.1" width="506" height="112" viewBox="0 0 506 112">
  <script type="text/ecmascript" href="../../scripts/color.js"/>
  <path transform="matrix(1,0,0,-1,0,112)" d="M7.636371 51.00001C7.636371 56.00071 11.69022 60.05457 16.6909 60.05457 21.69158 60.05457 25.74543 56.00071 25.74543 51.00001 25.74543 45.99931 21.69158 41.94544 16.6909 41.94544 11.69022 41.94544 7.636371 45.99931 7.636371 51.00001Z" fill-rule="evenodd" fill="var(--secondary-color)"/>
  <path transform="matrix(1,0,0,-1,0,112)" d="M67.85456 51.00001C67.85456 56.00071 71.90841 60.05457 76.90909 60.05457 81.90976 60.05457 85.96361 56.00071 85.96361 51.00001 85.96361 45.99931 81.90976 41.94544 76.90909 41.94544 71.90841 41.94544 67.85456 45.99931 67.85456 51.00001Z" fill-rule="evenodd" fill="var(--secondary-color)"/>
  <path transform="matrix(1,0,0,-1,0,112)" d="M128.2909 51.00001C128.2909 56.00071 132.2959 60.05457 137.2364 60.05457 142.1768 60.05457 146.1818 56.00071 146.1818 51.00001 146.1818 45.99931 142.1768 41.94544 137.2364 41.94544 132.2959 41.94544 128.2909 45.99931 128.2909 51.00001Z" fill-rule="evenodd" fill="var(--secondary-color)"/>
  <path transform="matrix(1,0,0,-1,0,112)" d="M188.0728 51.00001C188.0728 56.00071 192.0778 60.05457 197.0182 60.05457 201.9586 60.05457 205.9636 56.00071 205.9636 51.00001 205.9636 45.99931 201.9586 41.94544 197.0182 41.94544 192.0778 41.94544 188.0728 45.99931 188.0728 51.00001Z" fill-rule="evenodd" fill="var(--secondary-color)"/>
  <path transform="matrix(0,-.00007874016,.00007874016,0,16.69094,44.19999)" stroke-width="19050" stroke-linecap="butt" stroke-miterlimit="8" stroke-linejoin="miter" fill="none" stroke="var(--secondary-color)" d="M0 0C42849.29 0 77585.5 5789.017 77585.5 12930.13V1513840C77585.5 1520981 112321.7 1526771 155171 1526771 112321.7 1526771 77585.5 1532560 77585.5 1539701V3040611C77585.5 3047752 42849.29 3053541 0 3053541"/>
  <text xml:space="preserve" transform="matrix(.2181818 0 -0 .2181818 11.70652 207.05454)" font-size="82.99999" font-family="Aptos" fill="var(--secondary-color)"><tspan y="-513" x="0">1</tspan></text>
  <text xml:space="preserve" transform="matrix(.2181818 0 -0 .2181818 71.97927 207.05454)" font-size="82.99999" font-family="Aptos" fill="var(--secondary-color)"><tspan y="-513" x="0">2</tspan></text>
  <path transform="matrix(1,0,0,-1,0,112)" d="M314.8151 29.84741H318.7588V13.39184H317.2025V29.12234H314.8151ZM195.1709 29.84741H199.1146V29.12234H196.7272V13.39184H195.1709Z" fill-rule="evenodd" fill="var(--secondary-color)"/>
  <text xml:space="preserve" transform="matrix(.2181818 0 -0 .2181818 199.4549 207.4909)" font-size="82.99999" font-family="CambriaMath" fill="var(--secondary-color)"><tspan y="-513" x="0">(</tspan></text>
  <text xml:space="preserve" transform="matrix(.2181818 0 -0 .2181818 206.9549 207.4909)" font-size="82.99999" font-family="CambriaMath" fill="var(--secondary-color)"><tspan y="-513" x="0">&#x1d45b;</tspan></text>
  <text xml:space="preserve" transform="matrix(.2181818 0 -0 .2181818 221.6398 207.4909)" font-size="82.99999" font-family="CambriaMath" fill="var(--secondary-color)"><tspan y="-513" x="0">+</tspan></text>
  <text xml:space="preserve" transform="matrix(.2181818 0 -0 .2181818 239.1398 207.4909)" font-size="82.99999" font-family="CambriaMath" fill="var(--secondary-color)"><tspan y="-513" x="0">1</tspan></text>
  <text xml:space="preserve" transform="matrix(.2181818 0 -0 .2181818 249.1399 207.4909)" font-size="82.99999" font-family="CambriaMath" fill="var(--secondary-color)"><tspan y="-513" x="0">)</tspan></text>
  <text xml:space="preserve" transform="matrix(.2181818 0 -0 .2181818 256.6399 207.4909)" font-size="82.99999" font-family="CambriaMath" fill="var(--secondary-color)"><tspan y="-513" x="0">(</tspan></text>
  <text xml:space="preserve" transform="matrix(.2181818 0 -0 .2181818 264.1399 207.4909)" font-size="82.99999" font-family="CambriaMath" fill="var(--secondary-color)"><tspan y="-513" x="0">1</tspan></text>
  <text xml:space="preserve" transform="matrix(.2181818 0 -0 .2181818 278.1398 207.4909)" font-size="82.99999" font-family="CambriaMath" fill="var(--secondary-color)"><tspan y="-513" x="0">&#x2212;</tspan></text>
  <text xml:space="preserve" transform="matrix(.2181818 0 -0 .2181818 295.6399 207.4909)" font-size="82.99999" font-family="CambriaMath" fill="var(--secondary-color)"><tspan y="-513" x="0">&#x1d6fc;</tspan></text>
  <text xml:space="preserve" transform="matrix(.2181818 0 -0 .2181818 306.9348 207.4909)" font-size="82.99999" font-family="CambriaMath" fill="var(--secondary-color)"><tspan y="-513" x="0">)</tspan></text>
  <path transform="matrix(1,0,0,-1,0,112)" d="M247.8546 51.00001C247.8546 56.00071 251.9084 60.05457 256.9091 60.05457 261.9098 60.05457 265.9636 56.00071 265.9636 51.00001 265.9636 45.99931 261.9098 41.94544 256.9091 41.94544 251.9084 41.94544 247.8546 45.99931 247.8546 51.00001Z" fill-rule="evenodd" fill="var(--secondary-color)"/>
  <path transform="matrix(1,0,0,-1,0,112)" d="M307.8546 51.00001C307.8546 56.00071 311.8596 60.05457 316.8 60.05457 321.7404 60.05457 325.7454 56.00071 325.7454 51.00001 325.7454 45.99931 321.7404 41.94544 316.8 41.94544 311.8596 41.94544 307.8546 45.99931 307.8546 51.00001Z" fill-rule="evenodd" fill="var(--secondary-color)"/>
  <path transform="matrix(1,0,0,-1,0,112)" d="M367.6364 51.00001C367.6364 56.00071 371.6902 60.05457 376.6909 60.05457 381.6916 60.05457 385.7454 56.00071 385.7454 51.00001 385.7454 45.99931 381.6916 41.94544 376.6909 41.94544 371.6902 41.94544 367.6364 45.99931 367.6364 51.00001Z" fill-rule="evenodd" fill="var(--secondary-color)"/>
  <path transform="matrix(1,0,0,-1,0,112)" d="M427.6364 51.00001C427.6364 56.00071 431.6414 60.05457 436.5818 60.05457 441.5222 60.05457 445.5272 56.00071 445.5272 51.00001 445.5272 45.99931 441.5222 41.94544 436.5818 41.94544 431.6414 41.94544 427.6364 45.99931 427.6364 51.00001Z" fill-rule="evenodd" fill="var(--secondary-color)"/>
  <path transform="matrix(1,0,0,-1,0,112)" d="M487.4182 51.00001C487.4182 56.00071 491.472 60.05457 496.4727 60.05457 501.4734 60.05457 505.5272 56.00071 505.5272 51.00001 505.5272 45.99931 501.4734 41.94544 496.4727 41.94544 491.472 41.94544 487.4182 45.99931 487.4182 51.00001Z" fill-rule="evenodd" fill="var(--secondary-color)"/>
  <path transform="matrix(.00007874016,0,0,.00007874016,16.69094,70.163608)" stroke-width="19050" stroke-linecap="butt" stroke-miterlimit="8" stroke-linejoin="miter" fill="none" stroke="var(--secondary-color)" d="M0 0 1 64168"/>
  <path transform="matrix(.00007874016,0,0,.00007874016,77.12724,70.163608)" stroke-width="19050" stroke-linecap="butt" stroke-miterlimit="8" stroke-linejoin="miter" fill="none" stroke="var(--secondary-color)" d="M0 0 1 64168"/>
  <path transform="matrix(.00007874016,0,0,.00007874016,257.1272,70.163608)" stroke-width="19050" stroke-linecap="butt" stroke-miterlimit="8" stroke-linejoin="miter" fill="none" stroke="var(--secondary-color)" d="M0 0 1 65354"/>
</svg>
