<svg xmlns="http://www.w3.org/2000/svg" fill="none" stroke-linecap="square" stroke-miterlimit="10" viewBox="0 0 800 164.801">
  <script type="text/ecmascript" href="../../scripts/color.js"/>
  <g clip-path="url(#a)">
    <path fill="none" d="M0 0h800v164.8H0z"/>
    <path fill="var(--secondary-color)" fill-rule="evenodd" d="M31.244 91.579c0-7.397 5.997-13.394 13.391-13.394 7.42 0 13.42 5.997 13.42 13.394 0 7.42-6 13.417-13.42 13.417-7.394 0-13.39-5.997-13.39-13.417zM120.444 91.579c0-7.397 5.997-13.394 13.39-13.394 7.42 0 13.42 5.997 13.42 13.394 0 7.42-6 13.417-13.42 13.417-7.393 0-13.39-5.997-13.39-13.417zM209.953 91.579c0-7.397 5.921-13.394 13.262-13.394 7.318 0 13.24 5.997 13.24 13.394 0 7.42-5.922 13.417-13.24 13.417-7.341 0-13.262-5.997-13.262-13.417zM298.507 91.579c0-7.397 5.918-13.394 13.262-13.394 7.318 0 13.239 5.997 13.239 13.394 0 7.42-5.921 13.417-13.239 13.417-7.344 0-13.262-5.997-13.262-13.417z"/>
    <path fill="none" d="M44.635 66.705c0-5.016.672-9.05 1.525-9.05H221.2c.852 0 1.524-4.058 1.524-9.047 0 4.99.672 9.047 1.5 9.047h175.065c.826 0 1.498 4.034 1.498 9.05"/>
    <path stroke="var(--secondary-color)" stroke-linecap="butt" stroke-miterlimit="9.851" stroke-width="2.223" d="M44.635 66.705c0-5.016.672-9.05 1.525-9.05H221.2c.852 0 1.524-4.058 1.524-9.047 0 4.99.672 9.047 1.5 9.047h175.065c.826 0 1.498 4.034 1.498 9.05"/>
    <path fill="var(--secondary-color)" fill-rule="evenodd" d="M44.454 125.01c-.257.385-.62.773-1.11 1.188-.467.438-1.034.8-1.656 1.137a6.55 6.55 0 0 1-2.016.645v2.069c.724-.103 1.396-.258 1.99-.491a8.662 8.662 0 0 0 1.553-.8c.439-.31.775-.62 1.008-.959v14.376H46.5v-17.166zM133.63 124.852c-1.268 0-2.302.207-3.155.648a4.512 4.512 0 0 0-1.887 1.86c-.415.778-.622 1.707-.622 2.767h2.2c0-.955.257-1.732.8-2.378.543-.622 1.422-.958 2.664-.958 1.11 0 1.91.286 2.404.88.49.57.722 1.294.722 2.173 0 .88-.231 1.706-.698 2.48-.491.75-1.24 1.604-2.273 2.536l-6.208 5.582v1.733h11.945v-1.937h-8.97l4.55-4.06c.751-.62 1.397-1.269 1.992-1.888a7.796 7.796 0 0 0 1.394-2.094c.362-.725.543-1.525.543-2.43 0-1.009-.204-1.862-.645-2.612-.415-.725-1.034-1.292-1.835-1.68-.803-.415-1.758-.622-2.921-.622zM486.239 122.915h5.842v24.38h-2.301V124h-3.541zm-177.21 0h5.842v1.084h-3.54v23.296h-2.302zM321.593 122.448c-1.317 2.068-2.299 4.086-2.947 6.05-.646 1.992-.982 3.931-.982 5.894 0 1.94.336 3.932.982 5.895.648 1.993 1.63 4.008 2.947 6.05h2.095c-1.163-1.99-2.042-3.981-2.612-5.945a21.774 21.774 0 0 1-.853-6c0-2.015.286-4.005.853-5.97.57-1.967 1.449-3.956 2.612-5.974zM337.753 128.497c-.931 0-1.81.26-2.611.725-.8.49-1.525 1.189-2.145 2.147l.465-2.483h-4.706l-.26 1.396h2.302l-2.43 12.54h2.404l1.501-7.755c.31-1.577.827-2.77 1.577-3.57.748-.826 1.68-1.241 2.79-1.241 1.06 0 1.733.31 2.019.958.155.283.207.724.207 1.241 0 .62-.079 1.37-.26 2.25l-1.55 8.118h4.55l.284-1.396h-2.17l1.472-7.473c.128-.75.207-1.396.207-1.992 0-.877-.155-1.601-.49-2.144-.57-.88-1.605-1.32-3.156-1.32zM358.36 125.99v7.292h-7.292v2.223h7.292v7.318h2.196v-7.318h7.318v-2.223h-7.318v-7.291zM381.785 123.25l-4.68.956v2.404l4.706-.955v14.918h-4.344v2.25h11.273v-2.25h-4.317v-17.322zM391.118 122.448c1.163 2.018 2.016 4.007 2.585 5.973.57 1.966.853 3.956.853 5.971 0 2.019-.283 4.008-.853 6-.57 1.964-1.422 3.956-2.585 5.945h2.095c1.29-2.042 2.275-4.057 2.92-6.05a18.186 18.186 0 0 0 0-11.79c-.645-1.963-1.63-3.981-2.92-6.05zM406.294 122.448c-1.318 2.068-2.3 4.086-2.948 6.05-.645 1.992-.955 3.931-.955 5.894 0 1.94.31 3.932.955 5.895.649 1.993 1.63 4.008 2.948 6.05h2.094a27.71 27.71 0 0 1-2.611-5.945 21.773 21.773 0 0 1-.853-6c0-2.015.286-4.005.853-5.97.57-1.967 1.449-3.956 2.611-5.974zM418.808 123.25l-4.68.956v2.404l4.707-.955v14.918h-4.318v2.25h11.247v-2.25h-4.318v-17.322zM434.761 133.282v2.223h16.806v-2.223zM476.724 122.448c1.163 2.018 2.016 4.007 2.586 5.973.57 1.966.879 3.956.879 5.971 0 2.019-.31 4.008-.88 6-.569 1.964-1.422 3.956-2.585 5.945h2.095c1.317-2.042 2.273-4.057 2.921-6.05a18.186 18.186 0 0 0 0-11.79c-.648-1.963-1.604-3.981-2.921-6.05zM387.058 91.579c0-7.397 6-13.394 13.42-13.394 7.393 0 13.417 5.997 13.417 13.394 0 7.42-6.024 13.417-13.417 13.417-7.42 0-13.42-5.997-13.42-13.417zM475.947 91.579c0-7.397 5.922-13.394 13.24-13.394 7.317 0 13.262 5.997 13.262 13.394 0 7.42-5.945 13.417-13.263 13.417-7.317 0-13.238-5.997-13.238-13.417zM564.501 91.579c0-7.397 5.998-13.394 13.394-13.394 7.42 0 13.417 5.997 13.417 13.394 0 7.42-5.997 13.417-13.417 13.417-7.396 0-13.394-5.997-13.394-13.417zM653.365 91.579c0-7.397 5.947-13.394 13.262-13.394 7.318 0 13.24 5.997 13.24 13.394 0 7.42-5.922 13.417-13.24 13.417-7.315 0-13.262-5.997-13.262-13.417zM741.919 91.579c0-7.397 5.997-13.394 13.417-13.394 7.396 0 13.42 5.997 13.42 13.394 0 7.42-6.024 13.417-13.42 13.417a13.405 13.405 0 0 1-13.417-13.417z"/>
    <path fill="none" d="M44.635 105.15v7.5"/>
    <path stroke="var(--secondary-color)" stroke-linecap="butt" stroke-miterlimit="9.851" stroke-width="2.223" d="M44.635 105.15v7.5"/>
    <path fill="none" d="M134.17 105.15v7.5"/>
    <path stroke="var(--secondary-color)" stroke-linecap="butt" stroke-miterlimit="9.851" stroke-width="2.223" d="M134.17 105.15v7.5"/>
    <path fill="none" d="M400.787 105.15v7.628"/>
    <path stroke="var(--secondary-color)" stroke-linecap="butt" stroke-miterlimit="9.851" stroke-width="2.223" d="M400.787 105.15v7.628"/>
    <path fill="var(--secondary-color)" fill-rule="evenodd" d="M183.814 17.555c-.777 0-1.423.102-1.914.284-.49.18-.879.44-1.162.803-.287.362-.468.8-.596 1.317a8.698 8.698 0 0 0-.155 1.733v.75h-2.12v1.759h2.12v10.987h2.197V24.2h2.947v-1.759h-2.947v-.698c0-.803.105-1.396.31-1.837.207-.412.698-.646 1.448-.646h1.215v-1.706zM193.12 22.287c-1.007 0-1.834.208-2.456.646a5.465 5.465 0 0 0-1.525 1.654l-.079-2.145h-2.042v12.746h2.174v-8.971c.31-.363.619-.699.955-1.008a3.925 3.925 0 0 1 1.268-.672c.49-.181 1.034-.26 1.68-.26h.31v-1.99zM202.3 28.983v2.664a5.82 5.82 0 0 1-1.654 1.525c-.675.388-1.397.57-2.226.57-.722 0-1.265-.182-1.627-.544-.363-.388-.544-.88-.544-1.501 0-.956.491-1.627 1.423-2.042.929-.412 2.48-.646 4.627-.672zm-2.612-6.774c-.956 0-1.835.155-2.586.44-.75.284-1.37.749-1.808 1.397-.415.646-.622 1.472-.622 2.506h2.12c0-.955.284-1.63.827-2.068.57-.438 1.242-.645 2.069-.645.75 0 1.37.207 1.887.619.49.388.75 1.14.75 2.223v.932c-1.68.026-3.128.128-4.37.336-1.241.207-2.196.62-2.868 1.215-.672.596-1.008 1.472-1.008 2.612 0 .8.155 1.472.517 2.015.336.544.774.958 1.344 1.216.567.286 1.215.414 1.887.414.981 0 1.834-.18 2.585-.57.75-.361 1.396-.879 1.966-1.524l.076 1.86h2.018v-8.532c0-.903-.13-1.654-.414-2.223-.26-.593-.622-1.06-1.06-1.37a4.032 4.032 0 0 0-1.526-.672 8.073 8.073 0 0 0-1.784-.181zM212.927 22.209c-1.14 0-2.147.26-3 .75-.854.517-1.525 1.242-2.016 2.223-.467 1.008-.725 2.224-.725 3.672 0 1.447.258 2.662.751 3.646.49.955 1.163 1.68 2.016 2.17.879.491 1.86.751 2.974.751.981 0 1.86-.18 2.635-.517a4.248 4.248 0 0 0 1.89-1.525c.464-.698.698-1.55.721-2.585h-2.144c-.026.93-.336 1.654-.906 2.118-.543.494-1.267.724-2.147.724-.774 0-1.42-.18-1.963-.57-.517-.359-.905-.902-1.165-1.626-.257-.725-.386-1.578-.386-2.586 0-1.55.283-2.74.88-3.57.592-.878 1.472-1.29 2.634-1.29.853 0 1.552.23 2.069.698.543.464.829 1.11.879 1.94h2.173c-.026-.985-.286-1.812-.75-2.457-.439-.646-1.06-1.14-1.835-1.476a6.695 6.695 0 0 0-2.585-.49zM221.638 19.521v2.921h-2.118v1.759h2.118v6.85c0 .88.105 1.63.286 2.25.207.595.593 1.06 1.136 1.396.57.336 1.37.49 2.378.49h1.528v-1.781h-1.37c-.777 0-1.268-.208-1.475-.623-.208-.414-.31-1.034-.31-1.834V24.2h3.155v-1.759h-3.155v-2.921zM230.276 17.503c-.415 0-.751.105-.985.362a1.18 1.18 0 0 0-.388.905c0 .363.131.672.388.906.234.23.57.362.985.362.412 0 .748-.131 1.007-.362.231-.234.363-.543.363-.906 0-.362-.132-.672-.363-.905-.26-.257-.595-.362-1.007-.362zm-1.087 4.94v12.745h2.17V22.442zM239.892 23.967c.88 0 1.578.208 2.095.646.517.415.905.984 1.136 1.732.234.725.336 1.551.336 2.483 0 .932-.102 1.785-.336 2.507-.23.724-.62 1.294-1.136 1.708-.517.412-1.215.62-2.095.62-.826 0-1.498-.208-2.015-.62-.491-.414-.853-.984-1.087-1.708-.234-.722-.336-1.552-.336-2.48 0-.959.102-1.785.336-2.51.234-.748.596-1.317 1.087-1.732.517-.438 1.189-.646 2.015-.646zm0-1.785c-1.189 0-2.223.287-3.076.804a5.31 5.31 0 0 0-1.94 2.299c-.438.984-.671 2.173-.671 3.543s.233 2.533.672 3.54a5.294 5.294 0 0 0 1.94 2.25c.852.52 1.886.777 3.075.777 1.216 0 2.276-.257 3.155-.777a5.403 5.403 0 0 0 1.99-2.25c.467-1.007.698-2.17.698-3.54s-.231-2.559-.698-3.543c-.465-.982-1.137-1.756-1.99-2.3-.879-.516-1.94-.803-3.155-.803zM254.992 22.314c-1.06 0-1.94.23-2.638.672-.698.438-1.241.902-1.603 1.42l-.05-1.964h-2.12v12.746h2.17v-9.05c.388-.465.853-.93 1.475-1.344.593-.438 1.344-.646 2.223-.646.596 0 1.034.129 1.317.415.336.257.544.62.649 1.084.128.467.18 1.008.18 1.63v7.91h2.171v-8.22c0-1.475-.283-2.611-.879-3.438-.57-.803-1.551-1.215-2.895-1.215z"/>
    <path fill="none" d="M447.449 105.572h35.275v54.93H447.45z"/>
    <path fill="var(--secondary-color)" d="M473.12 141.623q-1.53 1.344-3.062 1.344-2.203 0-2.64-4.016h-.157q-1.968 4.016-4.812 4.016-2.14 0-3.328-1.766-1.188-1.766-1.188-5.031 0-3.36 1.703-5.36 1.703-2.015 4.125-2.015 1.813 0 2.828.86 1.032.858 1.782 2.874h.203l1-3.484h2.36v.703q-1.032 1.578-2.75 5.875.296 2.906.687 4.375.406 1.453 1.297 1.453.593 0 1.39-.672l.563.844zm-5.937-5.813q-.375-3.218-1.14-4.547-.75-1.328-2.157-1.328-1.515 0-2.422 1.657-.906 1.64-.906 4.39 0 5.297 2.625 5.297 2.781 0 4-5.469z"/>
  </g>
</svg>
