<svg xmlns="http://www.w3.org/2000/svg" fill="none" stroke-linecap="square" stroke-miterlimit="10" viewBox="0 0 702.325 421.706">
  <script type="text/ecmascript" href="../../scripts/color.js"/>
  <g clip-path="url(#a)">
    <path fill="none" d="M0 0h702.325v421.706H0z"/>
    <path fill="none" d="M491.146 114.703h182.249c1.53 0 2.297-.632 2.297-1.963V12.228c0-1.296-.767-1.929-2.297-1.929h-182.25c-1.498 0-2.262.633-2.262 1.93V112.74c0 1.33.764 1.963 2.263 1.963z"/>
    <path stroke="var(--secondary-color)" stroke-linecap="butt" stroke-miterlimit="12.68" stroke-width="1.63" d="M491.146 114.703h182.249c1.53 0 2.297-.632 2.297-1.963V12.228c0-1.296-.767-1.929-2.297-1.929h-182.25c-1.498 0-2.262.633-2.262 1.93V112.74c0 1.33.764 1.963 2.263 1.963z"/>
    <path fill="none" d="M495.54 23.612H527.588"/>
    <path stroke="var(--secondary-color)" stroke-linejoin="round" stroke-width="3.228" d="M495.54 23.612H527.588"/>
    <path fill="#aeb6bf" fill-rule="evenodd" d="M495.54 54.396h32.05V42.748h-32.05z"/>
    <path fill="#ff6082" fill-rule="evenodd" d="M495.54 78.525h32.05v-11.25h-32.05z"/>
    <path fill="#47d45a" fill-rule="evenodd" d="M495.54 102.656h32.05v-11.25h-32.05z"/>
    <path fill="var(--secondary-color)" fill-rule="evenodd" d="M557.707 89.643v1.396h3.562v11.184h1.664V91.04h3.562v-1.396zM571.886 97.795v1.898c-.3.433-.698.798-1.166 1.097-.464.268-.997.402-1.595.402-.499 0-.9-.134-1.166-.402-.233-.265-.367-.598-.367-1.063 0-.667.333-1.165 1-1.465.667-.299 1.764-.467 3.294-.467zm-1.83-4.824c-.698 0-1.33.1-1.863.3-.533.199-.966.564-1.3.997-.299.467-.432 1.065-.432 1.798h1.498c0-.667.2-1.166.599-1.465.399-.333.9-.467 1.498-.467.533 0 .966.134 1.331.433.333.268.533.8.533 1.598v.667c-1.2 0-2.231.1-3.129.231-.866.168-1.564.433-2.031.866-.499.433-.73 1.032-.73 1.864 0 .567.131 1.065.365 1.43.234.402.567.7.966.866.399.2.863.3 1.365.3.698 0 1.296-.134 1.83-.4a4.471 4.471 0 0 0 1.398-1.097l.032 1.331h1.464v-6.092c0-.632-.1-1.165-.3-1.596a2.191 2.191 0 0 0-.765-.965 2.352 2.352 0 0 0-1.098-.468 4.988 4.988 0 0 0-1.23-.13zM580.206 93.003c-.732 0-1.33.168-1.764.467a3.77 3.77 0 0 0-1.097 1.197l-.034-1.53h-1.465v9.086h1.53v-6.391c.234-.265.434-.499.701-.732.266-.2.565-.365.898-.499.333-.1.732-.165 1.2-.165h.199v-1.433zM584.3 94.102c.567 0 .998.166 1.331.499.334.365.499.866.499 1.564 0 .699-.165 1.197-.499 1.53a1.933 1.933 0 0 1-1.365.533c-.464 0-.897-.2-1.296-.532-.368-.334-.533-.832-.533-1.53 0-.667.165-1.2.499-1.53.367-.368.798-.534 1.365-.534zm.266 7.688c.666 0 1.165.034 1.532.134.365.1.599.265.764.43.134.202.2.433.2.701 0 .433-.2.798-.63 1.097-.402.3-1.1.467-2.097.467-.832 0-1.465-.133-1.798-.433-.368-.267-.567-.598-.567-1 0-.33.134-.63.333-.863.234-.268.567-.433 1-.533zm3.994-9.884c-.666.034-1.196.133-1.63.364-.412.192-.734.562-.965 1.116-.465-.218-1.016-.35-1.699-.35-.698 0-1.33.166-1.829.434a3.038 3.038 0 0 0-1.131 1.131 3.477 3.477 0 0 0-.368 1.564c0 .567.134 1.066.368 1.53.207.392.477.701.824.961-.373.15-.654.333-.858.538-.234.3-.365.599-.365.866 0 .2.065.4.2.63.165.234.398.433.732.601.06.03.126.058.196.084a3.241 3.241 0 0 0-.863.515c-.433.399-.667.866-.667 1.399 0 .43.134.863.368 1.23.265.366.666.665 1.23.898.568.2 1.331.334 2.263.334 1.365 0 2.396-.268 3.129-.798.7-.533 1.065-1.2 1.065-2.032 0-.832-.299-1.43-.931-1.83-.599-.4-1.599-.6-3.03-.6h-.498c-.467 0-.866-.032-1.131-.066-.268-.065-.467-.134-.567-.233a.366.366 0 0 1-.165-.334c0-.165.065-.33.265-.498.139-.092.312-.184.514-.255.378.12.8.189 1.25.189.732 0 1.364-.168 1.831-.433.5-.3.864-.667 1.132-1.131.233-.468.364-.998.364-1.565s-.13-1.1-.364-1.564a2.599 2.599 0 0 0-.552-.73c.205-.262.444-.417.751-.5.333-.1.698-.135 1.131-.135v-1.33zM593.253 94.168c.733 0 1.3.2 1.698.667.4.433.599 1.097.633 1.929h-4.761c.1-.832.333-1.496.732-1.93.399-.467 1-.666 1.698-.666zm0-1.197c-.866 0-1.63.2-2.23.599-.6.399-1.032.931-1.331 1.664-.3.698-.433 1.498-.433 2.43 0 .898.168 1.696.467 2.428.299.698.766 1.265 1.365 1.698.632.399 1.396.598 2.362.598.732 0 1.365-.133 1.932-.364.53-.268.963-.633 1.262-1.066a3.107 3.107 0 0 0 .467-1.664h-1.53c-.034.598-.234 1.066-.601 1.396-.365.334-.864.502-1.53.502-.633 0-1.131-.168-1.53-.468-.368-.299-.633-.698-.832-1.165a5.173 5.173 0 0 1-.268-1.63h6.257c0-.065.034-.165.034-.3v-.332c0-1.397-.333-2.462-1.031-3.229-.667-.732-1.599-1.097-2.83-1.097zM599.576 91.04v2.096h-1.496v1.231h1.496v4.927c0 .598.068 1.131.234 1.564.134.433.399.767.798 1.032.399.233.965.333 1.698.333h1.097v-1.265h-.997c-.533 0-.898-.168-1.032-.467-.165-.3-.234-.732-.234-1.297v-4.827h2.263v-1.23h-2.263v-2.098zM558.972 65.945v12.58h1.565v-10.05l6.89 10.05h1.73v-12.58h-1.597v9.984l-6.89-9.984zM575.382 70.438c.698 0 1.265.234 1.664.667.399.465.598 1.097.632 1.963h-4.727c.066-.866.3-1.498.699-1.963.433-.433 1-.667 1.732-.667zm0-1.197c-.9 0-1.664.2-2.265.599a3.61 3.61 0 0 0-1.297 1.664c-.299.698-.467 1.53-.467 2.462 0 .9.168 1.698.467 2.396.3.732.767 1.265 1.365 1.698.633.4 1.396.633 2.362.633.733 0 1.4-.134 1.932-.399.53-.234.963-.601 1.262-1.066a3.03 3.03 0 0 0 .468-1.664h-1.53c0 .633-.2 1.097-.602 1.43-.364.3-.863.468-1.53.468-.632 0-1.131-.134-1.498-.433-.4-.3-.664-.698-.832-1.2-.2-.498-.266-1.031-.266-1.63h6.224c.034-.065.034-.133.034-.265v-.333c0-1.399-.334-2.496-.998-3.228-.7-.767-1.632-1.132-2.83-1.132zM582.038 65.88c-.3 0-.533.099-.7.264a.92.92 0 0 0-.266.633c0 .268.1.499.265.667.168.165.402.265.701.265.3 0 .533-.1.732-.265a.936.936 0 0 0 .265-.667.92.92 0 0 0-.265-.633 1.101 1.101 0 0 0-.732-.265zm-.766 3.527v9.118h1.564v-9.118zM588.161 70.404c.565 0 .998.168 1.331.502.333.33.499.863.499 1.564 0 .664-.166 1.163-.533 1.53-.33.333-.764.499-1.33.499-.465 0-.898-.166-1.297-.499-.368-.333-.567-.866-.567-1.53 0-.701.2-1.2.533-1.564.364-.334.797-.502 1.364-.502zm.234 7.656c.698 0 1.197.066 1.564.166.365.1.599.233.764.433.134.2.2.433.2.666 0 .465-.231.832-.633 1.132-.399.299-1.097.433-2.094.433-.832 0-1.465-.134-1.798-.433-.368-.268-.567-.599-.567-.966 0-.334.134-.633.333-.898a2.05 2.05 0 0 1 .997-.533zm4.026-9.85c-.666 0-1.2.131-1.63.33-.412.224-.735.596-.966 1.119-.464-.213-1.015-.318-1.698-.318-.698 0-1.33.131-1.83.4-.466.298-.865.663-1.13 1.13a3.623 3.623 0 0 0-.368 1.599c0 .53.134 1.063.368 1.53.204.36.472.682.813.932-.367.15-.645.338-.847.567-.234.265-.365.564-.365.863 0 .168.065.4.2.633.13.2.398.399.731.567.06.029.126.057.195.084-.344.144-.63.317-.861.514-.433.433-.667.898-.667 1.43 0 .434.134.833.368 1.2.265.399.664.698 1.23.898.567.233 1.331.333 2.263.333 1.365 0 2.396-.268 3.129-.798.7-.501 1.065-1.165 1.065-1.997 0-.832-.333-1.433-.931-1.832-.599-.4-1.599-.599-3.03-.599h-.498c-.499 0-.866-.034-1.131-.1-.268-.065-.467-.133-.567-.233a.366.366 0 0 1-.166-.333c0-.166.066-.3.266-.465.139-.115.312-.2.517-.273.375.118.797.173 1.246.173.733 0 1.365-.134 1.832-.433.499-.265.864-.666 1.132-1.131.233-.467.364-.966.364-1.53 0-.601-.13-1.1-.364-1.599a3.06 3.06 0 0 0-.549-.7c.205-.27.44-.441.748-.5.333-.099.698-.164 1.131-.164V68.21zM593.686 65.945v12.58h1.565v-6.457c.265-.365.632-.664 1.065-.963.43-.333.964-.467 1.596-.467.433 0 .732.1.932.299.233.168.367.433.467.766.066.334.1.733.1 1.166v5.656h1.564v-5.89c0-1.065-.2-1.863-.632-2.43-.4-.599-1.1-.864-2.032-.864-.764 0-1.396.131-1.895.465-.501.299-.9.632-1.165 1v-4.861zM607.532 70.504c.698 0 1.23.302 1.595.9.368.599.533 1.43.533 2.53 0 1.097-.165 1.964-.533 2.562-.365.598-.897.898-1.664.898-.598 0-1.097-.132-1.53-.433-.433-.265-.732-.664-.997-1.163v-3.496a4.1 4.1 0 0 1 .997-1.265c.433-.331.966-.533 1.599-.533zm-4.16-4.56v12.58h1.464l.1-1.296c.299.465.664.832 1.131 1.097.465.234 1.031.368 1.698.368.732 0 1.33-.2 1.864-.533.532-.367.931-.898 1.196-1.598.3-.698.434-1.565.434-2.596 0-1.032-.134-1.93-.4-2.63-.299-.698-.698-1.197-1.199-1.562a3.37 3.37 0 0 0-1.83-.533c-.666 0-1.23.166-1.729.5-.467.298-.866.663-1.165 1.096v-4.892zM616.917 70.504c.633 0 1.132.134 1.496.467.368.3.633.698.8 1.231.166.499.266 1.1.266 1.764 0 .667-.1 1.265-.265 1.798-.168.498-.433.897-.8 1.197-.365.301-.864.467-1.497.467-.6 0-1.065-.166-1.433-.467a2.265 2.265 0 0 1-.764-1.197c-.168-.533-.233-1.131-.233-1.764 0-.698.065-1.3.233-1.798.132-.533.4-.932.764-1.23.368-.334.832-.468 1.433-.468zm0-1.263c-.866 0-1.564.2-2.197.565a3.646 3.646 0 0 0-1.364 1.632c-.334.698-.5 1.562-.5 2.528 0 1 .166 1.832.5 2.53.299.698.766 1.231 1.364 1.598.633.365 1.331.565 2.197.565.864 0 1.63-.2 2.229-.565a3.377 3.377 0 0 0 1.433-1.598c.33-.698.498-1.53.498-2.53 0-.966-.168-1.83-.498-2.528-.302-.7-.8-1.233-1.433-1.632-.599-.365-1.365-.565-2.229-.565zM627.466 69.307c-.698 0-1.297.134-1.764.467-.433.331-.798.698-1.066 1.163l-.065-1.53h-1.465v9.118h1.565v-6.423c.2-.265.433-.498.698-.698.233-.233.533-.367.9-.498.333-.134.732-.168 1.197-.168h.2v-1.43zM564.198 41.75c.966 0 1.764.232 2.33.699a3.942 3.942 0 0 1 1.332 1.83c.265.766.399 1.632.399 2.564 0 .931-.134 1.797-.4 2.561-.267.767-.732 1.4-1.33 1.832-.567.465-1.365.698-2.33.698-.967 0-1.73-.233-2.332-.698-.598-.433-1.031-1.065-1.33-1.832-.265-.764-.4-1.63-.4-2.561 0-.932.135-1.798.4-2.565.299-.764.732-1.362 1.33-1.83.602-.466 1.365-.697 2.331-.697zm.034-1.364c-1.299 0-2.365.265-3.228.832-.866.533-1.499 1.296-1.932 2.262-.43.966-.664 2.097-.664 3.363 0 1.296.234 2.396.664 3.362.433.963 1.066 1.73 1.932 2.262.863.564 1.93.832 3.228.832 1.265 0 2.328-.268 3.16-.832a5.029 5.029 0 0 0 1.966-2.262c.43-.966.63-2.066.63-3.362 0-1.266-.2-2.397-.63-3.363a5.016 5.016 0 0 0-1.966-2.262c-.832-.567-1.895-.832-3.16-.832zM572.518 41.95v2.097h-1.496v1.231h1.496v4.927c0 .598.1 1.131.234 1.561.134.433.433.767.798 1.035.399.23.966.33 1.698.33h1.097V51.87h-.997c-.533 0-.898-.168-1.032-.467-.134-.3-.233-.733-.233-1.3v-4.824h2.262v-1.23h-2.262V41.95zM577.91 40.551v12.58h1.564v-6.456c.267-.331.6-.665 1.065-.964.433-.299.966-.467 1.599-.467.399 0 .732.1.932.3.233.199.364.432.464.8.068.33.1.698.1 1.131v5.656h1.564v-5.855c0-1.066-.2-1.898-.632-2.465-.4-.564-1.098-.863-2.063-.863-.764 0-1.397.165-1.898.464-.465.333-.864.667-1.131 1.032V40.55zM591.156 45.079c.732 0 1.3.2 1.698.664.4.433.599 1.1.599 1.932h-4.727c.102-.832.333-1.5.732-1.932.402-.465.966-.664 1.698-.664zm0-1.2c-.897 0-1.63.2-2.228.601-.601.4-1.034.932-1.334 1.664-.299.699-.433 1.496-.433 2.428 0 .9.134 1.698.433 2.43.334.699.767 1.266 1.4 1.699.598.399 1.396.598 2.33.598.764 0 1.396-.134 1.93-.367a3.096 3.096 0 0 0 1.264-1.063c.334-.502.465-1.034.5-1.664h-1.531c-.034.598-.234 1.063-.599 1.396-.367.333-.9.499-1.564.499-.6 0-1.1-.166-1.499-.465-.367-.299-.666-.7-.832-1.165a5.264 5.264 0 0 1-.267-1.63h6.257v-.3c.034-.133.034-.233.034-.333 0-1.399-.365-2.464-1.031-3.228-.667-.732-1.63-1.1-2.83-1.1zM601.408 43.913c-.7 0-1.3.166-1.764.465-.433.333-.8.732-1.065 1.2l-.069-1.53h-1.461v9.083h1.564v-6.388c.2-.268.43-.499.698-.733.234-.199.533-.367.898-.498a4.1 4.1 0 0 1 1.165-.168h.234v-1.43zM558.972 16.856v12.58h7.99v-1.43h-6.326v-4.36h5.825v-1.4h-5.825v-3.994h6.326v-1.396zM572.587 21.415c.564 0 1.063.168 1.462.498.401.3.732.701.965 1.231v3.53c-.233.431-.564.833-.997 1.132-.399.333-.932.498-1.564.498-.698 0-1.265-.299-1.633-.866-.33-.598-.53-1.43-.53-2.527 0-1.134.2-1.966.564-2.565.4-.598.966-.931 1.733-.931zm2.462-4.56v4.859a2.786 2.786 0 0 0-1.1-1.131c-.43-.3-.998-.433-1.664-.433-.733 0-1.362.168-1.895.532-.567.368-.966.9-1.265 1.599-.3.698-.433 1.596-.433 2.63 0 1.031.133 1.895.433 2.596.265.664.664 1.196 1.197 1.564.532.33 1.13.53 1.863.53.667 0 1.234-.165 1.698-.43.467-.302.866-.667 1.166-1.134l.1 1.399h1.43v-12.58zM581.904 21.315c.567 0 .998.165 1.33.499.334.333.5.866.5 1.564 0 .667-.166 1.165-.5 1.533-.332.33-.797.498-1.33.498-.498 0-.932-.168-1.299-.498-.365-.334-.564-.866-.564-1.533 0-.698.165-1.197.533-1.564.333-.334.797-.499 1.33-.499zm.265 7.656c.667 0 1.2.066 1.565.165.333.1.6.234.732.434.134.199.2.433.2.664 0 .467-.2.832-.63 1.13-.402.303-1.1.434-2.098.434-.832 0-1.433-.131-1.798-.433-.367-.265-.532-.599-.532-.963 0-.334.1-.633.333-.9.2-.232.533-.431.966-.53zm3.995-9.853c-.667 0-1.197.134-1.63.333-.383.224-.703.599-.934 1.126-.452-.217-1.032-.328-1.696-.328-.732 0-1.33.134-1.83.4a3.09 3.09 0 0 0-1.133 1.133 3.258 3.258 0 0 0-.399 1.596c0 .533.134 1.066.399 1.533.181.357.46.677.806.926-.365.153-.659.341-.838.57-.267.268-.398.567-.398.866 0 .165.065.399.23.633.134.199.368.398.733.564.058.029.118.055.183.081a2.83 2.83 0 0 0-.847.52c-.467.43-.701.898-.701 1.43 0 .433.134.832.402 1.197.23.4.664.7 1.23.9.565.231 1.297.331 2.263.331 1.365 0 2.396-.265 3.094-.798.701-.498 1.066-1.165 1.066-1.997 0-.832-.3-1.43-.898-1.83-.632-.398-1.632-.598-3.028-.598h-.533a5.32 5.32 0 0 1-1.131-.1c-.268-.068-.468-.134-.567-.233-.1-.1-.166-.2-.166-.334 0-.165.1-.299.265-.464a1.62 1.62 0 0 1 .528-.278c.373.12.793.175 1.27.175.732 0 1.33-.13 1.83-.43a2.58 2.58 0 0 0 1.1-1.131c.264-.467.364-.966.364-1.533 0-.598-.1-1.097-.365-1.596a2.502 2.502 0 0 0-.525-.703c.192-.268.447-.441.725-.496.333-.1.732-.166 1.131-.166v-1.299zM590.891 21.35c.698 0 1.265.233 1.664.663.399.467.599 1.1.633 1.963h-4.727c.065-.863.299-1.496.732-1.963.399-.43.966-.664 1.698-.664zm0-1.2c-.9 0-1.664.2-2.23.598a3.474 3.474 0 0 0-1.332 1.667c-.299.698-.467 1.53-.467 2.462 0 .897.168 1.698.467 2.396.3.732.767 1.265 1.365 1.698.633.4 1.397.63 2.362.63.733 0 1.4-.131 1.932-.399.53-.23.963-.598 1.263-1.063.301-.467.467-1.034.501-1.667h-1.564c0 .633-.2 1.1-.567 1.434-.4.299-.898.464-1.565.464-.632 0-1.13-.131-1.498-.433-.4-.3-.664-.698-.832-1.197a5.1 5.1 0 0 1-.265-1.63h6.223c.034-.068.034-.134.034-.267v-.334c0-1.396-.333-2.496-.998-3.228-.7-.764-1.632-1.131-2.829-1.131z"/>
    <path fill="none" d="m51.96 146.735 249.212 228.412"/>
    <path stroke="var(--secondary-color)" stroke-linecap="butt" stroke-linejoin="round" stroke-width="2" d="m51.96 146.735 249.212 228.412"/>
    <path fill="none" d="m51.96 146.735 33.713 100.677"/>
    <path stroke="var(--secondary-color)" stroke-linecap="butt" stroke-linejoin="round" stroke-width="2" d="m51.96 146.735 33.713 100.677"/>
    <path fill="none" d="m51.96 146.735 292.48-50.753"/>
    <path stroke="var(--secondary-color)" stroke-linecap="butt" stroke-linejoin="round" stroke-width="2" d="m51.96 146.735 292.48-50.753"/>
    <path fill="none" d="m51.96 146.735 83.637-69.89"/>
    <path stroke="var(--secondary-color)" stroke-linecap="butt" stroke-linejoin="round" stroke-width="2" d="m51.96 146.735 83.637-69.89"/>
    <path fill="none" d="M238.77 29.018 200.495 392.62"/>
    <path stroke="var(--secondary-color)" stroke-linecap="butt" stroke-linejoin="round" stroke-width="2" d="M238.77 29.018 200.495 392.62"/>
    <path fill="none" d="m238.77 29.018 187.208 240.859"/>
    <path stroke="var(--secondary-color)" stroke-linecap="butt" stroke-linejoin="round" stroke-width="2" d="m238.77 29.018 187.208 240.859"/>
    <path fill="none" d="m238.77 29.018 105.67 66.964"/>
    <path stroke="var(--secondary-color)" stroke-linecap="butt" stroke-linejoin="round" stroke-width="2" d="m238.77 29.018 105.67 66.964"/>
    <path fill="none" d="M238.77 29.018 135.597 76.845"/>
    <path stroke="var(--secondary-color)" stroke-linecap="butt" stroke-linejoin="round" stroke-width="2" d="M238.77 29.018 135.597 76.845"/>
    <path fill="none" d="m301.172 375.147-100.677 17.472"/>
    <path stroke="var(--secondary-color)" stroke-linecap="butt" stroke-linejoin="round" stroke-width="2" d="m301.172 375.147-100.677 17.472"/>
    <path fill="none" d="m301.172 375.147 124.806-105.27"/>
    <path stroke="var(--secondary-color)" stroke-linecap="butt" stroke-linejoin="round" stroke-width="2" d="m301.172 375.147 124.806-105.27"/>
    <path fill="none" d="M200.495 392.62 85.673 247.411"/>
    <path stroke="var(--secondary-color)" stroke-linecap="butt" stroke-linejoin="round" stroke-width="2" d="M200.495 392.62 85.673 247.411"/>
    <path fill="none" d="M200.495 392.62 135.597 76.844"/>
    <path stroke="var(--secondary-color)" stroke-linecap="butt" stroke-linejoin="round" stroke-width="2" d="M200.495 392.62 135.597 76.844"/>
    <path fill="none" d="m85.673 247.412 49.924-170.567"/>
    <path stroke="var(--secondary-color)" stroke-linecap="butt" stroke-linejoin="round" stroke-width="2" d="m85.673 247.412 49.924-170.567"/>
    <path fill="none" d="M425.978 269.877 344.44 95.982"/>
    <path stroke="var(--secondary-color)" stroke-linecap="butt" stroke-linejoin="round" stroke-width="2" d="M425.978 269.877 344.44 95.982"/>
    <path fill="none" d="M344.44 95.982 135.597 76.845"/>
    <path stroke="var(--secondary-color)" stroke-linecap="butt" stroke-linejoin="round" stroke-width="2" d="M344.44 95.982 135.597 76.845"/>
    <path fill="#ff6082" fill-rule="evenodd" d="m51.96 146.735 245.052 108.997"/>
    <path fill="none" d="m51.96 146.735 245.052 108.997"/>
    <path stroke="#ff6082" stroke-linecap="butt" stroke-linejoin="round" stroke-width="2" d="m51.96 146.735 245.052 108.997"/>
    <path fill="none" d="m297.012 255.732 4.16 119.415"/>
    <path stroke="#ff6082" stroke-linecap="butt" stroke-linejoin="round" stroke-width="2" d="m297.012 255.732 4.16 119.415"/>
    <path fill="none" d="m297.012 255.732-211.339-8.32"/>
    <path stroke="#ff6082" stroke-linecap="butt" stroke-linejoin="round" stroke-width="2" d="m297.012 255.732-211.339-8.32"/>
    <path fill="none" d="m297.012 255.732 128.966 14.145"/>
    <path stroke="#ff6082" stroke-linecap="butt" stroke-linejoin="round" stroke-width="2" d="m297.012 255.732 128.966 14.145"/>
    <path fill="none" d="m297.012 255.732 47.428-159.75"/>
    <path stroke="#ff6082" stroke-linecap="butt" stroke-linejoin="round" stroke-width="2" d="m297.012 255.732 47.428-159.75"/>
    <path fill="none" d="M262.067 255.966c0-19.205 15.543-34.746 34.745-34.746 19.17 0 34.714 15.541 34.714 34.746 0 19.17-15.543 34.711-34.714 34.711-19.202 0-34.745-15.54-34.745-34.711z"/>
    <path stroke="var(--secondary-color)" stroke-linecap="butt" stroke-miterlimit="12.68" stroke-width="2" d="M262.067 255.966c0-19.205 15.543-34.746 34.745-34.746 19.17 0 34.714 15.541 34.714 34.746 0 19.17-15.543 34.711-34.714 34.711-19.202 0-34.745-15.54-34.745-34.711z"/>
    <path fill="#ff6082" fill-rule="evenodd" d="M51.993 172.163c6.722 0 13.179-2.696 17.94-7.454 4.759-4.761 7.454-11.218 7.454-17.94 0-6.724-2.695-13.181-7.454-17.94a25.375 25.375 0 0 0-17.94-7.42 25.375 25.375 0 0 0-17.94 7.42 25.366 25.366 0 0 0-7.42 17.94 25.375 25.375 0 0 0 7.42 17.94c4.762 4.758 11.219 7.454 17.94 7.454z"/>
    <path stroke="var(--secondary-color)" stroke-linecap="butt" stroke-linejoin="round" stroke-width="2" d="M51.993 172.163c6.722 0 13.179-2.696 17.94-7.454 4.759-4.761 7.454-11.218 7.454-17.94 0-6.724-2.695-13.181-7.454-17.94a25.375 25.375 0 0 0-17.94-7.42 25.375 25.375 0 0 0-17.94 7.42 25.366 25.366 0 0 0-7.42 17.94 25.375 25.375 0 0 0 7.42 17.94c4.762 4.758 11.219 7.454 17.94 7.454z"/>
    <path fill="var(--secondary-color)" d="M46.334 145.049q1.125-1.375 2.922-1.375 3.125 0 3.156 3.515v6.516h-1.687v-6.516q-.016-1.078-.5-1.578-.47-.516-1.485-.516-.812 0-1.437.438-.61.437-.97 1.156v7.016h-1.671v-14h1.672v5.344zM60.188 160.705H54.39v-.813l3.062-3.39q.672-.782.922-1.266.266-.484.266-1 0-.687-.422-1.125-.406-.453-1.11-.453-.828 0-1.296.484-.47.469-.47 1.328H54.22q0-1.218.781-1.968.797-.766 2.11-.766 1.234 0 1.953.656.718.64.718 1.719 0 1.297-1.672 3.11l-2.359 2.562h4.438v.922z"/>
    <path fill="#aeb6bf" fill-rule="evenodd" d="M239.001 53.979c6.69 0 13.082-2.627 17.806-7.354a25.132 25.132 0 0 0 7.357-17.806c0-6.69-2.63-13.079-7.357-17.806a25.135 25.135 0 0 0-17.806-7.354 25.189 25.189 0 0 0-17.803 7.354 25.275 25.275 0 0 0-7.357 17.806c0 6.69 2.664 13.079 7.357 17.806 4.725 4.727 11.147 7.354 17.803 7.354z"/>
    <path stroke="var(--secondary-color)" stroke-linecap="butt" stroke-linejoin="round" stroke-width="2" d="M239.001 53.979c6.69 0 13.082-2.627 17.806-7.354a25.132 25.132 0 0 0 7.357-17.806c0-6.69-2.63-13.079-7.357-17.806a25.135 25.135 0 0 0-17.806-7.354 25.189 25.189 0 0 0-17.803 7.354 25.275 25.275 0 0 0-7.357 17.806c0 6.69 2.664 13.079 7.357 17.806 4.725 4.727 11.147 7.354 17.803 7.354z"/>
    <path fill="#ff6082" fill-rule="evenodd" d="M301.007 400.54c6.69 0 13.078-2.63 17.805-7.356a25.134 25.134 0 0 0 7.355-17.803c0-6.66-2.63-13.082-7.355-17.775a25.173 25.173 0 0 0-17.805-7.388 25.168 25.168 0 0 0-17.806 7.388c-4.727 4.693-7.355 11.116-7.355 17.775 0 6.687 2.628 13.078 7.355 17.803a25.127 25.127 0 0 0 17.806 7.357z"/>
    <path stroke="var(--secondary-color)" stroke-linecap="butt" stroke-linejoin="round" stroke-width="2" d="M301.007 400.54c6.69 0 13.078-2.63 17.805-7.356a25.134 25.134 0 0 0 7.355-17.803c0-6.66-2.63-13.082-7.355-17.775a25.173 25.173 0 0 0-17.805-7.388 25.168 25.168 0 0 0-17.806 7.388c-4.727 4.693-7.355 11.116-7.355 17.775 0 6.687 2.628 13.078 7.355 17.803a25.127 25.127 0 0 0 17.806 7.357z"/>
    <path fill="var(--secondary-color)" d="M295.33 373.643q1.125-1.375 2.922-1.375 3.125 0 3.156 3.516v6.515h-1.687v-6.515q-.016-1.079-.5-1.579-.47-.515-1.485-.515-.812 0-1.437.437-.61.438-.969 1.157v7.015h-1.672v-14h1.672v5.344zM308.137 386.33h1.218v.922h-1.218v2.047h-1.14v-2.047h-4.017v-.672l3.954-6.125h1.203v5.875zm-3.89 0h2.75v-4.343l-.126.25-2.625 4.093z"/>
    <path fill="#aeb6bf" fill-rule="evenodd" d="M200.33 418.047c6.656 0 13.078-2.698 17.771-7.456a25.467 25.467 0 0 0 0-35.877 24.985 24.985 0 0 0-17.772-7.423 25.063 25.063 0 0 0-17.805 7.423 25.469 25.469 0 0 0 0 35.877c4.727 4.758 11.115 7.456 17.805 7.456z"/>
    <path stroke="var(--secondary-color)" stroke-linecap="butt" stroke-linejoin="round" stroke-width="2" d="M200.33 418.047c6.656 0 13.078-2.698 17.771-7.456a25.467 25.467 0 0 0 0-35.877 24.985 24.985 0 0 0-17.772-7.423 25.063 25.063 0 0 0-17.805 7.423 25.469 25.469 0 0 0 0 35.877c4.727 4.758 11.115 7.456 17.805 7.456z"/>
    <path fill="#ff6082" fill-rule="evenodd" d="M85.474 272.407c6.69 0 13.081-2.63 17.806-7.357a25.21 25.21 0 0 0 7.388-17.803c0-6.69-2.661-13.082-7.388-17.806a25.127 25.127 0 0 0-17.806-7.357 25.112 25.112 0 0 0-17.772 7.357 25.157 25.157 0 0 0-7.388 17.806 25.21 25.21 0 0 0 7.388 17.803 25.111 25.111 0 0 0 17.772 7.357z"/>
    <path stroke="var(--secondary-color)" stroke-linecap="butt" stroke-linejoin="round" stroke-width="2" d="M85.474 272.407c6.69 0 13.081-2.63 17.806-7.357a25.21 25.21 0 0 0 7.388-17.803c0-6.69-2.661-13.082-7.388-17.806a25.127 25.127 0 0 0-17.806-7.357 25.112 25.112 0 0 0-17.772 7.357 25.157 25.157 0 0 0-7.388 17.806 25.21 25.21 0 0 0 7.388 17.803 25.111 25.111 0 0 0 17.772 7.357z"/>
    <path fill="var(--secondary-color)" d="M79.816 245.51q1.125-1.376 2.921-1.376 3.125 0 3.157 3.516v6.515h-1.688v-6.515q-.015-1.078-.5-1.578-.469-.516-1.484-.516-.813 0-1.438.438-.61.437-.968 1.156v7.015h-1.672v-14h1.672v5.344zM89.513 256.197h.844q.797-.016 1.25-.422.453-.406.453-1.094 0-1.562-1.547-1.562-.734 0-1.172.421-.437.422-.437 1.11h-1.11q0-1.063.766-1.75.765-.703 1.953-.703 1.25 0 1.953.672.719.656.719 1.828 0 .578-.375 1.125t-1.016.812q.719.219 1.11.766.406.531.406 1.297 0 1.187-.781 1.89-.766.703-2.016.703t-2.031-.671q-.766-.688-.766-1.782h1.125q0 .688.453 1.11.453.422 1.219.422.812 0 1.234-.422.438-.422.438-1.22 0-.78-.469-1.187-.469-.406-1.36-.421h-.843v-.922z"/>
    <path fill="#ff6082" fill-rule="evenodd" d="M425.812 295.304c6.69 0 13.08-2.664 17.806-7.422 4.725-4.759 7.354-11.215 7.354-17.971 0-6.725-2.63-13.181-7.354-17.94a25.063 25.063 0 0 0-17.806-7.422 24.985 24.985 0 0 0-17.771 7.422 25.469 25.469 0 0 0-7.389 17.94 25.487 25.487 0 0 0 7.389 17.97 24.985 24.985 0 0 0 17.771 7.423z"/>
    <path stroke="var(--secondary-color)" stroke-linecap="butt" stroke-linejoin="round" stroke-width="2" d="M425.812 295.304c6.69 0 13.08-2.664 17.806-7.422 4.725-4.759 7.354-11.215 7.354-17.971 0-6.725-2.63-13.181-7.354-17.94a25.063 25.063 0 0 0-17.806-7.422 24.985 24.985 0 0 0-17.771 7.422 25.469 25.469 0 0 0-7.389 17.94 25.487 25.487 0 0 0 7.389 17.97 24.985 24.985 0 0 0 17.771 7.423z"/>
    <path fill="var(--secondary-color)" d="M420.136 268.19q1.125-1.375 2.922-1.375 3.125 0 3.156 3.516v6.515h-1.688v-6.515q-.015-1.078-.5-1.578-.468-.516-1.484-.516-.813 0-1.438.438-.609.437-.968 1.156v7.015h-1.672v-14h1.672v5.344zM428.708 279.409l.453-4.406h4.532v1.047h-3.579l-.265 2.406q.64-.39 1.469-.39 1.218 0 1.921.812.704.797.704 2.156 0 1.36-.735 2.156-.734.781-2.062.781-1.172 0-1.922-.64-.735-.656-.828-1.813h1.062q.094.766.531 1.157.438.375 1.157.375.78 0 1.234-.532.453-.53.453-1.484 0-.875-.484-1.406-.485-.547-1.297-.547-.734 0-1.14.312l-.298.25-.906-.234z"/>
    <path fill="#ff6082" fill-rule="evenodd" d="M344.67 121.375c6.69 0 13.082-2.63 17.806-7.357a25.156 25.156 0 0 0 7.389-17.803 25.217 25.217 0 0 0-7.389-17.806 25.27 25.27 0 0 0-17.805-7.357c-6.657 0-13.045 2.665-17.772 7.357a25.217 25.217 0 0 0-7.388 17.806 25.156 25.156 0 0 0 7.388 17.803 25.111 25.111 0 0 0 17.772 7.357z"/>
    <path stroke="var(--secondary-color)" stroke-linecap="butt" stroke-linejoin="round" stroke-width="2" d="M344.67 121.375c6.69 0 13.082-2.63 17.806-7.357a25.156 25.156 0 0 0 7.389-17.803 25.217 25.217 0 0 0-7.389-17.806 25.27 25.27 0 0 0-17.805-7.357c-6.657 0-13.045 2.665-17.772 7.357a25.217 25.217 0 0 0-7.388 17.806 25.156 25.156 0 0 0 7.388 17.803 25.111 25.111 0 0 0 17.772 7.357z"/>
    <path fill="var(--secondary-color)" d="M339.012 94.478q1.125-1.375 2.922-1.375 3.125 0 3.156 3.515v6.516h-1.687v-6.516q-.016-1.078-.5-1.578-.469-.515-1.484-.515-.813 0-1.438.437-.61.438-.969 1.156v7.016h-1.672v-14h1.672v5.344zM350.757 110.134h-1.125v-7.484l-2.266.828v-1.016l3.219-1.219h.172v8.89z"/>
    <path fill="#aeb6bf" fill-rule="evenodd" d="M135.398 101.84c6.69 0 13.112-2.664 17.805-7.389a25.1 25.1 0 0 0 7.389-17.774 25.177 25.177 0 0 0-7.389-17.806c-4.693-4.724-11.115-7.388-17.805-7.388-6.657 0-13.048 2.664-17.772 7.388a25.169 25.169 0 0 0-7.391 17.806 25.091 25.091 0 0 0 7.391 17.774c4.724 4.725 11.115 7.389 17.772 7.389z"/>
    <path stroke="var(--secondary-color)" stroke-linecap="butt" stroke-linejoin="round" stroke-width="2" d="M135.398 101.84c6.69 0 13.112-2.664 17.805-7.389a25.1 25.1 0 0 0 7.389-17.774 25.177 25.177 0 0 0-7.389-17.806c-4.693-4.724-11.115-7.388-17.805-7.388-6.657 0-13.048 2.664-17.772 7.388a25.169 25.169 0 0 0-7.391 17.806 25.091 25.091 0 0 0 7.391 17.774c4.724 4.725 11.115 7.389 17.772 7.389z"/>
    <path fill="#47d45a" fill-rule="evenodd" d="M297.046 281.16a25.49 25.49 0 0 0 17.94-7.388 25.04 25.04 0 0 0 7.454-17.806c0-6.656-2.696-13.047-7.454-17.772a25.471 25.471 0 0 0-35.88 0 25.04 25.04 0 0 0-7.422 17.772c0 6.688 2.664 13.113 7.422 17.806a25.48 25.48 0 0 0 17.94 7.388z"/>
    <path stroke="var(--secondary-color)" stroke-linecap="butt" stroke-linejoin="round" stroke-width="2" d="M297.046 281.16a25.49 25.49 0 0 0 17.94-7.388 25.04 25.04 0 0 0 7.454-17.806c0-6.656-2.696-13.047-7.454-17.772a25.471 25.471 0 0 0-35.88 0 25.04 25.04 0 0 0-7.422 17.772c0 6.688 2.664 13.113 7.422 17.806a25.48 25.48 0 0 0 17.94 7.388z"/>
    <path fill="var(--secondary-color)" d="M291.385 254.245q1.125-1.375 2.922-1.375 3.125 0 3.156 3.516v6.516h-1.687v-6.516q-.016-1.078-.5-1.578-.47-.516-1.485-.516-.812 0-1.437.438-.61.437-.969 1.156v7.016h-1.672v-14h1.672v5.343zM303.848 261.058v.953h-.203q-1.313.016-2.094.781-.765.75-.89 2.11.687-.797 1.906-.797 1.156 0 1.844.812.687.813.687 2.094 0 1.375-.75 2.203-.734.813-1.984.813-1.282 0-2.078-.97-.782-.984-.782-2.515v-.437q0-2.438 1.047-3.719 1.047-1.297 3.094-1.328h.203zm-1.469 3.984q-.578 0-1.062.344-.485.344-.672.86v.421q0 1.094.484 1.766.5.656 1.235.656.75 0 1.187-.547.438-.562.438-1.469 0-.906-.453-1.468-.438-.563-1.157-.563z"/>
    <path fill="none" d="M275.378 182.65h47.433v37.166h-47.433z"/>
    <path fill="var(--secondary-color)" d="M299.416 197.98v5.704q.015 1.016.562 1.016.141 0 .25-.047l.172.984q-.344.25-.875.25-1.062 0-1.328-1.187-.766 1.187-2.266 1.187-1.375 0-2.187-1.015-.813-1.016-.813-2.766v-.11q0-1.89.797-3.015.813-1.14 2.22-1.14 1.452 0 2.218 1.156l.125-1.016h1.125zm-5.156 4.173q0 1.25.515 1.953.516.687 1.485.687 1.234 0 1.828-1.328v-3.187q-.61-1.344-1.813-1.344-.953 0-1.484.813-.531.812-.531 2.406zM303.961 211.23h-.875v-5.874l-1.78.656v-.812l2.53-.938h.125v6.969z"/>
    <path fill="none" d="M238.41 198.17h47.433v37.166h-47.434z"/>
    <path fill="var(--secondary-color)" d="M262.447 213.5v5.704q.016 1.015.563 1.015.14 0 .25-.047l.172.985q-.344.25-.875.25-1.063 0-1.328-1.188-.766 1.188-2.266 1.188-1.375 0-2.188-1.016-.812-1.015-.812-2.765v-.11q0-1.89.797-3.015.812-1.141 2.219-1.141 1.453 0 2.218 1.156l.125-1.015h1.125zm-5.156 4.172q0 1.25.516 1.954.515.687 1.484.687 1.234 0 1.828-1.328v-3.188q-.61-1.343-1.812-1.343-.953 0-1.485.812-.53.813-.53 2.406zM268.65 226.75h-4.548v-.64l2.407-2.656q.53-.61.734-.985.203-.39.203-.797 0-.53-.328-.875-.328-.359-.875-.359-.656 0-1.031.375-.36.375-.36 1.047h-.89q0-.969.609-1.547.625-.594 1.672-.594.969 0 1.531.516.563.5.563 1.344 0 1.015-1.313 2.437l-1.86 2.016h3.485v.719z"/>
    <path fill="none" d="M223.165 247.41h47.433v37.165h-47.433z"/>
    <path fill="var(--secondary-color)" d="M247.203 262.74v5.703q.016 1.015.563 1.015.14 0 .25-.047l.172.985q-.344.25-.875.25-1.063 0-1.328-1.188-.766 1.188-2.266 1.188-1.375 0-2.188-1.016-.812-1.016-.812-2.766v-.109q0-1.89.797-3.016.812-1.14 2.219-1.14 1.453 0 2.218 1.156l.125-1.016h1.125zm-5.156 4.171q0 1.25.516 1.953.515.688 1.484.688 1.234 0 1.828-1.328v-3.188q-.61-1.343-1.812-1.343-.953 0-1.485.812-.531.813-.531 2.406zM250.14 272.083h.656q.625 0 .984-.312.36-.328.36-.875 0-1.22-1.22-1.22-.562 0-.906.33-.343.327-.343.858h-.875q0-.828.593-1.359.61-.547 1.532-.547.984 0 1.547.516.562.515.562 1.437 0 .453-.297.89-.297.423-.797.626.563.187.875.61.313.406.313 1.015 0 .937-.61 1.484-.609.547-1.593.547-.97 0-1.578-.531-.61-.531-.61-1.39h.875q0 .546.36.874.359.328.968.328.64 0 .969-.328.344-.343.344-.968 0-.594-.375-.922-.375-.328-1.078-.344h-.657v-.719z"/>
    <path fill="none" d="M292.022 286.07h47.433v37.165h-47.433z"/>
    <path fill="var(--secondary-color)" d="M316.06 301.4v5.703q.016 1.015.563 1.015.14 0 .25-.047l.172.985q-.344.25-.875.25-1.063 0-1.329-1.188-.765 1.188-2.265 1.188-1.375 0-2.188-1.016-.812-1.015-.812-2.765v-.11q0-1.89.797-3.015.812-1.141 2.218-1.141 1.454 0 2.22 1.156l.124-1.015h1.125zm-5.156 4.171q0 1.25.516 1.954.515.687 1.484.687 1.234 0 1.828-1.328v-3.188q-.61-1.343-1.812-1.343-.954 0-1.485.812-.531.813-.531 2.406zM321.434 312.321h.969v.72h-.97v1.609h-.874v-1.61h-3.172v-.515l3.11-4.813h.937v4.61zm-3.047 0h2.172v-3.406l-.11.188-2.062 3.218z"/>
    <path fill="none" d="M327.197 228.661h47.433v37.166h-47.433z"/>
    <path fill="var(--secondary-color)" d="M351.235 243.991v5.704q.015 1.015.562 1.015.14 0 .25-.047l.172.985q-.344.25-.875.25-1.062 0-1.328-1.188-.766 1.188-2.266 1.188-1.375 0-2.187-1.016-.813-1.016-.813-2.766v-.109q0-1.89.797-3.016.813-1.14 2.219-1.14 1.453 0 2.219 1.156l.125-1.016h1.125zm-5.157 4.172q0 1.25.516 1.953.516.688 1.484.688 1.235 0 1.829-1.328v-3.188q-.61-1.343-1.813-1.343-.953 0-1.484.812-.532.813-.532 2.406zM353.296 253.757l.344-3.453h3.562v.812h-2.812l-.203 1.891q.515-.297 1.156-.297.953 0 1.5.625.562.625.562 1.688 0 1.078-.578 1.703-.578.61-1.61.61-.921 0-1.515-.5-.578-.516-.656-1.423h.828q.094.594.438.907.343.296.906.296.61 0 .953-.421.36-.422.36-1.157 0-.703-.391-1.125-.375-.422-1-.422-.578 0-.907.266l-.234.188-.703-.188z"/>
  </g>
</svg>
