<svg xmlns="http://www.w3.org/2000/svg" xml:space="preserve" overflow="hidden" viewBox="0 0 3827 1412">
  <script type="text/ecmascript" href="../../scripts/color.js"/>
  <path d="m2284 1068 561-855-19.68 594.07L2284 1068Z" fill="#47D45A" fill-rule="evenodd" fill-opacity=".251"/>
  <path stroke="var(--secondary-color)" stroke-width="6.875" stroke-miterlimit="8" fill="none" d="M7.5 6.5h1880v1401H7.5zM1939.5 6.5h1880v1401h-1880z"/>
  <path d="m2846 212.003-21.4 595.377L2282 1071M3439 928l-616-120" stroke="var(--secondary-color)" stroke-width="12.217" stroke-linecap="round" stroke-linejoin="round" stroke-miterlimit="10" fill="none"/>
  <path d="M2281 1071.19 2944.07 1287 3442 927.27l-598.04-717.266L2281 1071.19Z" stroke="var(--secondary-color)" stroke-width="12.217" stroke-linecap="round" stroke-linejoin="round" stroke-miterlimit="10" fill="none"/>
  <path d="M2846 212.003 2944 1287" stroke="#83CBEB" stroke-width="13.75" stroke-linecap="round" stroke-linejoin="round" stroke-miterlimit="10" fill="#FFF" fill-rule="evenodd" fill-opacity=".722"/>
  <path d="m114 1226 414.827-955L1780 730.65 114 1226Z" stroke="var(--secondary-color)" stroke-width="10.313" stroke-linejoin="round" stroke-miterlimit="10" fill="none"/>
  <text fill="#47D45A" font-family="Arial,Arial_MSFontService,sans-serif" font-weight="400" font-size="83" transform="rotate(-16.77 4203.281 -2346.037)">Facet</text>
  <text fill="#83CBEB" font-family="Arial,Arial_MSFontService,sans-serif" font-weight="400" font-size="83" transform="translate(350.91 215)">SubFacet</text>
  <text fill="#47D45A" font-family="Arial,Arial_MSFontService,sans-serif" font-weight="400" font-size="83" transform="rotate(-56.755 1866.047 -1951.467)">Facet</text>
  <text fill="#83CBEB" font-family="Arial,Arial_MSFontService,sans-serif" font-weight="400" font-size="83" transform="translate(2945.69 989)">SubFacet</text>
  <path d="M508.5 272c0-11.874 9.626-21.5 21.5-21.5s21.5 9.626 21.5 21.5-9.626 21.5-21.5 21.5-21.5-9.626-21.5-21.5Z" stroke="#83CBEB" stroke-width="6.875" stroke-miterlimit="8" fill="#83CBEB" fill-rule="evenodd"/>
  <path d="M114 1225.3 1790.4 727" stroke="#47D45A" stroke-width="13.75" stroke-miterlimit="8" fill="none"/>
  <path d="M1759.5 728.5c0-11.6 9.4-21 21-21s21 9.4 21 21-9.4 21-21 21-21-9.4-21-21ZM93.5 1225c0-11.87 9.626-21.5 21.5-21.5s21.5 9.63 21.5 21.5-9.626 21.5-21.5 21.5-21.5-9.63-21.5-21.5Z" stroke="var(--secondary-color)" stroke-width="6.875" stroke-miterlimit="8" fill="var(--secondary-color)" fill-rule="evenodd"/>
</svg>
