<svg viewBox="0 0 49 49" fill="none" xmlns="http://www.w3.org/2000/svg"> 
    <script type="text/ecmascript">
        // change color based on local storage
        function changeColor(theme) {
          // Update CSS variable values based on the theme
          const root = document.documentElement;
          root.style.setProperty('--primary-color', theme === 'light' ? 'white' : '#252a34');
          root.style.setProperty('--secondary-color', theme === 'light' ? '#252a34' : '#eaeaea');
        }

        // Initially update color
        let data = localStorage.getItem('theme');
        changeColor(data);

        // Check for changes in the theme when the storage event occurs
        window.addEventListener('storage', function(event) {
          if (event.key === 'theme') {
            changeColor(event.newValue);
          }
        });
    </script>
    <path d="M 25 2 C 12.309295 2 2 12.309295 2 25 C 2 37.690705 12.309295 48 25 48 C 37.690705 48 48 37.690705 48 25 C 48 12.309295 37.690705 2 25 2 z M 25 4 C 36.609824 4 46 13.390176 46 25 C 46 36.609824 36.609824 46 25 46 C 13.390176 46 4 36.609824 4 25 C 4 13.390176 13.390176 4 25 4 z M 24.984375 6.9863281 A 1.0001 1.0001 0 0 0 24 8 L 24 22.173828 A 3 3 0 0 0 22 25 A 3 3 0 0 0 22.294922 26.291016 L 16.292969 32.292969 A 1.0001 1.0001 0 1 0 17.707031 33.707031 L 23.708984 27.705078 A 3 3 0 0 0 25 28 A 3 3 0 0 0 28 25 A 3 3 0 0 0 26 22.175781 L 26 8 A 1.0001 1.0001 0 0 0 24.984375 6.9863281 z" stroke="var(--secondary-color)" stroke-width="2" stroke-linecap="round" stroke-linejoin="round"/>
</svg>