<svg xmlns="http://www.w3.org/2000/svg" xmlns:xlink="http://www.w3.org/1999/xlink" version="1.1" width="375pt" height="375pt" viewBox="0 0 375 375">
<g clip-path="url(#clip_2)">
<path transform="matrix(.75,0,0,.75,-.00000000000008526513,-.00000000000008526513)" d="M250.001 500C112.15 500 0 387.85 0 250.001 0 112.15 112.15 0 250.001 0 387.85 0 500 112.15 500 250.001 500 387.85 387.85 500 250.001 500ZM250.001 4.43C114.593 4.43 4.43 114.593 4.43 250.001 4.43 385.40803 114.593 495.56703 250.00099 495.56703 385.40699 495.56703 495.56599 385.40803 495.56599 250.00102 495.567 114.593 385.407 4.43 250.001 4.43Z" fill="#fff"/>
</g>
<g clip-path="url(#clip_3)">
<text fill="#fff" xml:space="preserve" transform="matrix(1.401699 0 0 1.401699 32.658277 38.219057)" font-size="152.81" font-family="Cinzel"><tspan y="152" x="24.734375 74.2406">JG</tspan></text>
</g>
</svg>
