<svg xmlns="http://www.w3.org/2000/svg" xml:space="preserve" overflow="hidden" viewBox="0 0 3529 1994">
  <script type="text/ecmascript" href="../../scripts/color.js"/>
  <path stroke="var(--secondary-color)" stroke-width="6.875" stroke-miterlimit="8" fill="none" d="M5.5 4.5h3520v1986H5.5z"/>
  <path d="M1132.5 750c0-8.008 6.49-14.5 14.5-14.5s14.5 6.492 14.5 14.5-6.49 14.5-14.5 14.5-14.5-6.492-14.5-14.5ZM1008.5 1246c0-8.01 6.49-14.5 14.5-14.5s14.5 6.49 14.5 14.5-6.49 14.5-14.5 14.5-14.5-6.49-14.5-14.5ZM1503.5 253c0-8.008 6.49-14.5 14.5-14.5s14.5 6.492 14.5 14.5-6.49 14.5-14.5 14.5-14.5-6.492-14.5-14.5ZM2989.5 998c0-8.01 6.49-14.5 14.5-14.5s14.5 6.49 14.5 14.5-6.49 14.5-14.5 14.5-14.5-6.49-14.5-14.5ZM3236.5 1121c0-8.01 6.49-14.5 14.5-14.5s14.5 6.49 14.5 14.5-6.49 14.5-14.5 14.5-14.5-6.49-14.5-14.5ZM2739.5 1492c0-8.01 6.49-14.5 14.5-14.5s14.5 6.49 14.5 14.5-6.49 14.5-14.5 14.5-14.5-6.49-14.5-14.5ZM2492.5 1616c0-8.01 6.49-14.5 14.5-14.5s14.5 6.49 14.5 14.5-6.49 14.5-14.5 14.5-14.5-6.49-14.5-14.5Z" stroke="var(--secondary-color)" stroke-width="6.875" stroke-miterlimit="8" fill="var(--secondary-color)" fill-rule="evenodd"/>
  <path d="M1768.94 260.301V1736.45h-6.88V260.301Zm-22.45 25.773 19.01-32.59 19.01 32.59c.96 1.64.4 3.745-1.24 4.701a3.436 3.436 0 0 1-4.7-1.237l-16.04-27.5h5.94l-16.04 27.5a3.436 3.436 0 0 1-4.7 1.237 3.435 3.435 0 0 1-1.24-4.701Zm38.02 1424.586-19.01 32.59-19.01-32.59c-.96-1.64-.4-3.74 1.24-4.7 1.64-.95 3.74-.4 4.7 1.24l16.04 27.5h-5.94l16.04-27.5a3.443 3.443 0 0 1 4.7-1.24c1.64.96 2.2 3.06 1.24 4.7Z" fill="var(--secondary-color)"/>
  <path d="M282.328 994.06H3243.66v6.88H282.328Zm25.746 22.45-32.59-19.01 32.59-19.01c1.64-.96 3.745-.4 4.702 1.24a3.437 3.437 0 0 1-1.238 4.7l-27.5 16.04v-5.94l27.5 16.04a3.437 3.437 0 0 1 1.238 4.7 3.436 3.436 0 0 1-4.702 1.24Zm2909.846-38.02 32.59 19.01-32.59 19.01c-1.64.96-3.75.4-4.71-1.24-.95-1.64-.4-3.74 1.24-4.7l27.5-16.04v5.94l-27.5-16.04a3.443 3.443 0 0 1-1.24-4.7c.96-1.64 3.07-2.2 4.71-1.24Z" fill="var(--secondary-color)"/>
  <path d="M1023.5 4.5v1242.34" stroke="var(--secondary-color)" stroke-width="6.875" stroke-miterlimit="8" stroke-dasharray="27.5 20.625" fill="none"/>
  <path d="m1147.23 748.5-123.731 497.821" stroke="var(--secondary-color)" stroke-width="6.875" stroke-miterlimit="8" fill="none"/>
  <text font-family="Aptos,Aptos_MSFontService,sans-serif" font-weight="400" font-size="83" transform="translate(3231.57 953)" fill="var(--secondary-color)">x</text>
  <text font-family="Aptos,Aptos_MSFontService,sans-serif" font-weight="400" font-size="83" transform="translate(1831.87 293)" fill="var(--secondary-color)">y</text>
  <path d="M1023.5 829.5c35.14 0 69.36 11.22 97.68 32.02" stroke="var(--secondary-color)" stroke-width="6.875" stroke-miterlimit="8" fill="none"/>
  <path d="M1146.5 4.5v752.452M1517.72 252.5l-371.222 504.37" stroke="var(--secondary-color)" stroke-width="6.875" stroke-miterlimit="8" stroke-dasharray="27.5 20.625" fill="none"/>
</svg>
