<svg xmlns="http://www.w3.org/2000/svg" xml:space="preserve" overflow="hidden" viewBox="0 50 3000 1625">
  <script type="text/ecmascript" href="../../scripts/color.js"/>
  <path d="M34.5 826.6c0-15.52 12.626-28.1 28.2-28.1h507.6c15.57 0 28.2 12.58 28.2 28.1v224.8c0 15.52-12.63 28.1-28.2 28.1H62.7c-15.574 0-28.2-12.58-28.2-28.1V826.6Z" stroke="var(--secondary-color)" stroke-width="9.167" stroke-miterlimit="8" fill="#B4E5A2" fill-rule="evenodd"/>
  <text font-family="Arial,Arial_MSFontService,sans-serif" font-weight="400" font-size="215" transform="translate(133.166 1006)">a&lt;b</text>
  <path d="m597.61 938.48 225.35-404.917" stroke="var(--secondary-color)" stroke-width="6.875" stroke-miterlimit="8" fill="none"/>
  <path d="M823.5 421.6c0-15.519 12.6-28.1 28.15-28.1h506.7c15.55 0 28.15 12.581 28.15 28.1v224.8c0 15.52-12.6 28.1-28.15 28.1h-506.7c-15.55 0-28.15-12.58-28.15-28.1V421.6Z" stroke="var(--secondary-color)" stroke-width="9.167" stroke-miterlimit="8" fill="#B4E5A2" fill-rule="evenodd"/>
  <text font-family="Arial,Arial_MSFontService,sans-serif" font-weight="400" font-size="215" transform="translate(927.9 601)">a&lt;c</text>
  <path d="m1386.33 533.563 225.34-161.968" stroke="var(--secondary-color)" stroke-width="6.875" stroke-miterlimit="8" fill="none"/>
  <path d="M1612.5 259.6c0-15.519 12.6-28.1 28.15-28.1h506.7c15.55 0 28.15 12.581 28.15 28.1v224.8c0 15.519-12.6 28.1-28.15 28.1h-506.7c-15.55 0-28.15-12.581-28.15-28.1V259.6Z" stroke="var(--secondary-color)" stroke-width="9.167" stroke-miterlimit="8" fill="#B4E5A2" fill-rule="evenodd"/>
  <text font-family="Arial,Arial_MSFontService,sans-serif" font-weight="400" font-size="215" transform="translate(1716.61 439)">b&lt;c</text>
  <path d="m2175.04 371.595 225.35-161.968" stroke="var(--secondary-color)" stroke-width="6.875" stroke-miterlimit="8" fill="none"/>
  <path d="M2400.5 97.6c0-15.519 12.63-28.1 28.2-28.1h507.6c15.57 0 28.2 12.581 28.2 28.1v224.8c0 15.519-12.63 28.1-28.2 28.1h-507.6c-15.57 0-28.2-12.581-28.2-28.1V97.6Z" stroke="var(--secondary-color)" stroke-width="9.167" stroke-miterlimit="8" fill="#83CBEB" fill-rule="evenodd"/>
  <text font-family="Arial,Arial_MSFontService,sans-serif" font-weight="400" font-size="215" transform="translate(2508.48 277)">cba</text>
  <path d="m2175.04 371.595 225.35 161.968" stroke="var(--secondary-color)" stroke-width="6.875" stroke-miterlimit="8" fill="none"/>
  <path d="M2400.5 421.6c0-15.519 12.63-28.1 28.2-28.1h507.6c15.57 0 28.2 12.581 28.2 28.1v224.8c0 15.52-12.63 28.1-28.2 28.1h-507.6c-15.57 0-28.2-12.58-28.2-28.1V421.6Z" stroke="var(--secondary-color)" stroke-width="9.167" stroke-miterlimit="8" fill="#83CBEB" fill-rule="evenodd"/>
  <text font-family="Arial,Arial_MSFontService,sans-serif" font-weight="400" font-size="215" transform="translate(2508.48 601)">bca</text>
  <path d="m1386.33 533.563 225.34 161.967" stroke="var(--secondary-color)" stroke-width="6.875" stroke-miterlimit="8" fill="none"/>
  <path d="M1612.5 583.6c0-15.519 12.6-28.1 28.15-28.1h506.7c15.55 0 28.15 12.581 28.15 28.1v224.8c0 15.52-12.6 28.1-28.15 28.1h-506.7c-15.55 0-28.15-12.58-28.15-28.1V583.6Z" stroke="var(--secondary-color)" stroke-width="9.167" stroke-miterlimit="8" fill="#83CBEB" fill-rule="evenodd"/>
  <text font-family="Arial,Arial_MSFontService,sans-serif" font-weight="400" font-size="215" transform="translate(1719.76 763)">bac</text>
  <path d="m597.61 938.48 225.35 404.92" stroke="var(--secondary-color)" stroke-width="6.875" stroke-miterlimit="8" fill="none"/>
  <path d="M823.5 1231.6c0-15.52 12.6-28.1 28.15-28.1h506.7c15.55 0 28.15 12.58 28.15 28.1v224.8c0 15.52-12.6 28.1-28.15 28.1h-506.7c-15.55 0-28.15-12.58-28.15-28.1v-224.8Z" stroke="var(--secondary-color)" stroke-width="9.167" stroke-miterlimit="8" fill="#B4E5A2" fill-rule="evenodd"/>
  <text font-family="Arial,Arial_MSFontService,sans-serif" font-weight="400" font-size="215" transform="translate(927.9 1411)">b&lt;c</text>
  <path d="m1386.33 1343.4 225.34-161.96" stroke="var(--secondary-color)" stroke-width="6.875" stroke-miterlimit="8" fill="none"/>
  <path d="M1612.5 1069.6c0-15.52 12.6-28.1 28.15-28.1h506.7c15.55 0 28.15 12.58 28.15 28.1v224.8c0 15.52-12.6 28.1-28.15 28.1h-506.7c-15.55 0-28.15-12.58-28.15-28.1v-224.8Z" stroke="var(--secondary-color)" stroke-width="9.167" stroke-miterlimit="8" fill="#B4E5A2" fill-rule="evenodd"/>
  <text font-family="Arial,Arial_MSFontService,sans-serif" font-weight="400" font-size="215" transform="translate(1716.61 1249)">a&lt;c</text>
  <path d="m2175.04 1181.44 225.35-161.97" stroke="var(--secondary-color)" stroke-width="6.875" stroke-miterlimit="8" fill="none"/>
  <path d="M2400.5 907.6c0-15.52 12.63-28.1 28.2-28.1h507.6c15.57 0 28.2 12.58 28.2 28.1v224.8c0 15.52-12.63 28.1-28.2 28.1h-507.6c-15.57 0-28.2-12.58-28.2-28.1V907.6Z" stroke="var(--secondary-color)" stroke-width="9.167" stroke-miterlimit="8" fill="#83CBEB" fill-rule="evenodd"/>
  <text font-family="Arial,Arial_MSFontService,sans-serif" font-weight="400" font-size="215" transform="translate(2508.48 1087)">cab</text>
  <path d="m2175.04 1181.44 225.35 161.96" stroke="var(--secondary-color)" stroke-width="6.875" stroke-miterlimit="8" fill="none"/>
  <path d="M2400.5 1231.6c0-15.52 12.63-28.1 28.2-28.1h507.6c15.57 0 28.2 12.58 28.2 28.1v224.8c0 15.52-12.63 28.1-28.2 28.1h-507.6c-15.57 0-28.2-12.58-28.2-28.1v-224.8Z" stroke="var(--secondary-color)" stroke-width="9.167" stroke-miterlimit="8" fill="#83CBEB" fill-rule="evenodd"/>
  <text font-family="Arial,Arial_MSFontService,sans-serif" font-weight="400" font-size="215" transform="translate(2508.48 1411)">acb</text>
  <path d="m1386.33 1343.4 225.34 161.97" stroke="var(--secondary-color)" stroke-width="6.875" stroke-miterlimit="8" fill="none"/>
  <path d="M1612.5 1393.6c0-15.52 12.6-28.1 28.15-28.1h506.7c15.55 0 28.15 12.58 28.15 28.1v224.8c0 15.52-12.6 28.1-28.15 28.1h-506.7c-15.55 0-28.15-12.58-28.15-28.1v-224.8Z" stroke="var(--secondary-color)" stroke-width="9.167" stroke-miterlimit="8" fill="#83CBEB" fill-rule="evenodd"/>
  <text font-family="Arial,Arial_MSFontService,sans-serif" font-weight="400" font-size="215" transform="translate(1719.76 1573)">abc</text>
  <text font-family="Arial,Arial_MSFontService,sans-serif" font-weight="400" font-size="83" transform="translate(569.89 725)" fill="var(--secondary-color)">No</text>
  <text font-family="Arial,Arial_MSFontService,sans-serif" font-weight="400" font-size="83" transform="translate(550.82 1215)" fill="var(--secondary-color)">Yes</text>
  <text font-family="Arial,Arial_MSFontService,sans-serif" font-weight="400" font-size="83" transform="translate(1445.45 401)" fill="var(--secondary-color)">No</text>
  <text font-family="Arial,Arial_MSFontService,sans-serif" font-weight="400" font-size="83" transform="translate(1438.15 729)" fill="var(--secondary-color)">Yes</text>
  <text font-family="Arial,Arial_MSFontService,sans-serif" font-weight="400" font-size="83" transform="translate(1431.71 1539)" fill="var(--secondary-color)">Yes</text>
  <text font-family="Arial,Arial_MSFontService,sans-serif" font-weight="400" font-size="83" transform="translate(1441.25 1211)" fill="var(--secondary-color)">No</text>
  <text font-family="Arial,Arial_MSFontService,sans-serif" font-weight="400" font-size="83" transform="translate(2236.54 236)" fill="var(--secondary-color)">No</text>
  <text font-family="Arial,Arial_MSFontService,sans-serif" font-weight="400" font-size="83" transform="translate(2233 1046)" fill="var(--secondary-color)">No</text>
  <text font-family="Arial,Arial_MSFontService,sans-serif" font-weight="400" font-size="83" transform="translate(2224.67 568)" fill="var(--secondary-color)">Yes</text>
  <text font-family="Arial,Arial_MSFontService,sans-serif" font-weight="400" font-size="83" transform="translate(2224.67 1377)" fill="var(--secondary-color)">Yes</text>
</svg>
