<svg xmlns="http://www.w3.org/2000/svg" xml:space="preserve" overflow="hidden" viewBox="0 0 1449 595">
  <script type="text/ecmascript" href="../../scripts/color.js"/>
  <path d="M1113.63 225.5h320.74c6.08 0 9.13-3.05 9.13-9.14V19.643c0-6.095-3.05-9.143-9.13-9.143h-320.74c-6.08 0-9.13 3.048-9.13 9.143V216.36c0 6.09 3.05 9.14 9.13 9.14Z" stroke="var(--secondary-color)" stroke-width="4.571" stroke-miterlimit="8" stroke-opacity=".8" fill="none" fill-rule="evenodd" fill-opacity=".8"/>
  <path d="m74 507 746-4.14L605.87 285 74 507Z" fill="var(--secondary-color)" fill-rule="evenodd" fill-opacity=".251"/>
  <path d="M604 284.61 822.55 503 835 22 604 284.61Z" fill="var(--secondary-color)" fill-rule="evenodd" fill-opacity=".251"/>
  <path d="m74 507.84 530.91-222.52L833 22 521.03 573 74 507.84Z" fill="#83CBEB" fill-rule="evenodd" fill-opacity=".251"/>
  <path d="m832.5 23.5-759 485M605.5 285.5l-85 289M520.5 574.5l-511-444M73.5 508.5l-64-378M832.5 23.5l-823 107M605.5 285.5l-596-155" stroke="#B4E5A2" stroke-width="6.856" stroke-linecap="square" stroke-linejoin="round" stroke-miterlimit="10" fill="none"/>
  <path d="M73 506.37 521.44 574 820 504l-747 2.37Z" fill="var(--secondary-color)" fill-rule="evenodd" fill-opacity=".251"/>
  <path d="m73.5 508.5 447 66M832.5 23.5l-312 551M605.5 285.5l227-262M605.5 285.5l-532 223" stroke="#83CBEB" stroke-width="6.856" stroke-linecap="square" stroke-linejoin="round" stroke-miterlimit="10" fill="none"/>
  <path d="M819.62 518.08c4.37 0 8.57-1.74 11.66-4.83 3.1-3.09 4.84-7.29 4.84-11.67a16.51 16.51 0 0 0-16.5-16.5c-4.38 0-8.58 1.74-11.67 4.83a16.5 16.5 0 0 0-4.83 11.67c0 4.38 1.73 8.58 4.83 11.67 3.09 3.09 7.29 4.83 11.67 4.83Z" fill="var(--secondary-color)" fill-rule="evenodd"/>
  <path d="M1122.5 47.5h91" stroke="#B4E5A2" stroke-width="6.856" stroke-linecap="square" stroke-linejoin="round" stroke-miterlimit="10" fill="none"/>
  <path d="M1122.5 114.5h91" stroke="#83CBEB" stroke-width="6.856" stroke-linecap="square" stroke-linejoin="round" stroke-miterlimit="10" fill="none"/>
  <path d="M1167.61 201.03c4.38 0 8.58-1.69 11.67-4.685 3.09-3.001 4.83-7.071 4.83-11.315 0-4.243-1.74-8.313-4.83-11.313-3.09-3.001-7.29-4.686-11.67-4.686-4.37 0-8.57 1.685-11.67 4.686-3.09 3-4.83 7.07-4.83 11.313 0 4.244 1.74 8.314 4.83 11.315 3.1 2.995 7.3 4.685 11.67 4.685Z" fill="var(--secondary-color)" fill-rule="evenodd"/>
  <path d="m835.86 24.5-12.365 478.675M605.5 285.5l217.64 217.14M74.5 507.27l748.839-4.768M519.5 576.2l303.549-73.7" stroke="var(--secondary-color)" stroke-width="6.875" stroke-miterlimit="8" fill="none"/>
  <path d="M521.09 590.59c4.38 0 8.58-1.74 11.67-4.83 3.09-3.1 4.83-7.3 4.83-11.67 0-4.38-1.74-8.57-4.83-11.67a16.502 16.502 0 0 0-23.33 0c-3.1 3.1-4.84 7.29-4.84 11.67a16.51 16.51 0 0 0 16.5 16.5ZM74.056 524.58a16.494 16.494 0 0 0 11.668-28.16 16.484 16.484 0 0 0-23.335 0 16.494 16.494 0 0 0 11.667 28.16ZM832.61 39.543c4.25 0 8.32-1.686 11.32-4.687 3-3 4.68-7.07 4.68-11.313 0-4.244-1.68-8.314-4.68-11.314a16.001 16.001 0 0 0-22.63 0c-3 3-4.69 7.07-4.69 11.314a16.004 16.004 0 0 0 16 16ZM605.6 302.57c4.24 0 8.31-1.74 11.31-4.84 3-3.09 4.69-7.29 4.69-11.67 0-4.37-1.69-8.57-4.69-11.66-3-3.1-7.07-4.84-11.31-4.84-4.25 0-8.32 1.74-11.32 4.84-3 3.09-4.68 7.29-4.68 11.66 0 4.38 1.68 8.58 4.68 11.67 3 3.1 7.07 4.84 11.32 4.84Z" stroke="#83CBEB" stroke-width="4.571" stroke-linejoin="round" stroke-miterlimit="10" fill="#83CBEB" fill-rule="evenodd"/>
  <text font-family="Arial" font-weight="400" font-size="46" transform="translate(1247.85 65)" fill="var(--secondary-color)">Hull</text>
  <text font-family="Arial" font-weight="400" font-size="46" transform="translate(1247.85 131)" fill="var(--secondary-color)">Horizon</text>
  <text font-family="Arial" font-weight="400" font-size="46" transform="translate(1248.83 202)" fill="var(--secondary-color)">Cone</text>
</svg>
