<svg xmlns="http://www.w3.org/2000/svg" xml:space="preserve" overflow="hidden" viewBox="0 0 3827 1412">
  <script type="text/ecmascript" href="../../scripts/color.js"/>
  <path d="m2047.5 1060.5 412.45 202.18M3557.21 1304.62 2460.5 1262.5" stroke="#83CBEB" stroke-width="6.875" stroke-miterlimit="8" fill="none"/>
  <path d="m114 1059 414.578-955L1779 563.65 114 1059Z" fill="#B4E5A2" fill-rule="evenodd" fill-opacity=".251"/>
  <path d="M116 1058.03 1627.66 1308 1780 562 116 1058.03Z" fill="#83CBEB" fill-rule="evenodd" fill-opacity=".502"/>
  <path d="m2044.5 1060.44 1665.95-496.938" stroke="var(--secondary-color)" stroke-width="6.875" stroke-miterlimit="8" fill="none"/>
  <path d="m3710.94 563.5-153.443 744.331" stroke="#83CBEB" stroke-width="6.875" stroke-miterlimit="8" stroke-dasharray="27.5 20.625" fill="none"/>
  <path d="m2044.5 1060.5 1512.51 247.39" stroke="#83CBEB" stroke-width="6.875" stroke-miterlimit="8" fill="none"/>
  <path d="m113.5 1060.44 1665.95-496.938" stroke="var(--secondary-color)" stroke-width="6.875" stroke-miterlimit="8" fill="none"/>
  <path d="m113.5 1060.35 414.351-953.851M1780.1 563.41 528.5 106.5" stroke="#B4E5A2" stroke-width="6.875" stroke-miterlimit="8" fill="none"/>
  <path d="m1779.94 563.5-153.443 744.331M113.5 1060.5l1512.51 247.39" stroke="#83CBEB" stroke-width="6.875" stroke-miterlimit="8" fill="none"/>
  <path stroke="var(--secondary-color)" stroke-width="6.875" stroke-miterlimit="8" fill="none" d="M7.5 6.5h1880v1401H7.5zM1939.5 6.5h1880v1401h-1880z"/>
  <path d="M513.5 106c0-8.008 6.492-14.5 14.5-14.5s14.5 6.492 14.5 14.5-6.492 14.5-14.5 14.5-14.5-6.492-14.5-14.5Z" stroke="#B4E5A2" stroke-width="6.875" stroke-miterlimit="8" fill="#B4E5A2" fill-rule="evenodd"/>
  <path d="M101.5 1060c0-8.01 6.492-14.5 14.5-14.5s14.5 6.49 14.5 14.5-6.492 14.5-14.5 14.5-14.5-6.49-14.5-14.5ZM580.5 631c0-8.01 6.492-14.5 14.5-14.5s14.5 6.49 14.5 14.5-6.492 14.5-14.5 14.5-14.5-6.49-14.5-14.5ZM484.5 1089c0-8.01 6.492-14.5 14.5-14.5s14.5 6.49 14.5 14.5-6.492 14.5-14.5 14.5-14.5-6.49-14.5-14.5ZM513.5 1262c0-8.01 6.492-14.5 14.5-14.5s14.5 6.49 14.5 14.5-6.492 14.5-14.5 14.5-14.5-6.49-14.5-14.5ZM836.5 1082c0-8.01 6.49-14.5 14.5-14.5s14.5 6.49 14.5 14.5-6.49 14.5-14.5 14.5-14.5-6.49-14.5-14.5ZM1136.5 1135c0-8.01 6.49-14.5 14.5-14.5s14.5 6.49 14.5 14.5-6.49 14.5-14.5 14.5-14.5-6.49-14.5-14.5Z" stroke="var(--secondary-color)" stroke-width="6.875" stroke-miterlimit="8" fill="var(--secondary-color)" fill-rule="evenodd"/>
  <path d="M1611.5 1308c0-8.01 6.49-14.5 14.5-14.5s14.5 6.49 14.5 14.5-6.49 14.5-14.5 14.5-14.5-6.49-14.5-14.5Z" stroke="#83CBEB" stroke-width="6.875" stroke-miterlimit="8" fill="#83CBEB" fill-rule="evenodd"/>
  <path d="M1540.5 979c0-8.01 6.49-14.5 14.5-14.5s14.5 6.49 14.5 14.5-6.49 14.5-14.5 14.5-14.5-6.49-14.5-14.5ZM1136.5 780c0-8.01 6.49-14.5 14.5-14.5s14.5 6.49 14.5 14.5-6.49 14.5-14.5 14.5-14.5-6.49-14.5-14.5ZM1765.5 563c0-8.01 6.49-14.5 14.5-14.5s14.5 6.49 14.5 14.5-6.49 14.5-14.5 14.5-14.5-6.49-14.5-14.5ZM1337.5 429c0-8.008 6.49-14.5 14.5-14.5s14.5 6.492 14.5 14.5-6.49 14.5-14.5 14.5-14.5-6.492-14.5-14.5ZM882.5 481c0-8.01 6.49-14.5 14.5-14.5s14.5 6.49 14.5 14.5-6.49 14.5-14.5 14.5-14.5-6.49-14.5-14.5ZM2033.5 1060c0-8.01 6.49-14.5 14.5-14.5s14.5 6.49 14.5 14.5-6.49 14.5-14.5 14.5-14.5-6.49-14.5-14.5ZM2416.5 1089c0-8.01 6.49-14.5 14.5-14.5s14.5 6.49 14.5 14.5-6.49 14.5-14.5 14.5-14.5-6.49-14.5-14.5Z" stroke="var(--secondary-color)" stroke-width="6.875" stroke-miterlimit="8" fill="var(--secondary-color)" fill-rule="evenodd"/>
  <path d="M2445.5 1262c0-8.01 6.49-14.5 14.5-14.5s14.5 6.49 14.5 14.5-6.49 14.5-14.5 14.5-14.5-6.49-14.5-14.5Z" stroke="#83CBEB" stroke-width="6.875" stroke-miterlimit="8" fill="#83CBEB" fill-rule="evenodd"/>
  <path d="M2768.5 1082c0-8.01 6.49-14.5 14.5-14.5s14.5 6.49 14.5 14.5-6.49 14.5-14.5 14.5-14.5-6.49-14.5-14.5ZM3068.5 1135c0-8.01 6.49-14.5 14.5-14.5s14.5 6.49 14.5 14.5-6.49 14.5-14.5 14.5-14.5-6.49-14.5-14.5Z" stroke="var(--secondary-color)" stroke-width="6.875" stroke-miterlimit="8" fill="var(--secondary-color)" fill-rule="evenodd"/>
  <path d="M3543.5 1308c0-8.01 6.49-14.5 14.5-14.5s14.5 6.49 14.5 14.5-6.49 14.5-14.5 14.5-14.5-6.49-14.5-14.5Z" stroke="#83CBEB" stroke-width="6.875" stroke-miterlimit="8" fill="#83CBEB" fill-rule="evenodd"/>
  <path d="M3472.5 979c0-8.01 6.49-14.5 14.5-14.5s14.5 6.49 14.5 14.5-6.49 14.5-14.5 14.5-14.5-6.49-14.5-14.5ZM3068.5 780c0-8.01 6.49-14.5 14.5-14.5s14.5 6.49 14.5 14.5-6.49 14.5-14.5 14.5-14.5-6.49-14.5-14.5ZM3697.5 563c0-8.01 6.49-14.5 14.5-14.5s14.5 6.49 14.5 14.5-6.49 14.5-14.5 14.5-14.5-6.49-14.5-14.5Z" stroke="var(--secondary-color)" stroke-width="6.875" stroke-miterlimit="8" fill="var(--secondary-color)" fill-rule="evenodd"/>
</svg>
