<svg xmlns="http://www.w3.org/2000/svg" xmlns:xlink="http://www.w3.org/1999/xlink" version="1.1" viewBox="0 0 600 600">
<script type="text/ecmascript" href="../../scripts/color-svg.js"/>
<g>
<path stroke-width="2.25" stroke-linecap="butt" stroke-miterlimit="10" stroke-linejoin="miter" fill="none" stroke="var(--secondary-color)" stroke-opacity=".9" d="M6 0V600"/>
<path stroke-width="2.25" stroke-linecap="butt" stroke-miterlimit="10" stroke-linejoin="miter" fill="none" stroke="var(--secondary-color)" stroke-opacity=".9" d="M0 600H600"/>
<path stroke-width="3.75" stroke-linecap="round" stroke-linejoin="round" fill="none" stroke="var(--secondary-color)" d="M0 43.445 600 413.137"/>
<path d="M5.609 600V46.902H454.445L5.609 600" fill="var(--secondary-color)" fill-opacity=".25"/>
<path stroke-width="3.75" stroke-linecap="round" stroke-linejoin="round" fill="none" stroke="var(--secondary-color)" d="M5.609 600V46.902H454.445L5.609 600"/>
<path stroke-width="3.75" stroke-linecap="round" stroke-linejoin="round" fill="none" stroke="var(--secondary-color)" d="M37.348 560.891 34.219 557.383 30.84 554.254 27.48 551.699 23.953 549.52 20.281 547.73 16.5 546.344 12.633 545.371 8.992 544.848 5.609 544.691"/>
<path stroke-width="3.75" stroke-linecap="round" stroke-linejoin="round" fill="none" stroke="var(--secondary-color)" d="M409.559 46.902 409.852 53.203 410.438 57.781 411.312 62.207 412.48 66.531 413.941 70.738 415.84 75.121 418.031 79.242 420.66 83.32 422.707 86.012"/>
<path stroke-width="3.75" stroke-linecap="round" stroke-linejoin="round" fill="none" stroke="var(--secondary-color)" d="M0 606.914 499.199-8.25"/>
<path stroke-width="3.75" stroke-linecap="round" stroke-linejoin="round" fill="none" stroke="#c74440" d="M5.609 46.902H454.445"/>
<path stroke-width="3.75" stroke-linecap="round" stroke-linejoin="round" fill="none" stroke="#c74440" d="M454.445 323.453H230.027"/>
<path stroke-width="3.75" stroke-linecap="round" stroke-linejoin="round" fill="none" stroke="#c74440" d="M230.027 185.176H342.234"/>
<path stroke-width="3.75" stroke-linecap="round" stroke-linejoin="round" fill="none" stroke="#c74440" d="M342.234 254.312H286.133"/>
<path stroke-width="3.75" stroke-linecap="round" stroke-linejoin="round" fill="none" stroke="#c74440" d="M286.133 219.746H314.184"/>
<path stroke-width="3.75" stroke-linecap="round" stroke-linejoin="round" fill="none" stroke="#c74440" d="M314.184 237.031H300.156"/>
<path stroke-width="3.75" stroke-linecap="round" stroke-linejoin="round" fill="none" stroke="#c74440" d="M300.156 228.387H307.172"/>
<path stroke-width="3.75" stroke-linecap="round" stroke-linejoin="round" fill="none" stroke="#2d70b3" d="M5.609 600V46.902"/>
<path stroke-width="3.75" stroke-linecap="round" stroke-linejoin="round" fill="none" stroke="#2d70b3" d="M454.445 46.902V323.453"/>
<path stroke-width="3.75" stroke-linecap="round" stroke-linejoin="round" fill="none" stroke="#2d70b3" d="M230.027 323.453V185.176"/>
<path stroke-width="3.75" stroke-linecap="round" stroke-linejoin="round" fill="none" stroke="#2d70b3" d="M342.234 185.176V254.312"/>
<path stroke-width="3.75" stroke-linecap="round" stroke-linejoin="round" fill="none" stroke="#2d70b3" d="M286.133 254.312V219.746"/>
<path stroke-width="3.75" stroke-linecap="round" stroke-linejoin="round" fill="none" stroke="#2d70b3" d="M314.184 219.746V237.031"/>
<path stroke-width="3.75" stroke-linecap="round" stroke-linejoin="round" fill="none" stroke="#2d70b3" d="M300.156 237.031V228.387"/>
<path stroke-width="11.25" stroke-linecap="round" stroke-linejoin="round" fill="none" stroke="var(--secondary-color)" d="M5.461 323.301V323.602H5.762V323.301"/>
<path stroke-width="11.25" stroke-linecap="round" stroke-linejoin="round" fill="none" stroke="var(--secondary-color)" d="M229.875 46.754V47.051H230.176V46.754"/>
<path stroke-width="11.25" stroke-linecap="round" stroke-linejoin="round" fill="none" stroke="var(--secondary-color)" d="M454.293 185.027V185.328H454.594V185.027"/>
<path stroke-width="11.25" stroke-linecap="round" stroke-linejoin="round" fill="none" stroke="var(--secondary-color)" d="M342.086 323.301V323.602H342.387V323.301"/>
<path stroke-width="11.25" stroke-linecap="round" stroke-linejoin="round" fill="none" stroke="var(--secondary-color)" d="M229.875 254.164V254.465H230.176V254.164"/>
<path stroke-width="11.25" stroke-linecap="round" stroke-linejoin="round" fill="none" stroke="var(--secondary-color)" d="M285.98 185.027V185.328H286.281V185.027"/>
<path stroke-width="4.5" stroke-linecap="round" stroke-linejoin="round" fill="none" stroke="#ffffff" d="M35.328 319.27H37.25L34.469 325.613C34.594 327.988 35.004 329.176 35.703 329.176 35.941 329.176 36.164 329.051 36.375 328.801 36.594 328.543 36.727 328.219 36.781 327.832H37.312C37.051 329.949 36.445 331.004 35.5 331.004 35.176 331.004 34.875 330.832 34.594 330.488 34.32 330.145 34.082 328.934 33.875 326.848 32.281 329.621 30.488 331.004 28.5 331.004 27.383 331.004 26.484 330.621 25.797 329.848 25.117 329.078 24.781 328.047 24.781 326.754 24.781 325.504 25.094 324.293 25.719 323.113 26.352 321.938 27.141 320.953 28.078 320.16 29.023 319.359 30.07 318.957 31.219 318.957 32.031 318.957 32.664 319.207 33.125 319.707 33.582 320.207 33.898 320.984 34.078 322.035ZM33.578 323.02C33.535 322.395 33.336 321.691 32.984 320.91 32.629 320.121 32.109 319.723 31.422 319.723 30.41 319.723 29.383 320.691 28.344 322.629 27.312 324.566 26.797 326.277 26.797 327.754 26.797 328.566 26.969 329.215 27.312 329.691 27.656 330.172 28.125 330.41 28.719 330.41 29.344 330.41 29.906 330.09 30.406 329.441 30.906 328.797 31.602 327.469 32.5 325.457ZM33.578 323.02"/>
<text xml:space="preserve" transform="matrix(1 0 0 1 0 0)" font-size="26.564999" font-family="TimesNewRomanPS" font-style="italic"><tspan y="330.69319" x="24">&#x03b1;</tspan></text>
<path stroke-width="4.5" stroke-linecap="round" stroke-linejoin="round" fill="none" stroke="#ffffff" d="M234.078 15.52H236L233.219 21.863C233.344 24.238 233.754 25.426 234.453 25.426 234.691 25.426 234.914 25.301 235.125 25.051 235.344 24.793 235.477 24.469 235.531 24.082H236.062C235.801 26.199 235.195 27.254 234.25 27.254 233.926 27.254 233.625 27.082 233.344 26.738 233.07 26.395 232.832 25.184 232.625 23.098 231.031 25.871 229.238 27.254 227.25 27.254 226.133 27.254 225.234 26.871 224.547 26.098 223.867 25.328 223.531 24.297 223.531 23.004 223.531 21.754 223.844 20.543 224.469 19.363 225.102 18.188 225.891 17.203 226.828 16.41 227.773 15.609 228.82 15.207 229.969 15.207 230.781 15.207 231.414 15.457 231.875 15.957 232.332 16.457 232.648 17.234 232.828 18.285ZM232.328 19.27C232.285 18.645 232.086 17.941 231.734 17.16 231.379 16.371 230.859 15.973 230.172 15.973 229.16 15.973 228.133 16.941 227.094 18.879 226.062 20.816 225.547 22.527 225.547 24.004 225.547 24.816 225.719 25.465 226.062 25.941 226.406 26.422 226.875 26.66 227.469 26.66 228.094 26.66 228.656 26.34 229.156 25.691 229.656 25.047 230.352 23.719 231.25 21.707ZM232.328 19.27"/>
<text xml:space="preserve" transform="matrix(1 0 0 1 0 0)" font-size="26.564999" font-family="TimesNewRomanPS" font-style="italic"><tspan y="26.94318" x="222.75">&#x03b1;</tspan></text>
<path stroke-width="4.5" stroke-linecap="round" stroke-linejoin="round" fill="none" stroke="#ffffff" d="M483.828 179.77H485.75L482.969 186.113C483.094 188.488 483.504 189.676 484.203 189.676 484.441 189.676 484.664 189.551 484.875 189.301 485.094 189.043 485.227 188.719 485.281 188.332H485.812C485.551 190.449 484.945 191.504 484 191.504 483.676 191.504 483.375 191.332 483.094 190.988 482.82 190.645 482.582 189.434 482.375 187.348 480.781 190.121 478.988 191.504 477 191.504 475.883 191.504 474.984 191.121 474.297 190.348 473.617 189.578 473.281 188.547 473.281 187.254 473.281 186.004 473.594 184.793 474.219 183.613 474.852 182.438 475.641 181.453 476.578 180.66 477.523 179.859 478.57 179.457 479.719 179.457 480.531 179.457 481.164 179.707 481.625 180.207 482.082 180.707 482.398 181.484 482.578 182.535ZM482.078 183.52C482.035 182.895 481.836 182.191 481.484 181.41 481.129 180.621 480.609 180.223 479.922 180.223 478.91 180.223 477.883 181.191 476.844 183.129 475.812 185.066 475.297 186.777 475.297 188.254 475.297 189.066 475.469 189.715 475.812 190.191 476.156 190.672 476.625 190.91 477.219 190.91 477.844 190.91 478.406 190.59 478.906 189.941 479.406 189.297 480.102 187.969 481 185.957ZM482.078 183.52"/>
<path stroke-width="4.5" stroke-linecap="round" stroke-linejoin="round" fill="none" stroke="#ffffff" d="M487.82 180.176 492.305 179.457 490.43 185.754C491.949 183.172 493.324 181.363 494.555 180.332 495.262 179.75 495.836 179.457 496.273 179.457 496.555 179.457 496.777 179.543 496.945 179.707 497.109 179.875 497.195 180.121 497.195 180.441 497.195 181.016 497.047 181.559 496.758 182.066 496.547 182.465 496.246 182.66 495.852 182.66 495.652 182.66 495.48 182.598 495.336 182.473 495.199 182.34 495.117 182.137 495.086 181.863 495.062 181.699 495.023 181.59 494.961 181.535 494.887 181.473 494.805 181.441 494.711 181.441 494.562 181.441 494.43 181.473 494.305 181.535 494.074 181.66 493.73 182 493.273 182.551 492.555 183.406 491.777 184.504 490.945 185.848 490.578 186.422 490.266 187.066 490.008 187.785 489.641 188.766 489.434 189.355 489.383 189.551L488.977 191.191H486.992L489.383 183.145C489.664 182.207 489.805 181.543 489.805 181.145 489.805 180.988 489.734 180.859 489.602 180.754 489.434 180.621 489.203 180.551 488.914 180.551 488.734 180.551 488.402 180.59 487.914 180.66ZM487.82 180.176"/>
<text xml:space="preserve" transform="matrix(1 0 0 1 0 0)" font-size="26.564999" font-family="TimesNewRomanPS" font-style="italic"><tspan y="191.19318" x="472.5">&#x03b1;</tspan></text>
<text xml:space="preserve" transform="matrix(1 0 0 1 0 0)" font-size="26.564999" font-family="TimesNewRomanPS" font-style="italic"><tspan y="191.19318" x="486.42008">r</tspan></text>
<path stroke-width="4.5" stroke-linecap="round" stroke-linejoin="round" fill="none" stroke="#ffffff" d="M341.328 293.02H343.25L340.469 299.363C340.594 301.738 341.004 302.926 341.703 302.926 341.941 302.926 342.164 302.801 342.375 302.551 342.594 302.293 342.727 301.969 342.781 301.582H343.312C343.051 303.699 342.445 304.754 341.5 304.754 341.176 304.754 340.875 304.582 340.594 304.238 340.32 303.895 340.082 302.684 339.875 300.598 338.281 303.371 336.488 304.754 334.5 304.754 333.383 304.754 332.484 304.371 331.797 303.598 331.117 302.828 330.781 301.797 330.781 300.504 330.781 299.254 331.094 298.043 331.719 296.863 332.352 295.688 333.141 294.703 334.078 293.91 335.023 293.109 336.07 292.707 337.219 292.707 338.031 292.707 338.664 292.957 339.125 293.457 339.582 293.957 339.898 294.734 340.078 295.785ZM339.578 296.77C339.535 296.145 339.336 295.441 338.984 294.66 338.629 293.871 338.109 293.473 337.422 293.473 336.41 293.473 335.383 294.441 334.344 296.379 333.312 298.316 332.797 300.027 332.797 301.504 332.797 302.316 332.969 302.965 333.312 303.441 333.656 303.922 334.125 304.16 334.719 304.16 335.344 304.16 335.906 303.84 336.406 303.191 336.906 302.547 337.602 301.219 338.5 299.207ZM339.578 296.77"/>
<path stroke-width="4.5" stroke-linecap="round" stroke-linejoin="round" fill="none" stroke="#ffffff" d="M345.32 293.426 349.805 292.707 347.93 299.004C349.449 296.422 350.824 294.613 352.055 293.582 352.762 293 353.336 292.707 353.773 292.707 354.055 292.707 354.277 292.793 354.445 292.957 354.609 293.125 354.695 293.371 354.695 293.691 354.695 294.266 354.547 294.809 354.258 295.316 354.047 295.715 353.746 295.91 353.352 295.91 353.152 295.91 352.98 295.848 352.836 295.723 352.699 295.59 352.617 295.387 352.586 295.113 352.562 294.949 352.523 294.84 352.461 294.785 352.387 294.723 352.305 294.691 352.211 294.691 352.062 294.691 351.93 294.723 351.805 294.785 351.574 294.91 351.23 295.25 350.773 295.801 350.055 296.656 349.277 297.754 348.445 299.098 348.078 299.672 347.766 300.316 347.508 301.035 347.141 302.016 346.934 302.605 346.883 302.801L346.477 304.441H344.492L346.883 296.395C347.164 295.457 347.305 294.793 347.305 294.395 347.305 294.238 347.234 294.109 347.102 294.004 346.934 293.871 346.703 293.801 346.414 293.801 346.234 293.801 345.902 293.84 345.414 293.91ZM345.32 293.426"/>
<text xml:space="preserve" transform="matrix(1 0 0 1 0 0)" font-size="26.564999" font-family="TimesNewRomanPS" font-style="italic"><tspan y="304.44319" x="330">&#x03b1;</tspan></text>
<text xml:space="preserve" transform="matrix(1 0 0 1 0 0)" font-size="26.564999" font-family="TimesNewRomanPS" font-style="italic"><tspan y="304.44319" x="343.92008">r</tspan></text>
<path stroke-width="4.5" stroke-linecap="round" stroke-linejoin="round" fill="none" stroke="#ffffff" d="M185.328 255.52H187.25L184.469 261.863C184.594 264.238 185.004 265.426 185.703 265.426 185.941 265.426 186.164 265.301 186.375 265.051 186.594 264.793 186.727 264.469 186.781 264.082H187.312C187.051 266.199 186.445 267.254 185.5 267.254 185.176 267.254 184.875 267.082 184.594 266.738 184.32 266.395 184.082 265.184 183.875 263.098 182.281 265.871 180.488 267.254 178.5 267.254 177.383 267.254 176.484 266.871 175.797 266.098 175.117 265.328 174.781 264.297 174.781 263.004 174.781 261.754 175.094 260.543 175.719 259.363 176.352 258.188 177.141 257.203 178.078 256.41 179.023 255.609 180.07 255.207 181.219 255.207 182.031 255.207 182.664 255.457 183.125 255.957 183.582 256.457 183.898 257.234 184.078 258.285ZM183.578 259.27C183.535 258.645 183.336 257.941 182.984 257.16 182.629 256.371 182.109 255.973 181.422 255.973 180.41 255.973 179.383 256.941 178.344 258.879 177.312 260.816 176.797 262.527 176.797 264.004 176.797 264.816 176.969 265.465 177.312 265.941 177.656 266.422 178.125 266.66 178.719 266.66 179.344 266.66 179.906 266.34 180.406 265.691 180.906 265.047 181.602 263.719 182.5 261.707ZM183.578 259.27"/>
<path stroke-width="4.5" stroke-linecap="round" stroke-linejoin="round" fill="none" stroke="#ffffff" d="M189.32 255.926 193.805 255.207 191.93 261.504C193.449 258.922 194.824 257.113 196.055 256.082 196.762 255.5 197.336 255.207 197.773 255.207 198.055 255.207 198.277 255.293 198.445 255.457 198.609 255.625 198.695 255.871 198.695 256.191 198.695 256.766 198.547 257.309 198.258 257.816 198.047 258.215 197.746 258.41 197.352 258.41 197.152 258.41 196.98 258.348 196.836 258.223 196.699 258.09 196.617 257.887 196.586 257.613 196.562 257.449 196.523 257.34 196.461 257.285 196.387 257.223 196.305 257.191 196.211 257.191 196.062 257.191 195.93 257.223 195.805 257.285 195.574 257.41 195.23 257.75 194.773 258.301 194.055 259.156 193.277 260.254 192.445 261.598 192.078 262.172 191.766 262.816 191.508 263.535 191.141 264.516 190.934 265.105 190.883 265.301L190.477 266.941H188.492L190.883 258.895C191.164 257.957 191.305 257.293 191.305 256.895 191.305 256.738 191.234 256.609 191.102 256.504 190.934 256.371 190.703 256.301 190.414 256.301 190.234 256.301 189.902 256.34 189.414 256.41ZM189.32 255.926"/>
<path stroke-width="4.5" stroke-linecap="round" stroke-linejoin="round" fill="none" stroke="#ffffff" d="M209.445 251.004 208.352 254.051H199.008V253.613C201.758 251.113 203.688 249.074 204.805 247.488 205.93 245.895 206.492 244.441 206.492 243.129 206.492 242.121 206.184 241.293 205.57 240.645 204.953 240 204.219 239.676 203.367 239.676 202.586 239.676 201.883 239.906 201.258 240.363 200.641 240.824 200.188 241.488 199.898 242.363H199.461C199.656 240.926 200.156 239.824 200.961 239.051 201.762 238.281 202.766 237.895 203.977 237.895 205.258 237.895 206.324 238.309 207.18 239.129 208.043 239.953 208.477 240.926 208.477 242.051 208.477 242.855 208.293 243.656 207.93 244.457 207.344 245.719 206.406 247.051 205.117 248.457 203.18 250.574 201.969 251.848 201.492 252.285H205.617C206.461 252.285 207.047 252.254 207.383 252.191 207.727 252.129 208.031 252.004 208.305 251.816 208.574 251.629 208.812 251.359 209.023 251.004ZM209.445 251.004"/>
<text xml:space="preserve" transform="matrix(1 0 0 1 0 0)" font-size="26.564999" font-family="TimesNewRomanPS" font-style="italic"><tspan y="266.94319" x="174">&#x03b1;</tspan></text>
<text xml:space="preserve" transform="matrix(1 0 0 1 0 0)" font-size="26.564999" font-family="TimesNewRomanPS" font-style="italic"><tspan y="266.94319" x="187.92006">r</tspan></text>
<text xml:space="preserve" transform="matrix(1 0 0 1 0 0)" font-size="23.908499" font-family="TimesNewRomanPSMT"><tspan y="254.04886" x="198.49219">2</tspan></text>
<path stroke-width="4.5" stroke-linecap="round" stroke-linejoin="round" fill="none" stroke="#ffffff" d="M279.078 153.52H281L278.219 159.863C278.344 162.238 278.754 163.426 279.453 163.426 279.691 163.426 279.914 163.301 280.125 163.051 280.344 162.793 280.477 162.469 280.531 162.082H281.062C280.801 164.199 280.195 165.254 279.25 165.254 278.926 165.254 278.625 165.082 278.344 164.738 278.07 164.395 277.832 163.184 277.625 161.098 276.031 163.871 274.238 165.254 272.25 165.254 271.133 165.254 270.234 164.871 269.547 164.098 268.867 163.328 268.531 162.297 268.531 161.004 268.531 159.754 268.844 158.543 269.469 157.363 270.102 156.188 270.891 155.203 271.828 154.41 272.773 153.609 273.82 153.207 274.969 153.207 275.781 153.207 276.414 153.457 276.875 153.957 277.332 154.457 277.648 155.234 277.828 156.285ZM277.328 157.27C277.285 156.645 277.086 155.941 276.734 155.16 276.379 154.371 275.859 153.973 275.172 153.973 274.16 153.973 273.133 154.941 272.094 156.879 271.062 158.816 270.547 160.527 270.547 162.004 270.547 162.816 270.719 163.465 271.062 163.941 271.406 164.422 271.875 164.66 272.469 164.66 273.094 164.66 273.656 164.34 274.156 163.691 274.656 163.047 275.352 161.719 276.25 159.707ZM277.328 157.27"/>
<path stroke-width="4.5" stroke-linecap="round" stroke-linejoin="round" fill="none" stroke="#ffffff" d="M283.07 153.926 287.555 153.207 285.68 159.504C287.199 156.922 288.574 155.113 289.805 154.082 290.512 153.5 291.086 153.207 291.523 153.207 291.805 153.207 292.027 153.293 292.195 153.457 292.359 153.625 292.445 153.871 292.445 154.191 292.445 154.766 292.297 155.309 292.008 155.816 291.797 156.215 291.496 156.41 291.102 156.41 290.902 156.41 290.73 156.348 290.586 156.223 290.449 156.09 290.367 155.887 290.336 155.613 290.312 155.449 290.273 155.34 290.211 155.285 290.137 155.223 290.055 155.191 289.961 155.191 289.812 155.191 289.68 155.223 289.555 155.285 289.324 155.41 288.98 155.75 288.523 156.301 287.805 157.156 287.027 158.254 286.195 159.598 285.828 160.172 285.516 160.816 285.258 161.535 284.891 162.516 284.684 163.105 284.633 163.301L284.227 164.941H282.242L284.633 156.895C284.914 155.957 285.055 155.293 285.055 154.895 285.055 154.738 284.984 154.609 284.852 154.504 284.684 154.371 284.453 154.301 284.164 154.301 283.984 154.301 283.652 154.34 283.164 154.41ZM283.07 153.926"/>
<path stroke-width="4.5" stroke-linecap="round" stroke-linejoin="round" fill="none" stroke="#ffffff" d="M303.195 149.004 302.102 152.051H292.758V151.613C295.508 149.113 297.438 147.074 298.555 145.488 299.68 143.895 300.242 142.441 300.242 141.129 300.242 140.121 299.934 139.293 299.32 138.645 298.703 138 297.969 137.676 297.117 137.676 296.336 137.676 295.633 137.906 295.008 138.363 294.391 138.824 293.938 139.488 293.648 140.363H293.211C293.406 138.926 293.906 137.824 294.711 137.051 295.512 136.281 296.516 135.895 297.727 135.895 299.008 135.895 300.074 136.309 300.93 137.129 301.793 137.953 302.227 138.926 302.227 140.051 302.227 140.855 302.043 141.656 301.68 142.457 301.094 143.719 300.156 145.051 298.867 146.457 296.93 148.574 295.719 149.848 295.242 150.285H299.367C300.211 150.285 300.797 150.254 301.133 150.191 301.477 150.129 301.781 150.004 302.055 149.816 302.324 149.629 302.562 149.359 302.773 149.004ZM303.195 149.004"/>
<text xml:space="preserve" transform="matrix(1 0 0 1 0 0)" font-size="26.564999" font-family="TimesNewRomanPS" font-style="italic"><tspan y="164.94318" x="267.75">&#x03b1;</tspan></text>
<text xml:space="preserve" transform="matrix(1 0 0 1 0 0)" font-size="26.564999" font-family="TimesNewRomanPS" font-style="italic"><tspan y="164.94318" x="281.67008">r</tspan></text>
<text xml:space="preserve" transform="matrix(1 0 0 1 0 0)" font-size="23.908499" font-family="TimesNewRomanPSMT"><tspan y="152.04886" x="292.2422">2</tspan></text>
</g>
</svg>
