<svg xmlns="http://www.w3.org/2000/svg" viewBox="0 0 400 400">
  <script type="text/ecmascript" href="../../scripts/color.js"/>
    <g transform="scale(1)">
        <path fill="none" stroke="var(--secondary-color)" class="dcg-svg-axis-line" paint-order="fill stroke markers" d="M200 0v400" stroke-opacity=".9" stroke-miterlimit="10" stroke-width="1.5"/>
    </g>
    <g transform="scale(1)">
        <path fill="none" stroke="var(--secondary-color)" class="dcg-svg-axis-line" paint-order="fill stroke markers" d="M0 364h400" stroke-opacity=".9" stroke-miterlimit="10" stroke-width="1.5"/>
    </g>
    <g transform="scale(1)">
        <path fill="none" stroke="var(--secondary-color)" class="dcg-svg-curve" paint-order="fill stroke markers" d="M80 36.364h0l4.59 20.384 4.492 19.023 4.395 17.722 4.296 16.48 4.297 15.64 4.2 14.474 4.101 13.363 4.004 12.308 3.906 11.306 3.809 10.354 3.808 9.696 3.711 8.813 3.614 7.98 3.613 7.385 3.516 6.617 3.418 5.894 3.417 5.364 3.418 4.832 3.418 4.301 3.223 3.57 3.027 2.922 2.93 2.432 2.734 1.918 2.637 1.527 2.54 1.173 2.538.879 2.442.569 2.441.298 2.442.027 2.441-.244 2.441-.515 2.442-.786 2.441-1.056 2.54-1.387 2.636-1.75 2.734-2.148 2.832-2.583 2.93-3.056 3.125-3.69 3.32-4.407 3.418-5.06 3.418-5.59 3.418-6.123 3.516-6.85 3.516-7.413 3.613-8.204 3.613-8.798 3.711-9.652 3.809-10.558 3.906-11.514 3.906-12.207 4.004-13.232 4.102-14.31 4.199-15.443 4.297-16.632 4.394-17.879 4.492-19.182L280 36.364" stroke-linecap="round" stroke-linejoin="round" stroke-miterlimit="10" stroke-width="3"/>
    </g>
    <g transform="scale(1)">
        <path fill="none" stroke="var(--secondary-color)" class="dcg-svg-curve" paint-order="fill stroke markers" d="m80 145.455 2.9 12.877m1.852 8.193 3.034 12.847m1.96 8.168 3.177 12.812m2.093 8.135 2.757 10.576m0 0 .602 2.19m2.225 8.1 1.47 5.35m0 0 2.132 7.348m2.355 8.063 3.814 12.427m0 0 .062.19m2.599 7.989 1.343 4.13m0 0 2.893 8.371m2.842 7.904 1.98 5.384m0 0 2.729 6.947m3.193 7.769 1.597 3.793m0 0 3.614 7.98m0 0 .142.291m3.707 7.538 3.28 6.173m0 0 3.115 5.372m4.55 7.058 2.588 3.66m0 0 3.418 4.301m0 0 2.16 2.393m6.096 5.764.924.767m0 0 2.734 1.918m0 0 2.637 1.527m0 0 2.54 1.172m0 0 2.538.88m0 0 .125.029m8.315.753 1.326-.132m0 0 2.441-.515m0 0 2.442-.786m0 0 2.441-1.056m0 0 2.54-1.387m0 0 1.044-.693m6.552-5.235.606-.553m0 0 2.93-3.056m0 0 3.125-3.69m0 0 1.992-2.644m4.791-6.896 3.373-5.518m0 0 3.283-5.879m3.832-7.474 3.335-7.032m0 0 2.183-4.958m3.274-7.735 1.77-4.309m0 0 3.064-7.973m2.886-7.889 1.569-4.348m0 0 2.755-8.123m2.62-7.98 2.437-7.618m0 0 1.507-4.979m2.433-8.04.064-.213m0 0 3.576-12.475m2.229-8.099 2.496-9.18m0 0 .922-3.57m2.101-8.132 1.274-4.93m0 0 1.935-7.874m2.005-8.157.454-1.847m0 0 2.576-11m1.916-8.18v-.002m0 0 2.888-12.877" stroke-linecap="round" stroke-linejoin="round" stroke-miterlimit="10" stroke-width="3"/>
    </g>
</svg>

