<svg xmlns="http://www.w3.org/2000/svg" xmlns:xlink="http://www.w3.org/1999/xlink" version="1.1" width="600" height="600" viewBox="0 0 600 600">
<script type="text/ecmascript" href="../../scripts/color.js"/>
<g>
<path stroke-width="3.75" stroke-linecap="round" stroke-linejoin="round" fill="none" stroke="var(--secondary-color)" d="M95.793-8.25 98.293 .898 105.469 25.988 112.793 50.418 120.117 73.715 127.441 95.934 134.914 117.539 142.383 138.125 150 158.113 157.617 177.145 165.383 195.598 173.145 213.145 181.055 230.141 189.113 246.582 197.316 262.461 205.664 277.785 214.16 292.547 222.805 306.758 231.594 320.414 240.676 333.734 250.051 346.688 259.57 359.062 269.238 370.871 278.906 381.965 288.574 392.387 298.391 402.32 308.203 411.641 318.164 420.516 328.273 428.957 338.527 436.973 348.926 444.578 359.473 451.785 370.312 458.695 381.301 465.223 392.578 471.461 404.152 477.402 416.164 483.117 428.469 488.531 441.211 493.699 454.395 498.617 468.02 503.277 482.227 507.719 497.023 511.93 512.551 515.934 528.809 519.719 545.949 523.301 563.965 526.66 583.008 529.812 600 532.316"/>
<path stroke-width="2.25" stroke-linecap="butt" stroke-miterlimit="10" stroke-linejoin="miter" fill="none" stroke="var(--secondary-color)" stroke-opacity=".9" d="M54 0V600"/>
<path stroke-width="2.25" stroke-linecap="butt" stroke-miterlimit="10" stroke-linejoin="miter" fill="none" stroke="var(--secondary-color)" stroke-opacity=".9" d="M0 553.5H600"/>
<path stroke-width="3.75" stroke-linecap="round" stroke-linejoin="round" fill="none" stroke="var(--secondary-color)" d="M95.793-8.25 98.293 .898 105.469 25.988 112.793 50.418 120.117 73.715 127.441 95.934 134.914 117.539 142.383 138.125 150 158.113 157.617 177.145 165.383 195.598 173.145 213.145 181.055 230.141 189.113 246.582 197.316 262.461 205.664 277.785 214.16 292.547 222.805 306.758 231.594 320.414 240.676 333.734 250.051 346.688 259.57 359.062 269.238 370.871 278.906 381.965 288.574 392.387 298.391 402.32 308.203 411.641 318.164 420.516 328.273 428.957 338.527 436.973 348.926 444.578 359.473 451.785 370.312 458.695 381.301 465.223 392.578 471.461 404.152 477.402 416.164 483.117 428.469 488.531 441.211 493.699 454.395 498.617 468.02 503.277 482.227 507.719 497.023 511.93 512.551 515.934 528.809 519.719 545.949 523.301 563.965 526.66 583.008 529.812 600 532.316"/>
<path stroke-width="3.75" stroke-linecap="round" stroke-linejoin="round" fill="none" stroke="#2d70b3" d="M53.57 553.848H160.715"/>
<path stroke-width="3.75" stroke-linecap="round" stroke-linejoin="round" fill="none" stroke="#2d70b3" d="M53.57 184.617H160.715"/>
<path d="M53.57 184.617H160.715V553.84707H53.57Z" fill="#2d70b3" fill-opacity=".4"/>
<path stroke-width="3.75" stroke-linecap="round" stroke-linejoin="round" fill="none" stroke="#2d70b3" d="M160.715 553.848H267.855"/>
<path stroke-width="3.75" stroke-linecap="round" stroke-linejoin="round" fill="none" stroke="#2d70b3" d="M160.715 369.23H267.855"/>
<path d="M160.715 369.23H267.856V553.84707H160.715Z" fill="#2d70b3" fill-opacity=".4"/>
<path stroke-width="3.75" stroke-linecap="round" stroke-linejoin="round" fill="none" stroke="#2d70b3" d="M267.855 553.848H375"/>
<path stroke-width="3.75" stroke-linecap="round" stroke-linejoin="round" fill="none" stroke="#2d70b3" d="M267.855 461.539H375"/>
<path d="M267.855 461.539H375V553.848H267.855Z" fill="#2d70b3" fill-opacity=".4"/>
<path stroke-width="3.75" stroke-linecap="round" stroke-linejoin="round" fill="none" stroke="#2d70b3" d="M375 553.848H482.145"/>
<path stroke-width="3.75" stroke-linecap="round" stroke-linejoin="round" fill="none" stroke="#2d70b3" d="M375 507.691H482.145"/>
<path d="M375 507.691H482.145V553.847H375Z" fill="#2d70b3" fill-opacity=".4"/>
<path stroke-width="3.75" stroke-linecap="round" stroke-linejoin="round" fill="none" stroke="#2d70b3" d="M482.145 553.848H589.285"/>
<path stroke-width="3.75" stroke-linecap="round" stroke-linejoin="round" fill="none" stroke="#2d70b3" d="M482.145 530.77H589.285"/>
<path d="M482.145 530.77H589.286V553.848H482.145Z" fill="#2d70b3" fill-opacity=".4"/>
<path stroke-width="3.75" stroke-linecap="round" stroke-linejoin="round" fill="none" stroke="#2d70b3" d="M160.715 553.848V184.617"/>
<path stroke-width="3.75" stroke-linecap="round" stroke-linejoin="round" fill="none" stroke="#2d70b3" d="M267.855 553.848V369.23"/>
<path stroke-width="3.75" stroke-linecap="round" stroke-linejoin="round" fill="none" stroke="#2d70b3" d="M375 553.848V461.539"/>
<path stroke-width="3.75" stroke-linecap="round" stroke-linejoin="round" fill="none" stroke="#2d70b3" d="M482.145 553.848V507.691"/>
<path stroke-width="3.75" stroke-linecap="round" stroke-linejoin="round" fill="none" stroke="#2d70b3" d="M589.285 553.848V530.77"/>
<path stroke-width="3.75" stroke-linecap="round" stroke-linejoin="round" fill="none" stroke="#2d70b3" d="M53.57 553.848V0"/>
</g>
</svg>
