<svg xmlns="http://www.w3.org/2000/svg" viewBox="0 0 682 182">
  <script type="text/ecmascript" href="../../scripts/color.js"/>
  <defs>
    <clipPath id="a">
      <path d="M0 181.964h681.818V0H0Z"/>
    </clipPath>
  </defs>
  <path fill="var(--secondary-color)" fill-rule="evenodd" d="M539.182 81.14c0 17.135 7.466 33.27 19.353 45.523l-2.38 2.378c-3.918 3.856-3.969 10.157-.112 14.074 3.856 3.918 10.159 3.968 14.078.113l.115-.114 4.05-4.05a70.188 70.188 0 0 0 72.483 0l3.2 3.19c3.918 3.855 10.221 3.804 14.077-.114a9.95 9.95 0 0 0 0-13.96l-1.525-1.524c11.885-12.247 19.352-28.381 19.352-45.517v-2.554c.05-25.204-20.347-45.676-45.559-45.726a45.66 45.66 0 0 0-25.787 7.916c-20.838-14.187-49.235-8.8-63.426 12.031a45.626 45.626 0 0 0-7.92 25.787Zm98.62-39.17a2.49 2.49 0 0 1 3.52-.001h.002l3.318 3.318a2.488 2.488 0 1 1-3.52 3.52l-3.32-3.318a2.487 2.487 0 0 1 0-3.518v-.001ZM614.575 65.19a2.49 2.49 0 0 1 3.52-.001v.001l3.32 3.317a2.488 2.488 0 1 1-3.522 3.52l-3.318-3.317a2.487 2.487 0 0 1-.001-3.519h.001Zm-3.116 19.904a2.488 2.488 0 1 1-3.52 3.52l-3.32-3.318a2.488 2.488 0 1 1 3.522-3.52Zm-10.157-34.832 3.318-3.317a2.49 2.49 0 0 1 3.52 3.52l-3.318 3.317a2.49 2.49 0 0 1-3.52-3.52Zm-36.503-6.635a2.49 2.49 0 0 1 3.52 0h.001l3.318 3.318a2.488 2.488 0 1 1-3.52 3.52l-3.319-3.318a2.487 2.487 0 0 1 0-3.518v-.002Zm-14.831 39.08a2.488 2.488 0 0 1-1.76-4.248l3.318-3.317a2.49 2.49 0 0 1 3.52 3.52l-3.318 3.317c-.467.467-1.1.729-1.76.728Zm11.715 29.128a2.49 2.49 0 0 1-3.52.001l-3.319-3.318a2.49 2.49 0 0 1 3.52-3.52l3.32 3.317a2.487 2.487 0 0 1 0 3.52Zm-2.59-33.251c-.04-14.22 11.457-25.78 25.681-25.822a25.762 25.762 0 0 1 11.852 2.85 45.075 45.075 0 0 0-5.772 16.48 19.849 19.849 0 0 0 5.6 16.668l-23.793 23.785c-8.504-9.03-13.568-20.524-13.568-31.407Zm30.797 33.251-3.319 3.317a2.49 2.49 0 0 1-3.52-3.52l3.318-3.317a2.49 2.49 0 0 1 3.52 3.52Zm-1.66 19.904-3.318 3.317a2.49 2.49 0 0 1-3.52-3.52l3.318-3.317a2.49 2.49 0 0 1 3.52 3.52Zm33.184 9.952a2.49 2.49 0 0 1-3.52.001l-3.319-3.318a2.488 2.488 0 1 1 3.52-3.52l3.32 3.317c.972.972.972 2.547 0 3.519v.001Zm-10.886-12.451a50.534 50.534 0 0 1-21.57-4.847l21.57-21.563 21.57 21.563a50.534 50.534 0 0 1-21.57 4.847Zm24.16-19.064a2.49 2.49 0 0 1-3.521 0l-3.318-3.317a2.488 2.488 0 1 1 3.52-3.52l3.319 3.318c.972.971.973 2.546.001 3.518l-.001.001Zm18.251 18.246-3.318 3.317a2.49 2.49 0 0 1-3.521-3.52l3.318-3.317a2.49 2.49 0 0 1 3.521 3.52Zm9.024-47.284c0 10.883-5.062 22.374-13.565 31.4l-23.791-23.787a19.844 19.844 0 0 0 5.596-16.66 45.068 45.068 0 0 0-5.77-16.475c12.649-6.502 28.176-1.522 34.68 11.123a25.74 25.74 0 0 1 2.85 11.845Zm10.886 19.086a2.49 2.49 0 0 1-3.52.002v-.002l-3.319-3.317a2.488 2.488 0 1 1 3.52-3.52l3.32 3.318c.972.971.972 2.546 0 3.518v.001Zm0-34.832-3.318 3.318a2.49 2.49 0 0 1-3.52-3.52l3.317-3.317a2.49 2.49 0 0 1 3.521 3.52ZM327.982 17.364c0 9.278-7.522 16.8-16.8 16.8-9.279 0-16.8-7.522-16.8-16.8 0-9.279 7.522-16.8 16.8-16.8s16.8 7.521 16.8 16.8ZM353.92 83.081l-21.656-7.145s-11.984-27.741-12.405-28.582c-2.943-5.254-8.41-8.827-14.717-8.827-2.523 0-5.046.63-7.148 1.681l-29.435 11.56a8.328 8.328 0 0 0-4.626 4.623l-10.512 25.22c-1.682 4.202.21 9.246 4.625 10.927 1.052.42 2.103.631 3.154.631 3.364 0 6.518-1.891 7.78-5.254l8.62-21.857 8.83-3.362-14.507 70.824-28.173 34.256c-2.944 3.573-2.523 8.827 1.05 11.769 1.473 1.26 3.365 1.891 5.257 1.891 2.523 0 4.836-1.05 6.518-3.152l29.434-35.727c.841-1.051 1.472-2.312 1.682-3.573l5.046-24.379 22.707 16.393v42.032c0 4.624 3.785 8.406 8.41 8.406s8.41-3.782 8.41-8.406v-46.235c0-2.732-1.262-5.254-3.364-6.725l-20.394-14.922 5.677-28.371 3.994 9.247c1.052 2.101 2.734 3.782 5.046 4.623l25.23 8.406c.841.21 1.682.42 2.733.42 3.575 0 6.728-2.31 7.99-5.674 1.471-4.413-.841-9.247-5.256-10.718Z"/>
  <path fill="var(--secondary-color)" d="M141.218 89.766h56.208v2.25h-56.208Zm50.024-3.784 8.416 4.909-8.416 4.91a1.125 1.125 0 0 1-1.133-1.944l6.75-3.938v1.944l-6.75-3.938a1.125 1.125 0 0 1 1.133-1.943ZM472.636 89.766h56.208v2.25h-56.208Zm50.024-3.784 8.416 4.91-8.416 4.908a1.125 1.125 0 1 1-1.133-1.943l6.75-3.938v1.944l-6.75-3.938a1.125 1.125 0 0 1 1.133-1.943Z"/>
  <path fill="var(--secondary-color)" fill-rule="evenodd" d="M108.835 11.473H14.547c-7.502 0-13.62 6.12-13.62 13.622V148.74c.042 7.083 5.49 12.993 12.572 13.538v4.275a4.203 4.203 0 0 0 4.19 4.192 4.203 4.203 0 0 0 4.191-4.192v-4.192h79.621v4.192a4.203 4.203 0 0 0 4.191 4.192 4.203 4.203 0 0 0 4.19-4.192v-4.317c7.083-.545 12.53-6.413 12.573-13.538V25.053c0-7.46-6.119-13.58-13.62-13.58Zm5.238 137.267a5.24 5.24 0 0 1-5.238 5.24H14.547a5.24 5.24 0 0 1-5.238-5.24V25.095a5.24 5.24 0 0 1 5.238-5.24h94.288a5.24 5.24 0 0 1 5.238 5.24V148.74Z"/>
  <path fill="var(--secondary-color)" fill-rule="evenodd" d="M93.218 53.364c-2.28 0-4.145 1.89-4.145 4.2v25.2c0 2.31 1.865 4.2 4.145 4.2 2.28 0 4.146-1.89 4.146-4.2v-25.2c0-2.31-1.866-4.2-4.146-4.2ZM440.253 11.473h-94.288c-7.501 0-13.62 6.12-13.62 13.622V148.74c.042 7.083 5.49 12.993 12.572 13.538v4.275a4.203 4.203 0 0 0 4.19 4.192 4.203 4.203 0 0 0 4.192-4.192v-4.192h79.62v4.192a4.203 4.203 0 0 0 4.191 4.192 4.203 4.203 0 0 0 4.191-4.192v-4.317c7.082-.545 12.53-6.413 12.572-13.538V25.053c0-7.46-6.119-13.58-13.62-13.58Zm5.238 137.267a5.24 5.24 0 0 1-5.238 5.24h-94.288a5.24 5.24 0 0 1-5.238-5.24V25.095a5.24 5.24 0 0 1 5.238-5.24h94.288a5.24 5.24 0 0 1 5.238 5.24V148.74Z"/>
  <path fill="var(--secondary-color)" fill-rule="evenodd" d="M424.527 53.364c-2.34 0-4.254 1.89-4.254 4.2v25.2c0 2.31 1.914 4.2 4.254 4.2s4.255-1.89 4.255-4.2v-25.2c0-2.31-1.915-4.2-4.255-4.2Z"/>
</svg>
