<svg xmlns="http://www.w3.org/2000/svg" viewBox="0 0 428 360">
    <script type="text/ecmascript">
        // change color based on local storage
        function changeColor(theme) {
          // Update CSS variable values based on the theme
          const root = document.documentElement;
          root.style.setProperty('--primary-color', theme === 'light' ? 'white' : '#252a34');
          root.style.setProperty('--secondary-color', theme === 'light' ? '#252a34' : '#eaeaea');
        }

        // Initially update color
        let data = localStorage.getItem('theme');
        changeColor(data);

        // Check for changes in the theme when the storage event occurs
        window.addEventListener('storage', function(event) {
          if (event.key === 'theme') {
            changeColor(event.newValue);
          }
        });
    </script>
    <path style="fill:none;stroke-width:.06;stroke-linecap:butt;stroke-linejoin:miter;stroke:var(--secondary-color);stroke-opacity:1;stroke-miterlimit:10" d="M2.625-.295c0 .687-.283 1.37-.769 1.856A2.657 2.657 0 0 1 0 2.33c-.687 0-1.37-.283-1.856-.77a2.657 2.657 0 0 1-.769-1.855c0-.687.283-1.37.769-1.856A2.657 2.657 0 0 1 0-2.921c.687 0 1.37.284 1.856.77.486.486.769 1.169.769 1.856Zm0 0" transform="matrix(59.93093 0 0 -59.92744 214 176.5)"/>
    <path style="fill:none;stroke-width:.04;stroke-linecap:butt;stroke-linejoin:miter;stroke:#58c4dd;stroke-opacity:1;stroke-miterlimit:10" d="m0 2.33-2.273-3.938h4.546L0 2.33Zm0 0" transform="matrix(59.93093 0 0 -59.92744 214 176.5)"/>
    <path style="fill:none;stroke-width:.04;stroke-linecap:butt;stroke-linejoin:miter;stroke:var(--secondary-color);stroke-opacity:1;stroke-miterlimit:10" d="M0-.295-1.137.36" transform="matrix(59.93093 0 0 -59.92744 214 176.5)"/>
    <path style="stroke:none;fill-rule:nonzero;fill:var(--secondary-color);fill-opacity:1" d="M171.668 155.063c-.473-.227-.945-.45-1.418-.676-.059.097-.117.199-.172.3.629.364.684.473.406.946-.5.87-1.004 1.738-1.504 2.61-.253.437-.359.374-1.007 0-.059.097-.118.198-.176.3.316.168.851.453 1.086.586.34.195.668.41.992.61l.172-.302c-.64-.367-.652-.437-.434-.816a1663.92 1663.92 0 0 0 2.055-3.559Zm1.012-1.665a.581.581 0 0 0-.215-.808c-.3-.176-.664-.035-.813.215a.603.603 0 0 0 .22.812c.269.156.632.09.808-.219ZM173.164 157.191l-1.5 2.602c-.254.434-.36.371-1.008-.004-.058.102-.117.203-.176.3.348.188.852.454 1.114.606.254.145.746.457 1.07.657.059-.102.113-.204.172-.301-.649-.375-.754-.438-.504-.875l1.031-1.781c.582-1.008 1.582-1.157 2.203-.797.614.351.414.937.098 1.492-.437.75-.871 1.504-1.305 2.258-.254.437-.359.375-1.007 0-.059.097-.118.199-.176.3.347.184.851.45 1.113.602.254.145.746.457 1.07.656l.172-.3c-.504-.29-.746-.43-.586-.727l1.067-1.852c.484-.836.656-1.132.558-1.656-.043-.242-.25-.621-.812-.945-.707-.41-1.403-.258-2.024.187.196-.34.395-.68.59-1.02l-1.43-.679c-.058.098-.117.2-.171.3.675.391.714.505.441.977ZM179.035 160.738c.207-.355.41-.71.617-1.066-.472-.223-.941-.45-1.41-.672-.058.102-.117.2-.172.3.676.391.715.505.442.981-.5.864-1 1.73-1.5 2.598-.254.437-.36.375-1.008 0-.059.098-.117.2-.176.3.387.208.852.45 1.125.61.387.223.844.484 1.211.738l.176-.3-.203-.118c-.719-.414-.676-.53-.473-.882.285-.497.574-.993.86-1.493.554-.957 1.46-1.586 2.195-1.16.07.04.09.051.101.07a.482.482 0 0 0-.441.25.464.464 0 0 0 .176.657c.175.101.484.125.664-.184.18-.312.043-.765-.375-1.008-.707-.406-1.434.04-1.809.38ZM183.008 166.34c-.184.41-.156.969.297 1.234.207.117.875.32 1.328-.465.105-.18.21-.359.312-.543a4.844 4.844 0 0 0-.242-.136c-.101.18-.207.36-.312.539-.325.562-.602.484-.707.422-.32-.188-.106-.645-.079-.692.372-.648.747-1.293 1.118-1.941.238-.406.453-.785.312-1.344a2.14 2.14 0 0 0-1.02-1.3c-.796-.458-1.726-.391-2.097.25-.168.292-.066.566.184.714a.492.492 0 0 0 .703-.191c.066-.114.203-.461-.239-.73.461-.188.996-.02 1.305.16.477.273.813.968.313 1.831-.07.122-.137.243-.207.36-.512-.254-1.207-.617-1.985-.68-.918-.09-1.453.274-1.699.7-.453.785.348 1.57.96 1.925a1.544 1.544 0 0 0 1.755-.113Zm.851-1.63-.558.97c-.531.922-1.422.847-1.86.597-.472-.273-.675-.843-.394-1.328.308-.531 1.18-1.101 2.812-.238ZM188.195 169.605l-.37.641 1.488.715c.058-.098.117-.2.171-.3-.675-.391-.714-.505-.441-.977l3.398-5.887c-.488-.23-.972-.465-1.457-.7-.058.102-.117.2-.175.301.68.391.718.504.445.98-.406.7-.809 1.395-1.211 2.095a1.778 1.778 0 0 0-.875-1.305c-1.145-.664-2.711-.3-3.434.95-.71 1.234-.312 2.741.793 3.378a1.88 1.88 0 0 0 1.668.11Zm1.5-2.597c-.382.664-.765 1.324-1.148 1.988-.102.176-.11.195-.313.297-.558.297-1.12.258-1.535.02-.437-.254-.64-.708-.66-1.211-.023-.543.266-1.11.496-1.508.207-.36.563-.93 1.094-1.203.379-.184.934-.293 1.457.011.336.196.66.575.71 1.188.013.222 0 .242-.1.418ZM193.781 167.828c-.476-.226-.949-.453-1.422-.676-.058.098-.113.2-.172.301.63.363.684.469.41.945l-1.507 2.61c-.25.433-.36.375-1.008 0-.059.097-.113.199-.172.3.317.169.848.45 1.082.587.34.195.668.41.992.609.059-.098.114-.2.172-.3-.64-.368-.648-.438-.43-.817a1663.92 1663.92 0 0 1 2.055-3.559Zm1.012-1.664a.583.583 0 0 0-.219-.812.602.602 0 0 0-.808.218.592.592 0 0 0 .214.809c.274.16.633.094.813-.215ZM196.516 174.098l-.504.875c.484.234.972.464 1.457.699.058-.102.117-.2.176-.3-.68-.392-.72-.505-.446-.981.664-1.145 1.324-2.293 1.988-3.442l-1.488-.715c-.058.098-.113.2-.172.301.68.39.715.504.442.98l-.996 1.723c-.489.844-1.332 1.235-2.04.828-.816-.472-.59-.949-.3-1.453.62-1.074 1.238-2.148 1.86-3.218-.497-.239-.993-.477-1.49-.72-.058.102-.112.204-.171.302.754.437.738.468.242 1.332-.281.484-.562.968-.84 1.453-.437.754-.945 1.636.528 2.488.543.313 1.125.29 1.754-.152ZM200.77 175.07c.19.16.898.778.496 1.473-.286.496-.852.687-1.606.25-.816-.469-.844-1.223-.555-2.152.043-.145.06-.188-.039-.246-.125-.07-.164-.004-.265.171l-.738 1.278c-.098.168-.137.234-.028.297.047.027.063.023.352-.055.031-.008.043-.027.324-.113.191.656.621.918.824 1.035 1.117.644 1.938.25 2.34-.446.297-.515.176-.972.125-1.156-.14-.496-.473-.793-.836-1.105-.48-.418-1.059-.922-.734-1.485.195-.34.675-.59 1.511-.109 1.067.617.61 1.516.457 1.828-.043.094.047.145.067.156.125.07.152.024.258-.16.191-.328.379-.652.566-.98.098-.164.137-.23.027-.293-.046-.028-.066-.04-.261.004-.051.023-.196.054-.254.058-.211-.484-.61-.71-.754-.797-1.184-.683-1.926-.246-2.238.297-.196.34-.2.7-.059 1.067.164.43.402.644 1.02 1.183ZM217.598 194.191c0-.941-.391-1.875-1.055-2.543a3.642 3.642 0 0 0-2.543-1.05c-.941 0-1.879.386-2.543 1.05a3.652 3.652 0 0 0-1.055 2.543c0 .942.391 1.88 1.055 2.543A3.629 3.629 0 0 0 214 197.79c.941 0 1.879-.387 2.543-1.055a3.645 3.645 0 0 0 1.055-2.543ZM217.598 36.883c0-.942-.391-1.88-1.055-2.543A3.645 3.645 0 0 0 214 33.285c-.941 0-1.879.39-2.543 1.055a3.645 3.645 0 0 0-1.055 2.543c0 .941.391 1.875 1.055 2.543a3.642 3.642 0 0 0 2.543 1.05c.941 0 1.879-.386 2.543-1.05a3.653 3.653 0 0 0 1.055-2.543ZM81.355 272.848c0-.942-.39-1.88-1.054-2.543a3.645 3.645 0 0 0-2.543-1.055c-.942 0-1.875.39-2.543 1.055a3.642 3.642 0 0 0-1.05 2.543c0 .941.386 1.875 1.05 2.543a3.649 3.649 0 0 0 2.543 1.05c.941 0 1.879-.386 2.543-1.05a3.652 3.652 0 0 0 1.054-2.543ZM353.836 272.848c0-.942-.387-1.88-1.05-2.543a3.652 3.652 0 0 0-2.544-1.055c-.941 0-1.879.39-2.543 1.055a3.645 3.645 0 0 0-1.054 2.543c0 .941.39 1.875 1.054 2.543a3.642 3.642 0 0 0 2.543 1.05c.942 0 1.875-.386 2.543-1.05a3.649 3.649 0 0 0 1.05-2.543ZM202.652 21.516c.024.007.125.12.137.12h.246c.031 0 .121-.011.121-.113 0-.043-.02-.066-.043-.097-.402-.406-1.008-1.02-1.703-2.25-1.207-2.153-1.656-4.914-1.656-7.602 0-4.972 1.41-7.894 3.371-9.875.031-.031.031-.066.031-.09 0-.109-.078-.109-.21-.109-.145 0-.169 0-.27.086-1.063.918-2.262 2.476-3.031 4.836-.485 1.48-.743 3.281-.743 5.14 0 2.653.485 5.653 2.243 8.25.3.438.714.895.714.907.114.133.27.312.36.39.144.137.289.27.433.407ZM204.559 13.71c-.032.169-.098.427-.098.481 0 .204.156.305.324.305.133 0 .336-.09.414-.316.02-.043.403-1.567.446-1.766.09-.371.292-1.152.359-1.457.043-.145.36-.672.625-.918.09-.078.418-.367.898-.367.29 0 .457.133.47.133-.337.054-.583.324-.583.617 0 .176.125.39.426.39.3 0 .617-.257.617-.66 0-.39-.36-.726-.93-.726-.73 0-1.222.547-1.433.86a1.013 1.013 0 0 0-1.02-.86c-.515 0-.726.433-.828.636-.203.38-.348 1.051-.348 1.086 0 .114.114.114.137.114.11 0 .121-.012.188-.258.191-.797.414-1.332.82-1.332.187 0 .344.09.344.512 0 .238-.032.359-.176.941-.219.863-.434 1.723-.652 2.586ZM210.586 14.36c0-.739-.277-1.176-.715-1.176a.576.576 0 0 0-.594.593.58.58 0 0 0 .594.594.585.585 0 0 0 .39-.144c.036-.024.048-.036.055-.036.012 0 .024.012.024.168 0 .829-.39 1.5-.762 1.871-.121.122-.121.145-.121.18 0 .078.055.121.11.121.124 0 1.019-.86 1.019-2.172ZM219.277 2.625h1.266c-.367 1.656-.469 2.137-.469 2.887 0 .168 0 .468.09.851.113.492.234.559.402.559.223 0 .461-.203.461-.426 0-.066 0-.09-.07-.246-.324-.805-.324-1.535-.324-1.848 0-.593.078-1.195.203-1.777h1.277c.145 0 .547 0 .547-.383 0-.27-.234-.27-.45-.27h-3.75c-.245 0-.67 0-1.163.528-.39.438-.684.953-.684 1.008 0 .012 0 .113.137.113.09 0 .11-.047.18-.137.547-.859 1.195-.859 1.422-.859h.636c-.36 1.352-.965 2.707-1.433 3.727-.09.168-.09.191-.09.27 0 .21.18.3.324.3.336 0 .426-.313.563-.727.156-.515.156-.539.3-1.097.207-.825.418-1.649.625-2.473ZM223.094 11.797h-6.781v-.45h6.78v.45ZM218.328 21.188l1.188-1.153c1.746-1.543 2.418-2.148 2.418-3.27 0-1.273-1.008-2.171-2.375-2.171a2.07 2.07 0 0 0-2.094 2.027c0 .629.558.629.594.629.191 0 .582-.137.582-.594a.566.566 0 0 0-.594-.582c-.09 0-.113 0-.145.012.258-.73.864-1.145 1.512-1.145 1.02 0 1.5.907 1.5 1.825 0 .898-.562 1.78-1.176 2.476-.718.797-1.433 1.598-2.148 2.395-.125.12-.125.144-.125.414h4.152l.317-1.95h-.282c-.054.337-.132.829-.246.997-.078.09-.816.09-1.062.09h-2.016ZM229.098 11.563c0-3.215-.75-6.63-2.957-9.145a11.23 11.23 0 0 0-.84-.852c-.078-.066-.102-.066-.246-.066-.114 0-.211 0-.211.11 0 .046.043.09.066.113.38.39.985 1.007 1.68 2.238 1.207 2.148 1.656 4.914 1.656 7.601 0 4.86-1.344 7.825-3.36 9.872a.14.14 0 0 0-.042.09c0 .113.097.113.21.113.145 0 .169 0 .27-.09 1.063-.918 2.262-2.473 3.031-4.836.497-1.531.743-3.348.743-5.148ZM7.008 286.164c0-.047-.024-.07-.047-.101a12.51 12.51 0 0 1-1.914-2.375c-1.8-2.887-2.621-6.524-2.621-10.836 0-3.012.406-6.895 2.25-10.23a12.86 12.86 0 0 1 2.297-3c.035-.036.035-.056.035-.09 0-.114-.078-.114-.238-.114-.157 0-.176 0-.344.168C2.672 263 1.5 268.129 1.5 272.84c0 4.402 1.004 8.836 3.848 12.18.226.257.652.718 1.109 1.12.137.133.156.133.313.133.16 0 .238 0 .238-.109ZM8.395 274.992c-.032.168-.098.426-.098.48 0 .2.156.301.324.301a.46.46 0 0 0 .414-.312c.02-.043.402-1.566.445-1.77.09-.367.293-1.152.36-1.453.043-.148.36-.672.629-.918.086-.078.414-.37.894-.37.29 0 .457.136.469.136-.336.055-.582.324-.582.613 0 .18.125.39.426.39.3 0 .617-.253.617-.66 0-.39-.36-.726-.93-.726-.73 0-1.222.55-1.433.863a1.017 1.017 0 0 0-1.02-.863c-.515 0-.726.438-.828.637-.203.383-.348 1.055-.348 1.086 0 .113.114.113.137.113.11 0 .121-.012.188-.258.191-.793.414-1.332.82-1.332.187 0 .344.09.344.516 0 .234-.032.36-.176.941-.219.86-.434 1.723-.652 2.586ZM14.422 275.64c0-.738-.277-1.175-.715-1.175a.576.576 0 0 0-.594.594c0 .3.223.593.594.593a.598.598 0 0 0 .39-.144c.036-.024.048-.035.055-.035.012 0 .024.011.024.168 0 .828-.39 1.5-.762 1.867-.121.125-.121.148-.121.18 0 .078.055.125.11.125.124 0 1.019-.864 1.019-2.172ZM23.113 263.902h1.266c-.367 1.657-.469 2.137-.469 2.887 0 .168 0 .473.09.852.113.492.234.562.402.562.223 0 .461-.203.461-.426 0-.07 0-.09-.07-.246-.324-.808-.324-1.535-.324-1.847 0-.594.078-1.2.203-1.782h1.277c.145 0 .547 0 .547-.379 0-.27-.234-.27-.45-.27h-3.75c-.245 0-.671 0-1.163.528-.39.434-.684.95-.684 1.008 0 .008 0 .11.137.11.09 0 .11-.044.18-.133.547-.864 1.195-.864 1.422-.864h.636c-.36 1.356-.96 2.711-1.433 3.727-.09.168-.09.191-.09.27 0 .214.18.304.324.304.336 0 .426-.316.563-.73.156-.516.156-.536.3-1.098.207-.824.418-1.648.625-2.473ZM26.93 273.078h-6.782v-.45h6.782v.45ZM22.164 282.469c.395-.387.79-.77 1.188-1.153 1.746-1.546 2.418-2.152 2.418-3.27 0-1.276-1.008-2.171-2.375-2.171a2.07 2.07 0 0 0-2.094 2.027c0 .625.558.625.594.625.19 0 .582-.132.582-.593a.569.569 0 0 0-.594-.582c-.09 0-.113 0-.145.011.258-.726.864-1.14 1.512-1.14 1.02 0 1.5.906 1.5 1.824 0 .894-.563 1.781-1.176 2.473l-2.148 2.394c-.125.125-.125.149-.125.418h4.152l.317-1.95h-.282c-.054.337-.133.829-.246.997-.078.09-.816.09-1.062.09h-2.016ZM35.34 273.078h3.125c.156 0 .37 0 .37-.226 0-.223-.214-.223-.37-.223H35.34v-3.133c0-.16 0-.371-.223-.371-.222 0-.222.21-.222.371v3.133h-3.137c-.156 0-.367 0-.367.223 0 .226.21.226.367.226h3.137v3.133c0 .156 0 .371.222.371.223 0 .223-.215.223-.371v-3.133ZM44.723 267.215c.394-.383.793-.766 1.187-1.152 1.746-1.543 2.418-2.149 2.418-3.27 0-1.273-1.008-2.172-2.375-2.172a2.07 2.07 0 0 0-2.094 2.027c0 .63.563.63.594.63.192 0 .582-.137.582-.594 0-.293-.2-.582-.594-.582-.086 0-.109 0-.144.011.258-.73.863-1.144 1.512-1.144 1.02 0 1.5.906 1.5 1.824 0 .898-.559 1.781-1.176 2.477l-2.149 2.394c-.125.125-.125.145-.125.414h4.157c.101-.648.207-1.297.312-1.95h-.281c-.055.337-.133.829-.246.997-.078.09-.817.09-1.063.09h-2.015ZM51.867 263.902h1.262c-.367 1.657-.469 2.137-.469 2.887 0 .168 0 .473.09.852.113.492.234.562.402.562.223 0 .461-.203.461-.426 0-.07 0-.09-.07-.246-.324-.808-.324-1.535-.324-1.847 0-.594.078-1.2.203-1.782h1.277c.145 0 .547 0 .547-.379 0-.27-.234-.27-.45-.27h-3.75c-.245 0-.671 0-1.163.528-.39.434-.684.95-.684 1.008 0 .008 0 .11.137.11.09 0 .113-.044.18-.133.547-.864 1.195-.864 1.422-.864h.636c-.36 1.356-.96 2.711-1.433 3.727-.09.168-.09.191-.09.27 0 .214.18.304.324.304.336 0 .426-.316.563-.73.156-.516.156-.536.3-1.098.211-.824.418-1.648.63-2.473ZM55.684 273.078H43.3v-.45h12.383v.45ZM49.613 275.684c0-.012 0-.122-.144-.122-.258 0-1.074.09-1.367.11-.09.012-.211.023-.211.226 0 .133.101.133.27.133.534 0 .558.078.558.192l-.035.222c-.54 2.149-1.082 4.301-1.621 6.45-.047.156-.047.18-.047.246 0 .257.226.312.324.312a.46.46 0 0 0 .383-.234c.054-.102.558-2.172.625-2.453.382.035 1.3.214 1.3.953 0 .078 0 .12-.035.234-.02.133-.043.27-.043.39 0 .66.446 1.11 1.028 1.11.336 0 .64-.18.886-.594.282-.492.403-1.109.403-1.129 0-.113-.102-.113-.133-.113-.113 0-.125.047-.156.203-.227.817-.485 1.387-.977 1.387-.21 0-.36-.125-.36-.527 0-.188.048-.446.09-.625.047-.192.047-.235.047-.348 0-.727-.707-1.05-1.656-1.176.348-.199.703-.558.961-.828.54-.594 1.055-1.074 1.602-1.074.066 0 .078 0 .101.012.133.023.145.023.235.09.023.011.023.019.043.042a.636.636 0 0 0-.637.606c0 .18.125.39.426.39.293 0 .617-.246.617-.683 0-.336-.258-.703-.762-.703-.316 0-.828.09-1.637.984-.379.426-.816.875-1.242 1.043.39-1.578.778-3.152 1.164-4.726ZM62.926 272.852c0-4.399-1.008-8.832-3.852-12.18a12.097 12.097 0 0 0-1.11-1.117c-.132-.137-.155-.137-.312-.137-.132 0-.234 0-.234.113 0 .043.043.09.066.114.391.402 1.141 1.152 1.891 2.359 1.805 2.89 2.621 6.527 2.621 10.836 0 3.012-.402 6.898-2.25 10.234a12.776 12.776 0 0 1-2.285 2.988c-.02.032-.043.067-.043.102 0 .11.102.11.234.11.157 0 .18 0 .348-.169 3.75-3.414 4.926-8.539 4.926-13.253ZM370.582 286.164c0-.047-.023-.07-.043-.101-.414-.415-1.164-1.165-1.914-2.375-1.805-2.887-2.621-6.524-2.621-10.836 0-3.012.402-6.895 2.25-10.23.887-1.59 1.805-2.509 2.297-3 .031-.036.031-.056.031-.09 0-.114-.078-.114-.234-.114-.157 0-.18 0-.348.168-3.75 3.414-4.926 8.543-4.926 13.254 0 4.402 1.008 8.836 3.852 12.18.222.257.648.718 1.11 1.12.132.133.155.133.312.133.156 0 .234 0 .234-.109ZM371.973 274.992c-.036.168-.102.426-.102.48 0 .2.156.301.324.301.137 0 .336-.09.414-.312.024-.043.403-1.566.45-1.77.09-.367.289-1.152.359-1.453.043-.148.355-.672.625-.918.09-.078.414-.37.894-.37.293 0 .461.136.473.136-.336.055-.582.324-.582.613 0 .18.121.39.426.39.3 0 .613-.253.613-.66 0-.39-.355-.726-.93-.726-.726 0-1.218.55-1.43.863a1.02 1.02 0 0 0-1.019-.863c-.515 0-.73.438-.828.637-.203.383-.348 1.055-.348 1.086 0 .113.11.113.133.113.114 0 .125-.012.192-.258.191-.793.414-1.332.816-1.332.192 0 .348.09.348.516 0 .234-.035.36-.18.941-.215.86-.433 1.723-.648 2.586ZM378 275.64c0-.738-.281-1.175-.719-1.175a.575.575 0 0 0-.59.594c0 .3.223.593.59.593a.608.608 0 0 0 .395-.144c.031-.024.043-.035.054-.035.012 0 .024.011.024.168 0 .828-.39 1.5-.762 1.867-.125.125-.125.148-.125.18 0 .078.059.125.113.125.125 0 1.02-.864 1.02-2.172ZM386.691 263.902h1.266c-.371 1.657-.469 2.137-.469 2.887 0 .168 0 .473.09.852.11.492.235.562.402.562.223 0 .457-.203.457-.426 0-.07 0-.09-.066-.246-.324-.808-.324-1.535-.324-1.847 0-.594.078-1.2.2-1.782h1.276c.145 0 .551 0 .551-.379 0-.27-.238-.27-.449-.27h-3.75c-.246 0-.672 0-1.164.528-.39.434-.684.95-.684 1.008 0 .008 0 .11.133.11.09 0 .113-.044.18-.133.55-.864 1.2-.864 1.422-.864h.64c-.359 1.356-.964 2.711-1.433 3.727-.09.168-.09.191-.09.27 0 .214.18.304.324.304.336 0 .426-.316.559-.73.156-.516.156-.536.304-1.098.207-.824.418-1.648.625-2.473ZM390.508 273.078h-6.781v-.45h6.78v.45ZM385.738 282.469l1.188-1.153c1.746-1.546 2.418-2.152 2.418-3.27 0-1.276-1.008-2.171-2.371-2.171a2.07 2.07 0 0 0-2.094 2.027c0 .625.558.625.594.625.187 0 .582-.132.582-.593a.569.569 0 0 0-.594-.582c-.09 0-.113 0-.149.011.258-.726.864-1.14 1.512-1.14 1.02 0 1.5.906 1.5 1.824 0 .894-.558 1.781-1.176 2.473-.714.8-1.43 1.597-2.148 2.394-.121.125-.121.149-.121.418h4.152c.106-.652.207-1.3.313-1.95h-.278c-.058.337-.136.829-.25.997-.078.09-.816.09-1.062.09h-2.016ZM398.918 273.078h3.125c.156 0 .367 0 .367-.226 0-.223-.21-.223-.367-.223h-3.125v-3.133c0-.16 0-.371-.223-.371-.226 0-.226.21-.226.371v3.133h-3.133c-.156 0-.371 0-.371.223 0 .226.215.226.37.226h3.134v3.133c0 .156 0 .371.226.371.223 0 .223-.215.223-.371v-3.133ZM410.168 266.23v.977c0 .402-.02.523-.852.523h-.234v.348c.461-.035 1.043-.035 1.512-.035.472 0 1.062 0 1.523.035v-.348h-.234c-.828 0-.852-.12-.852-.523v-.977h1.121v-.347h-1.12v-5.094c0-.223 0-.289-.18-.289-.102 0-.133 0-.223.133l-3.438 5.25v.347h2.977Zm.07-.347h-2.734l2.734-4.176v4.176ZM415.441 263.902h1.266c-.371 1.657-.469 2.137-.469 2.887 0 .168 0 .473.09.852.11.492.235.562.402.562.223 0 .457-.203.457-.426 0-.07 0-.09-.066-.246-.324-.808-.324-1.535-.324-1.847 0-.594.078-1.2.203-1.782h1.273c.149 0 .551 0 .551-.379 0-.27-.238-.27-.449-.27h-3.75c-.246 0-.672 0-1.164.528-.39.434-.684.95-.684 1.008 0 .008 0 .11.133.11.09 0 .113-.044.18-.133.55-.864 1.2-.864 1.422-.864h.64c-.359 1.356-.964 2.711-1.433 3.727-.09.168-.09.191-.09.27 0 .214.18.304.324.304.336 0 .426-.316.559-.73.156-.516.156-.536.304-1.098.207-.824.418-1.648.625-2.473ZM419.258 273.078h-12.38v-.45h12.38v.45ZM413.191 275.684c0-.012 0-.122-.144-.122-.258 0-1.078.09-1.367.11-.09.012-.211.023-.211.226 0 .133.097.133.265.133.54 0 .563.078.563.192l-.035.222c-.543 2.149-1.082 4.301-1.625 6.45-.043.156-.043.18-.043.246 0 .257.222.312.324.312a.47.47 0 0 0 .383-.234c.054-.102.558-2.172.625-2.453.379.035 1.297.214 1.297.953 0 .078 0 .12-.032.234-.023.133-.046.27-.046.39 0 .66.449 1.11 1.03 1.11.337 0 .637-.18.884-.594a4.09 4.09 0 0 0 .406-1.129c0-.113-.102-.113-.137-.113-.11 0-.121.047-.156.203-.223.817-.48 1.387-.973 1.387-.215 0-.36-.125-.36-.527 0-.188.048-.446.09-.625.044-.192.044-.235.044-.348 0-.727-.703-1.05-1.657-1.176.348-.199.707-.558.965-.828.535-.594 1.051-1.074 1.602-1.074.066 0 .078 0 .097.012.137.023.149.023.239.09.02.011.02.019.043.042a.632.632 0 0 0-.637.606c0 .18.121.39.426.39.289 0 .613-.246.613-.683 0-.336-.258-.703-.762-.703-.312 0-.828.09-1.632.984-.383.426-.817.875-1.243 1.043.387-1.578.778-3.152 1.164-4.726ZM426.5 272.852c0-4.399-1.004-8.832-3.848-12.18a13.191 13.191 0 0 0-1.109-1.117c-.137-.137-.156-.137-.313-.137-.136 0-.238 0-.238.113 0 .043.047.09.07.114.391.402 1.141 1.152 1.891 2.359 1.8 2.89 2.621 6.527 2.621 10.836 0 3.012-.406 6.898-2.25 10.234-.887 1.59-1.816 2.52-2.285 2.988-.023.032-.047.067-.047.102 0 .11.102.11.238.11.157 0 .176 0 .344-.169 3.754-3.414 4.926-8.539 4.926-13.253Zm0 0"/>
    <path style="fill:none;stroke-width:.04;stroke-linecap:butt;stroke-linejoin:miter;stroke:var(--secondary-color);stroke-opacity:1;stroke-miterlimit:10" d="M1.313-.295c0 .027-.001.055-.003.082M1.302-.13a1.321 1.321 0 0 1-.013.08M1.27.03a1.353 1.353 0 0 1-.023.08M1.22.187l-.034.076M1.15.337a1.333 1.333 0 0 1-.043.07M1.061.476a1.325 1.325 0 0 1-.05.065M.957.603a1.233 1.233 0 0 1-.059.059M.837.716a1.317 1.317 0 0 1-.066.05M.703.812a1.315 1.315 0 0 1-.071.042M.558.891.483.924M.405.952a1.324 1.324 0 0 1-.079.023M.246.993c-.027.006-.054.01-.082.014M.082 1.015A1.24 1.24 0 0 1 0 1.017M-.082 1.015a1.237 1.237 0 0 1-.082-.008M-.246.993a1.352 1.352 0 0 1-.08-.018M-.405.952A1.338 1.338 0 0 1-.483.924M-.558.891A1.387 1.387 0 0 1-.632.854M-.703.812A1.303 1.303 0 0 1-.77.766M-.837.716A1.225 1.225 0 0 1-.898.662M-.957.603A1.26 1.26 0 0 1-1.01.541M-1.061.476a1.317 1.317 0 0 1-.046-.068M-1.15.337a1.34 1.34 0 0 1-.036-.074M-1.22.187A1.325 1.325 0 0 1-1.246.11M-1.27.03a1.313 1.313 0 0 1-.019-.08M-1.302-.13a1.283 1.283 0 0 1-.008-.083M-1.313-.295c0-.028.001-.055.003-.083M-1.302-.46l.013-.081M-1.27-.621c.007-.027.014-.053.023-.08M-1.22-.778l.034-.076M-1.15-.927l.043-.071M-1.061-1.066c.016-.023.032-.045.05-.066M-.957-1.194a1.23 1.23 0 0 1 .059-.058M-.837-1.306c.022-.018.044-.035.066-.05M-.703-1.403l.071-.041M-.558-1.482l.075-.032M-.405-1.542c.026-.009.052-.017.079-.024M-.246-1.584a1.32 1.32 0 0 1 .082-.013M-.082-1.605A1.24 1.24 0 0 1 0-1.608M.082-1.605c.028.002.055.004.082.008M.246-1.584c.027.005.053.012.08.018M.405-1.542c.026.008.052.018.078.028M.558-1.482c.025.012.05.024.074.038M.703-1.403l.068.046M.837-1.306l.061.054M.957-1.194c.019.02.037.041.054.062M1.061-1.066c.016.022.032.045.046.068M1.15-.927l.036.073M1.22-.778c.01.026.019.051.027.078M1.27-.621l.019.08M1.302-.46l.008.082" transform="matrix(59.93093 0 0 -59.92744 214 176.5)"/>
</svg>