<svg xmlns="http://www.w3.org/2000/svg" viewBox="0 0 425 425">
    <script type="text/ecmascript" href="../../scripts/color-svg.js"/>
    <path style="fill-rule:nonzero;fill:#58c4dd;fill-opacity:.25;stroke-width:.02;stroke-linecap:butt;stroke-linejoin:miter;stroke:#58c4dd;stroke-opacity:.25;stroke-miterlimit:10" d="M1.001 0c0 .262-.108.523-.293.708A1.013 1.013 0 0 1 0 1c-.262 0-.523-.108-.708-.293A1.013 1.013 0 0 1-1 0c0-.262.108-.523.293-.708C-.523-.893-.262-1 0-1c.262 0 .523.108.708.293C.893-.523 1-.262 1 0Zm0 0" transform="matrix(60 0 0 -60 211.5 211.5)"/>
    <path style="fill-rule:nonzero;fill:#fc6255;fill-opacity:.25;stroke-width:.02;stroke-linecap:butt;stroke-linejoin:miter;stroke:#fc6255;stroke-opacity:.25;stroke-miterlimit:10" d="M0 1.237-1.177.382-.727-1H.727l.45 1.383L0 1.237Zm0 0" transform="matrix(60 0 0 -60 211.5 211.5)"/>
    <path style="fill-rule:nonzero;fill:#58c4dd;fill-opacity:.25;stroke-width:.02;stroke-linecap:butt;stroke-linejoin:miter;stroke:#58c4dd;stroke-opacity:.25;stroke-miterlimit:10" d="M1.237 0c0 .324-.133.646-.362.875-.23.23-.551.362-.875.362-.324 0-.646-.133-.875-.362A1.252 1.252 0 0 1-1.237 0c0-.324.133-.646.362-.875.23-.23.551-.362.875-.362.324 0 .646.133.875.362.23.23.362.551.362.875Zm0 0" transform="matrix(60 0 0 -60 211.5 211.5)"/>
    <path style="fill-rule:nonzero;fill:#fc6255;fill-opacity:.25;stroke-width:.02;stroke-linecap:butt;stroke-linejoin:miter;stroke:#fc6255;stroke-opacity:.25;stroke-miterlimit:10" d="M-1.237 1.237v-2.474h2.474v2.474h-2.474Zm0 0" transform="matrix(60 0 0 -60 211.5 211.5)"/>
    <path style="fill-rule:nonzero;fill:#58c4dd;fill-opacity:.25;stroke-width:.02;stroke-linecap:butt;stroke-linejoin:miter;stroke:#58c4dd;stroke-opacity:.25;stroke-miterlimit:10" d="M1.75 0c0 .458-.189.913-.513 1.237C.913 1.561.458 1.75 0 1.75c-.458 0-.913-.189-1.237-.513A1.771 1.771 0 0 1-1.75 0c0-.458.189-.913.513-1.237.324-.324.779-.513 1.237-.513.458 0 .913.189 1.237.513.324.324.513.779.513 1.237Zm0 0" transform="matrix(60 0 0 -60 211.5 211.5)"/>
    <path style="fill-rule:nonzero;fill:#fc6255;fill-opacity:.25;stroke-width:.02;stroke-linecap:butt;stroke-linejoin:miter;stroke:#fc6255;stroke-opacity:.25;stroke-miterlimit:10" d="m0 3.5-3.031-5.25H3.03L0 3.5Zm0 0" transform="matrix(60 0 0 -60 211.5 211.5)"/>
    <path style="fill:none;stroke-width:.06;stroke-linecap:butt;stroke-linejoin:miter;stroke:var(--secondary-color);stroke-opacity:1;stroke-miterlimit:10" d="M3.5 0c0 .916-.377 1.827-1.025 2.475A3.542 3.542 0 0 1 0 3.5a3.542 3.542 0 0 1-2.475-1.025A3.542 3.542 0 0 1-3.5 0c0-.916.377-1.827 1.025-2.475A3.542 3.542 0 0 1 0-3.5c.916 0 1.827.377 2.475 1.025A3.542 3.542 0 0 1 3.5 0Zm0 0" transform="matrix(60 0 0 -60 211.5 211.5)"/>
    <path style="stroke:none;fill-rule:nonzero;fill:var(--secondary-color);fill-opacity:1" d="M184.813 192.508c-.555-.649-.723-.824-1.122-1.11-.636-.457-1.308-.636-1.882-.636-1.297 0-2.239 1.11-2.239 2.363 0 1.227.899 2.355 2.207 2.355 1.453 0 2.47-1.195 2.844-1.746.555.649.723.825 1.121 1.106.637.46 1.309.64 1.883.64 1.297 0 2.238-1.109 2.238-2.363 0-1.226-.898-2.355-2.207-2.355-1.453 0-2.469 1.191-2.844 1.746Zm.332.387c.417-.68 1.328-1.735 2.605-1.735 1.078 0 1.82.95 1.82 1.957a1.783 1.783 0 0 1-1.777 1.785c-.973 0-1.645-.793-2.648-2.007Zm-.856.449c-.418.68-1.328 1.738-2.605 1.738-1.079 0-1.82-.953-1.82-1.957s.816-1.79 1.777-1.79c.972 0 1.644.798 2.648 2.009ZM193.422 220.781v-.808c-1.988 0-2.453-.688-2.453-1.645v-16.02c0-.972.48-1.644 2.453-1.644v-.805h-17.41v.805c1.988 0 2.449.688 2.449 1.645v16.02c0 .972-.477 1.644-2.45 1.644v.808h7.188v-.808c-1.988 0-2.449-.688-2.449-1.645v-17.664h7.934v17.664c0 .973-.477 1.645-2.45 1.645v.808h7.188ZM177.129 225.082c.008-.02.039-.156.039-.168 0-.05-.04-.144-.164-.144-.211 0-1.078.082-1.34.105-.086.008-.23.02-.23.238 0 .149.144.149.27.149.503 0 .503.074.503.156 0 .074-.02.137-.043.23-.492 1.973-.98 3.946-1.473 5.922-.054.188-.054.207-.054.23a.34.34 0 0 0 .355.333c.285 0 .418-.207.485-.438.02-.043.468-1.882.511-2.03.742.073 1.34.315 1.34.858 0 .051 0 .106-.023.207-.043.16-.043.211-.043.325 0 .746.61 1.078 1.11 1.078 1.015 0 1.327-1.59 1.327-1.598 0-.137-.133-.137-.164-.137-.148 0-.16.051-.21.25-.126.45-.407 1.192-.923 1.192-.28 0-.363-.262-.363-.543 0-.18 0-.2.063-.469.007-.035.05-.21.05-.328 0-.93-1.254-1.074-1.695-1.105.305-.192.691-.536.871-.692.531-.504 1.055-.996 1.64-.996.126 0 .262.035.345.137-.45.074-.543.43-.543.586 0 .23.18.386.417.386.286 0 .598-.23.598-.668 0-.343-.25-.734-.805-.734-.597 0-1.14.43-1.675.922-.438.418-.785.742-1.211.922.344-1.39.687-2.785 1.035-4.176ZM188.492 228.516c.156 0 .399 0 .399-.262 0-.254-.25-.254-.387-.254h-6.926c-.137 0-.387 0-.387.254 0 .262.243.262.399.262h6.902Zm.012 2.3c.137 0 .387 0 .387-.25 0-.261-.243-.261-.399-.261h-6.902c-.156 0-.399 0-.399.261 0 .25.25.25.387.25h6.926ZM192.488 228.535c.817 0 1.403.567 1.403 1.684 0 1.297-.754 1.683-1.36 1.683-.418 0-1.34-.113-1.777-.73.488-.02.605-.367.605-.586a.558.558 0 0 0-.574-.574c-.293 0-.586.175-.586.605 0 .985 1.086 1.621 2.352 1.621 1.453 0 2.457-.972 2.457-2.02 0-.816-.668-1.632-1.817-1.87 1.098-.399 1.493-1.184 1.493-1.82 0-.829-.95-1.446-2.11-1.446-1.164 0-2.05.566-2.05 1.402 0 .356.23.555.542.555a.515.515 0 0 0 .532-.531c0-.305-.207-.524-.532-.547.368-.461 1.086-.574 1.473-.574.473 0 1.133.23 1.133 1.14 0 .438-.149.922-.418 1.246-.348.395-.64.418-1.164.45-.262.02-.281.02-.332.03-.024 0-.106.02-.106.138 0 .144.094.144.27.144h.566ZM199.828 210.797c0-2.438 1.227-3.063 2.02-3.063.132 0 1.074.016 1.597.551-.613.047-.703.496-.703.688 0 .39.27.687.688.687.39 0 .687-.254.687-.703 0-1.016-1.137-1.598-2.285-1.598-1.867 0-3.242 1.614-3.242 3.47 0 1.91 1.476 3.39 3.21 3.39 2.005 0 2.481-1.793 2.481-1.942 0-.148-.148-.148-.195-.148-.133 0-.164.059-.191.148-.434 1.391-1.407 1.567-1.958 1.567-.792 0-2.109-.64-2.109-3.047ZM211.762 210.855c0-1.91-1.496-3.496-3.305-3.496-1.867 0-3.316 1.63-3.316 3.496 0 1.93 1.554 3.364 3.3 3.364a3.332 3.332 0 0 0 3.32-3.364Zm-3.305 2.989c-.64 0-1.3-.313-1.703-1-.371-.656-.371-1.57-.371-2.106 0-.582 0-1.39.355-2.047a2.01 2.01 0 0 1 1.703-1.004c.66 0 1.301.329 1.692.973.387.64.387 1.508.387 2.078 0 .535 0 1.344-.329 2a1.92 1.92 0 0 1-1.734 1.106ZM215.3 211.156c.333.059 1.555.297 1.555 1.375 0 .762-.523 1.36-1.687 1.36-1.254 0-1.793-.852-2.078-2.121-.043-.196-.059-.254-.207-.254-.196 0-.196.101-.196.37v1.973c0 .254 0 .36.165.36.074 0 .09-.016.375-.297.027-.031.027-.063.296-.344.66.625 1.332.64 1.645.64 1.719 0 2.406-1 2.406-2.077 0-.79-.449-1.239-.629-1.418-.492-.48-1.074-.598-1.703-.72-.836-.163-1.836-.358-1.836-1.222 0-.523.387-1.136 1.672-1.136 1.645 0 1.719 1.343 1.75 1.808.012.133.149.133.18.133.191 0 .191-.074.191-.36v-1.507c0-.254 0-.36-.164-.36-.074 0-.105 0-.297.18a2.085 2.085 0 0 1-.254.238c-.57-.418-1.183-.418-1.406-.418-1.824 0-2.39 1-2.39 1.84 0 .524.238.942.64 1.27.48.386.899.476 1.973.687ZM228.277 223.59c.028.015.164.164.176.164h.332c.043 0 .164-.016.164-.149 0-.062-.031-.09-.062-.136-.535-.54-1.344-1.36-2.27-3.004-1.613-2.867-2.21-6.559-2.21-10.145 0-6.636 1.882-10.535 4.495-13.183.047-.043.047-.09.047-.117 0-.153-.105-.153-.285-.153-.195 0-.223 0-.36.121-1.417 1.227-3.019 3.305-4.05 6.457-.64 1.973-.984 4.38-.984 6.86 0 3.539.64 7.547 2.988 11.011.402.582.957 1.196.957 1.211.148.18.36.418.476.524l.586.539ZM235.258 198.371h1.687c-.492 2.211-.625 2.856-.625 3.856 0 .222 0 .628.118 1.136.148.657.316.746.539.746.296 0 .613-.27.613-.566 0-.09 0-.121-.09-.332-.434-1.074-.434-2.047-.434-2.465 0-.789.106-1.598.27-2.375h1.703c.195 0 .73 0 .73-.508 0-.36-.312-.36-.597-.36h-5.004c-.332 0-.898 0-1.555.704-.523.582-.914 1.27-.914 1.344 0 .015 0 .148.18.148.121 0 .152-.058.242-.176.73-1.152 1.598-1.152 1.895-1.152h.851c-.476 1.809-1.285 3.617-1.91 4.977-.121.222-.121.254-.121.359 0 .281.238.402.434.402.449 0 .566-.418.746-.972.21-.688.21-.715.406-1.465.277-1.098.558-2.2.836-3.3ZM240.352 210.617h-9.055v-.597h9.055v.597ZM235.988 214.098c0-.016 0-.164-.195-.164-.344 0-1.434.12-1.82.148-.121.016-.286.031-.286.3 0 .18.133.18.36.18.715 0 .746.106.746.254a7.76 7.76 0 0 0-.043.297l-2.168 8.61c-.062.21-.062.238-.062.328 0 .344.3.418.433.418a.614.614 0 0 0 .512-.313c.074-.133.746-2.898.836-3.273.508.047 1.734.285 1.734 1.27 0 .105 0 .163-.047.316-.031.18-.058.36-.058.523 0 .88.597 1.477 1.375 1.477.445 0 .851-.239 1.18-.79a5.4 5.4 0 0 0 .538-1.511c0-.148-.136-.148-.18-.148-.152 0-.163.058-.21.27-.297 1.089-.64 1.85-1.301 1.85-.281 0-.477-.163-.477-.702 0-.254.06-.598.122-.836.058-.254.058-.313.058-.461 0-.973-.941-1.407-2.21-1.57.46-.27.94-.747 1.284-1.106.715-.793 1.403-1.438 2.137-1.438.09 0 .106 0 .133.016.18.031.195.031.312.121.032.016.032.031.063.059-.719.047-.852.629-.852.808 0 .239.164.524.567.524.39 0 .824-.328.824-.914 0-.446-.344-.942-1.02-.942-.418 0-1.105.121-2.18 1.317-.507.566-1.09 1.164-1.66 1.39.52-2.101 1.036-4.207 1.555-6.308ZM248.363 210.305c0-4.29-1.004-8.848-3.945-12.211-.211-.239-.762-.82-1.121-1.137-.106-.09-.137-.09-.328-.09-.153 0-.285 0-.285.153 0 .058.058.117.09.148.507.523 1.316 1.344 2.242 2.988 1.613 2.871 2.21 6.563 2.21 10.149 0 6.484-1.792 10.445-4.484 13.18-.027.03-.058.074-.058.12 0 .149.132.149.285.149.191 0 .222 0 .355-.121 1.422-1.223 3.02-3.301 4.051-6.453.66-2.051.988-4.47.988-6.875Zm0 0"/>
</svg>