<svg xmlns="http://www.w3.org/2000/svg" viewBox="0 0 842 476">
  <script type="text/ecmascript" href="../../scripts/color-svg.js" />
  <defs>
    <clipPath id="a">
      <path d="M106 66h842v476H106z" />
    </clipPath>
    <clipPath id="b">
      <path d="M106 66h842v476H106z" />
    </clipPath>
    <clipPath id="c">
      <path d="M107 67h841v475H107z" />
    </clipPath>
    <clipPath id="d">
      <path d="M107 67h841v475H107z" />
    </clipPath>
  </defs>
  <g clip-path="url(#a)" transform="translate(-106 -66)">
    <g clip-path="url(#b)">
      <g clip-path="url(#c)">
        <g clip-path="url(#d)">
          <path fill="none" stroke="var(--secondary-color)" stroke-miterlimit="10" stroke-width="2.356" d="M418.923 235.644h-837.846v-471.288h837.846v471.288Z" transform="matrix(1 0 0 -1.001 527.411 304.613)" />
          <path fill="none" stroke="var(--secondary-color)" stroke-miterlimit="10" stroke-width="2.356" d="M-405.756-209.295a29.378 29.378 0 0 0 5.918-3.912 29.983 29.983 0 0 0 1.741-1.603c.56-.56 1.093-1.139 1.607-1.741.51-.602.997-1.224 1.461-1.864a29.945 29.945 0 0 0 2.451-4.05" transform="matrix(1 0 0 -1.001 527.411 304.613)" />
          <path fill="var(--secondary-color)" d="M147.87 502.635c0-1.938-.53-6.023-3.525-6.023-4.077 0-8.595 8.284-8.595 15.01 0 2.761.852 6.025 3.52 6.025 4.139 0 8.6-8.432 8.6-15.012Zm-9.01 4.024c.499-1.881 1.086-4.232 2.26-6.316.79-1.44 1.879-3.083 3.198-3.083 1.439 0 1.615 1.877 1.615 3.552 0 1.44-.238 2.94-.94 5.847h-6.132Zm5.869.94c-.323 1.352-.94 3.847-2.056 5.963-1.024 1.996-2.14 3.435-3.402 3.435-.97 0-1.584-.852-1.584-3.582 0-1.236.176-2.936.936-5.815h6.106Z" />
          <path fill="none" stroke="#00BFA6" stroke-miterlimit="10" stroke-width="3.535" d="M-418.923-235.644c43.742 87.535 87.484 175.069 131.226 262.599" transform="matrix(1 0 0 -1.001 527.411 304.613)" />
          <path fill="#00BFA6" d="M248.935 259.167a31633.7 31633.7 0 0 0-18.44 13.848l18.444 9.226c-.004-7.69-.004-15.384-.004-23.074Z" />
          <path fill="none" stroke="#F50057" stroke-miterlimit="10" stroke-width="3.535" d="M-418.923-235.644-15.875-34.046" transform="matrix(1 0 0 -1.001 527.411 304.613)" />
          <path fill="#F50057" d="M529.977 329.46c-7.686 0-15.368 0-23.054.003a28848.14 28848.14 0 0 1 9.224 18.46l13.83-18.463Z" />
          <path fill="none" stroke="#00BFA6" stroke-miterlimit="10" stroke-width="3.535" d="M-418.923-235.644c68.783 34.403 137.562 68.807 206.341 103.21" transform="matrix(1 0 0 -1.001 527.411 304.613)" />
          <path fill="#00BFA6" d="m333.27 427.947-23.05.003c3.072 6.154 6.148 12.306 9.22 18.46l13.83-18.463Z" />
          <path fill="none" stroke="#00BFA6" stroke-miterlimit="10" stroke-width="3.535" d="M-418.923-235.644c68.783 34.403 137.562 68.807 206.341 103.21" transform="matrix(1 0 0 -1.001 527.411 304.613)" />
          <path fill="#00BFA6" d="m333.27 427.947-23.05.003c3.072 6.154 6.148 12.306 9.22 18.46l13.83-18.463Z" />
          <path fill="none" stroke="#00BFA6" stroke-miterlimit="10" stroke-width="2.356" d="m-278.477 45.399 1.278-2.554M-275.884 40.21c.426-.852.851-1.703 1.281-2.555M-273.287 35.02l1.277-2.554M-270.691 29.831l1.277-2.554M-268.094 24.642l1.277-2.554M-265.502 19.453c.426-.852.852-1.703 1.281-2.555M-262.905 14.264l1.277-2.555M-260.309 9.074l1.278-2.554M-257.712 3.885l1.277-2.554M-255.119-1.304c.425-.851.855-1.703 1.281-2.554M-252.523-6.493l1.277-2.555M-249.926-11.682l1.277-2.555M-247.33-16.872l1.277-2.554M-244.737-22.06c.429-.852.855-1.704 1.281-2.555M-242.141-27.25l1.278-2.554M-239.544-32.44l1.277-2.554M-236.948-37.629l1.278-2.554M-234.351-42.818l1.277-2.554M-231.758-48.007l1.277-2.554M-229.162-53.196l1.277-2.555M-226.565-58.386l1.277-2.554M-223.969-63.575l1.277-2.554M-221.376-68.764l1.277-2.554M-218.78-73.953l1.278-2.554M-216.183-79.142l1.277-2.555M-213.586-84.332l1.277-2.554M-210.994-89.52c.426-.852.852-1.704 1.281-2.555M-208.397-94.71l1.277-2.554M-205.801-99.9l1.277-2.554M-203.204-105.088l1.277-2.555M-200.612-110.278c.426-.851.856-1.703 1.281-2.554M-198.015-115.467l1.277-2.554M-195.418-120.656l1.277-2.554" transform="matrix(1 0 0 -1.001 527.411 304.613)" />
          <path fill="#00B0FF" d="M359.86 68.73h-5.89c0 .772.153 1.544.448 2.258a5.852 5.852 0 0 0 1.278 1.912 5.887 5.887 0 0 0 4.165 1.727c.77 0 1.542-.153 2.25-.449a5.896 5.896 0 0 0 3.64-5.448h-5.89Z" />
          <path fill="#00B0FF" fill-opacity=".826" d="M365.752 68.73a5.896 5.896 0 0 1-5.891 5.897 5.887 5.887 0 0 1-4.165-1.728 5.852 5.852 0 0 1-1.278-1.911 5.93 5.93 0 0 1-.448-2.258h-5.891c0 1.544.306 3.087.897 4.515a11.778 11.778 0 0 0 19.215 3.824 11.85 11.85 0 0 0 2.554-3.824c.59-1.428.898-2.971.898-4.515h-5.891Z" />
          <path fill="#00B0FF" fill-opacity=".694" d="M371.643 68.73c0 1.544-.307 3.087-.898 4.515a11.85 11.85 0 0 1-2.554 3.824 11.782 11.782 0 0 1-8.33 3.455c-1.542 0-3.084-.307-4.511-.898a11.778 11.778 0 0 1-6.374-6.38 11.843 11.843 0 0 1-.897-4.516h-5.891c0 2.316.46 4.63 1.342 6.769a17.754 17.754 0 0 0 3.83 5.74 17.748 17.748 0 0 0 5.735 3.835 17.712 17.712 0 0 0 6.766 1.348c2.312 0 4.625-.461 6.76-1.348a17.694 17.694 0 0 0 10.913-16.344h-5.891Z" />
          <path fill="#00B0FF" fill-opacity=".592" d="M377.534 68.73c0 2.316-.46 4.63-1.346 6.769a17.677 17.677 0 0 1-23.093 9.575 17.748 17.748 0 0 1-5.734-3.835 17.754 17.754 0 0 1-3.831-5.74 17.813 17.813 0 0 1-1.342-6.769h-5.892c0 3.087.614 6.174 1.792 9.027a23.588 23.588 0 0 0 12.752 12.765 23.607 23.607 0 0 0 9.02 1.797c3.084 0 6.168-.615 9.018-1.797a23.583 23.583 0 0 0 12.752-12.765 23.673 23.673 0 0 0 1.795-9.027h-5.891Z" />
          <path fill="#00B0FF" fill-opacity=".51" d="M383.425 68.73a23.616 23.616 0 0 1-6.904 16.678 23.583 23.583 0 0 1-7.643 5.114 23.606 23.606 0 0 1-9.017 1.797c-3.088 0-6.171-.615-9.021-1.797a23.588 23.588 0 0 1-12.752-12.765 23.727 23.727 0 0 1-1.792-9.027h-5.891c0 3.859.767 7.717 2.24 11.284a29.6 29.6 0 0 0 6.386 9.567 29.479 29.479 0 0 0 20.83 8.634c3.854 0 7.709-.767 11.272-2.245a29.578 29.578 0 0 0 9.554-6.389 29.6 29.6 0 0 0 6.386-9.567 29.603 29.603 0 0 0 2.243-11.284h-5.891Z" />
          <path fill="#00B0FF" fill-opacity=".444" d="M389.316 68.73c0 3.859-.767 7.717-2.243 11.284a29.6 29.6 0 0 1-6.386 9.567 29.578 29.578 0 0 1-9.554 6.389 29.513 29.513 0 0 1-11.272 2.246 29.479 29.479 0 0 1-20.83-8.635 29.6 29.6 0 0 1-6.386-9.567 29.657 29.657 0 0 1-2.24-11.284h-5.891c0 4.63.92 9.26 2.689 13.541a35.54 35.54 0 0 0 7.663 11.48 35.381 35.381 0 0 0 11.468 7.667 35.39 35.39 0 0 0 13.527 2.695c4.625 0 9.25-.922 13.523-2.695a35.392 35.392 0 0 0 11.468-7.667 35.555 35.555 0 0 0 7.663-11.48 35.516 35.516 0 0 0 2.692-13.54h-5.891Z" />
          <path fill="#00B0FF" fill-opacity=".391" d="M395.207 68.73c0 4.63-.92 9.26-2.692 13.541a35.555 35.555 0 0 1-7.663 11.48 35.392 35.392 0 0 1-11.468 7.667 35.384 35.384 0 0 1-13.523 2.695 35.39 35.39 0 0 1-13.527-2.695 35.381 35.381 0 0 1-11.468-7.667 35.54 35.54 0 0 1-7.663-11.48 35.589 35.589 0 0 1-2.69-13.54h-5.89a41.52 41.52 0 0 0 3.137 15.798 41.455 41.455 0 0 0 8.94 13.391 41.403 41.403 0 0 0 13.378 8.95 41.38 41.38 0 0 0 15.783 3.14 41.37 41.37 0 0 0 15.778-3.14 41.364 41.364 0 0 0 13.378-8.95c3.82-3.82 6.877-8.4 8.94-13.391a41.448 41.448 0 0 0 3.14-15.799h-5.89Z" />
          <path fill="#00B0FF" fill-opacity=".346" d="M401.098 68.73a41.448 41.448 0 0 1-3.141 15.799 41.324 41.324 0 0 1-8.94 13.391 41.364 41.364 0 0 1-13.378 8.95 41.37 41.37 0 0 1-15.778 3.14 41.38 41.38 0 0 1-15.783-3.14 41.403 41.403 0 0 1-13.377-8.95 41.455 41.455 0 0 1-8.941-13.391 41.52 41.52 0 0 1-3.137-15.799h-5.891a47.341 47.341 0 0 0 3.586 18.052 47.332 47.332 0 0 0 10.217 15.307 47.306 47.306 0 0 0 15.288 10.228 47.273 47.273 0 0 0 18.038 3.59 47.272 47.272 0 0 0 18.034-3.59 47.361 47.361 0 0 0 15.29-10.228A47.307 47.307 0 0 0 403.4 86.782a47.344 47.344 0 0 0 3.589-18.052h-5.891Z" />
          <path fill="#00B0FF" fill-opacity=".309" d="M406.989 68.73a47.344 47.344 0 0 1-3.59 18.052 47.307 47.307 0 0 1-10.213 15.307 47.361 47.361 0 0 1-15.291 10.228 47.272 47.272 0 0 1-18.034 3.59 47.273 47.273 0 0 1-18.038-3.59 47.306 47.306 0 0 1-15.288-10.228 47.332 47.332 0 0 1-10.217-15.307 47.341 47.341 0 0 1-3.586-18.052h-5.891a53.24 53.24 0 0 0 4.035 20.31 53.205 53.205 0 0 0 11.494 17.219 53.203 53.203 0 0 0 17.198 11.506 53.189 53.189 0 0 0 20.293 4.038 53.184 53.184 0 0 0 20.289-4.038 53.216 53.216 0 0 0 17.2-11.506 53.245 53.245 0 0 0 11.492-17.22 53.244 53.244 0 0 0 4.039-20.309h-5.892Z" />
          <path fill="#00B0FF" fill-opacity=".277" d="M412.88 68.73c0 6.95-1.38 13.89-4.038 20.31a53.245 53.245 0 0 1-11.491 17.219 53.216 53.216 0 0 1-17.201 11.506 53.184 53.184 0 0 1-20.29 4.038 53.189 53.189 0 0 1-20.292-4.038 53.203 53.203 0 0 1-17.198-11.506 53.205 53.205 0 0 1-11.494-17.22 53.24 53.24 0 0 1-4.035-20.309h-5.891a59.17 59.17 0 0 0 4.483 22.567 59.116 59.116 0 0 0 12.772 19.13 59.063 59.063 0 0 0 19.112 12.786 59.067 59.067 0 0 0 22.544 4.488 59.097 59.097 0 0 0 22.544-4.488 59.134 59.134 0 0 0 19.11-12.785 59.089 59.089 0 0 0 12.769-19.13 59.157 59.157 0 0 0 4.488-22.568h-5.891Z" />
          <path fill="#00B0FF" fill-opacity=".25" d="M418.772 68.73c0 7.721-1.534 15.434-4.488 22.567a59.089 59.089 0 0 1-12.768 19.13 59.134 59.134 0 0 1-19.111 12.786 59.097 59.097 0 0 1-22.544 4.488 59.067 59.067 0 0 1-22.544-4.488 59.063 59.063 0 0 1-19.112-12.785 59.116 59.116 0 0 1-12.772-19.13 59.17 59.17 0 0 1-4.483-22.568h-5.891a65.103 65.103 0 0 0 4.932 24.825 65.12 65.12 0 0 0 14.045 21.043 65.073 65.073 0 0 0 21.025 14.062 64.97 64.97 0 0 0 24.8 4.938c8.48 0 16.96-1.69 24.795-4.938a65.024 65.024 0 0 0 21.026-14.062 65.128 65.128 0 0 0 14.048-21.043 65.16 65.16 0 0 0 4.933-24.825h-5.891Z" />
          <path fill="#00B0FF" fill-opacity=".227" d="M424.663 68.73a65.16 65.16 0 0 1-4.933 24.825 65.128 65.128 0 0 1-14.048 21.043 65.024 65.024 0 0 1-21.026 14.062 64.956 64.956 0 0 1-24.795 4.938 64.97 64.97 0 0 1-24.8-4.938 65.073 65.073 0 0 1-21.025-14.062 65.12 65.12 0 0 1-14.045-21.043 65.103 65.103 0 0 1-4.932-24.825h-5.891a71 71 0 0 0 5.38 27.082 70.96 70.96 0 0 0 15.323 22.955 70.904 70.904 0 0 0 22.935 15.342 70.881 70.881 0 0 0 27.055 5.386 70.871 70.871 0 0 0 27.05-5.386 70.908 70.908 0 0 0 22.936-15.342 71.036 71.036 0 0 0 15.326-22.955 71.076 71.076 0 0 0 5.38-27.082h-5.89Z" />
          <path fill="#00B0FF" fill-opacity=".207" d="M430.554 68.73a71.076 71.076 0 0 1-5.381 27.082 71.036 71.036 0 0 1-15.326 22.955 70.908 70.908 0 0 1-22.936 15.342 70.871 70.871 0 0 1-27.05 5.386 70.881 70.881 0 0 1-27.055-5.386 70.904 70.904 0 0 1-22.935-15.342 70.96 70.96 0 0 1-15.322-22.955 71 71 0 0 1-5.381-27.082h-5.891a76.897 76.897 0 0 0 5.829 29.336 76.955 76.955 0 0 0 16.6 24.874 76.796 76.796 0 0 0 24.845 16.616 76.794 76.794 0 0 0 29.31 5.836 76.793 76.793 0 0 0 29.306-5.836 76.807 76.807 0 0 0 24.845-16.616 77.012 77.012 0 0 0 16.603-24.874 76.955 76.955 0 0 0 5.83-29.336h-5.891Z" />
          <path fill="#00B0FF" fill-opacity=".189" d="M436.445 68.73a76.955 76.955 0 0 1-5.83 29.336 77.012 77.012 0 0 1-16.603 24.874 76.807 76.807 0 0 1-24.845 16.616 76.793 76.793 0 0 1-29.306 5.836 76.794 76.794 0 0 1-29.31-5.836 76.796 76.796 0 0 1-24.845-16.616 76.955 76.955 0 0 1-16.6-24.874 76.897 76.897 0 0 1-5.83-29.336h-5.89a82.81 82.81 0 0 0 6.278 31.593 82.85 82.85 0 0 0 17.877 26.787 82.726 82.726 0 0 0 26.755 17.894 82.691 82.691 0 0 0 31.565 6.285 82.675 82.675 0 0 0 31.56-6.285 82.726 82.726 0 0 0 26.756-17.894 82.813 82.813 0 0 0 17.88-26.787 82.905 82.905 0 0 0 6.279-31.593h-5.891Z" />
          <path fill="#00B0FF" fill-opacity=".174" d="M442.336 68.73a82.905 82.905 0 0 1-6.278 31.593 82.813 82.813 0 0 1-17.881 26.787 82.726 82.726 0 0 1-26.755 17.894 82.675 82.675 0 0 1-31.561 6.285 82.691 82.691 0 0 1-31.565-6.285 82.726 82.726 0 0 1-26.755-17.894 82.85 82.85 0 0 1-17.877-26.787 82.81 82.81 0 0 1-6.278-31.593h-5.892a88.815 88.815 0 0 0 6.724 33.85 88.828 88.828 0 0 0 19.157 28.699 88.654 88.654 0 0 0 28.67 19.173 88.568 88.568 0 0 0 33.816 6.734 88.587 88.587 0 0 0 33.816-6.734 88.643 88.643 0 0 0 28.665-19.173A88.751 88.751 0 0 0 441.5 102.58a88.818 88.818 0 0 0 6.727-33.85h-5.891Z" />
          <path fill="#00B0FF" fill-opacity=".16" d="M448.227 68.73a88.818 88.818 0 0 1-6.727 33.85 88.751 88.751 0 0 1-19.158 28.699 88.643 88.643 0 0 1-28.665 19.173 88.587 88.587 0 0 1-33.816 6.734 88.568 88.568 0 0 1-33.816-6.734 88.654 88.654 0 0 1-28.67-19.173 88.828 88.828 0 0 1-19.157-28.698 88.815 88.815 0 0 1-6.724-33.85h-5.891a94.745 94.745 0 0 0 7.172 36.107 94.668 94.668 0 0 0 20.435 30.61 94.537 94.537 0 0 0 30.579 20.452 94.49 94.49 0 0 0 36.072 7.183 94.464 94.464 0 0 0 36.067-7.183 94.49 94.49 0 0 0 30.583-20.452 94.688 94.688 0 0 0 20.43-30.61 94.73 94.73 0 0 0 7.177-36.108h-5.891Z" />
          <path fill="#00B0FF" fill-opacity=".148" d="M454.118 68.73a94.73 94.73 0 0 1-7.176 36.108 94.688 94.688 0 0 1-20.431 30.61 94.49 94.49 0 0 1-30.583 20.452 94.464 94.464 0 0 1-36.067 7.183 94.49 94.49 0 0 1-36.072-7.183 94.537 94.537 0 0 1-30.58-20.452 94.668 94.668 0 0 1-20.434-30.61 94.745 94.745 0 0 1-7.172-36.108h-5.891c0 13.123 2.604 26.241 7.62 38.366a100.617 100.617 0 0 0 21.713 32.521 100.448 100.448 0 0 0 32.489 21.731 100.405 100.405 0 0 0 38.327 7.632c13.109 0 26.21-2.61 38.323-7.632a100.465 100.465 0 0 0 32.493-21.73 100.605 100.605 0 0 0 21.708-32.522 100.68 100.68 0 0 0 7.624-38.366h-5.891Z" />
          <path fill="#00B0FF" fill-opacity=".137" d="M460.009 68.73a100.68 100.68 0 0 1-7.624 38.366 100.605 100.605 0 0 1-21.708 32.521 100.465 100.465 0 0 1-32.493 21.731 100.385 100.385 0 0 1-38.323 7.632c-13.11 0-26.215-2.61-38.327-7.632a100.448 100.448 0 0 1-32.49-21.73 100.617 100.617 0 0 1-21.711-32.522 100.658 100.658 0 0 1-7.621-38.366h-5.891a106.56 106.56 0 0 0 8.07 40.62 106.43 106.43 0 0 0 22.989 34.438 106.38 106.38 0 0 0 34.399 23.008 106.298 106.298 0 0 0 40.582 8.08c13.88 0 27.752-2.763 40.578-8.08a106.376 106.376 0 0 0 34.403-23.008 106.498 106.498 0 0 0 22.985-34.438 106.562 106.562 0 0 0 8.073-40.62h-5.891Z" />
          <path fill="#00B0FF" fill-opacity=".128" d="M465.9 68.73c0 13.895-2.761 27.785-8.073 40.62a106.498 106.498 0 0 1-22.985 34.438 106.376 106.376 0 0 1-34.403 23.008 106.282 106.282 0 0 1-40.578 8.08c-13.88 0-27.757-2.763-40.582-8.08a106.38 106.38 0 0 1-34.4-23.008 106.43 106.43 0 0 1-22.988-34.438 106.56 106.56 0 0 1-8.07-40.62h-5.891c0 14.666 2.91 29.328 8.518 42.877a112.4 112.4 0 0 0 24.263 36.35 112.35 112.35 0 0 0 36.313 24.29 112.271 112.271 0 0 0 42.837 8.527c14.65 0 29.298-2.918 42.833-8.527a112.307 112.307 0 0 0 36.313-24.29 112.382 112.382 0 0 0 24.262-36.35 112.473 112.473 0 0 0 8.522-42.877H465.9Z" />
          <path fill="#00B0FF" fill-opacity=".119" d="M471.79 68.73c0 14.666-2.913 29.328-8.521 42.877a112.382 112.382 0 0 1-24.262 36.35 112.307 112.307 0 0 1-36.313 24.29 112.251 112.251 0 0 1-42.833 8.527 112.271 112.271 0 0 1-42.837-8.527 112.35 112.35 0 0 1-36.313-24.29 112.4 112.4 0 0 1-24.263-36.35 112.488 112.488 0 0 1-8.518-42.877h-5.891c0 15.438 3.064 30.872 8.967 45.134a118.348 118.348 0 0 0 25.54 38.262 118.143 118.143 0 0 0 38.226 25.569 118.139 118.139 0 0 0 45.089 8.976c15.422 0 30.84-3.071 45.088-8.976a118.141 118.141 0 0 0 38.223-25.57 118.348 118.348 0 0 0 25.54-38.26 118.422 118.422 0 0 0 8.97-45.135h-5.891Z" />
          <path fill="#00B0FF" fill-opacity=".111" d="M477.683 68.73c0 15.438-3.07 30.872-8.971 45.134a118.348 118.348 0 0 1-25.54 38.262 118.141 118.141 0 0 1-38.223 25.569 118.145 118.145 0 0 1-45.088 8.976c-15.426 0-30.84-3.071-45.09-8.976a118.143 118.143 0 0 1-38.225-25.57 118.348 118.348 0 0 1-25.54-38.26 118.399 118.399 0 0 1-8.967-45.135h-5.891a124.33 124.33 0 0 0 9.416 47.392 124.245 124.245 0 0 0 26.816 40.173 124.118 124.118 0 0 0 40.137 26.848 124.051 124.051 0 0 0 47.344 9.426c16.193 0 32.382-3.226 47.343-9.426a124.122 124.122 0 0 0 40.133-26.848 124.103 124.103 0 0 0 26.817-40.173 124.333 124.333 0 0 0 9.42-47.392h-5.891Z" />
          <path fill="#00B0FF" fill-opacity=".104" d="M483.574 68.73c0 16.21-3.222 32.415-9.42 47.392a124.103 124.103 0 0 1-26.817 40.173 124.122 124.122 0 0 1-40.133 26.848 124.058 124.058 0 0 1-47.343 9.426 124.051 124.051 0 0 1-47.344-9.426 124.118 124.118 0 0 1-40.137-26.848 124.245 124.245 0 0 1-26.816-40.173 124.33 124.33 0 0 1-9.416-47.392h-5.891c0 16.981 3.37 33.958 9.864 49.649a130.196 130.196 0 0 0 28.094 42.09 130.063 130.063 0 0 0 42.047 28.122 129.945 129.945 0 0 0 49.599 9.875c16.964 0 33.923-3.379 49.595-9.875a130.048 130.048 0 0 0 42.046-28.123 130.116 130.116 0 0 0 28.094-42.09 130.244 130.244 0 0 0 9.869-49.648h-5.891Z" />
          <path fill="#00B0FF" fill-opacity=".098" d="M489.465 68.73c0 16.981-3.375 33.958-9.87 49.649a130.116 130.116 0 0 1-28.093 42.09 130.048 130.048 0 0 1-42.046 28.122 129.929 129.929 0 0 1-49.595 9.875 129.945 129.945 0 0 1-49.6-9.875 130.063 130.063 0 0 1-42.046-28.123 130.196 130.196 0 0 1-28.094-42.09 130.258 130.258 0 0 1-9.864-49.648h-5.891c0 17.753 3.524 35.502 10.313 51.903a136.07 136.07 0 0 0 29.37 44.005 135.93 135.93 0 0 0 43.958 29.4 135.782 135.782 0 0 0 51.854 10.325 135.77 135.77 0 0 0 51.85-10.325 135.897 135.897 0 0 0 43.957-29.4 136.023 136.023 0 0 0 29.37-44.005 136.166 136.166 0 0 0 10.318-51.903h-5.891Z" />
          <path fill="#00B0FF" fill-opacity=".092" d="M495.356 68.73c0 17.753-3.53 35.502-10.317 51.903a136.023 136.023 0 0 1-29.371 44.005 135.897 135.897 0 0 1-43.957 29.4 135.77 135.77 0 0 1-51.85 10.325 135.782 135.782 0 0 1-51.854-10.325 135.93 135.93 0 0 1-43.957-29.4 136.07 136.07 0 0 1-29.371-44.005 136.143 136.143 0 0 1-10.313-51.903h-5.891c0 18.525 3.678 37.045 10.762 54.16a141.974 141.974 0 0 0 30.648 45.918 141.848 141.848 0 0 0 45.867 30.679 141.697 141.697 0 0 0 54.109 10.773c18.505 0 37.007-3.682 54.105-10.773a141.848 141.848 0 0 0 45.867-30.68 141.986 141.986 0 0 0 30.652-45.917 142.149 142.149 0 0 0 10.762-54.16h-5.891Z" />
          <path fill="#00B0FF" fill-opacity=".087" d="M501.247 68.73c0 18.525-3.682 37.045-10.762 54.16a141.986 141.986 0 0 1-30.652 45.918 141.848 141.848 0 0 1-45.867 30.679 141.681 141.681 0 0 1-54.105 10.773c-18.51 0-37.007-3.682-54.11-10.773a141.848 141.848 0 0 1-45.866-30.68 141.974 141.974 0 0 1-30.648-45.917 142.073 142.073 0 0 1-10.762-54.16h-5.891c0 19.3 3.83 38.588 11.21 56.418a147.823 147.823 0 0 0 31.926 47.829 147.748 147.748 0 0 0 47.78 31.957 147.584 147.584 0 0 0 56.36 11.223c19.277 0 38.55-3.836 56.36-11.223a147.806 147.806 0 0 0 47.782-31.957 147.933 147.933 0 0 0 31.925-47.83 148.046 148.046 0 0 0 11.21-56.417h-5.89Z" />
          <path fill="#00B0FF" fill-opacity=".082" d="M507.138 68.73c0 19.3-3.835 38.588-11.211 56.418a147.933 147.933 0 0 1-31.925 47.829 147.806 147.806 0 0 1-47.781 31.957 147.594 147.594 0 0 1-56.36 11.223 147.584 147.584 0 0 1-56.361-11.223 147.748 147.748 0 0 1-47.78-31.957 147.823 147.823 0 0 1-31.926-47.83 147.988 147.988 0 0 1-11.21-56.417h-5.892c0 20.072 3.985 40.132 11.66 58.675a153.73 153.73 0 0 0 33.202 49.741 153.632 153.632 0 0 0 49.69 33.237 153.499 153.499 0 0 0 58.617 11.67c20.047 0 40.09-3.989 58.615-11.67 18.52-7.679 35.512-19.047 49.69-33.237a153.862 153.862 0 0 0 33.204-49.741 153.992 153.992 0 0 0 11.659-58.675h-5.891Z" />
          <path fill="#00B0FF" fill-opacity=".077" d="M513.029 68.73c0 20.072-3.99 40.132-11.66 58.675a153.862 153.862 0 0 1-33.202 49.741c-14.18 14.19-31.17 25.558-49.691 33.237a153.505 153.505 0 0 1-58.615 11.67 153.499 153.499 0 0 1-58.616-11.67 153.632 153.632 0 0 1-49.691-33.237 153.73 153.73 0 0 1-33.202-49.741 153.898 153.898 0 0 1-11.66-58.675H200.8c0 20.844 4.139 41.675 12.109 60.932a159.7 159.7 0 0 0 34.479 51.653 159.488 159.488 0 0 0 51.6 34.515 159.378 159.378 0 0 0 60.872 12.12c20.818 0 41.632-4.142 60.867-12.12a159.5 159.5 0 0 0 51.604-34.515 159.83 159.83 0 0 0 34.48-51.653A159.906 159.906 0 0 0 518.92 68.73h-5.891Z" />
          <path fill="#00B0FF" fill-opacity=".073" d="M518.92 68.73c0 20.844-4.142 41.675-12.108 60.932a159.83 159.83 0 0 1-34.48 51.653 159.5 159.5 0 0 1-51.604 34.515 159.376 159.376 0 0 1-60.867 12.12 159.378 159.378 0 0 1-60.871-12.12 159.488 159.488 0 0 1-51.601-34.515 159.7 159.7 0 0 1-34.48-51.653 159.831 159.831 0 0 1-12.108-60.932h-5.891c0 21.615 4.292 43.218 12.553 63.187a165.737 165.737 0 0 0 35.757 53.568 165.435 165.435 0 0 0 53.515 35.793 165.29 165.29 0 0 0 63.126 12.57c21.589 0 43.174-4.297 63.122-12.57a165.43 165.43 0 0 0 53.514-35.793 165.641 165.641 0 0 0 35.757-53.568A165.79 165.79 0 0 0 524.81 68.73h-5.891Z" />
          <path fill="#00B0FF" fill-opacity=".069" d="M524.81 68.73a165.79 165.79 0 0 1-12.556 63.187 165.641 165.641 0 0 1-35.757 53.568 165.43 165.43 0 0 1-53.514 35.793 165.289 165.289 0 0 1-63.122 12.57 165.29 165.29 0 0 1-63.126-12.57 165.435 165.435 0 0 1-53.515-35.793 165.737 165.737 0 0 1-35.757-53.568A165.805 165.805 0 0 1 194.91 68.73h-5.891c0 22.387 4.445 44.762 13.002 65.444 8.56 20.682 21.22 39.65 37.034 55.48a171.34 171.34 0 0 0 55.425 37.072 171.206 171.206 0 0 0 65.38 13.018 171.2 171.2 0 0 0 65.378-13.018 171.351 171.351 0 0 0 55.425-37.072 171.546 171.546 0 0 0 37.034-55.48 171.737 171.737 0 0 0 13.005-65.444h-5.891Z" />
          <path fill="#00B0FF" fill-opacity=".066" d="M530.702 68.73c0 22.387-4.45 44.762-13.005 65.444a171.546 171.546 0 0 1-37.034 55.48 171.351 171.351 0 0 1-55.425 37.072 171.2 171.2 0 0 1-65.377 13.018c-22.364 0-44.72-4.45-65.381-13.018a171.34 171.34 0 0 1-55.425-37.072c-15.813-15.83-28.473-34.798-37.034-55.48a171.715 171.715 0 0 1-13.002-65.444h-5.891c0 23.159 4.599 46.306 13.45 67.701a177.503 177.503 0 0 0 38.312 57.393 177.217 177.217 0 0 0 57.338 38.35 177.073 177.073 0 0 0 67.633 13.467 177.08 177.08 0 0 0 67.632-13.467 177.236 177.236 0 0 0 57.335-38.35 177.455 177.455 0 0 0 38.31-57.393 177.647 177.647 0 0 0 13.455-67.7h-5.891Z" />
          <path fill="#00B0FF" fill-opacity=".063" d="M536.593 68.73c0 23.159-4.602 46.306-13.454 67.701a177.455 177.455 0 0 1-38.311 57.393 177.236 177.236 0 0 1-57.335 38.35 177.08 177.08 0 0 1-67.632 13.467 177.073 177.073 0 0 1-67.633-13.467 177.217 177.217 0 0 1-57.338-38.35 177.503 177.503 0 0 1-38.311-57.393 177.644 177.644 0 0 1-13.451-67.7h-5.891c0 23.93 4.752 47.848 13.899 69.957a183.47 183.47 0 0 0 39.589 59.31 183.146 183.146 0 0 0 59.248 39.623 182.986 182.986 0 0 0 69.888 13.917c23.905 0 47.8-4.757 69.887-13.917a183.176 183.176 0 0 0 59.245-39.624 183.403 183.403 0 0 0 39.588-59.309 183.558 183.558 0 0 0 13.904-69.958h-5.892Z" />
          <path fill="#00B0FF" fill-opacity=".059" d="M542.485 68.73c0 23.93-4.756 47.85-13.904 69.958a183.403 183.403 0 0 1-39.588 59.31 183.176 183.176 0 0 1-59.245 39.623 182.996 182.996 0 0 1-69.887 13.917 182.986 182.986 0 0 1-69.888-13.917 183.146 183.146 0 0 1-59.248-39.624 183.47 183.47 0 0 1-39.59-59.309 183.572 183.572 0 0 1-13.898-69.958h-5.891c0 24.702 4.905 49.392 14.348 72.216a189.306 189.306 0 0 0 40.866 61.22 189.162 189.162 0 0 0 61.158 40.907 188.95 188.95 0 0 0 72.143 14.362c24.676 0 49.34-4.91 72.139-14.362a189.12 189.12 0 0 0 61.158-40.907 189.306 189.306 0 0 0 40.866-61.22c9.442-22.824 14.352-47.514 14.352-72.216h-5.891Z" />
          <path fill="#00B0FF" fill-opacity=".057" d="M548.376 68.73c0 24.702-4.91 49.392-14.352 72.216a189.306 189.306 0 0 1-40.866 61.22A189.12 189.12 0 0 1 432 243.073a188.938 188.938 0 0 1-72.14 14.362 188.95 188.95 0 0 1-72.142-14.362 189.162 189.162 0 0 1-61.158-40.907 189.306 189.306 0 0 1-40.866-61.22 189.487 189.487 0 0 1-14.348-72.216h-5.891a195.39 195.39 0 0 0 14.797 74.47c9.738 23.534 24.147 45.122 42.142 63.136a195.067 195.067 0 0 0 63.069 42.185 194.863 194.863 0 0 0 74.398 14.812 194.85 194.85 0 0 0 74.394-14.812 195.07 195.07 0 0 0 63.072-42.185c17.992-18.014 32.4-39.602 42.139-63.136 9.738-23.535 14.8-48.996 14.8-74.47h-5.89Z" />
          <path fill="#00B0FF" fill-opacity=".054" d="M554.267 68.73c0 25.474-5.063 50.935-14.801 74.47-9.738 23.534-24.147 45.122-42.14 63.136a195.07 195.07 0 0 1-63.071 42.185 194.85 194.85 0 0 1-74.394 14.812 194.863 194.863 0 0 1-74.398-14.812 195.067 195.067 0 0 1-63.07-42.185c-17.994-18.014-32.403-39.602-42.141-63.136a195.39 195.39 0 0 1-14.797-74.47h-5.891c0 26.245 5.212 52.483 15.245 76.727 10.034 24.249 24.88 46.49 43.42 65.048 18.54 18.559 40.758 33.42 64.979 43.464a200.78 200.78 0 0 0 76.653 15.261c26.218 0 52.425-5.218 76.649-15.261 24.224-10.043 46.442-24.905 64.982-43.464a201.17 201.17 0 0 0 43.416-65.048 201.289 201.289 0 0 0 15.25-76.727h-5.891Z" />
          <path fill="#00B0FF" fill-opacity=".052" d="M560.158 68.73c0 26.245-5.216 52.483-15.25 76.727a201.17 201.17 0 0 1-43.416 65.048c-18.54 18.559-40.758 33.42-64.982 43.464a200.763 200.763 0 0 1-76.65 15.261 200.78 200.78 0 0 1-76.652-15.261c-24.221-10.043-46.44-24.905-64.98-43.464-18.54-18.559-33.385-40.8-43.42-65.048-10.032-24.244-15.244-50.482-15.244-76.727h-5.891c0 27.017 5.365 54.026 15.694 78.984a207.017 207.017 0 0 0 44.697 66.96c19.085 19.104 41.955 34.404 66.892 44.743a206.665 206.665 0 0 0 78.905 15.71c26.989 0 53.967-5.371 78.904-15.71 24.934-10.34 47.808-25.639 66.893-44.743 19.084-19.103 34.364-41.996 44.693-66.96 10.328-24.958 15.698-51.967 15.698-78.984h-5.891Z" />
          <path fill="#00B0FF" fill-opacity=".049" d="M566.049 68.73c0 27.017-5.37 54.026-15.698 78.984-10.33 24.964-25.61 47.857-44.693 66.96-19.085 19.104-41.96 34.404-66.893 44.743-24.937 10.339-51.915 15.71-78.904 15.71-26.99 0-53.971-5.371-78.905-15.71-24.937-10.34-47.807-25.639-66.892-44.743a207.017 207.017 0 0 1-44.697-66.96c-10.33-24.958-15.694-51.967-15.694-78.984h-5.891c0 27.789 5.519 55.569 16.143 81.242 10.623 25.673 26.34 49.222 45.97 68.872 19.633 19.65 43.159 35.386 68.806 46.02a212.547 212.547 0 0 0 81.16 16.16c27.76 0 55.509-5.525 81.159-16.16 25.647-10.634 49.173-26.37 68.803-46.02 19.629-19.65 35.35-43.2 45.974-68.872 10.62-25.673 16.143-53.453 16.143-81.242h-5.891Z" />
          <path fill="#00B0FF" fill-opacity=".047" d="M571.94 68.73c0 27.789-5.523 55.569-16.143 81.242-10.624 25.673-26.345 49.222-45.974 68.872-19.63 19.65-43.156 35.386-68.803 46.02-25.65 10.635-53.4 16.16-81.16 16.16a212.547 212.547 0 0 1-81.16-16.16c-25.646-10.634-49.172-26.37-68.805-46.02-19.63-19.65-35.347-43.2-45.97-68.872-10.624-25.673-16.143-53.453-16.143-81.242h-5.891c0 28.56 5.672 57.112 16.59 83.5 10.92 26.387 27.075 50.59 47.249 70.783 20.178 20.199 44.356 36.37 70.716 47.3 26.36 10.93 54.88 16.608 83.415 16.608 28.53 0 57.05-5.679 83.41-16.609 26.36-10.93 50.543-27.1 70.717-47.299 20.174-20.194 36.332-44.396 47.25-70.783 10.917-26.388 16.593-54.94 16.593-83.5h-5.891Z" />
          <path fill="#00B0FF" fill-opacity=".045" d="M577.83 68.73c0 28.56-5.675 57.112-16.591 83.5-10.92 26.387-27.077 50.59-47.251 70.783-20.174 20.199-44.356 36.37-70.716 47.3-26.36 10.93-54.88 16.608-83.411 16.608-28.535 0-57.055-5.679-83.415-16.609-26.36-10.93-50.538-27.1-70.716-47.299-20.174-20.194-36.33-44.396-47.248-70.783-10.92-26.388-16.591-54.94-16.591-83.5h-5.892c0 29.332 5.826 58.656 17.04 85.753 11.215 27.102 27.807 51.96 48.526 72.7 20.722 20.743 45.552 37.351 72.626 48.578 27.073 11.225 56.364 17.057 85.67 17.057 29.302 0 58.592-5.832 85.666-17.057 27.074-11.227 51.908-27.835 72.626-48.578 20.722-20.74 37.314-45.598 48.529-72.7 11.214-27.097 17.04-56.42 17.04-85.753h-5.891Z" />
          <path fill="#00B0FF" fill-opacity=".043" d="M583.722 68.73c0 29.332-5.826 58.656-17.04 85.753-11.215 27.102-27.807 51.96-48.53 72.7-20.717 20.743-45.551 37.351-72.625 48.578-27.074 11.225-56.364 17.057-85.666 17.057-29.306 0-58.597-5.832-85.67-17.057-27.074-11.227-51.904-27.835-72.626-48.578-20.72-20.74-37.311-45.598-48.525-72.7-11.215-27.097-17.041-56.42-17.041-85.753h-5.891c0 30.104 5.98 60.2 17.489 88.01 11.507 27.816 28.535 53.327 49.802 74.616 21.267 21.284 46.753 38.33 74.536 49.852 27.788 11.522 57.849 17.507 87.926 17.507 30.073 0 60.134-5.985 87.92-17.507 27.784-11.521 53.27-28.568 74.537-49.852 21.267-21.289 38.296-46.8 49.806-74.615 11.51-27.811 17.489-57.907 17.489-88.01h-5.891Z" />
          <path fill="#00B0FF" fill-opacity=".042" d="M589.613 68.73c0 30.104-5.98 60.2-17.49 88.01-11.51 27.816-28.538 53.327-49.805 74.616-21.267 21.284-46.753 38.33-74.536 49.852-27.787 11.522-57.848 17.507-87.921 17.507-30.077 0-60.138-5.985-87.926-17.507-27.783-11.521-53.27-28.568-74.536-49.852-21.267-21.289-38.295-46.8-49.802-74.615-11.51-27.811-17.49-57.907-17.49-88.01h-5.89c0 30.874 6.133 61.742 17.938 90.267 11.8 28.526 29.268 54.694 51.079 76.527 21.812 21.834 47.95 39.314 76.45 51.13 28.497 11.818 59.329 17.957 90.177 17.957 30.844 0 61.676-6.14 90.176-17.956 28.497-11.817 54.635-29.297 76.446-51.13 21.812-21.834 39.278-48.002 51.083-76.528 11.806-28.525 17.938-59.393 17.938-90.268h-5.891Z" />
          <path fill="#00B0FF" fill-opacity=".04" d="M595.504 68.73c0 30.875-6.132 61.743-17.938 90.268-11.805 28.526-29.271 54.694-51.083 76.527-21.811 21.834-47.95 39.314-76.446 51.13-28.5 11.818-59.332 17.957-90.176 17.957-30.848 0-61.68-6.14-90.177-17.956-28.5-11.817-54.638-29.297-76.45-51.13-21.811-21.834-39.278-48.002-51.08-76.528-11.804-28.525-17.937-59.393-17.937-90.268h-5.891c0 31.65 6.286 63.286 18.383 92.525 12.1 29.24 30.004 56.06 52.36 78.44 22.356 22.379 49.15 40.3 78.36 52.41 29.21 12.111 60.813 18.404 92.432 18.404 31.615 0 63.222-6.293 92.432-18.405 29.21-12.109 55.999-30.03 78.356-52.41 22.356-22.378 40.259-49.2 52.36-78.439 12.1-29.24 18.386-60.874 18.386-92.525h-5.891Z" />
          <path fill="#00B0FF" fill-opacity=".038" d="M601.395 68.73c0 31.65-6.286 63.286-18.386 92.525-12.101 29.24-30.004 56.06-52.36 78.44-22.357 22.379-49.146 40.3-78.356 52.41-29.21 12.111-60.817 18.404-92.432 18.404-31.62 0-63.222-6.293-92.432-18.405-29.21-12.109-56.004-30.03-78.36-52.41-22.356-22.378-40.26-49.2-52.36-78.439-12.097-29.24-18.383-60.874-18.383-92.525h-5.891c0 32.423 6.44 64.83 18.832 94.783 12.395 29.95 30.736 57.427 53.637 80.352 22.9 22.923 50.346 41.282 80.27 53.687 29.923 12.408 62.297 18.854 94.687 18.854 32.385 0 64.763-6.446 94.683-18.854 29.923-12.405 57.369-30.764 80.274-53.687 22.9-22.925 41.237-50.402 53.633-80.352 12.396-29.954 18.835-62.36 18.835-94.783h-5.891Z" />
          <path fill="#00B0FF" fill-opacity=".037" d="M607.286 68.73c0 32.423-6.44 64.83-18.835 94.783-12.396 29.95-30.733 57.427-53.633 80.352-22.905 22.923-50.351 41.282-80.274 53.687-29.92 12.408-62.298 18.854-94.683 18.854-32.39 0-64.764-6.446-94.687-18.854-29.924-12.405-57.37-30.764-80.27-53.687-22.901-22.925-41.242-50.402-53.637-80.352-12.392-29.954-18.832-62.36-18.832-94.783h-5.891c0 33.194 6.593 66.373 19.28 97.037 12.69 30.668 31.465 58.797 54.915 82.267 23.445 23.468 51.547 42.265 82.18 54.965 30.636 12.705 63.78 19.304 96.942 19.304 33.156 0 66.305-6.599 96.938-19.304 30.637-12.7 58.735-31.497 82.184-54.965 23.445-23.47 42.223-51.6 54.91-82.267 12.692-30.664 19.285-63.843 19.285-97.037h-5.892Z" />
          <path fill="#00B0FF" fill-opacity=".036" d="M613.178 68.73c0 33.194-6.593 66.373-19.285 97.037-12.687 30.668-31.465 58.797-54.91 82.267-23.45 23.468-51.547 42.265-82.184 54.965-30.633 12.705-63.782 19.304-96.938 19.304-33.161 0-66.306-6.599-96.942-19.304-30.633-12.7-58.735-31.497-82.18-54.965-23.45-23.47-42.224-51.6-54.915-82.267-12.687-30.664-19.28-63.843-19.28-97.037h-5.891c0 33.966 6.746 67.916 19.729 99.294 12.986 31.382 32.198 60.165 56.192 84.179 23.99 24.018 52.743 43.249 84.089 56.245 31.35 12.999 65.266 19.753 99.198 19.753 33.927 0 67.847-6.754 99.193-19.753 31.347-12.996 60.1-32.227 84.094-56.245 23.99-24.014 43.205-52.797 56.188-84.179 12.986-31.378 19.733-65.328 19.733-99.294h-5.891Z" />
          <path fill="#00B0FF" fill-opacity=".034" d="M619.069 68.73c0 33.966-6.747 67.916-19.733 99.294-12.983 31.382-32.198 60.165-56.188 84.179-23.994 24.018-52.747 43.249-84.094 56.245-31.346 12.999-65.266 19.753-99.193 19.753-33.932 0-67.847-6.754-99.198-19.753-31.346-12.996-60.1-32.227-84.09-56.245-23.993-24.014-43.205-52.797-56.191-84.179-12.983-31.378-19.73-65.328-19.73-99.294h-5.89c0 34.738 6.9 69.46 20.178 101.551 13.28 32.093 32.93 61.528 57.464 86.091 24.539 24.564 53.948 44.232 86.008 57.527 32.06 13.292 66.747 20.199 101.449 20.199 34.698 0 69.389-6.907 101.448-20.199 32.06-13.295 61.466-32.963 86.004-57.527 24.539-24.563 44.187-53.998 57.465-86.09C618.06 138.19 624.96 103.467 624.96 68.73h-5.891Z" />
          <path fill="#00B0FF" fill-opacity=".033" d="M624.96 68.73c0 34.738-6.9 69.46-20.182 101.551-13.278 32.093-32.926 61.528-57.465 86.091-24.538 24.564-53.944 44.232-86.004 57.527-32.06 13.292-66.75 20.199-101.448 20.199-34.702 0-69.39-6.907-101.45-20.199-32.06-13.295-61.468-32.963-86.007-57.527-24.534-24.563-44.183-53.998-57.464-86.09-13.278-32.092-20.178-66.814-20.178-101.552H88.87c0 35.51 7.053 71.003 20.626 103.81 13.573 32.806 33.659 62.893 58.742 88.001 25.083 25.109 55.145 45.215 87.918 58.806 32.773 13.587 68.23 20.647 103.704 20.647 35.473 0 70.93-7.06 103.704-20.647 32.769-13.591 62.83-33.697 87.913-58.806 25.084-25.108 45.169-55.195 58.743-88.001 13.577-32.807 20.63-68.3 20.63-103.81h-5.891Z" />
          <path fill="#00B0FF" fill-opacity=".032" d="M630.85 68.73c0 35.51-7.052 71.003-20.63 103.81-13.573 32.806-33.658 62.893-58.742 88.001-25.083 25.109-55.144 45.215-87.913 58.806-32.773 13.587-68.231 20.647-103.704 20.647s-70.931-7.06-103.704-20.647c-32.773-13.591-62.835-33.697-87.918-58.806-25.083-25.108-45.17-55.195-58.742-88.001-13.573-32.807-20.626-68.3-20.626-103.81H82.98c0 36.281 7.206 72.546 21.075 106.067 13.868 33.516 34.39 64.26 60.019 89.914 25.628 25.657 56.34 46.197 89.828 60.084 33.486 13.882 69.715 21.096 105.959 21.096s72.472-7.214 105.955-21.096c33.486-13.887 64.2-34.427 89.828-60.084 25.627-25.653 46.15-56.398 60.019-89.914 13.872-33.521 21.079-69.786 21.079-106.067h-5.891Z" />
          <path fill="#00B0FF" fill-opacity=".031" d="M636.742 68.73c0 36.281-7.207 72.546-21.08 106.067-13.868 33.516-34.391 64.26-60.018 89.914-25.628 25.657-56.342 46.197-89.828 60.084-33.483 13.882-69.711 21.096-105.955 21.096s-72.473-7.214-105.96-21.096c-33.486-13.887-64.2-34.427-89.827-60.084-25.628-25.653-46.151-56.398-60.02-89.914C90.187 141.276 82.98 105.01 82.98 68.73h-5.891c0 37.053 7.36 74.09 21.523 108.32 14.164 34.235 35.125 65.631 61.297 91.834 26.172 26.2 57.542 47.18 91.738 61.359 34.199 14.178 71.199 21.545 108.214 21.545s74.014-7.367 108.21-21.545c34.196-14.179 65.565-35.16 91.738-61.36 26.176-26.202 47.132-57.598 61.296-91.833 14.168-34.23 21.528-71.267 21.528-108.32h-5.891Z" />
          <path fill="#00B0FF" fill-opacity=".03" d="M642.633 68.73c0 37.053-7.36 74.09-21.528 108.32-14.164 34.235-35.12 65.631-61.296 91.834-26.173 26.2-57.542 47.18-91.738 61.359-34.196 14.178-71.195 21.545-108.21 21.545s-74.015-7.367-108.214-21.545c-34.196-14.179-65.566-35.16-91.738-61.36-26.172-26.202-47.133-57.598-61.297-91.833-14.163-34.23-21.523-71.267-21.523-108.32h-5.892c0 37.824 7.514 75.633 21.973 110.577 14.459 34.946 35.857 66.999 62.574 93.747 26.717 26.744 58.738 48.163 93.647 62.636 34.91 14.475 72.684 21.995 110.47 21.995s75.556-7.52 110.465-21.995c34.91-14.473 66.93-35.892 93.648-62.636 26.72-26.748 48.114-58.801 62.577-93.747 14.46-34.944 21.973-72.753 21.973-110.577h-5.891Z" />
          <path fill="#00B0FF" fill-opacity=".029" d="M648.524 68.73c0 37.824-7.513 75.633-21.973 110.577-14.463 34.946-35.856 66.999-62.577 93.747-26.717 26.744-58.738 48.163-93.648 62.636-34.91 14.475-72.68 21.995-110.465 21.995-37.786 0-75.56-7.52-110.47-21.995-34.91-14.473-66.93-35.892-93.647-62.636-26.717-26.748-48.115-58.801-62.574-93.747-14.46-34.944-21.973-72.753-21.973-110.577h-5.891c0 38.596 7.667 77.177 22.422 112.835 14.754 35.659 36.585 68.365 63.85 95.658 27.262 27.289 59.939 49.146 95.562 63.916 35.619 14.769 74.164 22.443 112.72 22.443 38.557 0 77.099-7.674 112.722-22.443 35.622-14.77 68.295-36.627 95.557-63.916 27.266-27.293 49.096-60 63.855-95.658 14.754-35.658 22.42-74.239 22.42-112.835h-5.89Z" />
          <path fill="#00B0FF" fill-opacity=".028" d="M654.415 68.73c0 38.596-7.667 77.177-22.421 112.835-14.76 35.659-36.59 68.365-63.855 95.658-27.262 27.289-59.935 49.146-95.557 63.916-35.623 14.769-74.165 22.443-112.721 22.443-38.557 0-77.102-7.674-112.721-22.443-35.623-14.77-68.3-36.627-95.561-63.916-27.266-27.293-49.097-60-63.851-95.658-14.755-35.658-22.422-74.239-22.422-112.835h-5.891c0 39.368 7.82 78.72 22.87 115.093 15.05 36.369 37.318 69.731 65.128 97.57 27.81 27.837 61.136 50.128 97.472 65.193 36.332 15.065 75.648 22.893 114.976 22.893 39.327 0 78.64-7.828 114.976-22.893 36.332-15.065 69.66-37.356 97.47-65.194 27.807-27.838 50.079-61.2 65.129-97.57 15.05-36.372 22.87-75.724 22.87-115.092h-5.891Z" />
          <path fill="#00B0FF" fill-opacity=".027" d="M660.306 68.73c0 39.368-7.82 78.72-22.87 115.093-15.05 36.369-37.322 69.731-65.128 97.57-27.81 27.837-61.14 50.128-97.471 65.193-36.336 15.065-75.65 22.893-114.976 22.893-39.328 0-78.644-7.828-114.976-22.893-36.336-15.065-69.662-37.356-97.472-65.194-27.81-27.838-50.078-61.2-65.128-97.57-15.05-36.372-22.87-75.724-22.87-115.092h-5.891c0 40.14 7.974 80.263 23.319 117.35 15.345 37.083 38.05 71.099 66.405 99.482 28.355 28.383 62.336 51.111 99.382 66.472 37.045 15.361 77.128 23.342 117.23 23.342 40.099 0 80.182-7.98 117.228-23.342 37.049-15.36 71.03-38.089 99.385-66.472 28.355-28.383 51.06-62.4 66.405-99.482 15.346-37.087 23.319-77.21 23.319-117.35h-5.891Z" />
          <path fill="#00B0FF" fill-opacity=".026" d="M666.197 68.73c0 40.14-7.973 80.263-23.32 117.35-15.344 37.083-38.05 71.099-66.404 99.482-28.354 28.383-62.336 51.111-99.385 66.472-37.046 15.361-77.13 23.342-117.227 23.342-40.103 0-80.186-7.98-117.231-23.342-37.046-15.36-71.027-38.089-99.382-66.472-28.354-28.383-51.06-62.4-66.405-99.482-15.345-37.087-23.32-77.21-23.32-117.35h-5.89c0 40.911 8.127 81.806 23.764 119.603 15.64 37.802 38.783 72.47 67.686 101.398 28.899 28.929 63.532 52.094 101.29 67.751 37.76 15.656 78.615 23.791 119.488 23.791 40.869 0 81.723-8.135 119.482-23.79 37.759-15.658 72.396-38.823 101.296-67.752 28.899-28.928 52.04-63.596 67.682-101.398 15.64-37.797 23.767-78.692 23.767-119.603h-5.891Z" />
          <path fill="#00B0FF" fill-opacity=".025" d="M672.088 68.73c0 40.911-8.127 81.806-23.767 119.603-15.641 37.802-38.783 72.47-67.682 101.398-28.9 28.929-63.537 52.094-101.296 67.751-37.76 15.656-78.613 23.791-119.482 23.791-40.873 0-81.728-8.135-119.487-23.79-37.76-15.658-72.392-38.823-101.291-67.752-28.903-28.928-52.046-63.596-67.686-101.398C55.76 150.536 47.633 109.641 47.633 68.73h-5.891c0 41.683 8.277 83.35 24.213 121.86 15.935 38.513 39.515 73.837 68.959 103.311 29.448 29.477 64.733 53.077 103.205 69.029 38.473 15.952 80.098 24.24 121.742 24.24 41.64 0 83.265-8.288 121.737-24.24 38.473-15.952 73.762-39.552 103.206-69.029 29.444-29.474 53.023-64.798 68.959-103.31 15.936-38.511 24.217-80.178 24.217-121.86h-5.892Z" />
          <path fill="#00B0FF" fill-opacity=".024" d="M677.98 68.73c0 41.683-8.281 83.35-24.217 121.86-15.936 38.513-39.515 73.837-68.96 103.311-29.443 29.477-64.732 53.077-103.205 69.029-38.472 15.952-80.097 24.24-121.737 24.24-41.644 0-83.27-8.288-121.742-24.24-38.472-15.952-73.757-39.552-103.205-69.029-29.444-29.474-53.024-64.798-68.96-103.31C50.02 152.08 41.743 110.413 41.743 68.73H35.85c0 42.454 8.43 84.892 24.66 124.117 16.232 39.226 40.249 75.203 70.238 105.222 29.992 30.022 65.933 54.06 105.119 70.307 39.182 16.249 81.578 24.691 123.993 24.691 42.41 0 84.807-8.442 123.993-24.69 39.182-16.248 75.126-40.286 105.115-70.308 29.992-30.02 54.005-65.996 70.237-105.222 16.23-39.225 24.665-81.663 24.665-124.118h-5.891Z" />
          <path fill="#00B0FF" fill-opacity=".024" d="M683.87 68.73c0 42.455-8.433 84.893-24.664 124.118-16.232 39.226-40.245 75.203-70.237 105.222-29.99 30.022-65.933 54.06-105.115 70.307-39.186 16.249-81.582 24.691-123.993 24.691-42.415 0-84.811-8.442-123.993-24.69-39.186-16.248-75.127-40.286-105.12-70.308-29.988-30.02-54.005-65.996-70.236-105.222C44.28 153.623 35.85 111.185 35.85 68.73H29.96c0 43.226 8.583 86.44 25.11 126.376 16.526 39.936 40.98 76.57 71.514 107.133 30.537 30.568 67.13 55.047 107.029 71.587 39.895 16.542 83.062 25.139 126.248 25.139 43.182 0 86.349-8.597 126.248-25.14 39.895-16.54 76.492-41.018 107.025-71.586 30.537-30.563 54.987-67.197 71.514-107.133 16.526-39.936 25.114-83.15 25.114-126.376h-5.891Z" />
          <path fill="#00B0FF" fill-opacity=".023" d="M689.762 68.73c0 43.226-8.588 86.44-25.114 126.376-16.527 39.936-40.977 76.57-71.514 107.133-30.533 30.568-67.13 55.047-107.025 71.587-39.9 16.542-83.066 25.139-126.248 25.139-43.186 0-86.353-8.597-126.248-25.14-39.9-16.54-76.492-41.018-107.03-71.586-30.533-30.563-54.987-67.197-71.513-107.133-16.527-39.936-25.11-83.15-25.11-126.376h-5.892c0 44.002 8.737 87.984 25.559 128.634 16.822 40.649 41.71 77.935 72.79 109.049 31.083 31.109 68.332 56.025 108.94 72.864 40.609 16.835 84.547 25.585 128.504 25.585 43.953 0 87.89-8.75 128.499-25.585 40.613-16.839 77.858-41.755 108.939-72.864 31.082-31.114 55.969-68.4 72.79-109.05 16.823-40.65 25.564-84.63 25.564-128.633h-5.891Z" />
          <path fill="#00B0FF" fill-opacity=".022" d="M695.653 68.73c0 44.002-8.741 87.984-25.563 128.634-16.822 40.649-41.71 77.935-72.791 109.049-31.081 31.109-68.326 56.025-108.94 72.864-40.607 16.835-84.545 25.585-128.498 25.585-43.957 0-87.895-8.75-128.503-25.585-40.61-16.839-77.858-41.755-108.94-72.864-31.081-31.114-55.97-68.4-72.791-109.05-16.822-40.65-25.559-84.63-25.559-128.633h-5.89c0 44.773 8.89 89.527 26.007 130.89 17.117 41.36 42.442 79.304 74.068 110.962 31.627 31.658 69.527 57.008 110.849 74.143 41.322 17.13 86.03 26.034 130.759 26.034 44.724 0 89.432-8.903 130.754-26.034 41.322-17.135 79.223-42.485 110.849-74.143 31.627-31.658 56.955-69.601 74.069-110.961 17.117-41.364 26.01-86.118 26.01-130.89h-5.89Z" />
          <path fill="#00B0FF" fill-opacity=".022" d="M701.544 68.73c0 44.773-8.894 89.527-26.011 130.89-17.114 41.36-42.442 79.304-74.07 110.962-31.625 31.658-69.526 57.008-110.848 74.143-41.322 17.13-86.03 26.034-130.754 26.034-44.728 0-89.437-8.903-130.76-26.034-41.321-17.135-79.221-42.485-110.848-74.143-31.626-31.658-56.951-69.601-74.068-110.961-17.117-41.364-26.008-86.118-26.008-130.89h-5.89c0 45.544 9.043 91.07 26.456 133.143 17.412 42.079 43.174 80.674 75.345 112.877 32.17 32.204 70.728 57.992 112.759 75.422 42.036 17.426 87.515 26.483 133.014 26.483 45.495 0 90.974-9.057 133.01-26.483 42.035-17.43 80.588-43.218 112.762-75.422 32.17-32.203 57.933-70.798 75.342-112.877 17.412-42.073 26.46-87.6 26.46-133.144h-5.891Z" />
          <path fill="#00B0FF" fill-opacity=".021" d="M707.435 68.73c0 45.545-9.048 91.07-26.46 133.144-17.41 42.079-43.171 80.674-75.342 112.877-32.174 32.204-70.727 57.992-112.762 75.422-42.036 17.426-87.515 26.483-133.01 26.483-45.5 0-90.978-9.057-133.014-26.483-42.031-17.43-80.588-43.218-112.76-75.422-32.17-32.203-57.932-70.798-75.344-112.877-17.413-42.073-26.457-87.6-26.457-133.144h-5.89c0 46.317 9.196 92.614 26.904 135.402 17.708 42.792 43.904 82.04 76.623 114.79 32.715 32.747 71.924 58.973 114.673 76.699 42.745 17.722 88.995 26.932 135.265 26.932 46.266 0 92.516-9.21 135.265-26.932 42.745-17.726 81.953-43.952 114.673-76.7 32.715-32.749 58.914-71.997 76.618-114.789 17.708-42.788 26.909-89.085 26.909-135.402h-5.891Z" />
          <path fill="#00B0FF" fill-opacity=".02" d="M713.326 68.73c0 46.317-9.201 92.614-26.91 135.402-17.703 42.792-43.902 82.04-76.617 114.79-32.72 32.747-71.928 58.973-114.673 76.699-42.75 17.722-89 26.932-135.265 26.932-46.27 0-92.52-9.21-135.265-26.932-42.75-17.726-81.958-43.952-114.673-76.7-32.72-32.749-58.915-71.997-76.623-114.789C15.592 161.344 6.395 115.047 6.395 68.73H.505c0 47.088 9.35 94.157 27.353 137.66 17.999 43.502 44.636 83.407 77.9 116.7 33.26 33.298 73.124 59.957 116.583 77.978 43.458 18.018 90.479 27.382 137.52 27.382 47.036 0 94.058-9.364 137.52-27.382 43.458-18.021 83.319-44.68 116.583-77.978 33.26-33.293 59.896-73.198 77.896-116.7 18.003-43.503 27.357-90.572 27.357-137.66h-5.891Z" />
          <path fill="#00B0FF" fill-opacity=".02" d="M719.217 68.73c0 47.088-9.354 94.157-27.357 137.66-18 43.502-44.636 83.407-77.896 116.7-33.264 33.298-73.125 59.957-116.583 77.978-43.462 18.018-90.484 27.382-137.52 27.382-47.041 0-94.062-9.364-137.52-27.382-43.46-18.021-83.323-44.68-116.583-77.978-33.264-33.293-59.901-73.198-77.9-116.7C9.855 162.887.504 115.818.504 68.73h-5.89c0 47.86 9.503 95.7 27.802 139.917 18.294 44.217 45.368 84.774 79.173 118.613 33.808 33.842 74.325 60.94 118.496 79.257 44.172 18.312 91.964 27.83 139.776 27.83 47.81 0 95.6-9.518 139.77-27.83 44.173-18.318 84.689-45.415 118.498-79.257 33.809-33.84 60.878-74.396 79.177-118.613C715.6 164.43 725.108 116.59 725.108 68.73h-5.891Z" />
          <path fill="#00B0FF" fill-opacity=".019" d="M725.108 68.73c0 47.86-9.508 95.7-27.802 139.917-18.3 44.217-45.368 84.774-79.177 118.613-33.81 33.842-74.325 60.94-118.497 79.257-44.171 18.312-91.96 27.83-139.771 27.83-47.812 0-95.604-9.518-139.776-27.83-44.171-18.318-84.688-45.415-118.496-79.257-33.805-33.84-60.88-74.396-79.173-118.613C4.117 164.43-5.387 116.59-5.387 68.73h-5.891c0 48.632 9.657 97.244 28.251 142.174 18.59 44.927 46.1 86.137 80.45 120.525 34.354 34.388 75.522 61.926 120.407 80.535 44.885 18.609 93.448 28.28 142.03 28.28 48.583 0 97.142-9.671 142.027-28.28 44.885-18.609 86.054-46.147 120.407-80.535 34.353-34.388 61.86-75.598 80.454-120.525 18.59-44.93 28.25-93.542 28.25-142.174h-5.89Z" />
          <path fill="#00B0FF" fill-opacity=".019" d="M730.999 68.73c0 48.632-9.661 97.244-28.251 142.174-18.594 44.927-46.101 86.137-80.454 120.525-34.353 34.388-75.522 61.926-120.407 80.535-44.885 18.609-93.444 28.28-142.026 28.28-48.583 0-97.146-9.671-142.031-28.28-44.885-18.609-86.053-46.147-120.406-80.535-34.35-34.388-61.86-75.598-80.45-120.525-18.595-44.93-28.252-93.542-28.252-142.174h-5.891c0 49.404 9.81 98.787 28.7 144.428 18.885 45.645 46.83 87.507 81.727 122.44 34.898 34.933 76.723 62.91 122.317 81.814 45.599 18.905 94.933 28.729 144.286 28.729 49.353 0 98.687-9.824 144.282-28.73 45.594-18.903 87.419-46.88 122.316-81.813 34.898-34.933 62.842-76.795 81.732-122.44 18.885-45.64 28.699-95.024 28.699-144.428h-5.891Z" />
          <path fill="#00B0FF" fill-opacity=".018" d="M736.89 68.73c0 49.404-9.814 98.787-28.7 144.428-18.89 45.645-46.833 87.507-81.731 122.44-34.897 34.933-76.722 62.91-122.316 81.814-45.595 18.905-94.93 28.729-144.282 28.729-49.353 0-98.687-9.824-144.286-28.73-45.594-18.903-87.42-46.88-122.317-81.813-34.897-34.933-62.842-76.795-81.727-122.44-18.89-45.64-28.7-95.024-28.7-144.428h-5.891c0 50.175 9.964 100.331 29.148 146.686C25.27 261.77 53.651 304.289 89.093 339.77c35.443 35.48 77.919 63.889 124.23 83.09 46.309 19.198 96.414 29.177 146.538 29.177 50.124 0 100.229-9.979 146.537-29.178 46.308-19.2 88.784-47.61 124.227-83.089 35.442-35.482 63.827-78 83.008-124.355 19.18-46.355 29.149-96.51 29.149-146.686h-5.892Z" />
          <path fill="#00B0FF" fill-opacity=".018" d="M742.782 68.73c0 50.175-9.97 100.331-29.15 146.686-19.18 46.355-47.565 88.873-83.007 124.355-35.443 35.48-77.92 63.889-124.227 83.09-46.308 19.198-96.413 29.177-146.537 29.177-50.124 0-100.23-9.979-146.537-29.178-46.312-19.2-88.788-47.61-124.231-83.089-35.442-35.482-63.824-78-83.005-124.355C-13.096 169.06-23.06 118.906-23.06 68.73h-5.891c0 50.947 10.117 101.875 29.593 148.943 19.48 47.069 48.299 90.241 84.286 126.267 35.987 36.024 79.119 64.872 126.14 84.368 47.022 19.495 97.898 29.626 148.793 29.626 50.895 0 101.77-10.13 148.792-29.626 47.02-19.496 90.15-48.344 126.137-84.368 35.99-36.026 64.809-79.198 84.285-126.267 19.476-47.068 29.598-97.996 29.598-148.943h-5.891Z" />
          <path fill="#00B0FF" fill-opacity=".017" d="M748.673 68.73c0 50.947-10.122 101.875-29.598 148.943-19.476 47.069-48.294 90.241-84.285 126.267-35.987 36.024-79.116 64.872-126.137 84.368-47.021 19.495-97.897 29.626-148.792 29.626-50.895 0-101.771-10.13-148.792-29.626-47.022-19.496-90.154-48.344-126.141-84.368C48.94 307.914 20.122 264.742.642 217.673-18.834 170.605-28.95 119.677-28.95 68.73h-5.891c0 51.719 10.27 103.417 30.042 151.2 19.775 47.78 49.027 91.608 85.563 128.18 36.53 36.569 80.316 65.854 128.05 85.645 47.735 19.792 99.382 30.077 151.048 30.077s103.312-10.285 151.043-30.077c47.735-19.79 91.519-49.076 128.05-85.644 36.536-36.573 65.792-80.401 85.564-128.18 19.77-47.784 30.046-99.482 30.046-151.2h-5.891Z" />
          <path fill="#00B0FF" fill-opacity=".017" d="M754.564 68.73c0 51.719-10.275 103.417-30.046 151.2-19.772 47.78-49.028 91.608-85.563 128.18-36.532 36.569-80.316 65.854-128.051 85.645-47.731 19.792-99.377 30.077-151.043 30.077-51.666 0-103.313-10.285-151.048-30.077-47.734-19.79-91.52-49.076-128.05-85.644C44.227 311.538 14.975 267.71-4.8 219.93c-19.771-47.784-30.042-99.482-30.042-151.2h-5.891c0 52.489 10.424 104.96 30.49 153.457 20.067 48.493 49.76 92.974 86.84 130.092 37.077 37.117 81.517 66.836 129.96 86.924 48.449 20.086 100.863 30.525 153.304 30.525 52.437 0 104.854-10.44 153.298-30.525 48.449-20.088 92.885-49.807 129.965-86.924 37.076-37.118 66.769-81.6 86.836-130.092 20.066-48.497 30.495-100.968 30.495-153.458h-5.891Z" />
          <path fill="#00B0FF" fill-opacity=".016" d="M760.455 68.73c0 52.49-10.43 104.96-30.495 153.458-20.067 48.493-49.76 92.974-86.836 130.092-37.08 37.117-81.516 66.836-129.965 86.924-48.444 20.086-100.861 30.525-153.298 30.525-52.441 0-104.855-10.44-153.303-30.525-48.444-20.088-92.884-49.807-129.96-86.924-37.08-37.118-66.774-81.6-86.84-130.092C-30.31 173.69-40.734 121.22-40.734 68.73h-5.892c0 53.262 10.578 106.504 30.94 155.712 20.362 49.21 50.492 94.344 88.117 132.007 37.625 37.663 82.713 67.82 131.87 88.202 49.162 20.387 102.347 30.975 155.559 30.975 53.207 0 106.396-10.588 155.554-30.975 49.157-20.382 94.249-50.539 131.874-88.202s67.75-82.796 88.113-132.007c20.362-49.208 30.944-102.45 30.944-155.712h-5.891Z" />
          <path fill="#00B0FF" fill-opacity=".016" d="M766.346 68.73c0 53.262-10.582 106.504-30.944 155.712-20.362 49.21-50.488 94.344-88.113 132.007-37.625 37.663-82.717 67.82-131.874 88.202-49.158 20.387-102.347 30.975-155.554 30.975-53.212 0-106.397-10.588-155.558-30.975-49.158-20.382-94.246-50.539-131.871-88.202-37.625-37.663-67.755-82.796-88.117-132.007-20.362-49.208-30.94-102.45-30.94-155.712h-5.89c0 54.033 10.73 108.048 31.388 157.97 20.657 49.92 51.22 95.71 89.394 133.918 38.17 38.209 83.914 68.807 133.785 89.485 49.87 20.678 103.826 31.42 157.809 31.42 53.978 0 107.938-10.742 157.809-31.42 49.87-20.678 95.615-51.276 133.784-89.485 38.17-38.207 68.733-83.997 89.39-133.919 20.658-49.921 31.393-103.936 31.393-157.969h-5.891Z" />
          <path fill="#00B0FF" fill-opacity=".016" d="M772.237 68.73c0 54.033-10.735 108.048-31.392 157.97-20.658 49.92-51.221 95.71-89.391 133.918-38.17 38.209-83.913 68.807-133.784 89.485-49.871 20.678-103.831 31.42-157.81 31.42-53.982 0-107.937-10.742-157.808-31.42-49.871-20.678-95.615-51.276-133.785-89.485C30.094 322.411-.47 276.621-21.127 226.7-41.784 176.778-52.516 122.763-52.516 68.73h-5.89c0 54.805 10.884 109.591 31.837 160.226 20.952 50.636 51.953 97.078 90.667 135.832 38.718 38.753 85.114 69.789 135.699 90.763 50.58 20.973 105.31 31.87 160.064 31.87 54.749 0 109.48-10.897 160.064-31.87 50.58-20.974 96.98-52.01 135.694-90.763 38.714-38.754 69.716-85.196 90.668-135.832 20.952-50.635 31.84-105.42 31.84-160.226h-5.89Z" />
          <path fill="#00B0FF" fill-opacity=".015" d="M778.128 68.73c0 54.805-10.89 109.591-31.841 160.226-20.952 50.636-51.954 97.078-90.668 135.832-38.713 38.753-85.113 69.789-135.694 90.763-50.584 20.973-105.315 31.87-160.064 31.87-54.754 0-109.484-10.897-160.064-31.87-50.585-20.974-96.981-52.01-135.7-90.763-38.713-38.754-69.714-85.196-90.666-135.832-20.953-50.635-31.838-105.42-31.838-160.226h-5.89c0 55.577 11.037 111.134 32.285 162.484 21.248 51.346 52.686 98.445 91.945 137.744 39.262 39.301 86.31 70.771 137.608 92.04 51.294 21.27 106.796 32.32 162.32 32.32 55.52 0 111.02-11.05 162.315-32.32 51.298-21.269 98.35-52.739 137.609-92.04 39.258-39.299 70.697-86.398 91.944-137.744 21.248-51.35 32.29-106.907 32.29-162.484h-5.891Z" />
          <path fill="#00B0FF" fill-opacity=".015" d="M784.019 68.73c0 55.577-11.042 111.134-32.29 162.484-21.247 51.346-52.686 98.445-91.944 137.744-39.26 39.301-86.311 70.771-137.61 92.04-51.293 21.27-106.794 32.32-162.314 32.32-55.524 0-111.026-11.05-162.32-32.32-51.297-21.269-98.346-52.739-137.608-92.04-39.259-39.299-70.697-86.398-91.945-137.744-21.248-51.35-32.286-106.907-32.286-162.484h-5.89c0 56.353 11.19 112.677 32.734 164.741 21.543 52.06 53.418 99.813 93.222 139.656 39.807 39.847 87.51 71.754 139.518 93.32 52.007 21.565 108.28 32.767 164.575 32.767 56.29 0 112.563-11.202 164.57-32.768 52.008-21.565 99.716-53.472 139.519-93.32 39.807-39.842 71.682-87.594 93.222-139.655 21.543-52.064 32.738-108.388 32.738-164.74h-5.891Z" />
          <path fill="#00B0FF" fill-opacity=".015" d="M789.91 68.73c0 56.353-11.195 112.677-32.738 164.741-21.54 52.06-53.415 99.813-93.222 139.656-39.803 39.847-87.511 71.754-139.518 93.32-52.008 21.565-108.28 32.767-164.571 32.767-56.295 0-112.568-11.202-164.575-32.768-52.007-21.565-99.711-53.472-139.518-93.32-39.804-39.842-71.68-87.594-93.222-139.655-21.543-52.064-32.735-108.388-32.735-164.74h-5.891c0 57.123 11.345 114.22 33.183 166.994 21.839 52.774 54.148 101.182 94.5 141.575 40.35 40.389 88.707 72.734 141.428 94.595 52.72 21.86 109.764 33.216 166.83 33.216 57.062 0 114.105-11.356 166.826-33.216 52.72-21.861 101.08-54.206 141.428-94.595 40.352-40.393 72.664-88.801 94.503-141.575C784.452 182.951 795.8 125.855 795.8 68.73h-5.891Z" />
          <path fill="#00B0FF" fill-opacity=".014" d="M795.8 68.73c0 57.124-11.348 114.221-33.182 166.995-21.84 52.774-54.151 101.182-94.503 141.575-40.348 40.389-88.708 72.734-141.428 94.595-52.721 21.86-109.764 33.216-166.826 33.216-57.066 0-114.11-11.356-166.83-33.216C140.31 450.034 91.954 417.689 51.603 377.3c-40.352-40.393-72.661-88.801-94.5-141.575C-64.735 182.951-76.08 125.855-76.08 68.73h-5.891c0 57.896 11.498 115.765 33.632 169.253 22.13 53.488 54.88 102.549 95.776 143.486 40.897 40.938 89.909 73.717 143.343 95.873 53.43 22.156 111.244 33.666 169.08 33.666 57.834 0 115.648-11.51 169.082-33.666s102.442-54.935 143.338-95.873c40.896-40.937 73.646-89.998 95.78-143.486 22.13-53.488 33.632-111.357 33.632-169.253H795.8Z" />
          <path fill="#00B0FF" fill-opacity=".014" d="M801.692 68.73c0 57.896-11.502 115.765-33.632 169.253-22.134 53.488-54.884 102.549-95.78 143.486-40.896 40.938-89.904 73.717-143.338 95.873-53.434 22.156-111.248 33.666-169.081 33.666-57.837 0-115.651-11.51-169.081-33.666-53.434-22.156-102.446-54.935-143.343-95.873C6.54 340.532-26.21 291.471-48.34 237.983-70.473 184.495-81.97 126.626-81.97 68.73h-5.891c0 58.668 11.652 117.308 34.08 171.51 22.426 54.199 55.613 103.916 97.054 145.399 41.44 41.482 91.105 74.699 145.252 97.152 54.144 22.451 112.729 34.114 171.337 34.114 58.604 0 117.189-11.663 171.336-34.114 54.144-22.453 103.807-55.67 145.248-97.152 41.445-41.483 74.629-91.2 97.058-145.4 22.425-54.2 34.08-112.841 34.08-171.509h-5.891Z" />
          <path fill="#00B0FF" fill-opacity=".014" d="M807.583 68.73c0 58.668-11.655 117.308-34.08 171.51-22.43 54.199-55.613 103.916-97.058 145.399-41.441 41.482-91.104 74.699-145.248 97.152-54.147 22.451-112.732 34.114-171.336 34.114-58.608 0-117.193-11.663-171.337-34.114-54.147-22.453-103.811-55.67-145.252-97.152-41.44-41.483-74.628-91.2-97.053-145.4-22.43-54.2-34.081-112.841-34.081-171.509h-5.891c0 59.439 11.805 118.85 34.53 173.767 22.72 54.913 56.34 105.283 98.33 147.31 41.986 42.03 92.305 75.683 147.162 98.431 54.857 22.747 114.213 34.564 173.592 34.564 59.375 0 118.73-11.817 173.587-34.564 54.86-22.748 105.177-56.402 147.166-98.43 41.986-42.028 75.607-92.398 98.33-147.31 22.722-54.917 34.53-114.33 34.53-173.768h-5.891Z" />
          <path fill="#00B0FF" fill-opacity=".013" d="M813.475 68.73c0 59.439-11.81 118.85-34.53 173.767-22.724 54.913-56.345 105.283-98.331 147.31-41.99 42.03-92.305 75.683-147.166 98.431-54.856 22.747-114.212 34.564-173.587 34.564-59.38 0-118.735-11.817-173.592-34.564-54.857-22.748-105.176-56.402-147.162-98.43-41.99-42.028-75.61-92.398-98.33-147.31-22.725-54.917-34.53-114.33-34.53-173.768h-5.891c0 60.21 11.958 120.394 34.978 176.024 23.016 55.628 57.074 106.65 99.608 149.223 42.53 42.574 93.502 76.67 149.072 99.709C239.584 516.729 299.71 528.7 359.86 528.7c60.149 0 120.272-11.971 175.843-35.014 55.57-23.04 106.542-57.135 149.076-99.709 42.53-42.573 76.588-93.595 99.607-149.223 23.016-55.63 34.979-115.813 34.979-176.024h-5.891Z" />
          <path fill="#00B0FF" fill-opacity=".013" d="M819.366 68.73c0 60.21-11.963 120.394-34.98 176.024-23.018 55.628-57.076 106.65-99.606 149.223-42.534 42.574-93.506 76.67-149.076 99.709C480.133 516.729 420.01 528.7 359.86 528.7c-60.15 0-120.277-11.971-175.847-35.014-55.57-23.04-106.542-57.135-149.072-99.709-42.534-42.573-76.592-93.595-99.608-149.223-23.02-55.63-34.978-115.813-34.978-176.024h-5.891c0 60.982 12.112 121.942 35.423 178.279 23.315 56.34 57.81 108.02 100.889 151.138C73.85 441.27 125.479 475.8 181.759 499.134c56.284 23.339 117.18 35.463 178.102 35.463 60.92 0 121.814-12.124 178.098-35.463 56.283-23.335 107.907-57.865 150.986-100.987 43.075-43.118 77.57-94.798 100.885-151.138 23.31-56.337 35.427-117.297 35.427-178.279h-5.891Z" />
          <path fill="#00B0FF" fill-opacity=".013" d="M825.257 68.73c0 60.982-12.116 121.942-35.427 178.279-23.315 56.34-57.81 108.02-100.885 151.138-43.08 43.122-94.703 77.652-150.986 100.987-56.284 23.339-117.178 35.463-178.098 35.463-60.921 0-121.818-12.124-178.102-35.463C125.479 475.8 73.85 441.27 30.777 398.147-12.302 355.03-46.797 303.35-70.113 247.01c-23.31-56.337-35.422-117.297-35.422-178.279h-5.892c0 61.754 12.266 123.485 35.873 180.536 23.61 57.055 58.542 109.386 102.162 153.05 43.623 43.667 95.903 78.635 152.9 102.266 56.993 23.633 118.66 35.912 180.353 35.912 61.69 0 123.356-12.279 180.353-35.912 56.993-23.631 109.273-58.599 152.896-102.266 43.623-43.664 78.556-95.995 102.162-153.05 23.607-57.05 35.876-118.782 35.876-180.536h-5.891Z" />
          <path fill="#00B0FF" fill-opacity=".012" d="M831.148 68.73c0 61.754-12.27 123.485-35.876 180.536-23.606 57.055-58.54 109.386-102.162 153.05-43.623 43.667-95.903 78.635-152.896 102.266-56.997 23.633-118.662 35.912-180.353 35.912-61.692 0-123.36-12.279-180.353-35.912-56.997-23.631-109.277-58.599-152.9-102.266-43.62-43.664-78.552-95.995-102.163-153.05-23.606-57.05-35.871-118.782-35.871-180.536h-5.892c0 62.526 12.42 125.028 36.321 182.793 23.906 57.766 59.271 110.75 103.44 154.963 44.167 44.212 97.099 79.617 154.809 103.543 57.707 23.93 120.146 36.362 182.609 36.362 62.462 0 124.898-12.432 182.608-36.362 57.707-23.926 110.638-59.33 154.806-103.543 44.168-44.213 79.538-97.197 103.439-154.963 23.902-57.765 36.325-120.267 36.325-182.793h-5.891Z" />
          <path fill="#00B0FF" fill-opacity=".012" d="M837.039 68.73c0 62.526-12.423 125.028-36.325 182.793-23.901 57.766-59.271 110.75-103.44 154.963-44.167 44.212-97.098 79.617-154.805 103.543-57.71 23.93-120.146 36.362-182.608 36.362-62.463 0-124.902-12.432-182.61-36.362-57.71-23.926-110.641-59.33-154.809-103.543-44.168-44.213-79.533-97.197-103.439-154.963-23.902-57.765-36.32-120.267-36.32-182.793h-5.892c0 63.298 12.573 126.572 36.77 185.05 24.2 58.48 60.004 112.118 104.716 156.879 44.713 44.758 98.3 80.596 156.72 104.819 58.42 24.225 121.63 36.81 184.864 36.81 63.233 0 126.44-12.585 184.86-36.81 58.419-24.223 112.007-60.061 156.719-104.82 44.713-44.76 80.52-98.398 104.717-156.877 24.197-58.48 36.773-121.753 36.773-185.05h-5.891Z" />
          <path fill="#00B0FF" fill-opacity=".012" d="M842.93 68.73c0 63.298-12.576 126.572-36.773 185.05-24.197 58.48-60.004 112.118-104.717 156.879-44.712 44.758-98.3 80.596-156.72 104.819-58.42 24.225-121.626 36.81-184.86 36.81-63.233 0-126.443-12.585-184.863-36.81-58.42-24.223-112.007-60.061-156.72-104.82-44.712-44.76-80.515-98.398-104.716-156.877-24.197-58.48-36.77-121.753-36.77-185.05h-5.89c0 64.068 12.725 128.114 37.217 187.307 24.493 59.19 60.737 113.483 105.994 158.79 45.257 45.303 99.497 81.58 158.63 106.101 59.133 24.517 123.115 37.256 187.119 37.256s127.98-12.74 187.115-37.256c59.133-24.522 113.372-60.798 158.63-106.101 45.26-45.307 81.5-99.6 105.993-158.79 24.496-59.193 37.222-123.239 37.222-187.308h-5.891Z" />
          <path fill="#00B0FF" fill-opacity=".012" d="M848.82 68.73c0 64.07-12.725 128.115-37.221 187.308-24.492 59.19-60.733 113.483-105.993 158.79-45.258 45.303-99.497 81.58-158.63 106.101-59.134 24.517-123.111 37.256-187.115 37.256s-127.986-12.74-187.12-37.256C113.61 496.407 59.37 460.131 14.113 414.828c-45.257-45.307-81.501-99.6-105.994-158.79C-116.374 196.845-129.1 132.799-129.1 68.73h-5.89c0 64.841 12.878 129.659 37.666 189.562C-72.536 318.2-35.859 373.146 9.946 418.997c45.803 45.848 100.698 82.563 160.54 107.38 59.848 24.813 124.596 37.705 189.375 37.705 64.775 0 129.523-12.892 189.37-37.705 59.847-24.817 114.738-61.532 160.54-107.38 45.805-45.851 82.483-100.798 107.27-160.705 24.792-59.903 37.67-124.72 37.67-189.562h-5.89Z" />
          <path fill="#00B0FF" fill-opacity=".011" d="M854.712 68.73c0 64.841-12.88 129.659-37.671 189.562-24.787 59.907-61.465 114.854-107.27 160.705-45.802 45.848-100.693 82.563-160.54 107.38-59.847 24.813-124.595 37.705-189.37 37.705-64.78 0-129.527-12.892-189.374-37.705-59.843-24.817-114.738-61.532-160.54-107.38C-35.86 373.146-72.536 318.2-97.323 258.292c-24.789-59.903-37.668-124.72-37.668-189.562h-5.89c0 65.613 13.032 131.202 38.115 191.82 25.083 60.617 62.198 116.22 108.548 162.617 46.346 46.397 101.893 83.549 162.453 108.657 60.557 25.11 126.076 38.155 191.626 38.155 65.546 0 131.065-13.046 191.625-38.155 60.556-25.108 116.104-62.26 162.454-108.657 46.346-46.397 83.46-102 108.544-162.618 25.087-60.617 38.119-126.206 38.119-191.819h-5.891Z" />
          <path fill="#00B0FF" fill-opacity=".011" d="M860.603 68.73c0 65.613-13.032 131.202-38.12 191.82-25.082 60.617-62.197 116.22-108.543 162.617-46.35 46.397-101.898 83.549-162.454 108.657-60.56 25.11-126.08 38.155-191.625 38.155-65.55 0-131.07-13.046-191.626-38.155-60.56-25.108-116.107-62.26-162.453-108.657-46.35-46.397-83.465-102-108.548-162.618-25.083-60.617-38.116-126.206-38.116-191.819h-5.891c0 66.385 13.186 132.746 38.564 194.077 25.379 61.331 62.93 117.587 109.825 164.53 46.895 46.942 103.095 84.53 164.364 109.936 61.27 25.403 127.56 38.602 193.88 38.602 66.318 0 132.612-13.199 193.88-38.602 61.27-25.405 117.47-62.994 164.365-109.936 46.89-46.943 84.443-103.199 109.82-164.53 25.383-61.331 38.569-127.692 38.569-194.077h-5.891Z" />
          <path fill="#00B0FF" fill-opacity=".011" d="M866.494 68.73c0 66.385-13.186 132.746-38.568 194.077-25.378 61.331-62.93 117.587-109.821 164.53-46.895 46.942-103.094 84.53-164.364 109.936-61.27 25.403-127.563 38.602-193.88 38.602-66.321 0-132.611-13.199-193.881-38.602-61.27-25.405-117.47-62.994-164.364-109.936-46.894-46.943-84.446-103.199-109.825-164.53-25.378-61.331-38.564-127.692-38.564-194.077h-5.891c0 67.156 13.34 134.288 39.013 196.334 25.674 62.045 63.663 118.955 111.102 166.442 47.44 47.487 104.29 85.514 166.274 111.214 61.983 25.7 129.044 39.052 196.136 39.052 67.088 0 134.152-13.352 196.132-39.052 61.983-25.7 118.838-63.727 166.277-111.214 47.439-47.487 85.425-104.397 111.102-166.442 25.674-62.046 39.013-129.178 39.013-196.334h-5.891Z" />
          <path fill="#00B0FF" fill-opacity=".011" d="M872.385 68.73c0 67.156-13.34 134.288-39.013 196.334-25.677 62.045-63.663 118.955-111.102 166.442-47.44 47.487-104.294 85.514-166.277 111.214-61.98 25.7-129.044 39.052-196.132 39.052-67.092 0-134.153-13.352-196.136-39.052C101.742 517.02 44.89 478.993-2.55 431.506S-87.977 327.109-113.65 265.064c-25.674-62.046-39.013-129.178-39.013-196.334h-5.891c0 67.927 13.493 135.832 39.462 198.592 25.969 62.755 64.391 120.32 112.375 168.353C41.27 483.708 98.777 522.172 161.47 548.169c62.696 25.995 130.528 39.5 198.39 39.5 67.86 0 135.695-13.505 198.388-39.5 62.696-25.997 120.203-64.461 168.187-112.494 47.984-48.032 86.41-105.598 112.38-168.353 25.969-62.76 39.462-130.665 39.462-198.592h-5.892Z" />
          <path fill="#00B0FF" fill-opacity=".01" d="M878.277 68.73c0 67.927-13.493 135.832-39.462 198.592-25.97 62.755-64.396 120.32-112.38 168.353-47.984 48.033-105.491 86.497-168.187 112.494-62.693 25.995-130.528 39.5-198.387 39.5-67.863 0-135.695-13.505-198.391-39.5-62.693-25.997-120.2-64.461-168.188-112.494-47.984-48.032-86.406-105.598-112.375-168.353-25.97-62.76-39.462-130.665-39.462-198.592h-5.891c0 68.703 13.646 137.375 39.91 200.845 26.265 63.474 65.124 121.692 113.653 170.27 48.533 48.581 106.692 87.48 170.098 113.771 63.409 26.29 132.012 39.95 200.646 39.95 68.629 0 137.236-13.66 200.642-39.95 63.406-26.29 121.569-65.19 170.097-113.772 48.529-48.577 87.393-106.795 113.657-170.269 26.264-63.47 39.91-132.142 39.91-200.845h-5.89Z" />
          <path fill="#00B0FF" fill-opacity=".01" d="M884.168 68.73c0 68.703-13.647 137.375-39.911 200.845-26.264 63.474-65.128 121.692-113.657 170.27-48.528 48.581-106.691 87.48-170.097 113.771-63.406 26.29-132.013 39.95-200.642 39.95-68.634 0-137.237-13.66-200.646-39.95-63.406-26.29-121.565-65.19-170.098-113.772-48.529-48.577-87.388-106.795-113.653-170.269-26.264-63.47-39.91-132.142-39.91-200.845h-5.891c0 69.475 13.8 138.919 40.359 203.103 26.556 64.183 65.857 123.058 114.93 172.181 49.077 49.127 107.888 88.464 172.01 115.05 64.12 26.586 133.494 40.4 202.899 40.4 69.4 0 138.778-13.814 202.897-40.4s122.934-65.923 172.008-115.05c49.077-49.123 88.374-107.998 114.933-172.181 26.56-64.184 40.36-133.628 40.36-203.103h-5.891Z" />
          <path fill="#00B0FF" fill-opacity=".01" d="M890.059 68.73c0 69.475-13.8 138.919-40.36 203.103-26.56 64.183-65.856 123.058-114.933 172.181-49.074 49.127-107.89 88.464-172.008 115.05-64.12 26.586-133.497 40.4-202.897 40.4-69.405 0-138.778-13.814-202.898-40.4C92.84 532.478 34.029 493.14-15.048 444.014c-49.073-49.123-88.374-107.998-114.93-172.181-26.56-64.184-40.36-133.628-40.36-203.103h-5.89c0 70.247 13.953 140.463 40.804 205.36 26.855 64.898 66.589 124.426 116.21 174.098 49.622 49.667 109.09 89.442 173.922 116.324 64.833 26.882 134.977 40.85 205.153 40.85 70.17 0 140.32-13.968 205.152-40.85 64.833-26.882 124.3-66.657 173.918-116.324 49.622-49.672 89.356-109.2 116.21-174.098 26.856-64.897 40.809-135.113 40.809-205.36h-5.891Z" />
          <path fill="#00B0FF" fill-opacity=".01" d="M895.95 68.73c0 70.247-13.953 140.463-40.808 205.36-26.855 64.898-66.59 124.426-116.211 174.098-49.618 49.667-109.085 89.442-173.918 116.324-64.832 26.882-134.981 40.85-205.152 40.85-70.176 0-140.32-13.968-205.153-40.85-64.832-26.882-124.3-66.657-173.921-116.324-49.622-49.672-89.356-109.2-116.211-174.098-26.851-64.897-40.804-135.113-40.804-205.36h-5.891c0 71.018 14.106 142.005 41.252 207.617 27.15 65.61 67.322 125.792 117.488 176.01 50.167 50.217 110.286 90.428 175.832 117.603 65.546 27.177 136.462 41.298 207.408 41.298 70.942 0 141.86-14.121 207.404-41.298 65.546-27.175 125.665-67.386 175.83-117.603 50.167-50.218 90.339-110.4 117.489-176.01 27.15-65.612 41.257-136.599 41.257-207.617h-5.891Z" />
          <path fill="#00B0FF" fill-opacity=".01" d="M901.84 68.73c0 71.018-14.106 142.005-41.256 207.617-27.15 65.61-67.322 125.792-117.488 176.01-50.166 50.217-110.285 90.428-175.831 117.603-65.543 27.177-136.462 41.298-207.404 41.298-70.946 0-141.862-14.121-207.408-41.298C86.907 542.785 26.788 502.574-23.38 452.357c-50.166-50.218-90.337-110.4-117.488-176.01-27.146-65.612-41.252-136.599-41.252-207.617h-5.891c0 71.79 14.259 143.549 41.701 209.876 27.446 66.321 68.054 127.158 118.765 177.92 50.711 50.762 111.486 91.411 177.742 118.881 66.259 27.474 137.946 41.748 209.663 41.748 71.713 0 143.403-14.274 209.659-41.748 66.259-27.47 127.03-68.119 177.74-118.88 50.712-50.763 91.32-111.6 118.766-177.921 27.446-66.327 41.706-138.086 41.706-209.876h-5.891Z" />
          <path fill="#00B0FF" fill-opacity=".009" d="M907.732 68.73c0 71.79-14.26 143.549-41.706 209.876-27.445 66.321-68.054 127.158-118.765 177.92-50.711 50.762-111.482 91.411-177.741 118.881-66.256 27.474-137.946 41.748-209.66 41.748-71.716 0-143.403-14.274-209.662-41.748-66.256-27.47-127.03-68.119-177.742-118.88-50.71-50.763-91.32-111.6-118.765-177.921C-173.75 212.279-188.01 140.52-188.01 68.73h-5.892c0 72.562 14.414 145.092 42.15 212.129 27.742 67.04 68.788 128.53 120.043 179.836 51.256 51.308 112.683 92.396 179.652 120.16 66.969 27.77 139.43 42.197 211.918 42.197 72.484 0 144.945-14.427 211.914-42.196 66.969-27.765 128.396-68.853 179.655-120.16 51.256-51.307 92.298-112.797 120.039-179.837 27.74-67.037 42.154-139.567 42.154-212.129h-5.891Z" />
          <path fill="#00B0FF" fill-opacity=".009" d="M913.623 68.73c0 72.562-14.413 145.092-42.154 212.129-27.741 67.04-68.783 128.53-120.04 179.836-51.258 51.308-112.685 92.396-179.654 120.16-66.97 27.77-139.43 42.197-211.914 42.197-72.488 0-144.95-14.427-211.918-42.196-66.97-27.765-128.396-68.853-179.652-120.16-51.255-51.307-92.301-112.797-120.042-179.837-27.737-67.037-42.151-139.567-42.151-212.129h-5.891c0 73.334 14.567 146.636 42.6 214.386 28.036 67.75 69.515 129.896 121.319 181.748 51.8 51.853 113.883 93.379 181.565 121.443 67.679 28.06 140.91 42.642 214.17 42.642 73.259 0 146.487-14.582 214.169-42.642 67.683-28.064 129.76-69.59 181.565-121.443 51.8-51.852 93.284-113.998 121.316-181.748 28.037-67.75 42.603-141.052 42.603-214.386h-5.891Z" />
          <path fill="#00B0FF" fill-opacity=".009" d="M919.514 68.73c0 73.334-14.566 146.636-42.603 214.386-28.032 67.75-69.515 129.896-121.316 181.748-51.804 51.853-113.882 93.379-181.565 121.443-67.682 28.06-140.91 42.642-214.17 42.642-73.258 0-146.49-14.582-214.17-42.642-67.681-28.064-129.764-69.59-181.564-121.443-51.804-51.852-93.283-113.998-121.32-181.748-28.032-67.75-42.6-141.052-42.6-214.386h-5.89c0 74.105 14.72 148.18 43.048 216.643 28.332 68.465 70.248 131.264 122.597 183.66 52.345 52.403 115.079 94.362 183.475 122.722 68.392 28.356 142.395 43.091 216.425 43.091s148.029-14.735 216.424-43.091c68.392-28.36 131.127-70.32 183.476-122.721 52.344-52.397 94.265-115.196 122.592-183.66 28.332-68.465 43.052-142.54 43.052-216.644h-5.891Z" />
          <path fill="#00B0FF" fill-opacity=".009" d="M925.405 68.73c0 74.105-14.72 148.18-43.052 216.643-28.327 68.465-70.248 131.264-122.592 183.66-52.35 52.403-115.084 94.362-183.476 122.722-68.395 28.356-142.394 43.091-216.424 43.091s-148.033-14.735-216.425-43.091c-68.396-28.36-131.13-70.32-183.475-122.721-52.349-52.397-94.265-115.196-122.597-183.66-28.328-68.465-43.048-142.54-43.048-216.644h-5.891c0 74.876 14.874 149.722 43.497 218.9 28.623 69.176 70.98 132.63 123.87 185.574C8.685 526.15 72.072 568.547 141.18 597.203c69.105 28.652 143.879 43.54 218.68 43.54 74.8 0 149.57-14.888 218.676-43.54 69.109-28.656 132.496-71.053 185.389-124 52.893-52.943 95.247-116.397 123.87-185.572 28.627-69.18 43.5-144.025 43.5-218.9h-5.891Z" />
          <path fill="#00B0FF" fill-opacity=".009" d="M931.296 68.73c0 74.876-14.873 149.722-43.5 218.9-28.623 69.176-70.977 132.63-123.87 185.574-52.893 52.946-116.28 95.343-185.39 123.999-69.104 28.652-143.875 43.54-218.675 43.54-74.801 0-149.575-14.888-218.68-43.54-69.11-28.656-132.496-71.053-185.39-124-52.889-52.943-95.246-116.397-123.87-185.572-28.622-69.18-43.496-144.025-43.496-218.9h-5.891c0 75.647 15.027 151.264 43.945 221.158 28.919 69.888 71.71 133.992 125.148 187.484C5.064 530.865 69.107 573.7 138.926 602.651c69.818 28.947 145.363 43.989 220.935 43.989 75.57 0 151.112-15.042 220.93-43.99 69.82-28.95 133.862-71.785 187.3-125.277 53.438-53.492 96.229-117.596 125.147-187.484 28.923-69.894 43.952-145.51 43.952-221.159h-5.894Z" />
          <path fill="#00B0FF" fill-opacity=".009" d="M937.19 68.73c0 75.648-15.03 151.265-43.952 221.159-28.918 69.888-71.71 133.992-125.147 187.484-53.438 53.492-117.48 96.326-187.3 125.278-69.818 28.947-145.36 43.989-220.93 43.989-75.572 0-151.117-15.042-220.935-43.99-69.82-28.95-133.862-71.785-187.3-125.277-53.437-53.492-96.228-117.596-125.147-187.484-28.918-69.894-43.945-145.51-43.945-221.159h-5.891c0 76.42 15.176 152.809 44.394 223.412 29.214 70.603 72.442 135.364 126.424 189.4 53.983 54.04 118.678 97.31 189.21 126.556 70.532 29.244 146.847 44.439 223.19 44.439 76.342 0 152.654-15.195 223.186-44.439 70.532-29.247 135.227-72.515 189.209-126.556 53.983-54.036 97.21-118.797 126.425-189.4C927.898 221.54 943.08 145.15 943.08 68.73h-5.89Z" />
          <path fill="#00B0FF" fill-opacity=".008" d="M943.08 68.73c0 76.42-15.182 152.809-44.4 223.412-29.213 70.603-72.441 135.364-126.424 189.4-53.982 54.04-118.677 97.31-189.21 126.556-70.531 29.244-146.843 44.439-223.185 44.439-76.343 0-152.658-15.195-223.19-44.439C66.139 578.851 1.444 535.583-52.54 481.542c-53.982-54.036-97.21-118.797-126.424-189.4-29.218-70.603-44.394-146.992-44.394-223.412h-5.891c0 77.192 15.33 154.353 44.843 225.67 29.509 71.317 73.174 136.73 127.701 191.316 54.527 54.582 119.878 98.292 191.119 127.83 71.246 29.54 148.329 44.888 225.446 44.888 77.113 0 154.196-15.349 225.44-44.887 71.247-29.54 136.593-73.25 191.12-127.831 54.527-54.587 98.193-119.999 127.706-191.317 29.509-71.316 44.843-148.477 44.843-225.669h-5.89Z" />
          <path fill="var(--secondary-color)" d="M609.23 157.274c0 4.562 3.568 8.02 7.66 8.02 3.59 0 5.746-3.063 5.746-5.62 0-.219 0-.373-.288-.373-.242 0-.242.131-.261.354-.176 3.148-2.531 4.957-4.932 4.957-1.343 0-5.657-.75-5.657-7.315 0-6.587 4.29-7.336 5.634-7.336 2.4 0 4.36 2.004 4.798 5.221.046.307.046.372.353.372.353 0 .353-.065.353-.525v-5.222c0-.376 0-.53-.242-.53-.088 0-.177 0-.353.265-.368.542-.732 1.086-1.101 1.628-.813-.79-1.937-1.893-4.05-1.893-4.115 0-7.66 3.502-7.66 7.997ZM634.26 160.092c0-2.818-2.201-5.152-4.863-5.152-2.75 0-4.886 2.4-4.886 5.152 0 2.845 2.29 4.961 4.863 4.961 2.666 0 4.886-2.162 4.886-4.961Zm-4.863 4.407c-.947 0-1.914-.46-2.508-1.473-.552-.972-.552-2.315-.552-3.106 0-.86 0-2.05.529-3.022a2.952 2.952 0 0 1 2.508-1.474c.97 0 1.918.484 2.489 1.432.572.948.572 2.227.572 3.064 0 .79 0 1.98-.483 2.952-.487.99-1.454 1.627-2.555 1.627ZM637.32 157.228v5.905c0 .994-.241.994-1.717.994v.684c.77-.023 1.894-.07 2.489-.07.57 0 1.714.047 2.462.07v-.684c-1.473 0-1.714 0-1.714-.994v-4.05c0-2.292 1.56-3.529 2.972-3.529 1.385 0 1.626 1.19 1.626 2.446v5.133c0 .994-.241.994-1.714.994v.684c.767-.023 1.89-.07 2.485-.07.572 0 1.719.047 2.466.07v-.684c-1.146 0-1.695 0-1.718-.664v-4.208c0-1.893 0-2.575-.682-3.37-.307-.373-1.032-.814-2.31-.814-1.606 0-2.642.948-3.26 2.314v-2.314l-3.102.241v.684c1.542 0 1.718.153 1.718 1.232ZM651.704 160.533c.487.09 2.289.442 2.289 2.027 0 1.126-.771 2.005-2.485 2.005-1.85 0-2.643-1.256-3.061-3.125-.065-.288-.088-.376-.306-.376-.288 0-.288.153-.288.549v2.91c0 .372 0 .53.242.53.11 0 .134-.023.552-.441.042-.047.042-.09.437-.508.97.926 1.96.949 2.424.949 2.53 0 3.544-1.479 3.544-3.064 0-1.167-.664-1.828-.924-2.092-.73-.707-1.588-.883-2.513-1.06-1.231-.242-2.704-.526-2.704-1.804 0-.772.572-1.675 2.463-1.675 2.424 0 2.53 1.981 2.577 2.665.019.2.219.2.265.2.284 0 .284-.112.284-.53v-2.227c0-.372 0-.526-.242-.526-.111 0-.153 0-.441.265a2.937 2.937 0 0 1-.372.35c-.836-.615-1.741-.615-2.071-.615-2.685 0-3.521 1.474-3.521 2.71 0 .768.353 1.387.947 1.87.706.572 1.32.707 2.904 1.013ZM659.704 155.07l-3.08.242v.684c1.43 0 1.627.134 1.627 1.213v5.924c0 .994-.242.994-1.715.994v.684c.702-.023 1.89-.07 2.42-.07.77 0 1.542.047 2.29.07v-.684c-1.454 0-1.542-.111-1.542-.97v-8.086Zm.088-3.831a1.15 1.15 0 0 0-1.166-1.171c-.682 0-1.166.595-1.166 1.171 0 .596.484 1.167 1.166 1.167.614 0 1.166-.464 1.166-1.167ZM670.286 163.598v1.455l3.233-.242v-.684c-1.538 0-1.714-.157-1.714-1.236v-13.372l-3.168.242v.683c1.538 0 1.714.154 1.714 1.232v4.761c-.637-.795-1.584-1.366-2.773-1.366-2.596 0-4.91 2.157-4.91 5.002 0 2.799 2.16 4.98 4.668 4.98 1.408 0 2.398-.749 2.95-1.455Zm0-5.905v4.515c0 .399 0 .442-.242.818-.66 1.055-1.653 1.54-2.596 1.54-.994 0-1.784-.573-2.313-1.41-.571-.902-.637-2.158-.637-3.064 0-.814.043-2.134.683-3.125.46-.683 1.296-1.413 2.485-1.413.77 0 1.696.33 2.378 1.325.242.372.242.418.242.814ZM676.614 159.255c.13-3.282 1.983-3.83 2.73-3.83 2.268 0 2.486 2.974 2.486 3.83h-5.216Zm-.023.465h6.14c.488 0 .553 0 .553-.465 0-2.18-1.19-4.315-3.94-4.315-2.553 0-4.578 2.27-4.578 5.022 0 2.952 2.312 5.091 4.84 5.091 2.688 0 3.678-2.446 3.678-2.865 0-.222-.177-.264-.288-.264-.195 0-.241.13-.284.307-.771 2.268-2.753 2.268-2.972 2.268-1.101 0-1.983-.66-2.49-1.473-.66-1.06-.66-2.512-.66-3.306ZM687.606 157.493v-2.422l-3.06.241v.684c1.54 0 1.718.153 1.718 1.232v5.905c0 .994-.242.994-1.718.994v.684c.859-.023 1.894-.07 2.512-.07.878 0 1.914 0 2.792.07v-.684h-.46c-1.63 0-1.673-.245-1.673-1.036v-3.394c0-2.18.925-4.143 2.597-4.143.153 0 .199 0 .242.023a.96.96 0 0 0-.507.86c0 .619.464.948.948.948.395 0 .947-.264.947-.97 0-.703-.683-1.344-1.63-1.344-1.607 0-2.401 1.477-2.708 2.422Z" />
          <path fill="#00BFA6" d="M710.852 151.7c-.307.288-1.035.902-1.035 1.3 0 .22.222.44.44.44.2 0 .308-.155.419-.285a4.99 4.99 0 0 1 1.737-1.432c.158-.089.376-.2.376-.465 0-.218-.153-.33-.307-.437-.487-.33-.728-.73-.905-1.26-.042-.196-.13-.483-.437-.483-.311 0-.441.287-.441.464 0 .107.176.814.525 1.279h-7.413c-.376 0-.771 0-.771.437 0 .442.395.442.77.442h7.042ZM710.189 156.614c0-1.19-.572-1.543-.971-1.543-.548 0-1.077.571-1.077 1.059 0 .284.11.418.353.66.46.438.747 1.014.747 1.805 0 .925-1.342 5.97-3.915 5.97-1.124 0-1.63-.768-1.63-1.915 0-1.233.594-2.841 1.277-4.67.153-.376.264-.683.264-1.101 0-.994-.705-1.808-1.806-1.808-2.067 0-2.903 3.194-2.903 3.393 0 .22.218.22.26.22.223 0 .246-.042.353-.396.64-2.227 1.584-2.734 2.225-2.734.176 0 .548 0 .548.707 0 .549-.218 1.144-.372 1.543-.97 2.553-1.254 3.567-1.254 4.515 0 2.38 1.937 2.734 2.949 2.734 3.698 0 4.952-7.295 4.952-8.439Z" />
          <path fill="var(--secondary-color)" d="M726.01 163.133c.088.883.682 1.808 1.718 1.808.46 0 1.806-.306 1.806-2.092v-1.236h-.552v1.236c0 1.278-.548 1.41-.794 1.41-.725 0-.813-.992-.813-1.103v-4.407c0-.925 0-1.782-.79-2.6-.86-.86-1.96-1.21-3.02-1.21-1.801 0-3.32 1.034-3.32 2.49 0 .659.44 1.035 1.013 1.035.617 0 1.012-.441 1.012-1.013 0-.265-.111-.99-1.124-1.014.595-.771 1.673-1.013 2.378-1.013 1.078 0 2.332.86 2.332 2.818v.818c-1.12.065-2.662.13-4.05.79-1.65.75-2.201 1.897-2.201 2.865 0 1.784 2.136 2.338 3.524 2.338 1.45 0 2.462-.884 2.88-1.92Zm-.154-3.613v2.204c0 2.093-1.584 2.841-2.573 2.841-1.078 0-1.983-.768-1.983-1.87 0-1.213.924-3.04 4.556-3.175ZM732.108 157.228v5.905c0 .994-.242.994-1.718.994v.684c.77-.023 1.894-.07 2.489-.07.57 0 1.714.047 2.462.07v-.684c-1.473 0-1.714 0-1.714-.994v-4.05c0-2.292 1.56-3.529 2.972-3.529 1.385 0 1.626 1.19 1.626 2.446v5.133c0 .994-.241.994-1.714.994v.684c.767-.023 1.89-.07 2.485-.07.57 0 1.718.047 2.466.07v-.684c-1.147 0-1.695 0-1.718-.664v-4.208c0-1.893 0-2.575-.683-3.37-.307-.373-1.031-.814-2.31-.814-1.606 0-2.641.948-3.26 2.314v-2.314l-3.101.241v.684c1.54 0 1.718.153 1.718 1.232ZM750.276 163.598v1.455l3.237-.242v-.684c-1.542 0-1.718-.157-1.718-1.236v-13.372l-3.168.242v.683c1.54 0 1.718.154 1.718 1.232v4.761c-.641-.795-1.588-1.366-2.773-1.366-2.601 0-4.91 2.157-4.91 5.002 0 2.799 2.156 4.98 4.664 4.98 1.412 0 2.4-.749 2.95-1.455Zm0-5.905v4.515c0 .399 0 .442-.242.818-.66 1.055-1.65 1.54-2.596 1.54-.99 0-1.784-.573-2.31-1.41-.575-.902-.64-2.158-.64-3.064 0-.814.046-2.134.683-3.125.464-.683 1.3-1.413 2.489-1.413.767 0 1.69.33 2.374 1.325.242.372.242.418.242.814Z" />
          <path fill="#F50057" d="M773.012 151.7c-.307.288-1.036.902-1.036 1.3 0 .22.223.44.44.44.2 0 .312-.155.419-.285a4.98 4.98 0 0 1 1.742-1.432c.153-.089.372-.2.372-.465 0-.218-.154-.33-.307-.437-.484-.33-.73-.73-.902-1.26-.046-.196-.134-.483-.441-.483-.31 0-.441.287-.441.464 0 .107.177.814.53 1.279h-7.418c-.376 0-.771 0-.771.437 0 .442.395.442.77.442h7.043ZM769.18 163.574c.242.902 1.013 1.479 1.96 1.479.77 0 1.277-.508 1.626-1.213.376-.795.664-2.14.664-2.181 0-.219-.2-.219-.265-.219-.222 0-.241.084-.311.396-.306 1.232-.724 2.73-1.65 2.73-.46 0-.681-.285-.681-1.015 0-.483.264-1.52.44-2.288.204-.795.41-1.59.618-2.38.065-.33.284-1.167.372-1.498.11-.506.33-1.343.33-1.477 0-.396-.307-.596-.637-.596-.111 0-.682.023-.86.772-.417 1.609-1.387 5.463-1.648 6.63-.023.089-.905 1.851-2.512 1.851-1.143 0-1.362-.99-1.362-1.804 0-1.237.614-2.975 1.189-4.496.26-.66.372-.968.372-1.386 0-.994-.705-1.808-1.802-1.808-2.094 0-2.908 3.194-2.908 3.393 0 .22.219.22.265.22.219 0 .242-.042.353-.396.548-1.916 1.385-2.734 2.22-2.734.2 0 .553.023.553.73 0 .526-.242 1.167-.376 1.497-.813 2.18-1.277 3.547-1.277 4.626 0 2.092 1.519 2.646 2.708 2.646 1.453 0 2.247-.995 2.619-1.479Z" />
          <path fill="var(--secondary-color)" d="M612.403 202.385v-1.45l-3.172.24v.684c1.565 0 1.718.13 1.718 1.102v10.309c0 .994-.241.994-1.718.994v.68c.748-.02 1.895-.066 2.466-.066.595 0 1.718.046 2.485.065v-.68c-1.472 0-1.714 0-1.714-.993v-3.897c.11.35 1.036 1.54 2.708 1.54 2.619 0 4.905-2.159 4.905-5 0-2.799-2.132-4.979-4.598-4.979-1.72 0-2.643.967-3.08 1.45Zm.065 5.774v-4.913c.637-1.122 1.714-1.763 2.838-1.763 1.607 0 2.95 1.939 2.95 4.43 0 2.665-1.542 4.516-3.168 4.516-.883 0-1.72-.443-2.313-1.345-.307-.464-.307-.483-.307-.925ZM624.519 203.357v-2.423l-3.061.241v.684c1.542 0 1.718.153 1.718 1.232v5.905c0 .99-.241.99-1.718.99v.684c.859-.023 1.895-.065 2.512-.065.878 0 1.914 0 2.792.065v-.684h-.46c-1.63 0-1.672-.24-1.672-1.032v-3.394c0-2.18.924-4.142 2.596-4.142.154 0 .2 0 .242.023-.065.019-.506.284-.506.86 0 .614.464.945.947.945.395 0 .947-.266.947-.968 0-.707-.682-1.344-1.63-1.344-1.607 0-2.401 1.474-2.707 2.423ZM639.829 205.955c0-2.818-2.201-5.156-4.863-5.156-2.75 0-4.886 2.403-4.886 5.156 0 2.842 2.29 4.957 4.863 4.957 2.666 0 4.886-2.158 4.886-4.957Zm-4.863 4.408c-.947 0-1.914-.465-2.508-1.478-.552-.968-.552-2.311-.552-3.106 0-.86 0-2.046.529-3.018a2.952 2.952 0 0 1 2.508-1.473c.97 0 1.914.483 2.489 1.431.572.945.572 2.223.572 3.06 0 .795 0 1.985-.484 2.952-.487.991-1.453 1.632-2.554 1.632ZM646.31 200.934l-3.343.241v.684c1.695 0 1.894.153 1.894 1.232v8.727c0 .99-.2 2.883-1.607 2.883-.111 0-.617 0-1.19-.284.33-.088.772-.399.772-.994 0-.572-.4-1.01-1.012-1.01-.618 0-1.013.438-1.013 1.01 0 1.148 1.23 1.766 2.486 1.766 1.653 0 3.014-1.413 3.014-3.417v-10.838Zm0-3.836c0-.636-.524-1.167-1.165-1.167-.637 0-1.166.53-1.166 1.167 0 .642.529 1.167 1.166 1.167a1.17 1.17 0 0 0 1.166-1.167Z" />
          <path fill="#F50057" d="M654.933 213.557c-.077.307-.215.895-.246.91-.295.48-.908 1.313-1.863 1.313-1.067 0-1.067-1.006-1.067-1.282 0-.91.434-2.004.863-3.13.127-.31.219-.54.219-.786 0-.803-.68-1.328-1.465-1.328-1.542 0-2.232 2.115-2.232 2.361 0 .2.214.2.26.2.215 0 .23-.078.277-.246.372-1.263 1.047-1.882 1.649-1.882.26 0 .383.17.383.538 0 .357-.122.68-.276 1.037-.832 2.127-.832 2.571-.832 2.99 0 .26 0 .972.57 1.467.446.368 1.048.492 1.589.492.97 0 1.492-.527 2.002-1.018.338.987 1.369 1.018 1.554 1.018.525 0 .924-.308 1.219-.818.338-.6.552-1.494.552-1.544 0-.2-.214-.2-.26-.2-.215 0-.23.062-.338.48-.184.726-.48 1.651-1.124 1.651-.402 0-.51-.357-.51-.757 0-.264.123-.816.23-1.22a84.88 84.88 0 0 0 .342-1.386c.115-.457.234-.914.353-1.375.092-.383.26-1.063.26-1.14 0-.307-.245-.491-.506-.491-.571 0-.68.445-.801.94-.27 1.068-.534 2.139-.802 3.206Z" />
          <path fill="#00BFA6" d="M670.22 202.474c0-1.186-.571-1.54-.966-1.54-.548 0-1.078.572-1.078 1.055 0 .289.108.419.353.66.46.442.748 1.015.748 1.81 0 .925-1.342 5.97-3.92 5.97-1.12 0-1.626-.772-1.626-1.916 0-1.236.595-2.841 1.274-4.673.157-.372.264-.684.264-1.102 0-.99-.702-1.804-1.802-1.804-2.072 0-2.908 3.194-2.908 3.39 0 .223.223.223.265.223.222 0 .242-.046.353-.396.637-2.227 1.584-2.733 2.224-2.733.173 0 .549 0 .549.706 0 .549-.22 1.145-.376 1.54-.967 2.557-1.254 3.57-1.254 4.519 0 2.376 1.937 2.73 2.949 2.73 3.697 0 4.952-7.292 4.952-8.44Z" />
          <path fill="var(--secondary-color)" d="M692.615 203.468c.33 0 .748 0 .748-.442 0-.441-.418-.441-.73-.441h-13.181c-.307 0-.725 0-.725.441 0 .442.418.442.748.442h13.14Zm.019 4.273c.31 0 .729 0 .729-.441 0-.442-.418-.442-.748-.442h-13.14c-.33 0-.748 0-.748.442 0 .441.418.441.725.441h13.182Z" />
          <path fill="#F50057" d="M721.016 182.659c-.311.284-1.036.903-1.036 1.298 0 .222.219.442.44.442.197 0 .308-.155.42-.289.264-.33.77-.944 1.737-1.431.153-.09.376-.196.376-.462 0-.222-.154-.329-.311-.441-.483-.33-.725-.726-.901-1.255-.042-.2-.131-.484-.441-.484-.307 0-.437.284-.437.46 0 .112.172.818.525 1.279h-7.418c-.372 0-.767 0-.767.441 0 .442.395.442.767.442h7.046ZM717.184 194.534c.242.903 1.013 1.474 1.956 1.474.77 0 1.278-.506 1.63-1.209.376-.795.66-2.138.66-2.184 0-.22-.195-.22-.264-.22-.22 0-.242.089-.307.396-.307 1.236-.725 2.734-1.65 2.734-.464 0-.682-.289-.682-1.014 0-.484.264-1.52.44-2.293l.615-2.379c.065-.33.287-1.167.375-1.498.108-.506.33-1.344.33-1.474 0-.4-.31-.595-.64-.595-.108 0-.68.02-.856.771-.418 1.609-1.388 5.464-1.653 6.63-.023.089-.901 1.852-2.508 1.852-1.143 0-1.365-.991-1.365-1.81 0-1.231.617-2.97 1.189-4.49.264-.661.376-.972.376-1.39 0-.991-.706-1.805-1.807-1.805-2.09 0-2.903 3.194-2.903 3.39 0 .223.218.223.264.223.219 0 .242-.046.349-.4.553-1.916 1.389-2.73 2.225-2.73.199 0 .548.024.548.726 0 .53-.241 1.168-.372 1.498-.817 2.184-1.277 3.547-1.277 4.63 0 2.093 1.519 2.641 2.708 2.641 1.453 0 2.244-.99 2.619-1.474ZM728.192 205.603h-24.826v-.88h24.826v.88ZM706.867 210.052c0-.395 0-.79-.441-.79s-.441.395-.441.79V230.5c0 .395 0 .79.44.79.442 0 .442-.395.442-.79v-20.448ZM721.016 212.674c-.311.288-1.036.903-1.036 1.301 0 .22.219.439.44.439.197 0 .308-.154.42-.284.264-.33.77-.95 1.737-1.433.153-.088.376-.2.376-.464 0-.219-.154-.33-.311-.438-.483-.334-.725-.73-.901-1.26-.042-.195-.131-.483-.441-.483-.307 0-.437.288-.437.465 0 .107.172.814.525 1.278h-7.418c-.372 0-.767 0-.767.438 0 .441.395.441.767.441h7.046ZM717.184 224.549c.242.902 1.013 1.479 1.956 1.479.77 0 1.278-.508 1.63-1.214.376-.795.66-2.139.66-2.18 0-.223-.195-.223-.264-.223-.22 0-.242.088-.307.4-.307 1.232-.725 2.728-1.65 2.728-.464 0-.682-.283-.682-1.013 0-.483.264-1.52.44-2.288.204-.795.41-1.59.615-2.38.065-.331.287-1.168.375-1.498.108-.507.33-1.344.33-1.478 0-.395-.31-.595-.64-.595-.108 0-.68.023-.856.771-.418 1.61-1.388 5.464-1.653 6.631-.023.088-.901 1.85-2.508 1.85-1.143 0-1.365-.99-1.365-1.804 0-1.236.617-2.976 1.189-4.495.264-.661.376-.968.376-1.387 0-.994-.706-1.808-1.807-1.808-2.09 0-2.903 3.195-2.903 3.394 0 .22.218.22.264.22.219 0 .242-.043.349-.396.553-1.916 1.389-2.734 2.225-2.734.199 0 .548.023.548.73 0 .525-.241 1.167-.372 1.496-.817 2.181-1.277 3.548-1.277 4.627 0 2.092 1.519 2.646 2.708 2.646 1.453 0 2.244-.995 2.619-1.479ZM725.58 210.052c0-.395 0-.79-.441-.79s-.441.395-.441.79V230.5c0 .395 0 .79.44.79.442 0 .442-.395.442-.79v-20.448Z" />
          <path fill="#00BFA6" d="M734.332 194.941c0-.395 0-.795-.437-.795-.441 0-.441.4-.441.795v20.444c0 .395 0 .795.44.795.438 0 .438-.4.438-.795V194.94ZM747.913 197.563c-.31.284-1.035.903-1.035 1.298 0 .222.218.442.44.442.196 0 .308-.155.419-.285a4.946 4.946 0 0 1 1.737-1.432c.154-.088.376-.2.376-.465 0-.218-.157-.33-.311-.441-.483-.33-.725-.726-.901-1.255-.042-.2-.13-.484-.441-.484-.307 0-.437.284-.437.46 0 .112.172.818.525 1.279h-7.417c-.372 0-.767 0-.767.441 0 .442.395.442.767.442h7.045ZM747.25 202.474c0-1.186-.576-1.54-.971-1.54-.548 0-1.077.572-1.077 1.055 0 .289.11.419.352.66.46.442.748 1.015.748 1.81 0 .925-1.342 5.97-3.92 5.97-1.12 0-1.626-.772-1.626-1.916 0-1.236.595-2.841 1.278-4.673.153-.372.26-.684.26-1.102 0-.99-.701-1.804-1.802-1.804-2.071 0-2.907 3.194-2.907 3.39 0 .223.222.223.264.223.223 0 .242-.046.353-.396.637-2.227 1.584-2.733 2.225-2.733.176 0 .548 0 .548.706 0 .549-.22 1.145-.372 1.54-.97 2.557-1.258 3.57-1.258 4.519 0 2.376 1.937 2.73 2.949 2.73 3.698 0 4.956-7.292 4.956-8.44ZM751.906 194.941c0-.395 0-.795-.441-.795s-.441.4-.441.795v20.444c0 .395 0 .795.44.795.442 0 .442-.4.442-.795V194.94ZM760.762 205.867c0-3.59 1.806-4.514 2.972-4.514.199 0 1.584.023 2.355.813-.901.065-1.036.726-1.036 1.013 0 .573.399 1.014 1.013 1.014.57 0 1.012-.376 1.012-1.037 0-1.496-1.672-2.357-3.367-2.357-2.75 0-4.775 2.38-4.775 5.114 0 2.818 2.178 5 4.733 5 2.949 0 3.65-2.642 3.65-2.865 0-.219-.218-.219-.283-.219-.2 0-.241.088-.287.22-.637 2.05-2.068 2.314-2.885 2.314-1.166 0-3.102-.948-3.102-4.496ZM778.335 205.955c0-2.818-2.201-5.156-4.863-5.156-2.75 0-4.886 2.403-4.886 5.156 0 2.842 2.289 4.957 4.863 4.957 2.662 0 4.886-2.158 4.886-4.957Zm-4.863 4.408c-.947 0-1.914-.465-2.508-1.478-.553-.968-.553-2.311-.553-3.106 0-.86 0-2.046.53-3.018a2.952 2.952 0 0 1 2.508-1.473c.97 0 1.914.483 2.489 1.431.572.945.572 2.223.572 3.06 0 .795 0 1.985-.484 2.952-.487.991-1.453 1.632-2.554 1.632ZM783.55 206.397c.484.089 2.29.441 2.29 2.027 0 1.12-.77 2.005-2.488 2.005-1.85 0-2.64-1.256-3.057-3.13-.065-.284-.088-.372-.311-.372-.283 0-.283.153-.283.549v2.91c0 .372 0 .526.24.526.112 0 .132-.019.55-.437.046-.046.046-.09.44-.508.97.926 1.96.945 2.42.945 2.532 0 3.545-1.474 3.545-3.06 0-1.171-.66-1.83-.925-2.096-.725-.703-1.584-.879-2.508-1.056-1.231-.241-2.708-.53-2.708-1.808 0-.768.576-1.674 2.466-1.674 2.42 0 2.532 1.984 2.574 2.668.023.196.222.196.265.196.287 0 .287-.108.287-.526v-2.226c0-.377 0-.53-.241-.53-.112 0-.154 0-.442.264a2.727 2.727 0 0 1-.375.354c-.837-.619-1.738-.619-2.068-.619-2.684 0-3.52 1.479-3.52 2.71 0 .773.352 1.391.947 1.875.702.571 1.319.706 2.903 1.013ZM794.938 215.956c0-.065 0-.107-.372-.483-2.75-2.776-3.455-6.937-3.455-10.309 0-3.834.836-7.666 3.544-10.423.283-.264.283-.307.283-.372 0-.154-.088-.223-.218-.223-.22 0-2.202 1.5-3.498 4.297-1.124 2.426-1.388 4.872-1.388 6.721 0 1.717.24 4.38 1.453 6.873 1.319 2.71 3.214 4.143 3.433 4.143.13 0 .218-.065.218-.224ZM806.23 199.656c0-1.456-.4-4.516-2.643-4.516-3.061 0-6.447 6.213-6.447 11.257 0 2.07.637 4.515 2.639 4.515 3.102 0 6.45-6.323 6.45-11.256Zm-6.758 3.017c.372-1.408.813-3.171 1.695-4.738.594-1.078 1.408-2.311 2.397-2.311 1.078 0 1.212 1.41 1.212 2.665 0 1.079-.176 2.204-.706 4.384h-4.598Zm4.403.707c-.242 1.013-.706 2.883-1.542 4.472-.771 1.498-1.607 2.577-2.554 2.577-.725 0-1.19-.638-1.19-2.688 0-.926.135-2.204.706-4.361h4.58ZM813.516 205.166c0-1.72-.241-4.385-1.45-6.876-1.323-2.711-3.214-4.142-3.436-4.142-.13 0-.219.088-.219.222 0 .065 0 .108.418.506 2.156 2.181 3.414 5.683 3.414 10.29 0 3.766-.817 7.644-3.544 10.42-.288.264-.288.306-.288.372 0 .134.089.222.219.222.222 0 2.201-1.497 3.502-4.296 1.123-2.422 1.384-4.868 1.384-6.718Z" />
        </g>
      </g>
    </g>
  </g>
</svg>