<svg xmlns="http://www.w3.org/2000/svg" viewBox="0 0 494 296">
  <script type="text/ecmascript" href="../../../scripts/color.js"/>
  <path fill="#ffaf00" fill-opacity=".302" fill-rule="evenodd" d="M39.436 92.014v57.88l4.355-8.398 4.355-7.853 4.355-7.32 4.354-6.798 4.355-6.288 4.355-5.79 4.354-5.303 4.355-4.827 4.355-4.364 4.355-3.911 4.355-3.47 4.355-3.042 4.355-2.625 4.354-2.218 4.355-1.823 4.355-1.44 4.355-1.07 4.355-.708 4.355-.361 4.355-.024 4.354.301 4.355.616 4.355.917 4.355 1.208 4.355 1.487 4.355 1.755 4.355 2.01 4.354 2.256 4.355 2.488 4.355 2.71 4.355 2.919 4.355 3.117 4.355 3.305 4.355 3.48 4.354 3.643 4.354 3.795 4.355 3.936 4.355 4.065 4.355 4.182 4.355 4.29 4.355 4.382 4.355 4.466 4.354 4.537 4.355 4.598 4.355 4.644 4.355 4.683 4.355 4.706 4.355 4.72 4.355 4.724 4.355 4.714 4.354 4.692 4.355 4.66 4.355 4.615 4.355 4.56 4.355 4.493 4.355 4.414 4.354 4.324 4.355 4.222 4.355 4.109 4.355 3.983 4.355 3.848 4.355 3.7 4.355 3.54 4.354 3.368 4.354 3.186 4.355 2.993 4.355 2.785 4.355 2.57 4.355 2.34 4.355 2.1 4.355 1.848 4.354 1.585 4.355 1.31 4.355 1.023 4.355.725 4.355.416 4.355.094 4.355-.238 4.354-.581 4.355-.938 4.355-1.306 4.355-1.684 4.355-2.075 4.355-2.477 4.354-2.89 4.355-3.314 4.355-3.752 4.355-4.199 4.355-4.66 4.355-5.13 4.355-5.613 4.354-6.107 4.355-6.614 4.355-7.13 4.355-7.66 4.354-8.2 4.355-8.751 4.355-9.316 4.355-9.89v-57.88l-4.355 9.89-4.355 9.317-4.355 8.75-4.354 8.201-4.355 7.66-4.355 7.13-4.355 6.613-4.354 6.108-4.355 5.613-4.355 5.13-4.355 4.66-4.355 4.199-4.355 3.752-4.355 3.314-4.354 2.89-4.355 2.477-4.355 2.074-4.355 1.685-4.355 1.305-4.355.938-4.354.582-4.355.238-4.355-.094-4.355-.416-4.355-.726-4.355-1.023-4.355-1.31-4.354-1.584-4.355-1.848-4.355-2.1-4.355-2.341-4.355-2.569-4.355-2.786-4.355-2.992-4.354-3.187-4.354-3.368-4.355-3.54-4.355-3.7-4.355-3.847-4.355-3.983-4.355-4.11-4.355-4.222-4.354-4.324-4.355-4.413-4.355-4.494-4.355-4.56-4.355-4.615-4.355-4.66-4.354-4.692-4.355-4.714-4.355-4.722-4.355-4.72-4.355-4.708-4.355-4.682-4.355-4.645-4.355-4.597-4.354-4.538-4.355-4.465-4.355-4.383-4.355-4.289-4.355-4.182-4.355-4.065-4.355-3.936-4.354-3.796-4.354-3.643-4.355-3.48-4.355-3.304-4.355-3.118-4.355-2.919-4.355-2.71-4.355-2.488-4.354-2.255-4.355-2.01-4.355-1.755-4.355-1.487-4.355-1.208-4.355-.918-4.355-.615-4.354-.301-4.355.024-4.355.36-4.355.71-4.355 1.068-4.355 1.44-4.355 1.824-4.354 2.218-4.355 2.624-4.355 3.042-4.355 3.47-4.355 3.912-4.355 4.364-4.355 4.827-4.354 5.303-4.355 5.79-4.355 6.288-4.354 6.798-4.355 7.32-4.355 7.852-4.355 8.398Z"/>
  <path fill="#f46920" fill-opacity=".302" fill-rule="evenodd" d="M39.436 98.1v45.93l4.355-8.394 4.355-7.851 4.355-7.317 4.354-6.796 4.355-6.287 4.355-5.788 4.354-5.301 4.355-4.826 4.355-4.363 4.355-3.91 4.355-3.47 4.355-3.041 4.355-2.623 4.354-2.217 4.355-1.824 4.355-1.439 4.355-1.069 4.355-.709 4.355-.36 4.355-.024 4.354.301 4.355.615 4.355.917 4.355 1.208 4.355 1.486 4.355 1.755 4.355 2.01 4.354 2.254 4.355 2.487 4.355 2.71 4.355 2.918 4.355 3.117 4.355 3.303 4.355 3.479 4.354 3.642 4.354 3.795 4.355 3.934 4.355 4.065 4.355 4.18 4.355 4.288 4.355 4.382 4.355 4.464 4.354 4.536 4.355 4.596 4.355 4.644 4.355 4.68 4.355 4.706 4.355 4.72 4.355 4.721 4.355 4.712 4.354 4.69 4.355 4.66 4.355 4.614 4.355 4.559 4.355 4.49 4.355 4.414 4.354 4.323 4.355 4.22 4.355 4.108 4.355 3.983 4.355 3.846 4.355 3.699 4.355 3.538 4.354 3.368 4.354 3.186 4.355 2.99 4.355 2.786 4.355 2.569 4.355 2.34 4.355 2.1 4.355 1.846 4.354 1.584 4.355 1.31 4.355 1.023 4.355.725 4.355.416 4.355.094 4.355-.238 4.354-.582 4.355-.938 4.355-1.305 4.355-1.683 4.355-2.074 4.355-2.476 4.354-2.889 4.355-3.314 4.355-3.75 4.355-4.2 4.355-4.657 4.355-5.129 4.355-5.612 4.354-6.105 4.355-6.611 4.355-7.129 4.355-7.657 4.354-8.198 4.355-8.75 4.355-9.312 4.355-9.888V98.1l-4.355 9.889-4.355 9.312-4.355 8.75-4.354 8.197-4.355 7.657-4.355 7.13-4.355 6.61-4.354 6.106-4.355 5.611-4.355 5.13-4.355 4.657-4.355 4.199-4.355 3.75-4.355 3.314-4.354 2.89-4.355 2.475-4.355 2.074-4.355 1.684-4.355 1.305-4.355.937-4.354.583-4.355.238-4.355-.095-4.355-.415-4.355-.726-4.355-1.022-4.355-1.31-4.354-1.584-4.355-1.848-4.355-2.1-4.355-2.339-4.355-2.568-4.355-2.786-4.355-2.992-4.354-3.184-4.354-3.369-4.355-3.539-4.355-3.698-4.355-3.846-4.355-3.983-4.355-4.108-4.355-4.22-4.354-4.323-4.355-4.413-4.355-4.491-4.355-4.56-4.355-4.613-4.355-4.659-4.354-4.69-4.355-4.713-4.355-4.721-4.355-4.72-4.355-4.706-4.355-4.68-4.355-4.644-4.355-4.596-4.354-4.535-4.355-4.465-4.355-4.382-4.355-4.287-4.355-4.182-4.355-4.063-4.355-3.935-4.354-3.795-4.354-3.642-4.355-3.479-4.355-3.303-4.355-3.117-4.355-2.918-4.355-2.71-4.355-2.486-4.354-2.255-4.355-2.01-4.355-1.754-4.355-1.487-4.355-1.208-4.355-.917-4.355-.615-4.354-.301-4.355.024-4.355.36-4.355.71-4.355 1.068-4.355 1.44-4.355 1.823-4.354 2.217-4.355 2.623-4.355 3.041-4.355 3.47-4.355 3.91-4.355 4.363-4.355 4.826-4.354 5.3-4.355 5.79-4.355 6.285-4.354 6.797-4.355 7.317-4.355 7.85-4.355 8.396Z"/>
  <path fill="#f53255" fill-opacity=".302" fill-rule="evenodd" d="M39.436 102.86v36.423l4.355-8.39 4.355-7.846 4.355-7.315 4.354-6.792 4.355-6.283 4.355-5.785 4.354-5.3 4.355-4.822 4.355-4.36 4.355-3.91 4.355-3.467 4.355-3.04 4.355-2.622 4.354-2.215 4.355-1.822 4.355-1.44 4.355-1.068 4.355-.708 4.355-.36 4.355-.024 4.354.301 4.355.615 4.355.916 4.355 1.207 4.355 1.486 4.355 1.754L157.017 70l4.354 2.254 4.355 2.486 4.355 2.707 4.355 2.917 4.355 3.115 4.355 3.302 4.355 3.477 4.354 3.64 4.354 3.792 4.355 3.934 4.355 4.061 4.355 4.18 4.355 4.285 4.355 4.38 4.355 4.462 4.354 4.533 4.355 4.594 4.355 4.64 4.355 4.679 4.355 4.703 4.355 4.718 4.355 4.718 4.355 4.71 4.354 4.689 4.355 4.656 4.355 4.611 4.355 4.557 4.355 4.49 4.355 4.41 4.354 4.32 4.355 4.219 4.355 4.105 4.355 3.981 4.355 3.844 4.355 3.696 4.355 3.538 4.354 3.366 4.354 3.183 4.355 2.99 4.355 2.784 4.355 2.568 4.355 2.338 4.355 2.098 4.355 1.847 4.354 1.583 4.355 1.309 4.355 1.023 4.355.724 4.355.416 4.355.094 4.355-.238 4.354-.582 4.355-.937 4.355-1.304 4.355-1.683 4.355-2.073 4.355-2.474 4.354-2.888 4.355-3.312 4.355-3.75 4.355-4.195 4.355-4.656 4.355-5.126 4.355-5.609 4.354-6.102 4.355-6.608 4.355-7.125 4.355-7.653 4.354-8.193 4.355-8.745 4.355-9.308 4.355-9.883V102.86l-4.355 9.883-4.355 9.308-4.355 8.745-4.354 8.193-4.355 7.654-4.355 7.124-4.355 6.608-4.354 6.103-4.355 5.608-4.355 5.126-4.355 4.656-4.355 4.196-4.355 3.748-4.355 3.313-4.354 2.888-4.355 2.474-4.355 2.073-4.355 1.683-4.355 1.304-4.355.937-4.354.582-4.355.238-4.355-.094-4.355-.416-4.355-.725-4.355-1.022-4.355-1.308-4.354-1.584-4.355-1.846-4.355-2.1-4.355-2.338-4.355-2.566-4.355-2.785-4.355-2.99-4.354-3.183-4.354-3.367-4.355-3.536-4.355-3.697-4.355-3.844-4.355-3.98-4.355-4.106-4.355-4.219-4.354-4.32-4.355-4.411-4.355-4.489-4.355-4.556-4.355-4.612-4.355-4.657-4.354-4.688-4.355-4.71-4.355-4.719-4.355-4.716-4.355-4.704-4.355-4.678-4.355-4.642-4.355-4.593-4.354-4.533-4.355-4.463-4.355-4.38-4.355-4.284-4.355-4.18-4.355-4.061-4.355-3.933-4.354-3.792-4.354-3.641-4.355-3.477-4.355-3.301-4.355-3.116-4.355-2.917-4.355-2.707-4.355-2.486-4.354-2.253-4.355-2.01-4.355-1.753-4.355-1.486-4.355-1.207-4.355-.916-4.355-.615-4.354-.301-4.355.024-4.355.36-4.355.709-4.355 1.068-4.355 1.439-4.355 1.822-4.354 2.216-4.355 2.622-4.355 3.04-4.355 3.467-4.355 3.908-4.355 4.36-4.355 4.824-4.354 5.3-4.355 5.784-4.355 6.283L52.5 79.31l-4.355 7.313-4.355 7.847-4.355 8.39Z"/>
  <path fill="#f857c1" fill-opacity=".302" fill-rule="evenodd" d="M39.436 107.06v27.788l4.355-8.397 4.355-7.851 4.355-7.32 4.354-6.797 4.355-6.287 4.355-5.79 4.354-5.302 4.355-4.828 4.355-4.362 4.355-3.912 4.355-3.47 4.355-3.041 4.355-2.624 4.354-2.218 4.355-1.823 4.355-1.44 4.355-1.07 4.355-.708 4.355-.36 4.355-.025 4.354.302 4.355.615 4.355.918 4.355 1.207 4.355 1.487 4.355 1.755 4.355 2.01 4.354 2.255 4.355 2.488 4.355 2.71 4.355 2.918 4.355 3.117 4.355 3.305 4.355 3.48 4.354 3.642 4.354 3.795 4.355 3.936 4.355 4.064 4.355 4.183 4.355 4.288 4.355 4.382 4.355 4.466 4.354 4.536 4.355 4.597 4.355 4.644 4.355 4.682 4.355 4.706 4.355 4.721 4.355 4.722 4.355 4.713 4.354 4.692 4.355 4.659 4.355 4.615 4.355 4.56 4.355 4.492 4.355 4.414 4.354 4.323 4.355 4.222 4.355 4.108 4.355 3.984 4.355 3.847 4.355 3.699 4.355 3.54 4.354 3.367 4.354 3.187 4.355 2.992 4.355 2.785 4.355 2.57 4.355 2.34 4.355 2.1 4.355 1.848 4.354 1.584 4.355 1.31 4.355 1.023 4.355.726 4.355.414 4.355.096 4.355-.238 4.354-.583 4.355-.938 4.355-1.305 4.355-1.684 4.355-2.074 4.355-2.476 4.354-2.89 4.355-3.315 4.355-3.751 4.355-4.2 4.355-4.658 4.355-5.13 4.355-5.613 4.354-6.106 4.355-6.613 4.355-7.13 4.355-7.659 4.354-8.198 4.355-8.751 4.355-9.314 4.355-9.89V107.06l-4.355 9.89-4.355 9.314-4.355 8.751-4.354 8.2-4.355 7.658-4.355 7.13-4.355 6.613-4.354 6.107-4.355 5.611-4.355 5.13-4.355 4.66-4.355 4.199-4.355 3.75-4.355 3.316-4.354 2.889-4.355 2.476-4.355 2.075-4.355 1.683-4.355 1.306-4.355.937-4.354.583-4.355.238-4.355-.094-4.355-.416-4.355-.725-4.355-1.023-4.355-1.31-4.354-1.585-4.355-1.847-4.355-2.1-4.355-2.34-4.355-2.57-4.355-2.786-4.355-2.991-4.354-3.186-4.354-3.37-4.355-3.538-4.355-3.7-4.355-3.846-4.355-3.984-4.355-4.108-4.355-4.222-4.354-4.323-4.355-4.414-4.355-4.492-4.355-4.56-4.355-4.615-4.355-4.66-4.354-4.692-4.355-4.712-4.355-4.723-4.355-4.72-4.355-4.706-4.355-4.682-4.355-4.645-4.355-4.596-4.354-4.537-4.355-4.466-4.355-4.382-4.355-4.288-4.355-4.182-4.355-4.065-4.355-3.935-4.354-3.795L187.5 58l-4.355-3.479-4.355-3.303-4.355-3.118-4.355-2.919-4.355-2.71-4.355-2.487-4.354-2.255-4.355-2.01-4.355-1.755-4.355-1.487-4.355-1.208-4.355-.917-4.355-.615-4.354-.302-4.355.024-4.355.36-4.355.71-4.355 1.069-4.355 1.44-4.355 1.823-4.354 2.218-4.355 2.624-4.355 3.04-4.355 3.471-4.355 3.91-4.355 4.365-4.355 4.827-4.354 5.302-4.355 5.789-4.355 6.288-4.354 6.797-4.355 7.319-4.355 7.852-4.355 8.396Z"/>
  <path fill="#29bdfd" fill-opacity=".302" fill-rule="evenodd" d="M39.436 110.725v20.472l4.355-8.39 4.355-7.849 4.355-7.314 4.354-6.793 4.355-6.285 4.355-5.785 4.354-5.3 4.355-4.824 4.355-4.36 4.355-3.91 4.355-3.469 4.355-3.038 4.355-2.623 4.354-2.216 4.355-1.822 4.355-1.44 4.355-1.068 4.355-.709 4.355-.36 4.355-.024 4.354.3 4.355.616 4.355.916 4.355 1.208 4.355 1.486 4.355 1.753 4.355 2.01 4.354 2.254 4.355 2.486 4.355 2.708 4.355 2.917 4.355 3.116 4.355 3.302 4.355 3.477 4.354 3.641 4.354 3.793 4.355 3.933 4.355 4.063 4.355 4.179 4.355 4.285 4.355 4.381 4.355 4.463 4.354 4.534 4.355 4.594 4.355 4.642 4.355 4.68 4.355 4.703 4.355 4.717 4.355 4.72 4.355 4.71 4.354 4.689 4.355 4.657 4.355 4.613 4.355 4.556 4.355 4.49 4.355 4.411 4.354 4.321 4.355 4.22 4.355 4.105 4.355 3.982 4.355 3.845 4.355 3.697 4.355 3.537 4.354 3.366 4.354 3.185 4.355 2.99 4.355 2.784 4.355 2.567 4.355 2.34 4.355 2.098 4.355 1.847 4.354 1.584 4.355 1.309 4.355 1.022 4.355.725 4.355.415 4.355.095 4.355-.238 4.354-.582 4.355-.938 4.355-1.304 4.355-1.683 4.355-2.073 4.355-2.475 4.354-2.888 4.355-3.312 4.355-3.75 4.355-4.197 4.355-4.655 4.355-5.128 4.355-5.609 4.354-6.103 4.355-6.609 4.355-7.126 4.355-7.654 4.354-8.194 4.355-8.747 4.355-9.309 4.355-9.884v-20.472l-4.355 9.884-4.355 9.31-4.355 8.745-4.354 8.194-4.355 7.655-4.355 7.125-4.355 6.61-4.354 6.103-4.355 5.61-4.355 5.126-4.355 4.656-4.355 4.197-4.355 3.749-4.355 3.313-4.354 2.887-4.355 2.476-4.355 2.072-4.355 1.684-4.355 1.304-4.355.938-4.354.582-4.355.238-4.355-.095-4.355-.415-4.355-.725-4.355-1.023-4.355-1.309-4.354-1.584-4.355-1.847-4.355-2.098-4.355-2.34-4.355-2.567-4.355-2.784-4.355-2.99-4.354-3.184-4.354-3.366-4.355-3.538-4.355-3.697-4.355-3.844-4.355-3.982-4.355-4.106-4.355-4.22-4.354-4.32-4.355-4.411-4.355-4.49-4.355-4.557-4.355-4.613-4.355-4.656-4.354-4.69-4.355-4.71-4.355-4.719-4.355-4.718-4.355-4.704-4.355-4.679-4.355-4.641-4.355-4.595-4.354-4.534-4.355-4.462-4.355-4.38-4.355-4.286-4.355-4.18-4.355-4.062-4.355-3.934-4.354-3.793-4.354-3.64-4.355-3.478-4.355-3.302-4.355-3.116-4.355-2.917-4.355-2.707-4.355-2.487-4.354-2.254-4.355-2.01-4.355-1.753-4.355-1.486-4.355-1.207-4.355-.917-4.355-.614-4.354-.302-4.355.024-4.355.36-4.355.71-4.355 1.068-4.355 1.439-4.355 1.822-4.354 2.216-4.355 2.623-4.355 3.04-4.355 3.468-4.355 3.909-4.355 4.36-4.355 4.825-4.354 5.299-4.355 5.786-4.355 6.284L52.5 87.17l-4.355 7.315-4.355 7.847-4.355 8.392Z"/>
  <path fill="none" stroke="#b0b0b0" stroke-dasharray=".8627368,.3730752" stroke-linejoin="round" stroke-opacity=".702" stroke-width=".518" d="M39.436 284.273V1.727"/>
  <path fill="none" stroke="var(--secondary-color)" stroke-linejoin="round" stroke-width=".691" d="M39.555 284.41v-2.836"/>
  <path fill="var(--secondary-color)" fill-rule="evenodd" d="M39.282 288.485c-.528 0-.924.252-1.19.757-.266.504-.398 1.262-.398 2.275 0 1.008.132 1.765.397 2.27.267.505.663.757 1.19.757.532 0 .93-.252 1.196-.757.266-.505.4-1.262.4-2.27 0-1.013-.134-1.771-.4-2.275-.266-.505-.664-.757-1.195-.757Zm0-.789c.85 0 1.498.327 1.946.98.449.652.673 1.599.673 2.84 0 1.24-.224 2.186-.673 2.839-.448.652-1.097.978-1.946.978s-1.497-.326-1.946-.978c-.448-.653-.672-1.6-.672-2.838 0-1.242.224-2.19.672-2.841.449-.653 1.097-.98 1.946-.98Z"/>
  <path fill="none" stroke="#b0b0b0" stroke-dasharray=".8627368,.3730752" stroke-linejoin="round" stroke-opacity=".702" stroke-width=".518" d="M125.618 284.273V1.727"/>
  <path fill="none" stroke="var(--secondary-color)" stroke-linejoin="round" stroke-width=".691" d="M125.745 284.41v-2.836"/>
  <path fill="var(--secondary-color)" fill-rule="evenodd" d="M124.26 294.486h3.407v.853h-4.581v-.853c.37-.4.875-.934 1.514-1.605a38.722 38.722 0 0 0 1.207-1.3c.312-.365.53-.674.654-.927.125-.252.187-.501.187-.745 0-.4-.134-.724-.404-.975-.269-.252-.62-.378-1.052-.378-.306 0-.629.056-.97.166-.339.11-.702.278-1.088.503V288.2c.393-.164.76-.288 1.101-.372a4.01 4.01 0 0 1 .939-.125c.748 0 1.344.194 1.788.583.445.388.667.907.667 1.557 0 .308-.056.6-.167.877-.11.276-.313.601-.606.976-.08.098-.337.379-.77.843-.43.464-1.04 1.113-1.826 1.947Z"/>
  <path fill="none" stroke="#b0b0b0" stroke-dasharray=".8627368,.3730752" stroke-linejoin="round" stroke-opacity=".702" stroke-width=".518" d="M211.8 284.273V1.727"/>
  <path fill="none" stroke="var(--secondary-color)" stroke-linejoin="round" stroke-width=".691" d="M211.935 284.41v-2.836"/>
  <path fill="var(--secondary-color)" fill-rule="evenodd" d="m212.426 288.79-2.557 3.96h2.557v-3.96Zm-.266-.874h1.274v4.835h1.068v.834h-1.068v1.75h-1.008v-1.75h-3.378v-.968l3.112-4.701Z"/>
  <path fill="none" stroke="#b0b0b0" stroke-dasharray=".8627368,.3730752" stroke-linejoin="round" stroke-opacity=".702" stroke-width=".518" d="M298.2 284.273V1.727"/>
  <path fill="none" stroke="var(--secondary-color)" stroke-linejoin="round" stroke-width=".691" d="M298.343 284.41v-2.836"/>
  <path fill="var(--secondary-color)" fill-rule="evenodd" d="M298.158 291.113c-.46 0-.826.153-1.096.46-.268.304-.403.723-.403 1.255 0 .529.135.947.403 1.255.27.307.635.461 1.096.461.46 0 .825-.154 1.094-.46.268-.309.403-.727.403-1.256 0-.532-.135-.95-.403-1.256-.27-.306-.634-.459-1.094-.459Zm2.036-3.122v.907a4.207 4.207 0 0 0-.78-.27 3.323 3.323 0 0 0-.78-.094c-.677 0-1.195.222-1.552.666-.356.443-.56 1.114-.611 2.01.2-.285.45-.504.75-.657a2.18 2.18 0 0 1 .997-.229c.762 0 1.363.225 1.806.674.442.448.663 1.058.663 1.83 0 .756-.23 1.363-.691 1.82-.46.457-1.073.685-1.838.685-.878 0-1.548-.326-2.012-.978-.464-.653-.696-1.6-.696-2.838 0-1.163.285-2.09.853-2.783.57-.692 1.333-1.038 2.29-1.038.258 0 .518.025.78.074.263.05.536.123.821.221Z"/>
  <path fill="none" stroke="#b0b0b0" stroke-dasharray=".8627368,.3730752" stroke-linejoin="round" stroke-opacity=".702" stroke-width=".518" d="M384.382 284.273V1.727"/>
  <path fill="none" stroke="var(--secondary-color)" stroke-linejoin="round" stroke-width=".691" d="M384.533 284.41v-2.836"/>
  <path fill="var(--secondary-color)" fill-rule="evenodd" d="M384.26 291.694c-.491 0-.878.126-1.159.38-.28.253-.42.601-.42 1.044 0 .444.14.792.42 1.046.281.253.668.38 1.159.38.49 0 .877-.127 1.16-.382.283-.255.425-.603.425-1.044 0-.443-.14-.79-.422-1.044-.28-.254-.668-.38-1.163-.38Zm-1.033-.423c-.443-.105-.788-.304-1.036-.596-.246-.294-.37-.65-.37-1.072 0-.587.217-1.052.651-1.394.436-.342 1.031-.513 1.788-.513.76 0 1.357.171 1.79.513.433.342.65.807.65 1.394 0 .421-.125.778-.372 1.072-.247.292-.59.49-1.03.596.498.111.885.33 1.162.656.279.325.418.722.418 1.191 0 .714-.226 1.262-.678 1.644-.451.38-1.098.57-1.94.57-.842 0-1.488-.19-1.941-.57-.452-.382-.678-.93-.678-1.644 0-.469.14-.866.42-1.191.28-.326.668-.545 1.166-.656Zm-.378-1.573c0 .38.123.678.37.891.247.214.594.32 1.04.32.445 0 .791-.106 1.041-.32.251-.213.377-.51.377-.89 0-.383-.126-.68-.377-.894-.25-.213-.596-.32-1.04-.32-.447 0-.794.107-1.041.32-.247.214-.37.511-.37.893Z"/>
  <path fill="none" stroke="#b0b0b0" stroke-dasharray=".8627368,.3730752" stroke-linejoin="round" stroke-opacity=".702" stroke-width=".518" d="M470.564 284.273V1.727"/>
  <path fill="none" stroke="var(--secondary-color)" stroke-linejoin="round" stroke-width=".691" d="M470.723 284.41v-2.836"/>
  <path fill="var(--secondary-color)" fill-rule="evenodd" d="M465.356 294.49h1.62v-5.66l-1.763.358v-.914l1.753-.358h.991v6.574h1.62v.844h-4.221v-.844Zm8.367-6.005c-.528 0-.924.252-1.19.757-.266.504-.398 1.262-.398 2.275 0 1.008.132 1.765.397 2.27.267.505.663.757 1.19.757.532 0 .93-.252 1.196-.757.266-.505.4-1.262.4-2.27 0-1.013-.134-1.771-.4-2.275-.266-.505-.664-.757-1.195-.757Zm0-.789c.85 0 1.498.327 1.946.98.449.652.673 1.599.673 2.84 0 1.24-.224 2.186-.673 2.839-.448.652-1.097.978-1.946.978s-1.497-.326-1.946-.978c-.448-.653-.672-1.6-.672-2.838 0-1.242.224-2.19.672-2.841.449-.653 1.097-.98 1.946-.98Z"/>
  <path fill="none" stroke="#b0b0b0" stroke-dasharray=".8627368,.3730752" stroke-linejoin="round" stroke-opacity=".702" stroke-width=".518" d="M17.836 246.31h474.328"/>
  <path fill="none" stroke="var(--secondary-color)" stroke-linejoin="round" stroke-width=".691" d="M17.953 246.446h3.054"/>
  <path fill="var(--secondary-color)" fill-rule="evenodd" d="M.608 247.501h6.545v-.654H.608Zm9.582 2.043h3.57v.854h-4.8v-.854c.387-.398.916-.933 1.586-1.604a39.536 39.536 0 0 0 1.264-1.3c.327-.365.556-.674.686-.927s.196-.501.196-.746c0-.398-.141-.723-.423-.974-.282-.252-.65-.378-1.102-.378-.321 0-.66.055-1.016.166-.356.11-.736.278-1.141.503v-1.026a8.16 8.16 0 0 1 1.154-.371 4.33 4.33 0 0 1 .983-.125c.784 0 1.408.194 1.874.583.465.388.698.907.698 1.556 0 .31-.058.602-.175.878-.116.276-.327.6-.635.976-.085.098-.353.378-.806.842a366.06 366.06 0 0 1-1.913 1.947Z"/>
  <path fill="none" stroke="#b0b0b0" stroke-dasharray=".8627368,.3730752" stroke-linejoin="round" stroke-opacity=".702" stroke-width=".518" d="M17.836 183.69h474.328"/>
  <path fill="none" stroke="var(--secondary-color)" stroke-linejoin="round" stroke-width=".691" d="M17.953 183.822h3.054"/>
  <path fill="var(--secondary-color)" fill-rule="evenodd" d="M.608 184.923h6.545v-.873H.608Zm8.924 2.013h1.62v-5.66l-1.762.358v-.914l1.752-.358h.992v6.574h1.62v.845H9.531v-.845Z"/>
  <path fill="none" stroke="#b0b0b0" stroke-dasharray=".8627368,.3730752" stroke-linejoin="round" stroke-opacity=".702" stroke-width=".518" d="M17.836 121.073h474.328"/>
  <path fill="none" stroke="var(--secondary-color)" stroke-linejoin="round" stroke-width=".691" d="M17.953 121.197h3.054"/>
  <path fill="var(--secondary-color)" fill-rule="evenodd" d="M11.467 118.319c-.505 0-.885.252-1.14.757-.254.504-.381 1.262-.381 2.275 0 1.008.127 1.765.38 2.27.256.504.636.757 1.141.757.51 0 .891-.253 1.146-.757.255-.505.382-1.262.382-2.27 0-1.013-.127-1.771-.382-2.275-.255-.505-.636-.757-1.146-.757Zm0-.789c.815 0 1.437.327 1.866.98.43.652.644 1.599.644 2.84 0 1.24-.215 2.185-.644 2.839-.43.651-1.051.978-1.866.978-.813 0-1.434-.327-1.864-.978-.43-.654-.644-1.6-.644-2.838 0-1.242.215-2.19.644-2.841.43-.653 1.051-.98 1.864-.98Z"/>
  <path fill="none" stroke="#b0b0b0" stroke-dasharray=".8627368,.3730752" stroke-linejoin="round" stroke-opacity=".702" stroke-width=".518" d="M17.836 58.236h474.328"/>
  <path fill="none" stroke="var(--secondary-color)" stroke-linejoin="round" stroke-width=".691" d="M17.953 58.355h3.054"/>
  <path fill="var(--secondary-color)" fill-rule="evenodd" d="M9.532 61.493h1.62v-5.66l-1.762.358v-.914l1.752-.358h.992v6.574h1.62v.845H9.531v-.845Z"/>
  <path fill="none" stroke="var(--secondary-color)" stroke-linecap="square" stroke-miterlimit="8" stroke-width=".864" d="M17.836 284.273V1.727m0 282.546h474.328m.872-282.764v282.764m0-282.763H18.71"/>
  <path fill-rule="evenodd" d="m360.42 272.958 2.618-2.836m-2.618 0 2.618 2.836"/>
  <path fill="none" stroke="var(--secondary-color)" stroke-linejoin="round" stroke-width="1.295" d="m360.42 272.958 2.618-2.836m-2.618 0 2.618 2.836"/>
  <path fill-rule="evenodd" d="m38.136 113.014 2.618-2.618m-2.618 0 2.618 2.618"/>
  <path fill="none" stroke="var(--secondary-color)" stroke-linejoin="round" stroke-width="1.295" d="m38.136 113.014 2.618-2.618m-2.618 0 2.618 2.618"/>
  <path fill-rule="evenodd" d="m42.5 116.505 2.618-2.618m-2.618 0 2.618 2.618"/>
  <path fill="none" stroke="var(--secondary-color)" stroke-linejoin="round" stroke-width="1.295" d="m42.5 116.505 2.618-2.618m-2.618 0 2.618 2.618"/>
  <path fill-rule="evenodd" d="m46.864 94.031 2.618-2.836m-2.618 0 2.618 2.837"/>
  <path fill="none" stroke="var(--secondary-color)" stroke-linejoin="round" stroke-width="1.295" d="m46.864 94.031 2.618-2.836m-2.618 0 2.618 2.836"/>
  <path fill-rule="evenodd" d="m51.228 70.247 2.618-2.836m-2.618 0 2.618 2.836"/>
  <path fill="none" stroke="var(--secondary-color)" stroke-linejoin="round" stroke-width="1.295" d="m51.228 70.247 2.618-2.836m-2.618 0 2.618 2.836"/>
  <path fill-rule="evenodd" d="m55.592 96.43 2.619-2.618m-2.619 0 2.619 2.619"/>
  <path fill="none" stroke="var(--secondary-color)" stroke-linejoin="round" stroke-width="1.295" d="m55.592 96.43 2.619-2.618m-2.619 0 2.619 2.619"/>
  <path fill-rule="evenodd" d="m59.956 90.103 2.619-2.618m-2.619 0 2.619 2.618"/>
  <path fill="none" stroke="var(--secondary-color)" stroke-linejoin="round" stroke-width="1.295" d="m59.956 90.103 2.619-2.618m-2.619 0 2.619 2.618"/>
  <path fill-rule="evenodd" d="m64.103 50.172 2.836-2.618m-2.836 0 2.836 2.618"/>
  <path fill="none" stroke="var(--secondary-color)" stroke-linejoin="round" stroke-width="1.295" d="m64.103 50.172 2.836-2.618m-2.836 0 2.836 2.618"/>
  <path fill-rule="evenodd" d="m68.467 60.21 2.837-2.62m-2.837 0 2.837 2.62"/>
  <path fill="none" stroke="var(--secondary-color)" stroke-linejoin="round" stroke-width="1.295" d="m68.467 60.21 2.837-2.62m-2.837 0 2.837 2.62"/>
  <path fill-rule="evenodd" d="m72.831 78.538 2.837-2.618m-2.837 0 2.837 2.618"/>
  <path fill="none" stroke="var(--secondary-color)" stroke-linejoin="round" stroke-width="1.295" d="m72.831 78.538 2.837-2.618m-2.837 0 2.837 2.618"/>
  <path fill-rule="evenodd" d="m77.195 55.19 2.837-2.618m-2.837 0 2.837 2.619"/>
  <path fill="none" stroke="var(--secondary-color)" stroke-linejoin="round" stroke-width="1.295" d="m77.195 55.19 2.837-2.618m-2.837 0 2.837 2.619"/>
  <path fill-rule="evenodd" d="m81.56 70.246 2.836-2.618m-2.837 0 2.837 2.618"/>
  <path fill="none" stroke="var(--secondary-color)" stroke-linejoin="round" stroke-width="1.295" d="m81.56 70.247 2.836-2.619m-2.837 0 2.837 2.619"/>
  <path fill-rule="evenodd" d="m85.923 66.755 2.837-2.618m-2.837 0 2.837 2.618"/>
  <path fill="none" stroke="var(--secondary-color)" stroke-linejoin="round" stroke-width="1.295" d="m85.923 66.755 2.837-2.618m-2.837 0 2.837 2.618"/>
  <path fill-rule="evenodd" d="m90.287 50.39 2.837-2.618m-2.837 0 2.837 2.618"/>
  <path fill="none" stroke="var(--secondary-color)" stroke-linejoin="round" stroke-width="1.295" d="m90.287 50.39 2.837-2.618m-2.837 0 2.837 2.618"/>
  <path fill-rule="evenodd" d="m94.651 88.357 2.837-2.618m-2.837 0 2.837 2.618"/>
  <path fill="none" stroke="var(--secondary-color)" stroke-linejoin="round" stroke-width="1.295" d="m94.651 88.357 2.837-2.618m-2.837 0 2.837 2.618"/>
  <path fill-rule="evenodd" d="m99.016 82.685 2.836-2.837m-2.836 0 2.836 2.837"/>
  <path fill="none" stroke="var(--secondary-color)" stroke-linejoin="round" stroke-width="1.295" d="m99.016 82.685 2.836-2.836m-2.836 0 2.836 2.836"/>
  <path fill-rule="evenodd" d="m103.378 58.9 2.619-2.618m-2.619 0 2.619 2.618"/>
  <path fill="none" stroke="var(--secondary-color)" stroke-linejoin="round" stroke-width="1.295" d="m103.378 58.9 2.619-2.618m-2.619 0 2.619 2.618"/>
  <path fill-rule="evenodd" d="m107.742 65.882 2.619-2.618m-2.619 0 2.619 2.618"/>
  <path fill="none" stroke="var(--secondary-color)" stroke-linejoin="round" stroke-width="1.295" d="m107.742 65.883 2.619-2.619m-2.619 0 2.619 2.619"/>
  <path fill-rule="evenodd" d="m112.106 39.916 2.619-2.618m-2.619 0 2.619 2.618"/>
  <path fill="none" stroke="var(--secondary-color)" stroke-linejoin="round" stroke-width="1.295" d="m112.106 39.916 2.619-2.618m-2.619 0 2.619 2.618"/>
  <path fill-rule="evenodd" d="m116.47 62.173 2.619-2.618m-2.618 0 2.618 2.618"/>
  <path fill="none" stroke="var(--secondary-color)" stroke-linejoin="round" stroke-width="1.295" d="m116.47 62.173 2.619-2.618m-2.618 0 2.618 2.618"/>
  <path fill-rule="evenodd" d="m120.835 71.337 2.618-2.618m-2.618 0 2.618 2.618"/>
  <path fill="none" stroke="var(--secondary-color)" stroke-linejoin="round" stroke-width="1.295" d="m120.835 71.337 2.618-2.618m-2.618 0 2.618 2.618"/>
  <path fill-rule="evenodd" d="m125.198 17.224 2.619-2.619m-2.618 0 2.618 2.619"/>
  <path fill="none" stroke="var(--secondary-color)" stroke-linejoin="round" stroke-width="1.295" d="m125.199 17.223 2.618-2.618m-2.618 0 2.618 2.618"/>
  <path fill-rule="evenodd" d="m129.563 49.3 2.618-2.62m-2.619 0 2.619 2.62"/>
  <path fill="none" stroke="var(--secondary-color)" stroke-linejoin="round" stroke-width="1.295" d="m129.563 49.3 2.618-2.62m-2.618 0 2.618 2.62"/>
  <path fill-rule="evenodd" d="m133.927 44.5 2.618-2.837m-2.618 0 2.618 2.836"/>
  <path fill="none" stroke="var(--secondary-color)" stroke-linejoin="round" stroke-width="1.295" d="m133.927 44.5 2.618-2.837m-2.618 0 2.618 2.836"/>
  <path fill-rule="evenodd" d="m138.29 73.301 2.619-2.618m-2.618 0 2.618 2.618"/>
  <path fill="none" stroke="var(--secondary-color)" stroke-linejoin="round" stroke-width="1.295" d="m138.29 73.301 2.619-2.618m-2.618 0 2.618 2.618"/>
  <path fill-rule="evenodd" d="m142.655 58.027 2.618-2.618m-2.618 0 2.618 2.618"/>
  <path fill="none" stroke="var(--secondary-color)" stroke-linejoin="round" stroke-width="1.295" d="m142.655 58.027 2.618-2.618m-2.618 0 2.618 2.618"/>
  <path fill-rule="evenodd" d="m147.019 47.117 2.618-2.618m-2.618 0 2.618 2.618"/>
  <path fill="none" stroke="var(--secondary-color)" stroke-linejoin="round" stroke-width="1.295" d="m147.019 47.117 2.618-2.618m-2.618 0 2.618 2.618"/>
  <path fill-rule="evenodd" d="M151.383 72.647 154 70.029m-2.618 0L154 72.647"/>
  <path fill="none" stroke="var(--secondary-color)" stroke-linejoin="round" stroke-width="1.295" d="M151.383 72.647 154 70.028m-2.618 0L154 72.647"/>
  <path fill-rule="evenodd" d="m155.747 46.027 2.618-2.837m-2.618 0 2.618 2.837"/>
  <path fill="none" stroke="var(--secondary-color)" stroke-linejoin="round" stroke-width="1.295" d="m155.747 46.027 2.618-2.837m-2.618 0 2.618 2.837"/>
  <path fill-rule="evenodd" d="m160.11 66.537 2.619-2.618m-2.618 0 2.618 2.618"/>
  <path fill="none" stroke="var(--secondary-color)" stroke-linejoin="round" stroke-width="1.295" d="m160.11 66.537 2.619-2.618m-2.618 0 2.618 2.618"/>
  <path fill-rule="evenodd" d="m164.475 63.264 2.618-2.618m-2.618 0 2.618 2.618"/>
  <path fill="none" stroke="var(--secondary-color)" stroke-linejoin="round" stroke-width="1.295" d="m164.475 63.264 2.618-2.618m-2.618 0 2.618 2.618"/>
  <path fill-rule="evenodd" d="m168.839 71.774 2.618-2.618m-2.618 0 2.618 2.618"/>
  <path fill="none" stroke="var(--secondary-color)" stroke-linejoin="round" stroke-width="1.295" d="m168.839 71.774 2.618-2.618m-2.618 0 2.618 2.618"/>
  <path fill-rule="evenodd" d="m173.203 28.57 2.618-2.618m-2.618 0 2.618 2.618"/>
  <path fill="none" stroke="var(--secondary-color)" stroke-linejoin="round" stroke-width="1.295" d="m173.203 28.57 2.618-2.618m-2.618 0 2.618 2.618"/>
  <path fill-rule="evenodd" d="m177.567 66.755 2.618-2.618m-2.618 0 2.618 2.618"/>
  <path fill="none" stroke="var(--secondary-color)" stroke-linejoin="round" stroke-width="1.295" d="m177.567 66.755 2.618-2.618m-2.618 0 2.618 2.618"/>
  <path fill-rule="evenodd" d="m181.714 89.667 2.837-2.619m-2.837 0 2.837 2.619"/>
  <path fill="none" stroke="var(--secondary-color)" stroke-linejoin="round" stroke-width="1.295" d="m181.714 89.666 2.837-2.618m-2.837 0 2.837 2.618"/>
  <path fill-rule="evenodd" d="m186.079 57.809 2.836-2.618m-2.836 0 2.836 2.618"/>
  <path fill="none" stroke="var(--secondary-color)" stroke-linejoin="round" stroke-width="1.295" d="m186.079 57.809 2.836-2.618m-2.836 0 2.836 2.618"/>
  <path fill-rule="evenodd" d="m190.443 99.922 2.836-2.618m-2.836 0 2.836 2.618"/>
  <path fill="none" stroke="var(--secondary-color)" stroke-linejoin="round" stroke-width="1.295" d="m190.443 99.922 2.836-2.618m-2.836 0 2.836 2.618"/>
  <path fill-rule="evenodd" d="m194.807 76.792 2.836-2.618m-2.836 0 2.836 2.618"/>
  <path fill="none" stroke="var(--secondary-color)" stroke-linejoin="round" stroke-width="1.295" d="m194.807 76.793 2.836-2.619m-2.836 0 2.836 2.619"/>
  <path fill-rule="evenodd" d="m199.17 121.524 2.837-2.618m-2.836 0 2.836 2.618"/>
  <path fill="none" stroke="var(--secondary-color)" stroke-linejoin="round" stroke-width="1.295" d="m199.17 121.524 2.837-2.618m-2.836 0 2.836 2.618"/>
  <path fill-rule="evenodd" d="m203.535 113.669 2.836-2.619m-2.836 0 2.836 2.619"/>
  <path fill="none" stroke="var(--secondary-color)" stroke-linejoin="round" stroke-width="1.295" d="m203.535 113.669 2.836-2.619m-2.836 0 2.836 2.619"/>
  <path fill-rule="evenodd" d="m207.899 89.23 2.836-2.618m-2.836 0 2.836 2.618"/>
  <path fill="none" stroke="var(--secondary-color)" stroke-linejoin="round" stroke-width="1.295" d="m207.899 89.23 2.836-2.618m-2.836 0 2.836 2.618"/>
  <path fill-rule="evenodd" d="m212.263 83.339 2.836-2.619m-2.836 0 2.836 2.619"/>
  <path fill="none" stroke="var(--secondary-color)" stroke-linejoin="round" stroke-width="1.295" d="m212.263 83.338 2.836-2.618m-2.836 0 2.836 2.618"/>
  <path fill-rule="evenodd" d="m216.625 98.394 2.618-2.618m-2.618 0 2.618 2.618"/>
  <path fill="none" stroke="var(--secondary-color)" stroke-linejoin="round" stroke-width="1.295" d="m216.625 98.394 2.618-2.618m-2.618 0 2.618 2.618"/>
  <path fill-rule="evenodd" d="m220.989 108.214 2.618-2.619m-2.618 0 2.618 2.619"/>
  <path fill="none" stroke="var(--secondary-color)" stroke-linejoin="round" stroke-width="1.295" d="m220.989 108.213 2.618-2.618m-2.618 0 2.618 2.618"/>
  <path fill-rule="evenodd" d="m225.353 116.287 2.618-2.618m-2.618 0 2.618 2.618"/>
  <path fill="none" stroke="var(--secondary-color)" stroke-linejoin="round" stroke-width="1.295" d="m225.353 116.287 2.618-2.618m-2.618 0 2.618 2.618"/>
  <path fill-rule="evenodd" d="m229.717 142.908 2.618-2.619m-2.618 0 2.618 2.619"/>
  <path fill="none" stroke="var(--secondary-color)" stroke-linejoin="round" stroke-width="1.295" d="m229.717 142.908 2.618-2.619m-2.618 0 2.618 2.619"/>
  <path fill-rule="evenodd" d="m234.081 133.307 2.618-2.618m-2.618 0 2.618 2.618"/>
  <path fill="none" stroke="var(--secondary-color)" stroke-linejoin="round" stroke-width="1.295" d="m234.081 133.307 2.618-2.619m-2.618 0 2.618 2.619"/>
  <path fill-rule="evenodd" d="m238.445 133.089 2.618-2.619m-2.618 0 2.618 2.619"/>
  <path fill="none" stroke="var(--secondary-color)" stroke-linejoin="round" stroke-width="1.295" d="m238.445 133.089 2.618-2.619m-2.618 0 2.618 2.619"/>
  <path fill-rule="evenodd" d="m242.81 109.305 2.617-2.619m-2.618 0 2.618 2.619"/>
  <path fill="none" stroke="var(--secondary-color)" stroke-linejoin="round" stroke-width="1.295" d="m242.81 109.305 2.617-2.619m-2.618 0 2.618 2.619"/>
  <path fill-rule="evenodd" d="m247.173 127.415 2.618-2.618m-2.618 0 2.618 2.618"/>
  <path fill="none" stroke="var(--secondary-color)" stroke-linejoin="round" stroke-width="1.295" d="m247.173 127.415 2.618-2.618m-2.618 0 2.618 2.618"/>
  <path fill-rule="evenodd" d="m251.537 171.93 2.618-2.837m-2.618 0 2.618 2.837"/>
  <path fill="none" stroke="var(--secondary-color)" stroke-linejoin="round" stroke-width="1.295" d="m251.537 171.93 2.618-2.837m-2.618 0 2.618 2.837"/>
  <path fill-rule="evenodd" d="m255.901 137.234 2.618-2.618m-2.618 0 2.618 2.618"/>
  <path fill="none" stroke="var(--secondary-color)" stroke-linejoin="round" stroke-width="1.295" d="m255.901 137.234 2.619-2.618m-2.619 0 2.619 2.618"/>
  <path fill-rule="evenodd" d="m260.265 155.345 2.619-2.618m-2.619 0 2.619 2.618"/>
  <path fill="none" stroke="var(--secondary-color)" stroke-linejoin="round" stroke-width="1.295" d="m260.265 155.345 2.619-2.618m-2.619 0 2.619 2.618"/>
  <path fill-rule="evenodd" d="m264.63 165.382 2.618-2.618m-2.619 0 2.619 2.618"/>
  <path fill="none" stroke="var(--secondary-color)" stroke-linejoin="round" stroke-width="1.295" d="m264.63 165.382 2.618-2.618m-2.619 0 2.619 2.618"/>
  <path fill-rule="evenodd" d="m268.993 145.744 2.619-2.618m-2.619 0 2.619 2.618"/>
  <path fill="none" stroke="var(--secondary-color)" stroke-linejoin="round" stroke-width="1.295" d="m268.993 145.744 2.619-2.618m-2.619 0 2.619 2.618"/>
  <path fill-rule="evenodd" d="m273.357 142.471 2.619-2.618m-2.619 0 2.619 2.618"/>
  <path fill="none" stroke="var(--secondary-color)" stroke-linejoin="round" stroke-width="1.295" d="m273.357 142.471 2.619-2.618m-2.619 0 2.619 2.618"/>
  <path fill-rule="evenodd" d="m277.721 148.799 2.619-2.618m-2.619 0 2.619 2.618"/>
  <path fill="none" stroke="var(--secondary-color)" stroke-linejoin="round" stroke-width="1.295" d="m277.721 148.799 2.619-2.618m-2.619 0 2.619 2.618"/>
  <path fill-rule="evenodd" d="m282.085 186.548 2.619-2.618m-2.619 0 2.619 2.618"/>
  <path fill="none" stroke="var(--secondary-color)" stroke-linejoin="round" stroke-width="1.295" d="m282.085 186.548 2.619-2.618m-2.619 0 2.619 2.618"/>
  <path fill-rule="evenodd" d="m286.45 180.875 2.618-2.619m-2.619 0 2.619 2.619"/>
  <path fill="none" stroke="var(--secondary-color)" stroke-linejoin="round" stroke-width="1.295" d="m286.45 180.875 2.618-2.619m-2.619 0 2.619 2.619"/>
  <path fill-rule="evenodd" d="m290.813 173.02 2.619-2.619m-2.619 0 2.619 2.618"/>
  <path fill="none" stroke="var(--secondary-color)" stroke-linejoin="round" stroke-width="1.295" d="m290.813 173.02 2.619-2.619m-2.619 0 2.619 2.618"/>
  <path fill-rule="evenodd" d="m294.962 165.166 2.836-2.837m-2.836 0 2.836 2.837"/>
  <path fill="none" stroke="var(--secondary-color)" stroke-linejoin="round" stroke-width="1.295" d="m294.962 165.166 2.836-2.837m-2.836 0 2.836 2.837"/>
  <path fill-rule="evenodd" d="m299.326 196.367 2.837-2.618m-2.837 0 2.837 2.618"/>
  <path fill="none" stroke="var(--secondary-color)" stroke-linejoin="round" stroke-width="1.295" d="m299.326 196.367 2.836-2.618m-2.836 0 2.836 2.618"/>
  <path fill-rule="evenodd" d="m303.69 194.841 2.837-2.836m-2.837 0 2.837 2.836"/>
  <path fill="none" stroke="var(--secondary-color)" stroke-linejoin="round" stroke-width="1.295" d="m303.69 194.841 2.837-2.836m-2.837 0 2.837 2.836"/>
  <path fill-rule="evenodd" d="m308.054 215.787 2.837-2.618m-2.837 0 2.837 2.618"/>
  <path fill="none" stroke="var(--secondary-color)" stroke-linejoin="round" stroke-width="1.295" d="m308.054 215.787 2.837-2.618m-2.837 0 2.837 2.618"/>
  <path fill-rule="evenodd" d="m312.418 221.024 2.837-2.619m-2.837 0 2.837 2.619"/>
  <path fill="none" stroke="var(--secondary-color)" stroke-linejoin="round" stroke-width="1.295" d="m312.418 221.024 2.837-2.619m-2.837 0 2.837 2.619"/>
  <path fill-rule="evenodd" d="m316.782 186.548 2.837-2.618m-2.837 0 2.837 2.618"/>
  <path fill="none" stroke="var(--secondary-color)" stroke-linejoin="round" stroke-width="1.295" d="m316.782 186.548 2.837-2.618m-2.837 0 2.837 2.618"/>
  <path fill-rule="evenodd" d="m321.146 179.565 2.837-2.618m-2.837 0 2.837 2.618"/>
  <path fill="none" stroke="var(--secondary-color)" stroke-linejoin="round" stroke-width="1.295" d="m321.146 179.565 2.837-2.618m-2.837 0 2.837 2.618"/>
  <path fill-rule="evenodd" d="m325.51 209.461 2.837-2.837m-2.837 0 2.837 2.837"/>
  <path fill="none" stroke="var(--secondary-color)" stroke-linejoin="round" stroke-width="1.295" d="m325.51 209.461 2.837-2.836m-2.836 0 2.836 2.836"/>
  <path fill-rule="evenodd" d="m329.872 192.003 2.618-2.618m-2.618 0 2.618 2.618"/>
  <path fill="none" stroke="var(--secondary-color)" stroke-linejoin="round" stroke-width="1.295" d="m329.872 192.003 2.618-2.618m-2.618 0 2.618 2.618"/>
  <path fill-rule="evenodd" d="m334.236 206.622 2.618-2.618m-2.618 0 2.618 2.618"/>
  <path fill="none" stroke="var(--secondary-color)" stroke-linejoin="round" stroke-width="1.295" d="m334.236 206.622 2.618-2.618m-2.618 0 2.618 2.618"/>
  <path fill-rule="evenodd" d="m338.6 227.788 2.618-2.618m-2.618 0 2.618 2.618"/>
  <path fill="none" stroke="var(--secondary-color)" stroke-linejoin="round" stroke-width="1.295" d="m338.6 227.788 2.618-2.618m-2.618 0 2.618 2.618"/>
  <path fill-rule="evenodd" d="m342.964 210.986 2.618-2.618m-2.618 0 2.618 2.618"/>
  <path fill="none" stroke="var(--secondary-color)" stroke-linejoin="round" stroke-width="1.295" d="m342.964 210.986 2.618-2.618m-2.618 0 2.618 2.618"/>
  <path fill-rule="evenodd" d="m347.328 190.694 2.618-2.618m-2.618 0 2.618 2.618"/>
  <path fill="none" stroke="var(--secondary-color)" stroke-linejoin="round" stroke-width="1.295" d="m347.328 190.694 2.618-2.618m-2.618 0 2.618 2.618"/>
  <path fill-rule="evenodd" d="m351.692 221.897 2.618-2.619m-2.618 0 2.618 2.619"/>
  <path fill="none" stroke="var(--secondary-color)" stroke-linejoin="round" stroke-width="1.295" d="m351.692 221.897 2.618-2.619m-2.618 0 2.618 2.619"/>
  <path fill-rule="evenodd" d="m356.056 193.094 2.618-2.618m-2.618 0 2.618 2.618"/>
  <path fill="none" stroke="var(--secondary-color)" stroke-linejoin="round" stroke-width="1.295" d="m356.056 193.094 2.618-2.618m-2.618 0 2.618 2.618"/>
  <path fill-rule="evenodd" d="m364.784 208.804 2.618-2.618m-2.618 0 2.618 2.618"/>
  <path fill="none" stroke="var(--secondary-color)" stroke-linejoin="round" stroke-width="1.295" d="m364.784 208.804 2.618-2.618m-2.618 0 2.618 2.618"/>
  <path fill-rule="evenodd" d="m369.148 223.208 2.618-2.837m-2.618 0 2.618 2.837"/>
  <path fill="none" stroke="var(--secondary-color)" stroke-linejoin="round" stroke-width="1.295" d="m369.148 223.208 2.618-2.837m-2.618 0 2.618 2.837"/>
  <path fill-rule="evenodd" d="m373.512 230.406 2.618-2.618m-2.618 0 2.618 2.618"/>
  <path fill="none" stroke="var(--secondary-color)" stroke-linejoin="round" stroke-width="1.295" d="m373.512 230.406 2.618-2.618m-2.618 0 2.618 2.618"/>
  <path fill-rule="evenodd" d="m377.876 222.99 2.618-2.837m-2.618 0 2.618 2.836"/>
  <path fill="none" stroke="var(--secondary-color)" stroke-linejoin="round" stroke-width="1.295" d="m377.876 222.99 2.618-2.837m-2.618 0 2.618 2.836"/>
  <path fill-rule="evenodd" d="m382.24 261.391 2.618-2.618m-2.618 0 2.618 2.618"/>
  <path fill="none" stroke="var(--secondary-color)" stroke-linejoin="round" stroke-width="1.295" d="m382.24 261.391 2.618-2.618m-2.618 0 2.618 2.618"/>
  <path fill-rule="evenodd" d="m386.604 227.133 2.618-2.618m-2.618 0 2.618 2.618"/>
  <path fill="none" stroke="var(--secondary-color)" stroke-linejoin="round" stroke-width="1.295" d="m386.604 227.133 2.618-2.618m-2.618 0 2.618 2.618"/>
  <path fill-rule="evenodd" d="m390.968 215.134 2.618-2.836m-2.618 0 2.618 2.836"/>
  <path fill="none" stroke="var(--secondary-color)" stroke-linejoin="round" stroke-width="1.295" d="m390.968 215.134 2.618-2.836m-2.618 0 2.618 2.836"/>
  <path fill-rule="evenodd" d="m395.332 192.221 2.618-2.618m-2.618 0 2.618 2.618"/>
  <path fill="none" stroke="var(--secondary-color)" stroke-linejoin="round" stroke-width="1.295" d="m395.332 192.221 2.618-2.618m-2.618 0 2.618 2.618"/>
  <path fill-rule="evenodd" d="m399.696 227.788 2.618-2.618m-2.618 0 2.618 2.618"/>
  <path fill="none" stroke="var(--secondary-color)" stroke-linejoin="round" stroke-width="1.295" d="m399.696 227.788 2.618-2.618m-2.618 0 2.618 2.618"/>
  <path fill-rule="evenodd" d="m404.06 230.845 2.618-2.837m-2.618 0 2.618 2.837"/>
  <path fill="none" stroke="var(--secondary-color)" stroke-linejoin="round" stroke-width="1.295" d="m404.06 230.845 2.618-2.837m-2.618 0 2.618 2.837"/>
  <path fill-rule="evenodd" d="m408.21 222.115 2.836-2.618m-2.837 0 2.837 2.618"/>
  <path fill="none" stroke="var(--secondary-color)" stroke-linejoin="round" stroke-width="1.295" d="m408.21 222.115 2.836-2.618m-2.837 0 2.837 2.618"/>
  <path fill-rule="evenodd" d="m412.573 192.223 2.837-2.837m-2.837 0 2.837 2.837"/>
  <path fill="none" stroke="var(--secondary-color)" stroke-linejoin="round" stroke-width="1.295" d="m412.573 192.223 2.837-2.837m-2.837 0 2.837 2.837"/>
  <path fill-rule="evenodd" d="m416.938 199.422 2.836-2.618m-2.837 0 2.837 2.618"/>
  <path fill="none" stroke="var(--secondary-color)" stroke-linejoin="round" stroke-width="1.295" d="m416.938 199.422 2.836-2.618m-2.836 0 2.836 2.618"/>
  <path fill-rule="evenodd" d="m421.302 211.425 2.836-2.837m-2.836 0 2.836 2.837"/>
  <path fill="none" stroke="var(--secondary-color)" stroke-linejoin="round" stroke-width="1.295" d="m421.302 211.425 2.836-2.837m-2.836 0 2.836 2.837"/>
  <path fill-rule="evenodd" d="m425.666 186.984 2.836-2.618m-2.836 0 2.836 2.618"/>
  <path fill="none" stroke="var(--secondary-color)" stroke-linejoin="round" stroke-width="1.295" d="m425.666 186.984 2.836-2.618m-2.836 0 2.836 2.618"/>
  <path fill-rule="evenodd" d="m430.03 189.82 2.836-2.617m-2.836 0 2.836 2.618"/>
  <path fill="none" stroke="var(--secondary-color)" stroke-linejoin="round" stroke-width="1.295" d="m430.03 189.82 2.836-2.617m-2.836 0 2.836 2.618"/>
  <path fill-rule="evenodd" d="m434.394 167.783 2.836-2.619m-2.836 0 2.836 2.619"/>
  <path fill="none" stroke="var(--secondary-color)" stroke-linejoin="round" stroke-width="1.295" d="m434.394 167.783 2.836-2.619m-2.836 0 2.836 2.619"/>
  <path fill-rule="evenodd" d="m438.758 193.094 2.836-2.618m-2.836 0 2.836 2.618"/>
  <path fill="none" stroke="var(--secondary-color)" stroke-linejoin="round" stroke-width="1.295" d="m438.758 193.094 2.836-2.618m-2.836 0 2.836 2.618"/>
  <path fill-rule="evenodd" d="m443.122 179.347 2.836-2.618m-2.836 0 2.836 2.618"/>
  <path fill="none" stroke="var(--secondary-color)" stroke-linejoin="round" stroke-width="1.295" d="m443.122 179.347 2.836-2.618m-2.836 0 2.836 2.618"/>
  <path fill-rule="evenodd" d="m447.482 173.456 2.618-2.618m-2.618 0 2.618 2.618"/>
  <path fill="none" stroke="var(--secondary-color)" stroke-linejoin="round" stroke-width="1.295" d="m447.482 173.456 2.618-2.618m-2.618 0 2.618 2.618"/>
  <path fill-rule="evenodd" d="m451.846 186.113 2.618-2.836m-2.618 0 2.618 2.836"/>
  <path fill="none" stroke="var(--secondary-color)" stroke-linejoin="round" stroke-width="1.295" d="m451.846 186.113 2.618-2.836m-2.618 0 2.618 2.836"/>
  <path fill-rule="evenodd" d="m456.21 144.653 2.619-2.618m-2.619 0 2.619 2.618"/>
  <path fill="none" stroke="var(--secondary-color)" stroke-linejoin="round" stroke-width="1.295" d="m456.21 144.653 2.618-2.618m-2.618 0 2.618 2.618"/>
  <path fill-rule="evenodd" d="m460.574 136.58 2.618-2.619m-2.618 0 2.618 2.619"/>
  <path fill="none" stroke="var(--secondary-color)" stroke-linejoin="round" stroke-width="1.295" d="m460.574 136.58 2.618-2.619m-2.618 0 2.618 2.619"/>
  <path fill-rule="evenodd" d="m464.938 132.217 2.619-2.836m-2.619 0 2.619 2.836"/>
  <path fill="none" stroke="var(--secondary-color)" stroke-linejoin="round" stroke-width="1.295" d="m464.938 132.217 2.619-2.836m-2.619 0 2.619 2.836"/>
  <path fill-rule="evenodd" d="m469.302 126.76 2.618-2.618m-2.618 0 2.618 2.619"/>
  <path fill="none" stroke="var(--secondary-color)" stroke-linejoin="round" stroke-width="1.295" d="m469.302 126.76 2.618-2.618m-2.618 0 2.618 2.619"/>
  <path fill="var(--primary-color)" fill-opacity=".8" fill-rule="evenodd" d="M374.574 96.855h88.343c.734 0 1.101-.566 1.101-1.699V7.571c0-1.132-.367-1.698-1.101-1.698h-88.343c-.734 0-1.101.566-1.101 1.698v87.585c0 1.133.367 1.699 1.101 1.699Z"/>
  <path fill="none" stroke="var(--secondary-color)" stroke-miterlimit="8" stroke-opacity=".8" stroke-width=".864" d="M374.574 96.855h88.343c.734 0 1.101-.566 1.101-1.699V7.571c0-1.132-.367-1.698-1.1-1.698h-88.344c-.734 0-1.101.566-1.101 1.698v87.585c0 1.133.367 1.699 1.101 1.699Z"/>
  <path fill="none" stroke="var(--secondary-color)" stroke-linecap="square" stroke-linejoin="round" stroke-width="1.727" d="M376.964 12.855h16.8"/>
  <path fill="var(--secondary-color)" fill-rule="evenodd" d="M400.632 9.758h5.236v.696h-2.196v5.413h-.842v-5.413h-2.198v-.696Z"/>
  <path fill="var(--secondary-color)" fill-rule="evenodd" d="M408.074 11.86a1.061 1.061 0 0 0-.292-.11 1.555 1.555 0 0 0-.347-.036c-.45 0-.795.141-1.036.424-.24.283-.361.69-.361 1.22v2.47h-.8V11.14h.8v.729a1.6 1.6 0 0 1 .653-.633c.268-.139.594-.208.978-.208a2.738 2.738 0 0 1 .401.041l.004.79Zm.626 2.175v-2.893h.77v2.863c0 .452.087.792.26 1.019.172.226.432.338.779.338.415 0 .744-.135.985-.405.242-.27.363-.64.363-1.106v-2.71h.77v4.78h-.77v-.735a1.92 1.92 0 0 1-.651.647 1.701 1.701 0 0 1-.86.212c-.54 0-.948-.17-1.228-.512-.279-.341-.418-.84-.418-1.498Zm1.939-3.008Zm7.451 2.308v.383h-3.378c.032.541.185.953.457 1.236.273.283.653.425 1.14.425.282 0 .556-.037.82-.11a3.5 3.5 0 0 0 .79-.334v.743a4.25 4.25 0 0 1-.811.273 3.796 3.796 0 0 1-.842.094c-.714 0-1.28-.221-1.696-.665-.417-.444-.625-1.045-.625-1.802 0-.782.198-1.403.593-1.862.395-.46.928-.69 1.6-.69.601 0 1.077.208 1.427.622.35.414.526.976.526 1.687Zm-.734-.231c-.005-.429-.118-.771-.338-1.027-.22-.257-.51-.385-.872-.385-.41 0-.738.124-.985.371-.246.248-.387.597-.425 1.046l2.62-.005Zm4.879-3.346h3.491v.696h-2.67v1.8h2.41v.696h-2.41v2.917h-.821v-6.11Zm4.14 4.277v-2.893h.77v2.863c0 .452.086.792.259 1.019.173.226.433.338.78.338.415 0 .743-.135.984-.405.242-.27.363-.64.363-1.106v-2.71h.77v4.78h-.77v-.735c-.186.29-.404.506-.65.647a1.701 1.701 0 0 1-.861.212c-.539 0-.948-.17-1.227-.512-.28-.341-.418-.84-.418-1.498Zm1.938-3.008Zm7.441 1.971v2.83h-.77v-2.804c0-.444-.087-.776-.26-.996-.173-.22-.433-.33-.778-.33-.417 0-.745.132-.985.397s-.36.626-.36 1.084v2.649h-.774V11.14h.774v.729c.185-.282.402-.493.65-.632.25-.14.54-.21.866-.21.538 0 .946.167 1.222.5.276.334.415.824.415 1.471Zm4.83-1.673v.734a2.682 2.682 0 0 0-.616-.276 2.186 2.186 0 0 0-.624-.091c-.47 0-.837.161-1.097.485-.26.322-.39.775-.39 1.358 0 .584.13 1.037.39 1.36.26.323.626.484 1.097.484.21 0 .418-.03.624-.092.206-.06.411-.153.616-.276v.727a2.845 2.845 0 0 1-1.32.307c-.664 0-1.193-.226-1.584-.679-.391-.452-.587-1.062-.587-1.83 0-.78.198-1.392.593-1.839.396-.447.938-.67 1.626-.67a2.838 2.838 0 0 1 1.272.298Zm2.206-1.355v1.303h1.538v.585h-1.538v2.491c0 .374.05.614.152.721.101.107.308.16.62.16h.766v.63h-.766c-.577 0-.975-.108-1.194-.325-.22-.217-.329-.613-.329-1.186v-2.49h-.548v-.586h.548V9.97h.751Zm2.66 1.35h.655v4.553h-.654V11.32Zm0-1.774h.655v.949h-.654v-.949Zm4.055 2.146c-.418 0-.749.164-.992.493-.244.329-.366.779-.366 1.35 0 .572.121 1.022.363 1.35.243.33.574.494.995.494.417 0 .747-.165.99-.494.243-.331.365-.78.365-1.35 0-.566-.122-1.015-.366-1.346a1.161 1.161 0 0 0-.989-.497Zm0-.665c.68 0 1.213.222 1.6.666.389.444.583 1.058.583 1.842 0 .782-.194 1.396-.583 1.842-.387.445-.92.668-1.6.668-.681 0-1.216-.223-1.602-.668-.386-.446-.579-1.06-.579-1.842 0-.784.193-1.398.579-1.842.386-.444.92-.666 1.602-.666Zm7.196 1.971v2.83h-.77v-2.804c0-.444-.087-.776-.26-.996-.173-.22-.432-.33-.778-.33-.416 0-.744.132-.984.397s-.36.626-.36 1.084v2.649h-.775V11.14h.774v.729c.185-.282.402-.493.651-.632.25-.14.539-.21.865-.21.539 0 .946.167 1.222.5.277.334.415.824.415 1.471Z"/>
  <path fill-rule="evenodd" d="m383.986 27.26 2.837-2.618m-2.837 0 2.837 2.619"/>
  <path fill="none" stroke="var(--secondary-color)" stroke-linejoin="round" stroke-width="1.295" d="m383.986 27.26 2.837-2.617m-2.837 0 2.837 2.618"/>
  <path fill="var(--secondary-color)" fill-rule="evenodd" d="M402.996 23.298c-.602 0-1.08.224-1.435.67-.354.447-.53 1.055-.53 1.827 0 .767.176 1.375.53 1.821.354.447.833.67 1.435.67.602 0 1.079-.223 1.43-.67.353-.446.529-1.054.529-1.821 0-.772-.176-1.38-.528-1.826-.352-.447-.829-.67-1.43-.67Zm0-.67c.86 0 1.546.288 2.06.861.515.573.772 1.342.772 2.306 0 .96-.257 1.728-.772 2.301-.514.573-1.2.86-2.06.86-.861 0-1.55-.286-2.067-.857-.516-.573-.774-1.34-.774-2.304 0-.964.258-1.733.774-2.306.517-.573 1.206-.86 2.067-.86Zm7.525 3.906c0-.558-.115-.997-.345-1.315a1.108 1.108 0 0 0-.95-.476c-.403 0-.72.158-.95.476-.23.318-.345.757-.345 1.315 0 .558.115.997.345 1.315.23.318.547.477.95.477.403 0 .72-.16.95-.477.23-.318.345-.757.345-1.315Zm-2.59-1.614c.16-.275.363-.48.606-.612.245-.134.536-.201.875-.201.563 0 1.02.223 1.371.668.352.446.528 1.032.528 1.76 0 .726-.176 1.312-.528 1.759a1.665 1.665 0 0 1-1.371.668c-.339 0-.63-.066-.875-.2a1.595 1.595 0 0 1-.606-.613v.693h-.765v-6.425h.765v2.503Zm7.536-.565v.71a2.886 2.886 0 0 0-.66-.244 3.026 3.026 0 0 0-.71-.082c-.372 0-.651.057-.838.171a.564.564 0 0 0-.279.515c0 .174.067.31.2.41.133.1.4.194.804.283l.257.058c.532.114.91.275 1.135.483.225.208.337.499.337.871 0 .425-.168.762-.504 1.01-.336.247-.797.37-1.385.37-.244 0-.499-.023-.764-.071a6.454 6.454 0 0 1-.838-.214v-.776c.278.144.55.253.82.325.268.072.535.107.8.107.353 0 .624-.06.814-.181a.574.574 0 0 0 .286-.512c0-.204-.07-.36-.207-.47-.136-.108-.437-.213-.903-.314l-.26-.061c-.465-.098-.801-.248-1.008-.451-.206-.203-.31-.481-.31-.835 0-.43.153-.762.457-.995.305-.234.737-.351 1.298-.351.276 0 .537.02.781.061.245.04.471.101.677.183Zm5.463 1.963v.367h-3.38c.033.517.186.911.458 1.182.273.271.653.406 1.14.406.282 0 .556-.035.82-.105.265-.07.529-.177.79-.32v.712a4.399 4.399 0 0 1-.811.26c-.277.06-.558.09-.842.09-.714 0-1.28-.211-1.696-.635-.417-.425-.625-1-.625-1.724 0-.748.198-1.342.593-1.78.395-.44.929-.66 1.6-.66.601 0 1.077.198 1.427.594.35.395.526.933.526 1.613Zm-.735-.22c-.005-.41-.118-.738-.338-.983-.22-.245-.51-.368-.873-.368-.41 0-.737.118-.983.355-.247.237-.388.57-.426 1l2.62-.005Zm4.69-1.148a.94.94 0 0 0-.27-.11 1.33 1.33 0 0 0-.32-.037c-.415 0-.734.142-.957.425-.222.283-.333.69-.333 1.22v2.47h-.738V24.23h.738v.729c.155-.285.356-.496.603-.634.248-.138.549-.207.903-.207a2.298 2.298 0 0 1 .37.041l.004.79Zm.415-.832h.78l1.402 4.027 1.401-4.027h.78l-1.682 4.8h-1l-1.681-4.8Zm7.64 2.377c-.618 0-1.046.069-1.284.207-.238.139-.357.375-.357.71 0 .267.09.479.268.636.18.155.422.233.728.233.424 0 .764-.147 1.02-.442.256-.296.384-.688.384-1.177v-.167h-.76Zm1.523-.311v2.608h-.764v-.694a1.658 1.658 0 0 1-.652.614c-.26.133-.579.199-.955.199-.476 0-.854-.132-1.136-.395-.28-.263-.42-.614-.42-1.055 0-.514.174-.901.524-1.162.35-.262.873-.392 1.567-.392h1.072v-.075c0-.345-.116-.613-.347-.802-.23-.189-.555-.283-.973-.283a3.092 3.092 0 0 0-1.502.376v-.695c.279-.106.55-.185.813-.238.262-.053.518-.08.767-.08.673 0 1.176.172 1.508.515.332.343.498.862.498 1.559Zm2.316-3.337V24.2h1.656v.607h-1.656v2.583c0 .388.054.637.163.748.11.11.332.166.668.166h.825v.654h-.825c-.622 0-1.05-.113-1.286-.338-.236-.225-.354-.635-.354-1.23v-2.583h-.59V24.2h.59v-1.352h.809Zm2.557 1.412h.873v4.71h-.873v-4.71Zm0-1.835h.873v.981h-.873v-.98Zm4.177 2.323a1.11 1.11 0 0 0-.943.471c-.232.315-.347.745-.347 1.292s.115.978.344 1.292c.23.314.546.471.946.471.396 0 .709-.157.94-.472.23-.316.346-.747.346-1.29 0-.542-.115-.972-.347-1.289a1.1 1.1 0 0 0-.939-.475Zm0-.636c.645 0 1.152.212 1.52.637.369.424.553 1.012.553 1.762 0 .748-.184 1.335-.553 1.762-.368.426-.875.639-1.52.639-.648 0-1.155-.213-1.522-.639-.367-.427-.55-1.014-.55-1.762 0-.75.183-1.338.55-1.762.367-.425.874-.637 1.522-.637Zm7.299 1.977v2.83h-.77v-2.805c0-.444-.087-.775-.26-.995-.173-.22-.432-.33-.778-.33-.416 0-.744.132-.984.397-.24.264-.36.625-.36 1.084v2.649h-.775V24.23h.774v.729c.185-.282.402-.493.651-.632.25-.14.539-.21.865-.21.539 0 .946.167 1.222.5.277.333.415.823.415 1.47Zm4.368-1.733v.71a2.887 2.887 0 0 0-.66-.244 3.027 3.027 0 0 0-.71-.082c-.372 0-.652.057-.838.171a.564.564 0 0 0-.28.515c0 .174.067.31.2.41.134.1.402.194.804.283l.257.058c.533.114.911.275 1.136.483.224.208.337.499.337.871 0 .425-.168.762-.504 1.01-.336.247-.798.37-1.385.37-.244 0-.5-.023-.764-.071a6.455 6.455 0 0 1-.838-.214v-.776c.277.144.55.253.82.325.268.072.535.107.8.107.352 0 .624-.06.813-.181a.574.574 0 0 0 .286-.512c0-.204-.068-.36-.206-.47-.136-.108-.438-.213-.903-.314l-.261-.061c-.465-.098-.8-.248-1.007-.451-.207-.203-.31-.481-.31-.835 0-.43.153-.762.457-.995.305-.234.737-.351 1.297-.351.277 0 .537.02.782.061.245.04.471.101.677.183Z"/>
  <path fill="#ffaf00" fill-opacity=".302" fill-rule="evenodd" d="M376.964 40.782h16.8v-6.11h-16.8Z"/>
  <path fill="var(--secondary-color)" fill-rule="evenodd" d="M410.616 36.787h5.237v.697h-5.237v-.697Zm0 1.694h5.237v.706h-5.237v-.706Zm10.198-3.418c-.418 0-.732.21-.943.627-.21.418-.314 1.046-.314 1.885 0 .836.104 1.463.314 1.881.211.418.525.627.943.627.42 0 .736-.209.946-.627.21-.418.316-1.045.316-1.88 0-.84-.106-1.468-.316-1.886-.21-.418-.526-.627-.946-.627Zm0-.653c.672 0 1.186.27 1.54.811.356.54.533 1.325.533 2.354 0 1.027-.177 1.81-.532 2.351-.355.54-.869.81-1.541.81-.672 0-1.186-.27-1.54-.81-.355-.54-.533-1.324-.533-2.35 0-1.03.178-1.814.533-2.355.354-.54.868-.811 1.54-.811Zm3.677 5.955h.873v-.873h-.873Zm2.873-.541h1.295v-4.661l-1.41.294v-.752l1.403-.295h.793v5.414h1.295v.695h-3.376v-.695Z"/>
  <path fill="#f46920" fill-opacity=".302" fill-rule="evenodd" d="M376.964 53.436h16.8v-5.89h-16.8Z"/>
  <path fill="var(--secondary-color)" fill-rule="evenodd" d="M410.616 49.44h5.237v.698h-5.237v-.698Zm0 1.695h5.237v.705h-5.237v-.706Zm10.198-3.419c-.418 0-.732.21-.943.628-.21.417-.314 1.045-.314 1.885 0 .835.104 1.462.314 1.88.211.419.525.628.943.628.42 0 .736-.21.946-.628.21-.418.316-1.045.316-1.88 0-.84-.106-1.468-.316-1.885-.21-.418-.526-.628-.946-.628Zm0-.653c.672 0 1.186.27 1.54.812.356.54.533 1.325.533 2.354 0 1.026-.177 1.81-.532 2.35-.355.541-.869.811-1.541.811-.672 0-1.186-.27-1.54-.81-.355-.541-.533-1.325-.533-2.351 0-1.03.178-1.814.533-2.354.354-.541.868-.812 1.54-.812Zm3.677 6.178h.873v-1.09h-.873Zm3.333-.551h2.921v.707h-3.927v-.707c.317-.33.75-.774 1.298-1.33.549-.556.894-.916 1.034-1.077.268-.302.455-.558.561-.767.107-.21.16-.416.16-.618 0-.33-.115-.6-.345-.808-.231-.208-.532-.313-.902-.313-.263 0-.54.046-.832.137a4.97 4.97 0 0 0-.933.417v-.85a6.63 6.63 0 0 1 .944-.307c.294-.07.562-.104.805-.104.64 0 1.152.161 1.533.483.38.322.571.752.571 1.29 0 .256-.048.498-.143.727-.095.228-.268.498-.52.809-.069.08-.288.313-.659.698-.37.384-.891.922-1.566 1.613Z"/>
  <path fill="#f53255" fill-opacity=".302" fill-rule="evenodd" d="M376.964 66.09h16.8V60.2h-16.8Z"/>
  <path fill="var(--secondary-color)" fill-rule="evenodd" d="M410.616 62.093h5.237v.698h-5.237v-.698Zm0 1.695h5.237v.705h-5.237v-.705Zm10.198-3.39c-.418 0-.732.217-.943.65-.21.431-.314 1.081-.314 1.949 0 .864.104 1.513.314 1.946.211.432.525.649.943.649.42 0 .736-.217.946-.65.21-.432.316-1.08.316-1.945 0-.868-.106-1.518-.316-1.95-.21-.432-.526-.649-.946-.649Zm0-.676c.672 0 1.186.28 1.54.84.356.559.533 1.37.533 2.435 0 1.062-.177 1.873-.532 2.432-.355.56-.869.839-1.541.839-.672 0-1.186-.28-1.54-.839-.355-.56-.533-1.37-.533-2.432 0-1.064.178-1.876.533-2.435.354-.56.868-.84 1.54-.84Zm3.677 6.173h.873v-1.091h-.873Zm5.166-3.152c.408.087.726.27.954.546.23.276.345.617.345 1.022 0 .622-.214 1.104-.642 1.446-.427.34-1.035.51-1.822.51-.264 0-.535-.025-.815-.078a5.878 5.878 0 0 1-.867-.235v-.823c.236.138.494.242.775.312.282.07.576.105.883.105.534 0 .94-.105 1.22-.316.28-.21.42-.518.42-.92 0-.373-.13-.664-.39-.873-.26-.21-.622-.315-1.086-.315h-.734v-.702h.768c.419 0 .74-.083.961-.251.223-.168.334-.41.334-.725 0-.323-.115-.572-.345-.745-.228-.174-.556-.26-.983-.26-.234 0-.485.025-.752.076-.268.05-.561.13-.882.235v-.76c.324-.09.627-.157.91-.202.283-.045.549-.068.8-.068.646 0 1.158.148 1.534.442.377.294.565.692.565 1.193 0 .35-.1.645-.3.886-.199.24-.483.407-.851.5Z"/>
  <path fill="#f857c1" fill-opacity=".302" fill-rule="evenodd" d="M376.964 78.745h16.8v-5.89h-16.8Z"/>
  <path fill="var(--secondary-color)" fill-rule="evenodd" d="M410.616 74.965h5.237v.698h-5.237v-.698Zm0 1.694h5.237v.706h-5.237v-.706Zm10.198-3.607c-.418 0-.732.216-.943.649-.21.431-.314 1.081-.314 1.95 0 .864.104 1.512.314 1.945.211.433.525.649.943.649.42 0 .736-.216.946-.649.21-.433.316-1.081.316-1.946 0-.868-.106-1.518-.316-1.95-.21-.432-.526-.648-.946-.648Zm0-.677c.672 0 1.186.28 1.54.84.356.56.533 1.37.533 2.435 0 1.062-.177 1.873-.532 2.433-.355.559-.869.838-1.541.838-.672 0-1.186-.28-1.54-.838-.355-.56-.533-1.37-.533-2.433 0-1.064.178-1.876.533-2.435.354-.56.868-.84 1.54-.84Zm3.677 6.173h.873v-1.09h-.873Zm4.94-5.239-2.148 3.261h2.148v-3.261Zm-.224-.72h1.07v3.981h.898v.687h-.898v1.44h-.846v-1.44h-2.838v-.797l2.614-3.871Z"/>
  <path fill="#29bdfd" fill-opacity=".302" fill-rule="evenodd" d="M376.964 91.618h16.8V85.51h-16.8Z"/>
  <path fill="var(--secondary-color)" fill-rule="evenodd" d="M410.616 87.618h5.237v.698h-5.237v-.698Zm0 1.695h5.237v.705h-5.237v-.705Zm10.198-3.418c-.418 0-.732.209-.943.627-.21.418-.314 1.046-.314 1.885 0 .836.104 1.462.314 1.88.211.419.525.628.943.628.42 0 .736-.21.946-.627.21-.419.316-1.045.316-1.881 0-.84-.106-1.467-.316-1.885-.21-.418-.526-.627-.946-.627Zm0-.654c.672 0 1.186.27 1.54.812.356.54.533 1.325.533 2.354 0 1.026-.177 1.81-.532 2.351-.355.54-.869.81-1.541.81-.672 0-1.186-.27-1.54-.81-.355-.54-.533-1.325-.533-2.351 0-1.03.178-1.814.533-2.354.354-.541.868-.812 1.54-.812Zm3.677 6.179h.873v-1.092h-.873Zm2.589-6.179h3.403v.708h-2.609v1.52a2.424 2.424 0 0 1 .755-.124c.715 0 1.281.19 1.699.57.418.379.627.893.627 1.541 0 .668-.214 1.187-.644 1.558-.43.37-1.034.554-1.815.554-.27 0-.543-.022-.823-.066a6.728 6.728 0 0 1-.863-.2v-.844a3.484 3.484 0 0 0 1.668.403c.495 0 .887-.126 1.175-.378.29-.252.434-.594.434-1.027 0-.432-.144-.774-.433-1.025-.289-.253-.68-.38-1.176-.38a3.26 3.26 0 0 0-.693.075 3.68 3.68 0 0 0-.705.233V85.24Z"/>
  <path fill="var(--secondary-color)" d="m404.961 50.382.004-.991c.003-.675-.238-1.014-.723-1.017-.362-.003-.656.155-.882.472a3.33 3.33 0 0 0-.568 1.373c-.117.63-.102 1.094.045 1.394.153.306.394.458.723.458.365 0 .702-.304 1.009-.914l.392-.775Zm-.592-2.676c.85-.015 1.269.44 1.257 1.364l.638-1.257h.67l-1.32 2.603-.012.94c0 .139.036.268.11.385.085.137.17.206.258.206h.363l-.123.67h-.453c-.256 0-.477-.121-.661-.362-.087-.12-.132-.305-.135-.557-.177.307-.418.59-.723.85-.144.12-.411.178-.8.175-.638-.005-1.072-.222-1.304-.652-.237-.445-.282-1.063-.135-1.852.158-.85.444-1.467.858-1.853.466-.432.97-.652 1.512-.66Zm.592 15.33.004-.99c.003-.676-.238-1.015-.723-1.017-.362-.003-.656.154-.882.472a3.33 3.33 0 0 0-.568 1.372c-.117.63-.102 1.095.045 1.395.153.305.394.458.723.458.365 0 .702-.305 1.009-.914l.392-.776Zm-.592-2.676c.85-.015 1.269.44 1.257 1.364l.638-1.257h.67l-1.32 2.604-.012.939c0 .14.036.268.11.385.085.138.17.206.258.206h.363l-.123.67h-.453c-.256 0-.477-.12-.661-.361-.087-.12-.132-.306-.135-.557-.177.306-.418.59-.723.85-.144.12-.411.178-.8.175-.638-.005-1.072-.223-1.304-.652-.237-.446-.282-1.063-.135-1.853.158-.849.444-1.467.858-1.853.466-.432.97-.652 1.512-.66Zm.592 15.55.004-.992c.003-.675-.238-1.014-.723-1.017-.362-.002-.656.155-.882.472-.283.392-.473.85-.568 1.373-.117.63-.102 1.094.045 1.394.153.306.394.459.723.459.365 0 .702-.305 1.009-.914l.392-.776Zm-.592-2.677c.85-.015 1.269.44 1.257 1.364l.638-1.257h.67l-1.32 2.604-.012.938c0 .14.036.269.11.386.085.137.17.206.258.206h.363l-.123.67h-.453c-.256 0-.477-.12-.661-.361-.087-.12-.132-.306-.135-.557-.177.306-.418.59-.723.849-.144.12-.411.178-.8.176-.638-.006-1.072-.223-1.304-.652-.237-.446-.282-1.063-.135-1.853.158-.85.444-1.467.858-1.853.466-.432.97-.652 1.512-.66Zm.592 15.672.004-1.034c.003-.704-.238-1.058-.723-1.061-.362-.003-.656.161-.882.493a3.558 3.558 0 0 0-.568 1.432c-.117.657-.102 1.142.045 1.455.153.319.394.478.723.478.365 0 .702-.318 1.009-.954l.392-.809Zm-.592-2.792c.85-.016 1.269.459 1.257 1.423l.638-1.312h.67l-1.32 2.717-.012.98c0 .146.036.28.11.402.085.143.17.215.258.215h.363l-.123.699h-.453c-.256 0-.477-.126-.661-.377-.087-.125-.132-.319-.135-.581-.177.32-.418.615-.723.886-.144.125-.411.186-.8.183-.638-.005-1.072-.232-1.304-.68-.237-.465-.282-1.11-.135-1.933.158-.886.444-1.53.858-1.934.466-.45.97-.68 1.512-.688Zm.592-47.513.004-.99c.003-.676-.238-1.015-.723-1.018-.362-.003-.656.155-.882.472a3.33 3.33 0 0 0-.568 1.373c-.117.63-.102 1.094.045 1.394.153.306.394.459.723.459.365 0 .702-.305 1.009-.914l.392-.776Zm-.592-2.676c.85-.015 1.269.44 1.257 1.364l.638-1.257h.67l-1.32 2.603-.012.94c0 .14.036.268.11.385.085.137.17.206.258.206h.363l-.123.67h-.453c-.256 0-.477-.12-.661-.361-.087-.12-.132-.306-.135-.558-.177.307-.418.59-.723.85-.144.12-.411.178-.8.176-.638-.006-1.072-.223-1.304-.652-.237-.446-.282-1.064-.135-1.853.158-.85.444-1.467.858-1.853.466-.432.97-.652 1.512-.66Z"/>
  <path fill="none" stroke="var(--secondary-color)" stroke-linecap="square" stroke-linejoin="round" stroke-width="1.727" d="m39.436 120.963 4.355-8.39 4.355-7.845 4.355-7.313 4.354-6.793 4.355-6.282 4.355-5.785 4.354-5.298 4.355-4.823 4.355-4.36 4.355-3.908 4.355-3.468 4.355-3.04 4.355-2.62 4.354-2.216 4.355-1.823 4.355-1.44 4.355-1.067 4.355-.708 4.355-.36 4.355-.024 4.354.3 4.355.615 4.355.917 4.355 1.207 4.355 1.485 4.355 1.754 4.355 2.009 4.354 2.253 4.355 2.486 4.355 2.707 4.355 2.917 4.355 3.114 4.355 3.302 4.355 3.477 4.354 3.64 4.354 3.792 4.355 3.932 4.355 4.062 4.355 4.18 4.355 4.284 4.355 4.379 4.355 4.462 4.354 4.533 4.355 4.593 4.355 4.642 4.355 4.677 4.355 4.704 4.355 4.716 4.355 4.719 4.354 4.709 4.355 4.688 4.355 4.656 4.355 4.612 4.355 4.555 4.355 4.489 4.355 4.41 4.354 4.321 4.355 4.218 4.355 4.105 4.355 3.98 4.355 3.844 4.355 3.696 4.355 3.537 4.354 3.367 4.354 3.183 4.355 2.99 4.355 2.783 4.355 2.567 4.355 2.338 4.355 2.098 4.355 1.847 4.354 1.583 4.355 1.31 4.355 1.022 4.355.724 4.355.416 4.355.094 4.355-.238 4.354-.582 4.355-.937 4.355-1.304 4.355-1.682 4.355-2.074 4.355-2.474 4.355-2.888 4.354-3.312 4.355-3.747 4.355-4.197 4.355-4.655 4.355-5.126 4.355-5.608 4.354-6.102 4.355-6.607 4.355-7.124 4.355-7.654 4.354-8.192 4.355-8.744 4.355-9.307 4.355-9.883"/>
</svg>
