<svg xmlns="http://www.w3.org/2000/svg" fill="none" stroke-linecap="square" stroke-miterlimit="10" viewBox="0 0 798.9 337.362">
  <script type="text/ecmascript" href="../../../scripts/color.js"/>
  <g clip-path="url(#a)">
    <path fill="none" d="M0 0h798.9v337.362H0z"/>
    <path fill="var(--secondary-color)" fill-rule="evenodd" d="M198.28 206.844a5.517 5.517 0 0 0-5.516 5.517v67.512c.118 0 17.8-43.137 17.8-43.137 1.635-3.85 5.355-6.48 9.622-6.48h69.05v-6.864a5.516 5.516 0 0 0-5.517-5.514h-41.341l-15.168-10.07c-.963-.547-1.927-.964-3.016-.964z"/>
    <path fill="var(--secondary-color)" fill-rule="evenodd" d="M220.186 235.773c-2.052 0-3.85 1.252-4.682 3.047L196.9 284.01h84.06l18.764-40.25c.415-.803.544-1.635.544-2.47 0-2.887-2.084-5.228-4.971-5.517zM73.425 71.757a4.668 4.668 0 0 0-4.682 4.683v58.404h.031L84.297 97.19a8.594 8.594 0 0 1 7.73-5.002h58.658v-6.38a4.687 4.687 0 0 0-4.682-4.683h-35.118L97.992 72.56a5.172 5.172 0 0 0-2.567-.803z"/>
    <path fill="var(--secondary-color)" fill-rule="evenodd" d="M92.026 96.324c-1.7 0-3.27 1.026-3.976 2.567l-15.78 38.423h47.722c-1.12-7.378 1.315-14.85 6.575-20.11a23.388 23.388 0 0 1 16.554-6.856 23.34 23.34 0 0 1 11.638 3.105l4.81-10.36a4.64 4.64 0 0 0 .48-2.086 4.695 4.695 0 0 0-4.199-4.683z"/>
    <path fill="var(--secondary-color)" fill-rule="evenodd" d="M143.126 122.741c-2.84 0-5.659 1.095-7.803 3.218a11.095 11.095 0 0 0-2.63 11.355h10.968l5.838-12.541a10.996 10.996 0 0 0-6.373-2.032z"/>
    <path fill="var(--secondary-color)" fill-rule="evenodd" d="M143.134 118.592c3.88 0 7.761 1.483 10.727 4.449 5.9 5.934 5.9 15.522 0 21.425a15.125 15.125 0 0 1-10.727 4.449 15.126 15.126 0 0 1-10.73-4.45c-5.9-5.902-5.9-15.49 0-21.424a15.126 15.126 0 0 1 10.73-4.45zm-.016-4.126a19.263 19.263 0 0 0-13.632 5.625 19.265 19.265 0 0 0-1.538 25.53l-3.048 3.013a4.692 4.692 0 0 0-1.228-.165 4.8 4.8 0 0 0-3.391 1.417l-8.788 8.756a4.817 4.817 0 0 0 0 6.83 4.856 4.856 0 0 0 3.418 1.395 4.854 4.854 0 0 0 3.414-1.396l8.756-8.787c1.218-1.218 1.699-2.982 1.25-4.617l3.015-3.047a19.247 19.247 0 0 0 11.798 4.031 19.305 19.305 0 0 0 15.27-7.464c5.935-7.696 5.23-18.601-1.634-25.465a19.263 19.263 0 0 0-13.662-5.656z"/>
    <path fill="none" d="M114.412 179.487v66.131"/>
    <path stroke="var(--secondary-color)" stroke-linecap="butt" stroke-miterlimit="12.219" stroke-width="2.759" d="M114.412 179.487v66.131"/>
    <path fill="none" d="M180.577 245.618h-66.165"/>
    <path stroke="var(--secondary-color)" stroke-linecap="butt" stroke-miterlimit="12.219" stroke-width="2.759" d="M180.577 245.618h-66.165"/>
    <path fill="var(--secondary-color)" fill-rule="evenodd" d="m457.388 195.043 24.182 24.181v.032h-24.213v-24.213zm-2.79-1.99v28.961h28.961V297.8h-77.197V193.054zm-50.994-2.758v110.263h82.682v-80.499l-29.732-29.764zM589.685 195.043l24.181 24.181v.032h-24.212v-24.213zm-2.79-1.99v28.961h28.96V297.8H538.66V193.054zm-50.995-2.758v110.263h82.714v-80.499l-29.764-29.764zM721.982 195.043l24.18 24.181v.032H721.95v-24.213zm-2.79-1.99v28.961h28.96V297.8h-77.197V193.054zm-50.995-2.758v110.263h82.714v-80.499l-29.764-29.764zM50.622 11.112v3.622h-2.63v2.18h2.63v8.502c0 1.09.129 2.018.383 2.79a3.115 3.115 0 0 0 1.412 1.73c.675.417 1.667.611 2.919.611h1.924v-2.215h-1.732c-.961 0-1.57-.255-1.827-.769-.257-.512-.355-1.283-.355-2.276v-8.372h3.914v-2.181h-3.914v-3.622zM66.785 16.626c1.092 0 1.958.257 2.598.803.64.512 1.124 1.218 1.412 2.15.289.897.418 1.924.418 3.078 0 1.155-.129 2.213-.418 3.11-.288.898-.771 1.604-1.412 2.116-.64.515-1.506.772-2.598.772-1.026 0-1.858-.257-2.47-.772-.64-.512-1.09-1.218-1.378-2.115a11.14 11.14 0 0 1-.417-3.079c0-1.186.16-2.213.417-3.11.289-.932.738-1.638 1.378-2.15.612-.546 1.444-.803 2.47-.803zm0-2.213c-1.475 0-2.759.355-3.785.995-1.058.675-1.858 1.635-2.436 2.856-.546 1.218-.834 2.693-.834 4.393 0 1.699.288 3.142.834 4.394.578 1.187 1.378 2.116 2.436 2.79 1.026.64 2.31.96 3.785.96 1.509 0 2.824-.32 3.913-.96a6.752 6.752 0 0 0 2.47-2.79c.577-1.252.866-2.695.866-4.394 0-1.7-.289-3.175-.866-4.393-.577-1.22-1.412-2.181-2.47-2.856-1.09-.64-2.404-.995-3.913-.995zM85.163 14.542c-1.284 0-2.31.257-3.079.803-.803.578-1.412 1.25-1.86 2.053l-.095-2.664h-2.567v15.813h2.727V19.42a8.597 8.597 0 0 1 1.186-1.252c.417-.352.96-.64 1.538-.835.612-.223 1.284-.32 2.087-.32h.383v-2.47zM93.822 14.448c-1.444 0-2.693.32-3.751.929-1.06.64-1.893 1.538-2.47 2.758-.609 1.25-.898 2.759-.898 4.554 0 1.795.29 3.302.898 4.522.609 1.187 1.444 2.084 2.533 2.693 1.058.61 2.278.932 3.688.932 1.186 0 2.278-.226 3.238-.643a5.256 5.256 0 0 0 2.342-1.892c.577-.867.9-1.924.9-3.208h-2.664c-.032 1.155-.383 2.053-1.09 2.63-.705.609-1.603.898-2.695.898-.96 0-1.764-.223-2.404-.704-.675-.448-1.155-1.123-1.475-2.02-.32-.898-.48-1.959-.48-3.208 0-1.924.351-3.399 1.089-4.425.737-1.092 1.83-1.604 3.27-1.604 1.06 0 1.927.289 2.567.866.674.578 1.026 1.378 1.123 2.404h2.662c-.032-1.217-.352-2.244-.93-3.047-.545-.8-1.314-1.41-2.278-1.827-.929-.385-1.99-.608-3.175-.608zM103.86 8.673v21.874h2.694V19.322a7.815 7.815 0 0 1 1.83-1.67c.768-.543 1.697-.8 2.79-.8.737 0 1.283.16 1.634.512.386.322.643.771.804 1.349.126.577.191 1.249.191 2.018v9.816h2.693v-10.2c0-1.86-.352-3.272-1.09-4.264-.705-.995-1.892-1.51-3.558-1.51-1.35 0-2.439.29-3.305.835-.866.546-1.506 1.123-1.99 1.764V8.673zM122.654 26.602c-.61 0-1.09.192-1.507.61-.383.351-.609.865-.609 1.443 0 .577.226 1.058.609 1.475.417.383.898.577 1.507.577.611 0 1.091-.194 1.477-.577.383-.417.61-.898.61-1.475 0-.578-.227-1.092-.61-1.444-.386-.417-.866-.609-1.477-.609zM129.165 8.673v21.874h2.79V13.098l11.964 17.45h3.015V8.672h-2.792v17.415L132.147 8.673zM151.84 8.673v21.874h2.758V13.098l11.995 17.45h2.982V8.672h-2.756v17.415L154.79 8.673zM177.339 306.138v13.758c0 1.638.32 3.08.897 4.394.61 1.315 1.538 2.31 2.79 3.081 1.284.738 2.919 1.121 4.94 1.121 2.052 0 3.688-.383 4.971-1.12 1.25-.772 2.178-1.767 2.756-3.082.611-1.315.9-2.756.9-4.394v-13.758h-2.953v13.407c0 2.278-.48 3.913-1.443 4.94-.992 1.026-2.373 1.537-4.231 1.537-1.861 0-3.242-.511-4.202-1.538-.963-1.026-1.444-2.661-1.444-4.94v-13.406zM206.877 312.04c-1.284 0-2.376.29-3.242.833-.866.546-1.538 1.123-1.987 1.763l-.065-2.435h-2.63v15.81h2.695v-11.225a8.204 8.204 0 0 1 1.796-1.667c.769-.546 1.7-.803 2.79-.803.706 0 1.252.16 1.635.515.386.32.674.769.803 1.346.16.578.223 1.252.223 2.021v9.814h2.696v-10.2c0-1.826-.355-3.239-1.092-4.265-.704-.995-1.924-1.506-3.622-1.506zM222.142 311.912c-1.444 0-2.693.32-3.754.93-1.057.642-1.892 1.54-2.5 2.758-.578 1.252-.867 2.758-.867 4.554 0 1.795.289 3.304.898 4.522.611 1.186 1.443 2.084 2.535 2.695 1.058.61 2.276.93 3.688.93 1.186 0 2.278-.226 3.239-.644a5.25 5.25 0 0 0 2.34-1.89c.578-.865.867-1.926.898-3.207h-2.661c-.031 1.155-.386 2.053-1.09 2.63-.705.61-1.603.898-2.695.898-.96 0-1.764-.226-2.404-.706-.675-.449-1.155-1.123-1.475-2.021-.323-.898-.483-1.955-.483-3.207 0-1.924.354-3.4 1.092-4.426.737-1.092 1.827-1.603 3.27-1.603 1.058 0 1.924.288 2.567.866.672.577 1.026 1.378 1.12 2.404h2.665c-.034-1.218-.354-2.244-.932-3.047-.543-.8-1.315-1.41-2.275-1.827a8.232 8.232 0 0 0-3.176-.609zM238.37 313.996c1.252 0 2.213.386 2.919 1.155.674.8 1.057 1.924 1.089 3.399h-8.242c.13-1.507.546-2.63 1.252-3.4.738-.768 1.73-1.154 2.982-1.154zm0-2.084c-1.572 0-2.856.352-3.882 1.026-1.058.706-1.827 1.667-2.307 2.919-.514 1.218-.772 2.63-.772 4.234 0 1.57.258 2.95.772 4.199.543 1.22 1.347 2.215 2.404 2.953 1.092.703 2.439 1.058 4.074 1.058 1.315 0 2.438-.226 3.367-.644.93-.448 1.667-1.057 2.181-1.858.546-.834.835-1.798.866-2.918h-2.695c-.032 1.089-.352 1.923-1.026 2.47-.64.577-1.538.866-2.693.866-1.058 0-1.924-.258-2.599-.804-.672-.511-1.154-1.186-1.443-2.052-.32-.866-.48-1.795-.48-2.853h10.87c0-.097.035-.226.035-.449v-.577c0-2.439-.577-4.331-1.764-5.615-1.189-1.315-2.824-1.955-4.908-1.955zM256.202 312.007c-1.252 0-2.278.257-3.079.803-.803.577-1.412 1.25-1.86 2.052l-.095-2.661h-2.567v15.81h2.727v-11.128a8.733 8.733 0 0 1 1.186-1.252c.45-.351.961-.64 1.539-.832.608-.226 1.314-.323 2.086-.323h.383v-2.47zM259.667 308.576v3.625h-2.63v2.18h2.63v8.5c0 1.089.128 2.02.383 2.79.257.737.737 1.315 1.412 1.732.706.417 1.667.609 2.95.609h1.892v-2.213h-1.732c-.929 0-1.538-.257-1.827-.769-.225-.514-.354-1.283-.354-2.278v-8.37h3.913V312.2h-3.913v-3.625zM278.33 320.314v3.304a6.762 6.762 0 0 1-2.052 1.892c-.8.48-1.732.707-2.758.707-.898 0-1.57-.226-1.987-.675-.449-.48-.675-1.09-.675-1.86 0-1.187.578-2.022 1.733-2.534 1.154-.514 3.078-.803 5.74-.834zm-3.207-8.402c-1.217 0-2.275.192-3.238.546a4.57 4.57 0 0 0-2.213 1.73c-.546.803-.8 1.83-.8 3.113h2.63c0-1.187.351-2.021 1.026-2.567.703-.546 1.57-.8 2.595-.8.932 0 1.701.254 2.31.768.609.48.932 1.412.932 2.759v1.154c-2.055.032-3.85.16-5.389.415-1.54.257-2.727.772-3.593 1.51-.834.737-1.25 1.826-1.25 3.238 0 .995.224 1.827.641 2.502a3.854 3.854 0 0 0 1.701 1.506c.703.354 1.475.515 2.341.515 1.187 0 2.276-.226 3.174-.707.931-.448 1.732-1.089 2.438-1.892l.097 2.31h2.501v-10.583c0-1.123-.16-2.055-.483-2.758-.32-.738-.769-1.315-1.346-1.701-.543-.418-1.187-.675-1.893-.835a9.893 9.893 0 0 0-2.18-.223zM286.54 306.075c-.511 0-.928.128-1.217.449-.32.288-.48.674-.48 1.123 0 .449.16.832.48 1.12.289.29.706.45 1.218.45.514 0 .931-.16 1.252-.45.288-.288.448-.671.448-1.12 0-.449-.16-.835-.448-1.123-.32-.32-.738-.45-1.252-.45zm-1.346 6.126v15.81h2.696v-15.81zM300.14 312.04c-1.316 0-2.405.29-3.271.833-.866.546-1.507 1.123-1.987 1.763l-.066-2.435h-2.63v15.81h2.727v-11.225a7.546 7.546 0 0 1 1.796-1.667c.737-.546 1.666-.803 2.758-.803.738 0 1.284.16 1.667.515.386.32.643.769.772 1.346.16.578.223 1.252.223 2.021v9.814h2.727v-10.2c0-1.826-.386-3.239-1.092-4.265-.738-.995-1.956-1.506-3.625-1.506zM400.845 314.156c-.929 0-1.764.192-2.47.61-.703.416-1.249 1.025-1.635 1.828-.417.801-.609 1.796-.609 3.014 0 1.189.226 2.18.61 2.984.416.8.962 1.378 1.668 1.795a5.06 5.06 0 0 0 2.436.61c.803 0 1.54-.161 2.181-.418a3.535 3.535 0 0 0 1.54-1.281c.384-.546.578-1.252.61-2.087h-1.764c-.031.738-.289 1.35-.737 1.733-.48.385-1.058.577-1.796.577-.643 0-1.155-.129-1.603-.449-.418-.32-.738-.769-.964-1.346-.225-.578-.32-1.315-.32-2.118 0-1.281.257-2.244.738-2.95.48-.707 1.218-1.058 2.15-1.058.703 0 1.28.191 1.697.577.45.386.706.93.738 1.604h1.795c-.031-.835-.254-1.507-.64-2.021a3.156 3.156 0 0 0-1.507-1.218c-.609-.257-1.315-.386-2.118-.386zM411.685 315.568c.706 0 1.284.192 1.7.546.45.352.738.8.93 1.41.194.609.289 1.283.289 2.052 0 .77-.095 1.444-.289 2.053-.192.609-.48 1.057-.93 1.412-.416.351-.994.511-1.7.511-.703 0-1.25-.16-1.667-.511-.417-.355-.706-.803-.897-1.412a7.924 7.924 0 0 1-.257-2.021c0-.8.097-1.475.257-2.084.191-.61.48-1.058.897-1.41.418-.354.964-.546 1.667-.546zm0-1.443c-.992 0-1.827.223-2.533.64-.706.449-1.218 1.092-1.603 1.892-.352.835-.546 1.798-.546 2.92 0 1.122.194 2.083.546 2.886.385.835.897 1.444 1.603 1.861.706.449 1.54.64 2.533.64.995 0 1.86-.191 2.567-.64.738-.417 1.283-1.026 1.667-1.86.354-.804.546-1.765.546-2.888 0-1.12-.192-2.084-.546-2.919-.384-.8-.93-1.443-1.667-1.892-.706-.417-1.572-.64-2.567-.64zM424.066 314.222c-.835 0-1.573.191-2.15.543a4.762 4.762 0 0 0-1.315 1.155l-.031-1.604h-1.764v10.488h1.795v-7.44a6.01 6.01 0 0 1 1.22-1.124c.48-.352 1.09-.512 1.827-.512.483 0 .835.097 1.092.32.257.226.417.546.512.93.097.386.16.803.16 1.315v6.511h1.798v-6.766c0-1.22-.257-2.15-.738-2.824-.483-.672-1.283-.992-2.406-.992zM433.59 310.308c-.64 0-1.186.095-1.603.223-.383.16-.704.386-.93.675-.225.289-.385.64-.48 1.09-.097.417-.128.865-.128 1.411v.61h-1.764v1.443h1.764v9.044h1.795v-9.044h2.407v-1.444h-2.407v-.577c0-.64.066-1.155.257-1.475.16-.352.546-.546 1.187-.546h.994v-1.41zM440.102 315.568c.738 0 1.284.192 1.733.546.417.352.737.8.929 1.41.191.609.288 1.283.288 2.052 0 .77-.097 1.444-.288 2.053a2.957 2.957 0 0 1-.93 1.412c-.448.351-.994.511-1.732.511-.674 0-1.22-.16-1.635-.511a2.98 2.98 0 0 1-.932-1.412 7.928 7.928 0 0 1-.254-2.021c0-.8.094-1.475.254-2.084a2.958 2.958 0 0 1 .932-1.41c.415-.354.96-.546 1.635-.546zm0-1.443c-.994 0-1.829.223-2.535.64-.672.449-1.218 1.092-1.601 1.892-.354.835-.546 1.798-.546 2.92 0 1.122.192 2.083.546 2.886.383.835.929 1.444 1.6 1.861.707.449 1.542.64 2.536.64.995 0 1.861-.191 2.565-.64.737-.417 1.283-1.026 1.669-1.86.383-.804.577-1.765.577-2.888 0-1.12-.194-2.084-.577-2.919-.386-.8-.932-1.443-1.67-1.892-.703-.417-1.569-.64-2.564-.64zM452.257 314.188c-.834 0-1.506.194-2.02.546-.547.385-.93.834-1.25 1.346l-.066-1.764h-1.698v10.488h1.827v-7.375c.226-.289.48-.577.769-.803a2.947 2.947 0 0 1 1.026-.577c.417-.16.866-.224 1.38-.224h.258v-1.637zM459.218 314.222c-.835 0-1.51.191-2.087.543-.543.354-.96.738-1.28 1.155l-.035-1.604h-1.732v10.488h1.798v-7.44a5.489 5.489 0 0 1 1.155-1.124c.512-.352 1.089-.512 1.764-.512.511 0 .897.097 1.154.32.255.226.45.546.544.93.097.386.128.803.128 1.315v6.511h1.798v-6.766c0-.25-.013-.486-.034-.711.315-.373.69-.743 1.155-1.087.514-.352 1.092-.512 1.795-.512.483 0 .866.097 1.124.32.257.226.448.546.514.93.129.386.16.803.16 1.315v6.511h1.795v-6.766c0-1.186-.257-2.118-.737-2.79-.515-.675-1.315-1.026-2.438-1.026-.867 0-1.57.191-2.182.577-.574.383-1.086.798-1.472 1.247-.11-.3-.252-.564-.42-.798-.512-.675-1.315-1.026-2.467-1.026zM477.979 319.705v2.18c-.386.515-.835.93-1.38 1.253a3.53 3.53 0 0 1-1.827.48c-.578 0-1.027-.16-1.315-.449-.32-.32-.45-.737-.45-1.252 0-.769.387-1.315 1.156-1.666.769-.355 2.02-.515 3.816-.546zm-2.15-5.58c-.8 0-1.506.128-2.147.385a2.927 2.927 0 0 0-1.477 1.153c-.352.514-.512 1.189-.512 2.055h1.732c0-.803.223-1.35.706-1.701.449-.354 1.026-.546 1.698-.546.61 0 1.124.16 1.541.515.417.32.609.929.609 1.826v.77c-1.38 0-2.567.096-3.593.288-.992.16-1.795.483-2.341.995-.578.48-.832 1.186-.832 2.15 0 .64.126 1.217.414 1.635.289.448.643.803 1.124 1.026.448.226.963.32 1.54.32.8 0 1.507-.16 2.116-.449a5.142 5.142 0 0 0 1.603-1.283l.066 1.54h1.667v-7.023c0-.738-.097-1.347-.32-1.83-.226-.48-.515-.863-.898-1.12a3.189 3.189 0 0 0-1.252-.546 7.049 7.049 0 0 0-1.444-.16zM482.404 310.308v11.098c0 .706.097 1.314.257 1.826.16.515.48.898.93 1.187.448.257 1.091.385 1.958.385h.608v-1.475h-.48c-.643 0-1.06-.16-1.22-.514-.16-.352-.258-.832-.258-1.475v-11.032zM534.65 315.6c.801 0 1.442.32 1.86 1.026.417.675.642 1.667.642 2.95 0 1.252-.225 2.213-.643 2.919-.417.674-1.026 1.026-1.892 1.026-.706 0-1.281-.16-1.764-.512a4.165 4.165 0 0 1-1.155-1.315v-4.073c.289-.546.643-1.027 1.124-1.412.48-.418 1.089-.61 1.829-.61zm.353-1.475c-.738 0-1.378.191-1.924.511-.578.355-1.027.835-1.38 1.381v-1.7h-1.796v14.37h1.764v-5.358c.354.546.834.93 1.346 1.25.546.288 1.186.417 1.958.417.8 0 1.507-.192 2.116-.609.609-.417 1.091-1.026 1.412-1.827.32-.803.48-1.798.48-2.984 0-1.218-.16-2.212-.48-3.013-.32-.803-.77-1.412-1.347-1.83a3.927 3.927 0 0 0-2.15-.608zM546.357 314.188c-.835 0-1.51.194-2.021.546a4.532 4.532 0 0 0-1.252 1.346l-.063-1.764h-1.7v10.488h1.829v-7.375c.223-.289.48-.577.769-.803.288-.257.64-.449 1.026-.577.417-.16.866-.224 1.378-.224h.257v-1.637zM552 315.503c.835 0 1.475.257 1.924.771.483.544.706 1.281.737 2.244h-5.451c.097-.963.354-1.732.835-2.244.448-.514 1.123-.771 1.955-.771zm0-1.378c-1.026 0-1.892.223-2.564.706-.706.449-1.22 1.089-1.541 1.924-.352.8-.512 1.732-.512 2.821 0 1.026.16 1.924.512 2.759a4.385 4.385 0 0 0 1.604 1.955c.706.483 1.603.706 2.695.706.864 0 1.601-.129 2.244-.417.61-.32 1.09-.704 1.444-1.25.352-.546.543-1.186.543-1.923h-1.764c-.031.706-.254 1.249-.671 1.635-.418.386-1.027.577-1.796.577-.706 0-1.283-.191-1.732-.514-.449-.352-.738-.8-.963-1.378-.192-.578-.289-1.187-.32-1.893h7.215c.031-.063.031-.16.031-.288v-.418c0-1.603-.383-2.853-1.186-3.687-.77-.867-1.858-1.315-3.239-1.315zM562.745 315.6c.706 0 1.281.191 1.733.546.448.351.832.832 1.089 1.41v4.073a4.03 4.03 0 0 1-1.123 1.346c-.48.354-1.09.546-1.827.546-.803 0-1.444-.32-1.861-.995-.417-.672-.609-1.635-.609-2.918 0-1.281.192-2.276.64-2.95.45-.707 1.092-1.058 1.958-1.058zm2.885-5.292v5.612a3.866 3.866 0 0 0-1.281-1.315c-.514-.32-1.155-.48-1.924-.48-.834 0-1.572.191-2.18.609-.644.417-1.124 1.026-1.444 1.86-.355.801-.515 1.827-.515 3.048 0 1.155.16 2.147.483 2.95.352.8.8 1.378 1.41 1.795.608.417 1.314.61 2.118.61.769 0 1.443-.161 1.986-.481a3.85 3.85 0 0 0 1.315-1.284l.129 1.572h1.635v-14.496zM571.115 310.243c-.32 0-.608.128-.803.323-.191.191-.32.448-.32.737s.129.543.32.77c.195.19.483.288.804.288.351 0 .608-.097.834-.289.192-.226.32-.48.32-.769 0-.289-.128-.546-.32-.737a1.219 1.219 0 0 0-.835-.323zm-.897 4.073v10.488h1.795v-10.488zM579.068 314.156c-.929 0-1.764.192-2.47.61-.703.416-1.249 1.025-1.666 1.828-.386.801-.578 1.796-.578 3.014 0 1.189.192 2.18.61 2.984.385.8.963 1.378 1.669 1.795a4.978 4.978 0 0 0 2.435.61c.803 0 1.541-.161 2.181-.418a3.535 3.535 0 0 0 1.541-1.281c.383-.546.577-1.252.577-2.087h-1.763c0 .738-.258 1.35-.738 1.733-.449.385-1.06.577-1.764.577-.643 0-1.189-.129-1.603-.449-.418-.32-.738-.769-.964-1.346-.225-.578-.32-1.315-.32-2.118 0-1.281.223-2.244.738-2.95.48-.707 1.186-1.058 2.15-1.058.703 0 1.28.191 1.698.577.448.386.674.93.737 1.604h1.764c-.032-.835-.223-1.507-.61-2.021a3.156 3.156 0 0 0-1.506-1.218c-.609-.257-1.315-.386-2.118-.386zM586.22 311.912v2.404h-1.732v1.444h1.732v5.646c0 .706.098 1.314.258 1.826.16.515.48.898.929 1.187.449.257 1.092.385 1.958.385h1.25v-1.475h-1.156c-.609 0-1.026-.16-1.186-.514-.16-.352-.255-.832-.255-1.475v-5.58h2.596v-1.444h-2.596v-2.404zM593.341 310.243c-.351 0-.64.128-.834.323a1.018 1.018 0 0 0-.29.737c0 .289.098.543.29.77.194.19.483.288.834.288.32 0 .61-.097.8-.289a1.04 1.04 0 0 0 .324-.769c0-.289-.098-.546-.323-.737a1.13 1.13 0 0 0-.8-.323zm-.929 4.073v10.488h1.795v-10.488zM601.231 315.568c.738 0 1.283.192 1.732.546.418.352.738.8.898 1.41.223.609.32 1.283.32 2.052 0 .77-.097 1.444-.32 2.053a2.702 2.702 0 0 1-.898 1.412c-.449.351-.994.511-1.732.511-.675 0-1.218-.16-1.635-.511a2.98 2.98 0 0 1-.932-1.412 7.927 7.927 0 0 1-.255-2.021c0-.8.095-1.475.255-2.084a2.958 2.958 0 0 1 .932-1.41c.417-.354.96-.546 1.635-.546zm0-1.443c-.995 0-1.83.223-2.533.64-.674.449-1.22 1.092-1.604 1.892-.354.835-.545 1.798-.545 2.92 0 1.122.191 2.083.545 2.886.384.835.93 1.444 1.604 1.861.704.449 1.538.64 2.533.64.995 0 1.86-.191 2.564-.64.74-.417 1.284-1.026 1.67-1.86.385-.804.577-1.765.577-2.888 0-1.12-.192-2.084-.577-2.919-.386-.8-.93-1.443-1.67-1.892-.703-.417-1.57-.64-2.564-.64zM613.643 314.222c-.866 0-1.604.191-2.181.543-.546.354-.995.738-1.315 1.155l-.032-1.604h-1.763v10.488h1.826v-7.44a5.06 5.06 0 0 1 1.187-1.124c.483-.352 1.123-.512 1.83-.512.48 0 .831.097 1.088.32.258.226.45.546.546.93.098.386.129.803.129 1.315v6.511h1.795v-6.766c0-1.22-.257-2.15-.737-2.824-.48-.672-1.25-.992-2.373-.992zM663.706 314.156c-.93 0-1.764.192-2.47.61-.703.416-1.25 1.025-1.635 1.828-.417.801-.609 1.796-.609 3.014 0 1.189.226 2.18.61 2.984.416.8.962 1.378 1.668 1.795a5.061 5.061 0 0 0 2.436.61c.803 0 1.54-.161 2.181-.418a3.534 3.534 0 0 0 1.54-1.281c.384-.546.578-1.252.61-2.087h-1.764c-.032.738-.289 1.35-.738 1.733-.483.385-1.057.577-1.795.577-.643 0-1.155-.129-1.604-.449-.417-.32-.74-.769-.963-1.346-.225-.578-.32-1.315-.32-2.118 0-1.281.257-2.244.738-2.95.48-.707 1.217-1.058 2.15-1.058.703 0 1.28.191 1.697.577.45.386.706.93.738 1.604h1.795c-.031-.835-.254-1.507-.64-2.021a3.156 3.156 0 0 0-1.507-1.218c-.609-.257-1.315-.386-2.118-.386zM676.504 319.705v2.18c-.386.515-.835.93-1.38 1.253-.544.32-1.155.48-1.827.48-.578 0-1.027-.16-1.315-.449-.29-.32-.45-.737-.45-1.252 0-.769.384-1.315 1.156-1.666.769-.355 2.052-.515 3.816-.546zm-2.15-5.58c-.8 0-1.506.128-2.115.385a2.786 2.786 0 0 0-1.475 1.153c-.355.514-.546 1.189-.546 2.055h1.732c0-.803.255-1.35.704-1.701.451-.354 1.028-.546 1.7-.546.61 0 1.124.16 1.541.515.415.32.609.929.609 1.826v.77c-1.347 0-2.567.096-3.562.288-1.026.16-1.827.483-2.372.995-.544.48-.832 1.186-.832 2.15 0 .64.126 1.217.414 1.635.289.448.643.803 1.124 1.026.48.226.994.32 1.54.32.8 0 1.507-.16 2.116-.449a5.142 5.142 0 0 0 1.603-1.283l.063 1.54h1.67v-7.023c0-.738-.097-1.347-.32-1.83-.226-.48-.515-.863-.867-1.12a3.552 3.552 0 0 0-1.283-.546 6.79 6.79 0 0 0-1.444-.16zM680.93 310.308v11.098c0 .706.096 1.314.256 1.826.192.515.48.898.93 1.187.448.257 1.123.385 1.957.385h.61v-1.475h-.484c-.64 0-1.026-.16-1.217-.514-.16-.352-.258-.832-.258-1.475v-11.032zM687.312 310.243c-.354 0-.609.128-.834.323a1.018 1.018 0 0 0-.29.737c0 .289.098.543.29.77.225.19.48.288.834.288.32 0 .61-.097.8-.289.227-.226.321-.48.321-.769 0-.289-.094-.546-.32-.737a1.13 1.13 0 0 0-.8-.323zm-.897 4.073v10.488h1.795v-10.488zM695.811 315.6c.835 0 1.444.32 1.86 1.026.416.675.61 1.635.61 2.919 0 1.283-.226 2.244-.643 2.95-.383.674-1.026 1.026-1.893 1.026-.672 0-1.28-.16-1.763-.48a3.53 3.53 0 0 1-1.121-1.347v-4.073a4.61 4.61 0 0 1 1.12-1.412c.515-.418 1.124-.61 1.83-.61zm-4.78-5.292v14.496h1.701l.095-1.475c.323.546.771.961 1.315 1.25.546.288 1.189.417 1.958.417.834 0 1.538-.192 2.15-.609.608-.417 1.057-1.026 1.377-1.827.32-.803.512-1.798.512-2.984 0-1.218-.16-2.212-.48-3.013-.352-.803-.8-1.412-1.378-1.83a3.891 3.891 0 0 0-2.118-.608c-.77 0-1.41.191-1.987.546-.546.383-.995.8-1.315 1.315v-5.678zM707.517 314.188c-.835 0-1.54.194-2.052.546-.515.385-.93.834-1.218 1.346l-.066-1.764h-1.698v10.488h1.795v-7.375a4.55 4.55 0 0 1 .77-.803c.32-.257.64-.449 1.057-.577.386-.16.835-.224 1.38-.224h.224v-1.637zM715.055 319.705v2.18c-.386.515-.835.93-1.38 1.253-.546.32-1.155.48-1.827.48-.578 0-1.026-.16-1.315-.449-.323-.32-.449-.737-.449-1.252 0-.769.383-1.315 1.152-1.666.772-.355 2.021-.515 3.82-.546zm-2.15-5.58c-.803 0-1.509.128-2.15.385a2.92 2.92 0 0 0-1.474 1.153c-.352.514-.512 1.189-.512 2.055h1.73c0-.803.225-1.35.706-1.701.449-.354 1.026-.546 1.7-.546.61 0 1.121.16 1.539.515.417.32.611.929.611 1.826v.77c-1.38 0-2.567.096-3.593.288-.995.16-1.795.483-2.341.995-.578.48-.835 1.186-.835 2.15 0 .64.129 1.217.417 1.635.29.448.64.803 1.124 1.026.449.226.96.32 1.538.32.803 0 1.509-.16 2.118-.449a5.142 5.142 0 0 0 1.604-1.283l.063 1.54h1.669v-7.023c0-.738-.097-1.347-.323-1.83-.223-.48-.512-.863-.898-1.12a3.16 3.16 0 0 0-1.249-.546 7.048 7.048 0 0 0-1.443-.16zM719.864 311.912v2.404h-1.73v1.444h1.73v5.646c0 .706.097 1.314.257 1.826.16.515.48.898.931 1.187.48.257 1.121.385 1.956.385h1.25v-1.475h-1.122c-.643 0-1.057-.16-1.22-.514-.16-.352-.255-.832-.255-1.475v-5.58h2.596v-1.444h-2.596v-2.404zM726.984 310.243c-.351 0-.609.128-.834.323a1.018 1.018 0 0 0-.29.737c0 .289.098.543.29.77.225.19.483.288.834.288.32 0 .61-.097.803-.289.223-.226.32-.48.32-.769a.931.931 0 0 0-.32-.737 1.14 1.14 0 0 0-.803-.323zm-.897 4.073v10.488h1.795v-10.488zM734.874 315.568c.738 0 1.315.192 1.732.546.418.352.738.8.93 1.41.194.609.288 1.283.288 2.052 0 .77-.094 1.444-.289 2.053a2.957 2.957 0 0 1-.929 1.412c-.417.351-.994.511-1.732.511-.675 0-1.218-.16-1.635-.511-.417-.355-.706-.803-.898-1.412-.194-.61-.289-1.284-.289-2.021 0-.8.095-1.475.29-2.084.19-.61.48-1.058.897-1.41.417-.354.96-.546 1.635-.546zm0-1.443c-.963 0-1.827.223-2.501.64a4.214 4.214 0 0 0-1.604 1.892c-.386.835-.546 1.798-.546 2.92 0 1.122.16 2.083.546 2.886.352.835.898 1.444 1.604 1.861.674.449 1.538.64 2.501.64 1.026 0 1.86-.191 2.598-.64.706-.417 1.25-1.026 1.636-1.86.385-.804.577-1.765.577-2.888 0-1.12-.192-2.084-.577-2.919-.386-.8-.93-1.443-1.636-1.892-.737-.417-1.572-.64-2.598-.64zM747.286 314.222c-.866 0-1.572.191-2.15.543-.577.354-1.026.738-1.314 1.155l-.063-1.604h-1.733v10.488h1.796v-7.44c.288-.386.706-.77 1.186-1.124.514-.352 1.123-.512 1.86-.512.45 0 .835.097 1.059.32.288.226.448.546.545.93.098.386.16.803.16 1.315v6.511h1.764v-6.766c0-1.22-.223-2.15-.706-2.824-.48-.672-1.28-.992-2.404-.992zM444.593 145.652v21.583h-4.139l5.517 11.034 5.517-11.034h-4.139V148.41h261.835v31.719h2.758v-34.478z"/>
    <path fill="var(--secondary-color)" fill-rule="evenodd" d="M444.593 145.652v21.583h-4.139l5.517 11.034 5.517-11.034h-4.139V148.41h129.538v31.719h2.759v-34.478zM522.848 116.337c.672 0 1.25.194 1.698.578.451.354.835.803 1.092 1.412v4.042c-.257.543-.64.96-1.124 1.346-.48.383-1.089.578-1.826.578-.803 0-1.444-.355-1.861-1.027-.418-.674-.61-1.635-.61-2.887 0-1.315.192-2.278.641-2.981.45-.706 1.092-1.06 1.99-1.06zm2.853-5.26v5.615a3.374 3.374 0 0 0-1.281-1.315c-.514-.32-1.155-.515-1.927-.515-.832 0-1.57.226-2.18.643-.641.415-1.121 1.026-1.442 1.827-.354.835-.514 1.83-.514 3.047 0 1.187.16 2.181.48 2.95.355.804.803 1.412 1.412 1.83a3.914 3.914 0 0 0 2.118.609c.77 0 1.441-.16 1.987-.515.546-.32.995-.737 1.315-1.28l.129 1.6h1.667v-14.496zM534.394 116.274c.832 0 1.475.257 1.955.77.449.514.675 1.251.706 2.246h-5.451c.094-.995.351-1.732.832-2.247.483-.512 1.123-.769 1.958-.769zm0-1.38c-1.027 0-1.893.225-2.567.674a4.577 4.577 0 0 0-1.538 1.924c-.32.803-.515 1.764-.515 2.824 0 1.027.195 1.956.546 2.79.32.8.866 1.441 1.572 1.924.704.48 1.604.738 2.693.738.866 0 1.604-.16 2.244-.45.612-.288 1.124-.705 1.444-1.22.354-.543.546-1.186.577-1.923h-1.795c0 .706-.226 1.252-.674 1.635-.415.354-1.027.546-1.796.546-.706 0-1.283-.16-1.732-.512a3.016 3.016 0 0 1-.93-1.38c-.225-.547-.32-1.187-.32-1.862h7.184c.032-.063.032-.191.032-.32v-.383c0-1.604-.386-2.856-1.155-3.722-.8-.866-1.86-1.283-3.27-1.283zM545.94 116.337c.8 0 1.443.355 1.858 1.027.417.706.643 1.669.643 2.952 0 1.25-.226 2.244-.643 2.916-.415.706-1.026 1.06-1.89 1.06-.706 0-1.283-.194-1.766-.545a3.795 3.795 0 0 1-1.152-1.315v-4.042a4.913 4.913 0 0 1 1.12-1.444c.483-.383 1.092-.609 1.83-.609zm.351-1.443c-.737 0-1.378.162-1.924.514-.577.352-1.026.8-1.377 1.378v-1.698h-1.798v14.367h1.763v-5.357c.355.515.804.932 1.35 1.22.543.29 1.186.45 1.955.45.8 0 1.506-.226 2.115-.61.612-.417 1.092-1.025 1.412-1.829.32-.834.48-1.826.48-3.013 0-1.189-.16-2.215-.48-3.015-.32-.804-.769-1.413-1.346-1.796-.609-.417-1.315-.611-2.15-.611zM556.748 116.274c.8 0 1.444.257 1.924.77.449.514.706 1.251.706 2.246h-5.454c.097-.995.386-1.732.835-2.247.48-.512 1.123-.769 1.99-.769zm0-1.38c-1.06 0-1.892.225-2.598.674-.675.48-1.187 1.124-1.541 1.924-.32.803-.48 1.764-.48 2.824 0 1.027.16 1.956.514 2.79.352.8.866 1.441 1.57 1.924.737.48 1.637.738 2.727.738.866 0 1.603-.16 2.212-.45a3.462 3.462 0 0 0 1.475-1.22c.32-.543.515-1.186.546-1.923h-1.764c-.031.706-.257 1.252-.706 1.635-.417.354-.994.546-1.763.546-.706 0-1.284-.16-1.733-.512a2.848 2.848 0 0 1-.96-1.38 5.606 5.606 0 0 1-.323-1.862h7.218v-.32c.031-.16.031-.289.031-.383 0-1.604-.417-2.856-1.186-3.722-.77-.866-1.861-1.283-3.239-1.283zM568.774 114.99c-.866 0-1.572.16-2.15.547-.577.351-1.026.737-1.314 1.155l-.032-1.604h-1.764v10.485h1.796v-7.438c.32-.417.706-.771 1.186-1.123.515-.352 1.123-.515 1.86-.515.481 0 .836.097 1.093.323.254.223.415.512.512.898a5.4 5.4 0 0 1 .16 1.315v6.54h1.795v-6.766c0-1.218-.255-2.147-.738-2.821-.48-.675-1.28-.995-2.404-.995zM578.654 116.337c.671 0 1.249.194 1.698.578.48.354.834.803 1.092 1.412v4.042c-.258.543-.643.96-1.124 1.346-.48.383-1.092.578-1.83.578-.8 0-1.409-.355-1.857-1.027-.418-.674-.61-1.635-.61-2.887 0-1.315.224-2.278.641-2.981.449-.706 1.09-1.06 1.99-1.06zm2.853-5.26v5.615a3.362 3.362 0 0 0-1.284-1.315c-.512-.32-1.155-.515-1.892-.515-.866 0-1.604.226-2.213.643-.64.415-1.12 1.026-1.443 1.827-.352.835-.512 1.83-.512 3.047 0 1.187.16 2.181.512 2.95.322.804.771 1.412 1.38 1.83a3.94 3.94 0 0 0 2.147.609c.772 0 1.412-.16 1.958-.515.546-.32.995-.737 1.315-1.28l.129 1.6h1.666v-14.496zM590.231 116.274c.8 0 1.444.257 1.924.77.449.514.706 1.251.706 2.246h-5.454c.097-.995.386-1.732.834-2.247.48-.512 1.124-.769 1.99-.769zm0-1.38c-1.06 0-1.892.225-2.598.674-.675.48-1.187 1.124-1.541 1.924-.32.803-.48 1.764-.48 2.824 0 1.027.16 1.956.514 2.79.352.8.866 1.441 1.57 1.924.737.48 1.637.738 2.727.738.866 0 1.603-.16 2.212-.45a3.462 3.462 0 0 0 1.475-1.22c.32-.543.515-1.186.546-1.923h-1.764c-.031.706-.257 1.252-.706 1.635-.417.354-.994.546-1.763.546-.706 0-1.284-.16-1.733-.512a2.848 2.848 0 0 1-.96-1.38 5.606 5.606 0 0 1-.323-1.862h7.218v-.32c.031-.16.031-.289.031-.383 0-1.604-.417-2.856-1.186-3.722-.77-.866-1.861-1.283-3.239-1.283zM602.257 114.99c-.866 0-1.572.16-2.15.547-.577.351-1.026.737-1.314 1.155l-.032-1.604h-1.764v10.485h1.796v-7.438c.32-.417.706-.771 1.186-1.123.514-.352 1.123-.515 1.86-.515.481 0 .836.097 1.093.323.254.223.414.512.512.898.097.383.16.832.16 1.315v6.54h1.795v-6.766c0-1.218-.255-2.147-.738-2.821-.48-.675-1.28-.995-2.404-.995zM612.36 114.894c-.93 0-1.764.225-2.47.611-.706.415-1.25 1.026-1.635 1.827-.418.835-.61 1.83-.61 3.016s.192 2.18.61 2.981c.385.804.963 1.412 1.666 1.796.706.417 1.54.611 2.439.611.803 0 1.54-.128 2.18-.417a3.714 3.714 0 0 0 1.541-1.252c.384-.577.575-1.284.575-2.116h-1.764c0 .77-.254 1.347-.703 1.733-.483.414-1.06.609-1.798.609-.64 0-1.155-.16-1.604-.483-.417-.289-.737-.738-.96-1.347-.226-.577-.32-1.283-.32-2.115 0-1.252.223-2.247.737-2.95.48-.706 1.186-1.06 2.147-1.06.706 0 1.284.225 1.7.608.45.386.675.9.738 1.572h1.764c0-.8-.226-1.475-.609-2.02-.354-.544-.866-.93-1.506-1.187-.612-.289-1.315-.417-2.118-.417zM617.49 115.088l4.043 10.485-.418.932c-.191.512-.448.898-.706 1.124-.257.223-.608.32-1.057.32h-.898v1.506h1.09c.577 0 1.091-.097 1.474-.257.418-.16.772-.449 1.06-.832.29-.386.544-.9.801-1.572l.48-1.22 3.754-10.486h-1.83l-2.821 8.562-3.079-8.562z"/>
    <path fill="none" d="M382.31 245.618h-69.436"/>
    <path stroke="var(--secondary-color)" stroke-linecap="butt" stroke-miterlimit="12.219" stroke-width="2.759" d="M382.31 245.618h-69.436"/>
  </g>
</svg>
